<svg width="45" height="45" viewBox="0 0 45 45" fill="none" xmlns="http://www.w3.org/2000/svg">
<path d="M45 22.5C45 10.0736 34.9264 0 22.5 0C10.0736 0 0 10.0736 0 22.5C0 34.9264 10.0736 45 22.5 45C34.9264 45 45 34.9264 45 22.5Z" fill="url(#paint0_linear_166_51)"/>
<path d="M18.6838 10.1394C20.838 10.1394 22.5845 11.8858 22.5845 14.0401C22.5845 16.1943 20.838 17.9408 18.6838 17.9408C16.5295 17.9408 14.7831 16.1943 14.7831 14.0401C14.7831 11.8858 16.5294 10.1394 18.6838 10.1394ZM12.3987 24.7591C12.3987 24.4662 12.5869 24.2676 12.8902 24.2676C13.1934 24.2676 13.3816 24.4558 13.3816 24.7591V35.6559H24.1007V24.7591C24.1007 24.4662 24.2889 24.2676 24.5921 24.2676C24.885 24.2676 25.0836 24.4558 25.0836 24.7591V35.6559H28.4929V23.7761C28.4929 21.0886 26.2968 18.9029 23.6196 18.9029H22.6366L19.7713 23.3578L19.4262 20.0218L19.8968 18.8923H17.7844L18.255 20.0218L17.889 23.3786L15.0236 18.9029H13.8732C11.1857 18.9029 9 21.099 9 23.7761V35.656H12.4092V24.7592L12.3987 24.7591ZM32.5794 19.9037C35.8547 19.9037 38.5312 17.2447 38.5312 13.9518C38.5312 10.659 35.8723 8 32.5794 8C29.2866 8 26.6452 10.6766 26.6452 13.9694C26.6453 17.2447 29.3041 19.9037 32.5794 19.9037ZM32.2507 14.4566C31.159 14.075 30.4781 13.5233 30.4781 12.543C30.4781 11.6391 31.0768 10.9289 32.1744 10.7059V9.72559H32.9961V10.6589C33.677 10.6589 34.1701 10.7997 34.534 10.9934L34.1994 12.1674C33.9294 12.0559 33.4891 11.8681 32.8846 11.8681C32.28 11.8681 31.9513 12.1674 31.9513 12.4668C31.9513 12.8777 32.3329 13.0361 33.1546 13.3707C34.2757 13.7816 34.7981 14.351 34.7981 15.2843C34.7981 16.2175 34.2288 16.9278 33.0255 17.1978V18.1311H32.2038V17.2272C31.4936 17.2272 30.7775 17.0394 30.4313 16.8457L30.7305 15.6424C31.1121 15.8302 31.7108 16.0532 32.3447 16.0532C33.0255 16.0532 33.3601 15.7539 33.3601 15.343C33.3601 14.932 33.0373 14.7618 32.2507 14.4566Z" fill="white" stroke="white" stroke-width="0.25"/>
<defs>
<linearGradient id="paint0_linear_166_51" x1="22.5" y1="0" x2="22.5" y2="45" gradientUnits="userSpaceOnUse">
<stop stop-color="#E44642"/>
<stop offset="1" stop-color="#7E2725"/>
</linearGradient>
</defs>
</svg>
