<svg width="45" height="45" viewBox="0 0 45 45" fill="none" xmlns="http://www.w3.org/2000/svg">
<path d="M45 22.5C45 10.0736 34.9264 0 22.5 0C10.0736 0 0 10.0736 0 22.5C0 34.9264 10.0736 45 22.5 45C34.9264 45 45 34.9264 45 22.5Z" fill="url(#paint0_linear_161_34)"/>
<g clip-path="url(#clip0_161_34)">
<path d="M36.5303 14.4531C36.7897 14.4531 37 14.2428 37 13.9833V9.47389C37 8.10982 35.8902 7 34.5261 7H9.47389C8.10982 7 7 8.10982 7 9.47389V27.5114C7 28.8756 8.10982 29.9853 9.47389 29.9853H11.9791C12.2385 29.9853 12.4489 29.7751 12.4489 29.5156C12.4489 29.2561 12.2386 29.0458 11.9791 29.0458H9.47389C8.62779 29.0458 7.93943 28.3575 7.93943 27.5114V27.4801H36.0605V27.5114C36.0605 28.3575 35.3722 29.0458 34.5261 29.0458H13.9833C13.7239 29.0458 13.5136 29.2561 13.5136 29.5156C13.5136 29.775 13.7239 29.9853 13.9833 29.9853H18.932L18.1919 34.0563H17.4906C16.679 34.0563 16.0188 34.7165 16.0188 35.5281V36.5302C16.0188 36.7896 16.2291 36.9999 16.4886 36.9999H27.5115C27.771 36.9999 27.9812 36.7897 27.9812 36.5302V35.5281C27.9812 34.7165 27.321 34.0563 26.5094 34.0563H25.8083L25.0681 29.9853H34.5262C35.8903 29.9853 37.0001 28.8755 37.0001 27.5114V15.9876C37.0001 15.7282 36.7898 15.5179 36.5303 15.5179C36.2709 15.5179 36.0606 15.7281 36.0606 15.9876V26.5407H7.93943V10.4447H36.0605V13.9834C36.0606 14.2428 36.2708 14.4531 36.5303 14.4531ZM19.8868 29.9854H24.1131L24.8533 34.0564H19.1466L19.8868 29.9854ZM26.5094 34.9958C26.8029 34.9958 27.0418 35.2346 27.0418 35.5282V36.0606H16.9582V35.5282C16.9582 35.2346 17.1971 34.9958 17.4906 34.9958H26.5094ZM7.93943 9.50523V9.47395C7.93943 8.62779 8.62779 7.93949 9.47389 7.93949H34.5261C35.3722 7.93949 36.0605 8.62779 36.0605 9.47395V9.50523H7.93943Z" fill="white" stroke="white" stroke-width="0.125"/>
<path d="M33.023 12.0103H32.6539L32.854 11.8102C33.0375 11.6267 33.0375 11.3293 32.854 11.1458C32.6705 10.9625 32.3732 10.9625 32.1897 11.1458L31.5198 11.8158L30.8499 11.1458C30.6664 10.9625 30.369 10.9625 30.1856 11.1458C30.0021 11.3294 30.0021 11.6267 30.1856 11.8102L30.3857 12.0103H30.0166C29.7572 12.0103 29.5469 12.2206 29.5469 12.4801V15.0166H22.5011C20.8607 15.0166 19.5261 16.3512 19.5261 17.9915C19.5261 19.6319 20.8607 20.9665 22.5011 20.9665H29.5157C30.6381 20.9665 31.5511 21.8795 31.5511 23.0019C31.5511 24.1244 30.6381 25.0374 29.5157 25.0374H15.4611C15.8429 24.5459 16.3577 23.8595 16.8772 23.0938C18.2609 21.0545 18.9625 19.5064 18.9625 18.4926C18.9625 16.0234 16.9536 14.0145 14.4844 14.0145C12.0152 14.0145 10.0063 16.0234 10.0063 18.4926C10.0063 19.5064 10.7079 21.0545 12.0915 23.0938C13.0857 24.5591 14.0631 25.7355 14.1218 25.8058C14.223 25.907 14.3361 25.9769 14.4844 25.9769H29.5157C31.156 25.9769 32.4906 24.6423 32.4906 23.0019C32.4906 21.3616 31.156 20.027 29.5157 20.027H22.5011C21.3787 20.027 20.4656 19.114 20.4656 17.9915C20.4656 16.8691 21.3787 15.956 22.5011 15.956H30.0167H33.023C33.2824 15.956 33.4927 15.7458 33.4927 15.4863V12.4801C33.4927 12.2206 33.2825 12.0103 33.023 12.0103ZM10.9457 18.4926C10.9457 16.5415 12.5331 14.954 14.4844 14.954C16.4356 14.954 18.023 16.5414 18.023 18.4926C18.023 20.0052 15.7282 23.2004 14.4844 24.7629C13.2405 23.2003 10.9457 20.0052 10.9457 18.4926ZM30.4864 12.9498H31.0501V13.5135H30.4864V12.9498ZM30.4864 15.0166V14.4529H31.0501V14.9853C31.0501 14.9959 31.051 15.0062 31.0517 15.0166H30.4864ZM32.5533 15.0166H31.988C31.9887 15.0062 31.9896 14.9959 31.9896 14.9853V14.4529H32.522C32.5326 14.4529 32.5429 14.4521 32.5533 14.4514V15.0166ZM32.5533 13.5151C32.5429 13.5144 32.5325 13.5135 32.522 13.5135H31.9896V12.9498H32.5533V13.5151Z" fill="white" stroke="white" stroke-width="0.125"/>
<path d="M14.4844 16.0188C13.1203 16.0188 12.0105 17.1286 12.0105 18.4927C12.0105 19.8567 13.1203 20.9666 14.4844 20.9666C15.8484 20.9666 16.9583 19.8567 16.9583 18.4927C16.9583 17.1286 15.8484 16.0188 14.4844 16.0188ZM14.4844 20.0271C13.6383 20.0271 12.9499 19.3388 12.9499 18.4927C12.9499 17.6465 13.6383 16.9582 14.4844 16.9582C15.3305 16.9582 16.0188 17.6465 16.0188 18.4927C16.0188 19.3388 15.3304 20.0271 14.4844 20.0271Z" fill="white" stroke="white" stroke-width="0.125"/>
</g>
<defs>
<linearGradient id="paint0_linear_161_34" x1="22.5" y1="0" x2="22.5" y2="45" gradientUnits="userSpaceOnUse">
<stop stop-color="#E44642"/>
<stop offset="1" stop-color="#7E2725"/>
</linearGradient>
<clipPath id="clip0_161_34">
<rect width="30" height="30" fill="white" transform="translate(7 7)"/>
</clipPath>
</defs>
</svg>
