<svg width="45" height="45" viewBox="0 0 45 45" fill="none" xmlns="http://www.w3.org/2000/svg">
<path d="M45 22.5C45 10.0736 34.9264 0 22.5 0C10.0736 0 0 10.0736 0 22.5C0 34.9264 10.0736 45 22.5 45C34.9264 45 45 34.9264 45 22.5Z" fill="url(#paint0_linear_161_33)"/>
<g clip-path="url(#clip0_161_33)">
<path d="M34.0547 20.6992C34.0078 20.6992 33.9609 20.7109 33.9141 20.7109C33.9375 20.4766 33.9492 20.2422 33.9492 20.0195C33.9492 16.0352 30.7266 12.8125 26.7422 12.8125C23.1094 12.8125 20.0977 15.5078 19.6289 19.0117C19.1367 18.8477 18.6445 18.7539 18.1172 18.7539C15.3867 18.7539 13.1602 20.9805 13.1602 23.7109C13.1602 23.7344 13.1719 23.7578 13.1719 23.7695C12.9492 23.7344 12.7148 23.7109 12.4922 23.7109C10.5352 23.7109 8.97656 25.2813 8.97656 27.2148C8.97656 29.1484 10.5352 30.6133 12.4805 30.6133C12.4805 30.6133 33.9023 30.6133 34.0547 30.6133C36.7852 30.6133 39.0117 28.3867 39.0117 25.6563C39.0117 22.9258 36.7852 20.6992 34.0547 20.6992ZM23.9883 28.75C21.75 28.75 19.9219 26.9453 19.8633 24.7188H18.7852L20.5195 22.9961L22.2773 24.7305H21.1875C21.2461 26.2188 22.4766 27.4258 23.9766 27.4258C24.7148 27.4258 25.3945 27.1328 25.8867 26.6641L26.8359 27.6133C26.1094 28.3164 25.0898 28.75 23.9883 28.75ZM27.4453 26.4766L25.6875 24.7188H26.7656C26.7656 24.6836 26.7656 24.6484 26.7656 24.6133C26.7656 23.0781 25.5117 21.8242 23.9766 21.8242C23.1797 21.8242 22.4531 22.1641 21.9492 22.7031L21 21.7539C21.75 20.9688 22.8047 20.4883 23.9766 20.4883C26.2617 20.4883 28.1133 22.3398 28.1133 24.6133C28.1133 24.6484 28.1133 24.6836 28.1133 24.7188H29.1914L27.4453 26.4766Z" fill="white" stroke="white" stroke-width="0.25"/>
</g>
<defs>
<linearGradient id="paint0_linear_161_33" x1="22.5" y1="0" x2="22.5" y2="45" gradientUnits="userSpaceOnUse">
<stop stop-color="#E44642"/>
<stop offset="1" stop-color="#7E2725"/>
</linearGradient>
<clipPath id="clip0_161_33">
<rect width="30" height="30" fill="white" transform="translate(9 7)"/>
</clipPath>
</defs>
</svg>
