<svg width="45" height="45" viewBox="0 0 45 45" fill="none" xmlns="http://www.w3.org/2000/svg">
<path d="M45 22.5C45 10.0736 34.9264 0 22.5 0C10.0736 0 0 10.0736 0 22.5C0 34.9264 10.0736 45 22.5 45C34.9264 45 45 34.9264 45 22.5Z" fill="url(#paint0_linear_161_36)"/>
<g clip-path="url(#clip0_161_36)">
<path d="M35.8915 11H10.1085C8.946 11 8 11.946 8 13.1085V13.5V18.5V30.8915C8 32.054 8.946 33 10.1085 33H35.8915C37.054 33 38 32.054 38 30.8915V18.5V13.5V13.1085C38 11.946 37.054 11 35.8915 11ZM9.5 15C9.776 15 10 14.776 10 14.5H12C12 14.776 12.224 15 12.5 15C12.776 15 13 14.776 13 14.5H15C15 14.776 15.224 15 15.5 15C15.776 15 16 14.776 16 14.5H18C18 14.776 18.224 15 18.5 15C18.776 15 19 14.776 19 14.5H21C21 14.776 21.224 15 21.5 15C21.776 15 22 14.776 22 14.5H24C24 14.776 24.224 15 24.5 15C24.776 15 25 14.776 25 14.5H27C27 14.776 27.224 15 27.5 15C27.776 15 28 14.776 28 14.5H30C30 14.776 30.224 15 30.5 15C30.776 15 31 14.776 31 14.5H33C33 14.776 33.224 15 33.5 15C33.776 15 34 14.776 34 14.5H36C36 14.776 36.224 15 36.5 15C36.776 15 37 14.776 37 14.5V17.5C37 17.224 36.776 17 36.5 17C36.224 17 36 17.224 36 17.5H34C34 17.224 33.776 17 33.5 17C33.224 17 33 17.224 33 17.5H31C31 17.224 30.776 17 30.5 17C30.224 17 30 17.224 30 17.5H28C28 17.224 27.776 17 27.5 17C27.224 17 27 17.224 27 17.5H25C25 17.224 24.776 17 24.5 17C24.224 17 24 17.224 24 17.5H22C22 17.224 21.776 17 21.5 17C21.224 17 21 17.224 21 17.5H19C19 17.224 18.776 17 18.5 17C18.224 17 18 17.224 18 17.5H16C16 17.224 15.776 17 15.5 17C15.224 17 15 17.224 15 17.5H13C13 17.224 12.776 17 12.5 17C12.224 17 12 17.224 12 17.5H10C10 17.224 9.776 17 9.5 17C9.224 17 9 17.224 9 17.5V14.5C9 14.776 9.224 15 9.5 15ZM37 30.8915C37 31.5025 36.503 32 35.8915 32H10.1085C9.497 32 9 31.5025 9 30.8915V18.5H37V30.8915ZM9 13.5V13.1085C9 12.4975 9.497 12 10.1085 12H35.8915C36.503 12 37 12.4975 37 13.1085V13.5H9Z" fill="white" stroke="white" stroke-width="1.06667"/>
<path d="M11.5 21.5H16C16.2765 21.5 16.5 21.276 16.5 21C16.5 20.724 16.2765 20.5 16 20.5H11.5C11.2235 20.5 11 20.724 11 21C11 21.276 11.2235 21.5 11.5 21.5Z" fill="white" stroke="white" stroke-width="1.06667"/>
<path d="M18 21.5H22.5C22.7765 21.5 23 21.276 23 21C23 20.724 22.7765 20.5 22.5 20.5H18C17.7235 20.5 17.5 20.724 17.5 21C17.5 21.276 17.7235 21.5 18 21.5Z" fill="white" stroke="white" stroke-width="1.06667"/>
<path d="M11.5 24H12C12.2765 24 12.5 23.776 12.5 23.5C12.5 23.224 12.2765 23 12 23H11.5C11.2235 23 11 23.224 11 23.5C11 23.776 11.2235 24 11.5 24Z" fill="white" stroke="white" stroke-width="1.06667"/>
<path d="M15 23H14C13.7235 23 13.5 23.224 13.5 23.5C13.5 23.776 13.7235 24 14 24H15C15.2765 24 15.5 23.776 15.5 23.5C15.5 23.224 15.2765 23 15 23Z" fill="white" stroke="white" stroke-width="1.06667"/>
<path d="M17 24H17.5C17.7765 24 18 23.776 18 23.5C18 23.224 17.7765 23 17.5 23H17C16.7235 23 16.5 23.224 16.5 23.5C16.5 23.776 16.7235 24 17 24Z" fill="white" stroke="white" stroke-width="1.06667"/>
<path d="M20.5 23H19.5C19.2235 23 19 23.224 19 23.5C19 23.776 19.2235 24 19.5 24H20.5C20.7765 24 21 23.776 21 23.5C21 23.224 20.7765 23 20.5 23Z" fill="white" stroke="white" stroke-width="1.06667"/>
<path d="M22.145 23.1451C22.0545 23.2401 22 23.3701 22 23.5001C22 23.6301 22.0545 23.7601 22.145 23.8551C22.2395 23.9451 22.3645 24.0001 22.5 24.0001C22.63 24.0001 22.76 23.9451 22.855 23.8551C22.945 23.7601 23 23.6301 23 23.5001C23 23.3701 22.945 23.2401 22.855 23.1451C22.67 22.9601 22.33 22.9601 22.145 23.1451Z" fill="white" stroke="white" stroke-width="1.06667"/>
<path d="M20 16.5C20.2761 16.5 20.5 16.2761 20.5 16C20.5 15.7239 20.2761 15.5 20 15.5C19.7239 15.5 19.5 15.7239 19.5 16C19.5 16.2761 19.7239 16.5 20 16.5Z" fill="white" stroke="white" stroke-width="1.06667"/>
<path d="M23 16.5C23.2761 16.5 23.5 16.2761 23.5 16C23.5 15.7239 23.2761 15.5 23 15.5C22.7239 15.5 22.5 15.7239 22.5 16C22.5 16.2761 22.7239 16.5 23 16.5Z" fill="white" stroke="white" stroke-width="1.06667"/>
<path d="M17 16.5C17.2761 16.5 17.5 16.2761 17.5 16C17.5 15.7239 17.2761 15.5 17 15.5C16.7239 15.5 16.5 15.7239 16.5 16C16.5 16.2761 16.7239 16.5 17 16.5Z" fill="white" stroke="white" stroke-width="1.06667"/>
<path d="M11 16.5C11.2761 16.5 11.5 16.2761 11.5 16C11.5 15.7239 11.2761 15.5 11 15.5C10.7239 15.5 10.5 15.7239 10.5 16C10.5 16.2761 10.7239 16.5 11 16.5Z" fill="white" stroke="white" stroke-width="1.06667"/>
<path d="M14 16.5C14.2761 16.5 14.5 16.2761 14.5 16C14.5 15.7239 14.2761 15.5 14 15.5C13.7239 15.5 13.5 15.7239 13.5 16C13.5 16.2761 13.7239 16.5 14 16.5Z" fill="white" stroke="white" stroke-width="1.06667"/>
<path d="M35 16.5C35.2761 16.5 35.5 16.2761 35.5 16C35.5 15.7239 35.2761 15.5 35 15.5C34.7239 15.5 34.5 15.7239 34.5 16C34.5 16.2761 34.7239 16.5 35 16.5Z" fill="white" stroke="white" stroke-width="1.06667"/>
<path d="M32 16.5C32.2761 16.5 32.5 16.2761 32.5 16C32.5 15.7239 32.2761 15.5 32 15.5C31.7239 15.5 31.5 15.7239 31.5 16C31.5 16.2761 31.7239 16.5 32 16.5Z" fill="white" stroke="white" stroke-width="1.06667"/>
<path d="M26 16.5C26.2761 16.5 26.5 16.2761 26.5 16C26.5 15.7239 26.2761 15.5 26 15.5C25.7239 15.5 25.5 15.7239 25.5 16C25.5 16.2761 25.7239 16.5 26 16.5Z" fill="white" stroke="white" stroke-width="1.06667"/>
<path d="M29 16.5C29.2761 16.5 29.5 16.2761 29.5 16C29.5 15.7239 29.2761 15.5 29 15.5C28.7239 15.5 28.5 15.7239 28.5 16C28.5 16.2761 28.7239 16.5 29 16.5Z" fill="white" stroke="white" stroke-width="1.06667"/>
<path d="M35 24H26V30H35V24ZM34 29H27V25H34V29Z" fill="white" stroke="white" stroke-width="1.06667"/>
</g>
<defs>
<linearGradient id="paint0_linear_161_36" x1="22.5" y1="0" x2="22.5" y2="45" gradientUnits="userSpaceOnUse">
<stop stop-color="#E44642"/>
<stop offset="1" stop-color="#7E2725"/>
</linearGradient>
<clipPath id="clip0_161_36">
<rect width="30" height="30" fill="white" transform="translate(8 7)"/>
</clipPath>
</defs>
</svg>
