<svg width="45" height="45" viewBox="0 0 45 45" fill="none" xmlns="http://www.w3.org/2000/svg">
<path d="M45 22.5C45 10.0736 34.9264 0 22.5 0C10.0736 0 0 10.0736 0 22.5C0 34.9264 10.0736 45 22.5 45C34.9264 45 45 34.9264 45 22.5Z" fill="url(#paint0_linear_161_35)"/>
<path d="M29.3562 28.9516V33.3719H11.7219V16.6563L17.3281 10.6282H29.3562V16.9797" stroke="white" stroke-width="3"/>
<path d="M17.3375 10.6282L17.3281 16.6563H11.7219" stroke="white" stroke-width="3"/>
<path d="M14.1359 29.3455H22.5781" stroke="white" stroke-width="3"/>
<path d="M14.1359 26.2844H21.6406" stroke="white" stroke-width="3"/>
<path d="M14.1359 23.425H23.5156" stroke="white" stroke-width="3"/>
<path d="M14.1359 20.5657H26.3281" stroke="white" stroke-width="3"/>
<path d="M24.1485 27.2642L24.2188 29.2799C24.2197 29.3147 24.2285 29.3489 24.2445 29.3799C24.2606 29.4108 24.2835 29.4377 24.3115 29.4585C24.3395 29.4793 24.3719 29.4934 24.4062 29.4998C24.4405 29.5062 24.4758 29.5047 24.5094 29.4955L26.4453 28.9752C26.5106 28.9616 26.5678 28.9229 26.6047 28.8674L35.075 17.4111C35.12 17.3502 35.1525 17.281 35.1706 17.2075C35.1888 17.134 35.1924 17.0576 35.1811 16.9827C35.1698 16.9079 35.1438 16.836 35.1047 16.7711C35.0656 16.7063 35.0141 16.6498 34.9531 16.6049L33.4813 15.508C33.4206 15.4624 33.3514 15.4294 33.2778 15.4109C33.2042 15.3923 33.1276 15.3886 33.0526 15.4C32.9776 15.4113 32.9055 15.4375 32.8407 15.477C32.7759 15.5164 32.7196 15.5684 32.675 15.6299L24.2047 27.0814C24.1674 27.135 24.1477 27.1989 24.1485 27.2642Z" stroke="white" stroke-width="3"/>
<path d="M31.5312 17.1719L33.9078 18.9859" stroke="white" stroke-width="3"/>
<defs>
<linearGradient id="paint0_linear_161_35" x1="22.5" y1="0" x2="22.5" y2="45" gradientUnits="userSpaceOnUse">
<stop stop-color="#E44642"/>
<stop offset="1" stop-color="#7E2725"/>
</linearGradient>
</defs>
</svg>
