<svg width="45" height="45" viewBox="0 0 45 45" fill="none" xmlns="http://www.w3.org/2000/svg">
<path d="M45 22.5C45 10.0736 34.9264 0 22.5 0C10.0736 0 0 10.0736 0 22.5C0 34.9264 10.0736 45 22.5 45C34.9264 45 45 34.9264 45 22.5Z" fill="url(#paint0_linear_161_37)"/>
<path fill-rule="evenodd" clip-rule="evenodd" d="M13.3227 13.3005C13.2002 13.3005 13.1003 13.2032 13.1003 13.0809C13.1003 12.9586 13.2002 12.8612 13.3227 12.8612H15.5915C15.7082 12.8612 15.811 12.9586 15.811 13.0809C15.811 13.2032 15.7082 13.3005 15.5915 13.3005H13.3227ZM13.3227 14.2514C13.2002 14.2514 13.1003 14.1512 13.1003 14.0317C13.1003 13.9094 13.2002 13.8121 13.3227 13.8121H16.9982C17.1207 13.8121 17.2207 13.9094 17.2207 14.0317C17.2207 14.1513 17.1207 14.2514 16.9982 14.2514H13.3227ZM13.3227 15.2022C13.2002 15.2022 13.1003 15.1021 13.1003 14.9797C13.1003 14.8602 13.2002 14.7602 13.3227 14.7602H18.227C18.3467 14.7602 18.444 14.8603 18.444 14.9797C18.444 15.1021 18.3466 15.2022 18.227 15.2022H13.3227ZM13.3227 16.1503C13.2002 16.1503 13.1003 16.0529 13.1003 15.9307C13.1003 15.8083 13.2002 15.711 13.3227 15.711H15.5915C15.7082 15.711 15.811 15.8084 15.811 15.9307C15.811 16.053 15.7082 16.1503 15.5915 16.1503H13.3227ZM35.1233 10.9289C34.9033 10.7119 34.6062 10.5785 34.2805 10.5785H11.6072C11.282 10.5785 10.9815 10.7119 10.7649 10.9289C10.5478 11.1457 10.4146 11.4432 10.4146 11.7712V28.0945C10.4146 28.4225 10.5478 28.7229 10.7649 28.9369C10.9815 29.1538 11.282 29.29 11.6072 29.29H34.2805C34.6061 29.29 34.9033 29.1537 35.1204 28.9397C35.337 28.7229 35.4706 28.4226 35.4706 28.0946V11.7712C35.4706 11.4432 35.337 11.1457 35.1233 10.9289ZM34.0195 24.8999V12.0159H11.8102V24.8999H34.0195ZM34.4614 11.7963V25.1196C34.4614 25.2419 34.3639 25.342 34.2419 25.342H11.5903C11.4682 25.342 11.3708 25.2419 11.3708 25.1196V11.7963C11.3708 11.6739 11.4683 11.5766 11.5903 11.5766H34.2419C34.3639 11.5766 34.4614 11.674 34.4614 11.7963ZM23.165 27.8137C23.1066 27.7581 23.0285 27.7248 22.9426 27.7248C22.8562 27.7248 22.7757 27.7581 22.7202 27.8137C22.6642 27.8721 22.6309 27.9499 22.6309 28.0362C22.6309 28.1224 22.6642 28.2002 22.7202 28.2559C22.7757 28.3142 22.8562 28.3476 22.9426 28.3476C23.0285 28.3476 23.1066 28.3142 23.165 28.2559C23.2205 28.2002 23.2538 28.1224 23.2538 28.0362C23.2538 27.9499 23.2204 27.8721 23.165 27.8137ZM22.9426 27.2826C23.1482 27.2826 23.3401 27.3688 23.4762 27.5051C23.6099 27.6386 23.6962 27.8276 23.6962 28.0362C23.6962 28.2447 23.6099 28.4309 23.4762 28.5672C23.3401 28.7034 23.1482 28.7896 22.9426 28.7896C22.7367 28.7896 22.5475 28.7034 22.4115 28.5672C22.2754 28.4309 22.1919 28.2447 22.1919 28.0362C22.1919 27.8276 22.2754 27.6386 22.4085 27.5051C22.5475 27.3688 22.7342 27.2826 22.9426 27.2826ZM18.0991 19.2225H16.8868V21.8471H18.0991V19.2225ZM16.6702 18.7804H18.319C18.4383 18.7804 18.5387 18.8806 18.5387 19.0001V22.0668C18.5387 22.1863 18.4384 22.2864 18.319 22.2864H16.6702C16.5477 22.2864 16.4478 22.1863 16.4478 22.0668V19.0001C16.4478 18.8806 16.5477 18.7804 16.6702 18.7804ZM20.8099 16.1559H19.6004V21.8471H20.8099V16.1559ZM19.378 15.7165H21.0297C21.1519 15.7165 21.2492 15.8139 21.2492 15.9362V22.0668C21.2492 22.1863 21.1519 22.2864 21.0297 22.2864H19.378C19.2559 22.2864 19.1585 22.1863 19.1585 22.0668V15.9362C19.1585 15.8139 19.256 15.7165 19.378 15.7165ZM23.521 17.749H22.3116V21.8471H23.521V17.749ZM22.0917 17.3069H23.7434C23.8627 17.3069 23.9601 17.4042 23.9601 17.5266V22.0669C23.9601 22.1864 23.8627 22.2865 23.7434 22.2865H22.0917C21.9695 22.2865 21.8692 22.1864 21.8692 22.0669V17.5266C21.8692 17.4042 21.9695 17.3069 22.0917 17.3069ZM26.2318 18.8694H25.0223V21.8471H26.2318V18.8694ZM24.7999 18.4274H26.4513C26.5738 18.4274 26.6737 18.5275 26.6737 18.647V22.0668C26.6737 22.1863 26.5738 22.2864 26.4513 22.2864H24.7999C24.6803 22.2864 24.5829 22.1863 24.5829 22.0668V18.647C24.5829 18.5274 24.6803 18.4274 24.7999 18.4274ZM28.9425 16.8342H27.733V21.8471H28.9425V16.8342ZM27.5135 16.3949H29.1649C29.2875 16.3949 29.3844 16.4951 29.3844 16.6146V22.0668C29.3844 22.1863 29.2875 22.2864 29.1649 22.2864H27.5135C27.391 22.2864 27.2936 22.1863 27.2936 22.0668V16.6146C27.2936 16.495 27.391 16.3949 27.5135 16.3949ZM16.5144 35.2316H14.9715V34.1139C14.9715 33.9916 15.0685 33.8914 15.191 33.8914H19.1169L20.212 29.7292H25.6754L26.771 33.8914H30.694C30.8137 33.8914 30.9136 33.9916 30.9136 34.1139V35.2316H29.3704V34.3336H16.5144V35.2316ZM8.9688 17.5599C8.9688 17.6822 8.86848 17.7796 8.74886 17.7796C8.62673 17.7796 8.52936 17.6822 8.52936 17.5599V10.5646C8.52936 10.0725 8.72955 9.62212 9.05467 9.2968C9.3803 8.97149 9.83042 8.76855 10.32 8.76855H14.3401C14.4626 8.76855 14.5625 8.86868 14.5625 8.99099C14.5625 9.11055 14.4626 9.21062 14.3401 9.21062H10.32C9.95011 9.21062 9.61092 9.36355 9.3663 9.60818C9.12173 9.85287 8.9688 10.1921 8.9688 10.5646V17.5599ZM14.8572 23.2874C14.7375 23.2874 14.6377 23.1901 14.6377 23.0705C14.6377 22.9481 14.7376 22.8481 14.8572 22.8481H30.972C31.0945 22.8481 31.1944 22.9481 31.1944 23.0705C31.1944 23.1901 31.0945 23.2874 30.972 23.2874H14.8572Z" fill="white" stroke="white" stroke-width="0.125"/>
<defs>
<linearGradient id="paint0_linear_161_37" x1="22.5" y1="0" x2="22.5" y2="45" gradientUnits="userSpaceOnUse">
<stop stop-color="#E44642"/>
<stop offset="1" stop-color="#7E2725"/>
</linearGradient>
</defs>
</svg>
