<svg width="46" height="46" viewBox="0 0 46 46" fill="none" xmlns="http://www.w3.org/2000/svg">
<path d="M45.75 23.4375C45.75 11.0111 35.6764 0.9375 23.25 0.9375C10.8236 0.9375 0.75 11.0111 0.75 23.4375C0.75 35.8639 10.8236 45.9375 23.25 45.9375C35.6764 45.9375 45.75 35.8639 45.75 23.4375Z" fill="url(#paint0_linear_161_32)"/>
<g clip-path="url(#clip0_161_32)">
<path d="M34.1246 22.6902C33.623 20.3339 32.346 18.1506 30.5287 16.5426C30.3388 16.3745 30.0486 16.3922 29.8806 16.5821C29.7125 16.772 29.7302 17.0623 29.9201 17.2303C31.5913 18.709 32.7655 20.716 33.2264 22.8814C33.2723 23.0972 33.4629 23.2451 33.675 23.2451C33.7067 23.2451 33.7389 23.2418 33.7711 23.2349C34.0191 23.1821 34.1774 22.9382 34.1246 22.6902Z" fill="white" stroke="white" stroke-width="0.125"/>
<path d="M29.2528 15.5643C28.5335 15.0892 27.7609 14.6963 26.9561 14.3969C26.7185 14.3084 26.4541 14.4294 26.3656 14.6671C26.2771 14.9047 26.3981 15.1691 26.6358 15.2576C27.3753 15.5329 28.0855 15.8939 28.7467 16.3306C28.8246 16.3821 28.9125 16.4067 28.9993 16.4067C29.1483 16.4067 29.2946 16.3342 29.3829 16.2005C29.5227 15.989 29.4645 15.7041 29.2528 15.5643Z" fill="white" stroke="white" stroke-width="0.125"/>
<path d="M17.8546 22.3879H15.7782C15.5246 22.3879 15.319 22.5935 15.319 22.8471C15.319 23.1007 15.5246 23.3063 15.7782 23.3063H17.8546C18.1082 23.3063 18.3138 23.1007 18.3138 22.8471C18.3138 22.5935 18.1082 22.3879 17.8546 22.3879Z" fill="white" stroke="white" stroke-width="0.125"/>
<path d="M33.7923 30.0239C33.4365 29.6681 32.9634 29.4722 32.4602 29.4722C31.9572 29.4722 31.4841 29.6681 31.1282 30.0239L28.7911 32.3611L21.0875 32.3672V31.8151H24.6646C25.7033 31.8151 26.5484 30.97 26.5484 29.9313C26.5484 28.8926 25.7033 28.0476 24.6646 28.0476H19.5112C19.2536 28.0476 19.0044 28.1405 18.8098 28.3092L16.194 30.5748C16.0745 30.1012 15.6461 29.7492 15.1359 29.7492H12.4451C11.8428 29.7492 11.3528 30.2391 11.3528 30.8415V36.5398C11.3528 37.1421 11.8428 37.6321 12.4451 37.6321H15.1359C15.7383 37.6321 16.2283 37.1421 16.2283 36.5398V36.1284H18.4693C18.7229 36.1284 18.9285 35.9228 18.9285 35.6692C18.9285 35.4156 18.7229 35.21 18.4693 35.21H16.2283V31.7599L19.411 29.0033C19.4388 28.9791 19.4743 28.9659 19.5111 28.9659H24.6646C25.1968 28.9659 25.63 29.399 25.63 29.9313C25.63 30.4636 25.1968 30.8967 24.6646 30.8967H24.3162V29.6632C24.3162 29.4096 24.1106 29.204 23.857 29.204C23.6034 29.204 23.3978 29.4096 23.3978 29.6632V30.8967H20.6283C20.3747 30.8967 20.1691 31.1023 20.1691 31.3559V32.8268C20.1691 32.9486 20.2175 33.0655 20.3037 33.1516C20.3899 33.2377 20.5066 33.286 20.6283 33.286C20.6284 33.286 20.6285 33.286 20.6286 33.286L28.9818 33.2794C29.1034 33.2793 29.2201 33.2309 29.3061 33.1449L31.7775 30.6734C31.9599 30.491 32.2024 30.3907 32.4602 30.3907C32.7181 30.3907 32.9606 30.4911 33.1429 30.6734C33.5193 31.0498 33.5193 31.6623 33.1429 32.0387L33.0225 32.1591L32.2634 31.4C32.0841 31.2207 31.7933 31.2207 31.6141 31.4C31.4348 31.5793 31.4348 31.8701 31.6141 32.0493L32.3732 32.8084L30.0164 35.1652C29.9874 35.1941 29.949 35.21 29.9081 35.21H20.1224C19.8688 35.21 19.6632 35.4157 19.6632 35.6692C19.6632 35.9228 19.8688 36.1284 20.1224 36.1284H29.9081C30.1942 36.1284 30.4633 36.017 30.6657 35.8146L33.7923 32.688C34.5267 31.9535 34.5267 30.7583 33.7923 30.0239ZM15.31 36.5398C15.31 36.6358 15.2319 36.7138 15.1359 36.7138H14.2497V34.6124C14.2497 34.3588 14.0441 34.1532 13.7905 34.1532C13.5369 34.1532 13.3313 34.3588 13.3313 34.6124V36.7138H12.4451C12.3492 36.7138 12.2711 36.6358 12.2711 36.5398V30.8415C12.2711 30.7456 12.3492 30.6676 12.4451 30.6676H15.1359C15.2319 30.6676 15.31 30.7456 15.31 30.8415V36.5398Z" fill="white" stroke="white" stroke-width="0.125"/>
<path d="M13.7906 32.7423C14.1193 32.7423 14.3857 32.4758 14.3857 32.1471C14.3857 31.8185 14.1193 31.552 13.7906 31.552C13.4619 31.552 13.1954 31.8185 13.1954 32.1471C13.1954 32.4758 13.4619 32.7423 13.7906 32.7423Z" fill="white" stroke="white" stroke-width="0.125"/>
<path d="M36.9286 23.8573H35.8472C35.7211 22.4839 35.379 21.1516 34.823 19.8837C34.1305 18.3044 33.1429 16.8987 31.8876 15.7057C31.7038 15.531 31.4131 15.5383 31.2385 15.7222C31.0638 15.906 31.0712 16.1967 31.255 16.3714C32.4212 17.4798 33.3387 18.7855 33.9819 20.2524C34.4867 21.4035 34.8021 22.6117 34.9255 23.8574H30.8979C30.6443 23.8574 30.4387 24.063 30.4387 24.3166C30.4387 24.5702 30.6443 24.7758 30.8979 24.7758H36.9285C37.0129 24.7758 37.0815 24.8444 37.0815 24.9288V25.6328C37.0815 25.7172 37.0129 25.7859 36.9285 25.7859H9.07145C8.98707 25.7859 8.9184 25.7172 8.9184 25.6328V24.9287C8.9184 24.8444 8.98707 24.7757 9.07145 24.7757H28.6939C28.9475 24.7757 29.1531 24.5701 29.1531 24.3165C29.1531 24.0629 28.9475 23.8573 28.6939 23.8573H11.0757C11.0942 23.6724 11.1171 23.4887 11.144 23.3063H14.2449C14.4985 23.3063 14.7041 23.1007 14.7041 22.8471C14.7041 22.5935 14.4985 22.3879 14.2449 22.3879H11.3168C12.5344 17.0615 17.3098 13.0752 23 13.0752C25.5658 13.0752 28.0124 13.8741 30.0754 15.3855C30.28 15.5354 30.5674 15.4911 30.7173 15.2864C30.8671 15.0819 30.8228 14.7946 30.6182 14.6447C28.8478 13.3477 26.8153 12.5385 24.6649 12.2631L24.4773 11.6512C24.5814 11.5859 24.6707 11.4962 24.7336 11.3862L25.8092 9.50119C25.9426 9.26758 25.9415 8.97783 25.8064 8.74545C25.6713 8.51271 25.4203 8.36816 25.1513 8.36816H20.8487C20.5797 8.36816 20.3287 8.51271 20.1938 8.74521C20.0586 8.97783 20.0575 9.26746 20.1908 9.50107L21.2666 11.3861C21.3294 11.4962 21.4186 11.5858 21.5227 11.6511L21.3348 12.2645C15.3959 13.0335 10.7114 17.8555 10.1537 23.8573H9.07145C8.48064 23.8573 8 24.3379 8 24.9287V25.6328C8 26.2235 8.48064 26.7042 9.07145 26.7042H36.9286C37.5194 26.7042 38.0001 26.2236 38.0001 25.6328V24.9287C38 24.3379 37.5194 23.8573 36.9286 23.8573ZM23 12.1568C22.7728 12.1568 22.5471 12.1632 22.3226 12.1748L22.4472 11.7682H23.5527L23.6772 12.1747C23.4525 12.1632 23.2267 12.1568 23 12.1568ZM21.1256 9.28656H24.8742L23.9822 10.8498H22.0177L21.1256 9.28656Z" fill="white" stroke="white" stroke-width="0.125"/>
</g>
<defs>
<linearGradient id="paint0_linear_161_32" x1="23.25" y1="0.9375" x2="23.25" y2="45.9375" gradientUnits="userSpaceOnUse">
<stop stop-color="#E44642"/>
<stop offset="1" stop-color="#7E2725"/>
</linearGradient>
<clipPath id="clip0_161_32">
<rect width="30" height="30" fill="white" transform="translate(8 8)"/>
</clipPath>
</defs>
</svg>
