<svg width="45" height="45" viewBox="0 0 45 45" fill="none" xmlns="http://www.w3.org/2000/svg">
<path d="M45 22.5C45 10.0736 34.9264 0 22.5 0C10.0736 0 0 10.0736 0 22.5C0 34.9264 10.0736 45 22.5 45C34.9264 45 45 34.9264 45 22.5Z" fill="url(#paint0_linear_49_105)"/>
<g clip-path="url(#clip0_49_105)">
<g clip-path="url(#clip1_49_105)">
<path d="M18.9029 30.6543H15.8686C13.8385 30.6543 11.8916 29.8478 10.4562 28.4124C9.02073 26.9769 8.21429 25.03 8.21429 23C8.21429 20.9699 9.02073 19.023 10.4562 17.5876C11.8916 16.1521 13.8385 15.3457 15.8686 15.3457H18.9029C19.187 15.3457 19.4595 15.4586 19.6605 15.6595C19.8614 15.8604 19.9743 16.133 19.9743 16.4171C19.9743 16.7013 19.8614 16.9738 19.6605 17.1747C19.4595 17.3757 19.187 17.4886 18.9029 17.4886H15.8686C14.4069 17.4886 13.005 18.0692 11.9714 19.1028C10.9378 20.1364 10.3572 21.5383 10.3572 23C10.3572 24.4617 10.9378 25.8636 11.9714 26.8972C13.005 27.9307 14.4069 28.5114 15.8686 28.5114H18.9029C20.3639 28.5092 21.7644 27.9278 22.7975 26.8947C23.8306 25.8616 24.412 24.461 24.4143 23C24.4143 22.7158 24.5272 22.4433 24.7281 22.2424C24.929 22.0414 25.2016 21.9286 25.4857 21.9286C25.7699 21.9286 26.0424 22.0414 26.2433 22.2424C26.4443 22.4433 26.5572 22.7158 26.5572 23C26.5549 25.0293 25.7477 26.9749 24.3128 28.4099C22.8778 29.8448 20.9322 30.652 18.9029 30.6543Z" fill="white" stroke="white" stroke-width="1.82857"/>
<path d="M30.1314 30.6543H27.0972C26.813 30.6543 26.5405 30.5414 26.3395 30.3405C26.1386 30.1395 26.0257 29.867 26.0257 29.5828C26.0257 29.2987 26.1386 29.0262 26.3395 28.8252C26.5405 28.6243 26.813 28.5114 27.0972 28.5114H30.1314C31.5932 28.5114 32.995 27.9307 34.0286 26.8972C35.0622 25.8636 35.6429 24.4617 35.6429 23C35.6429 21.5383 35.0622 20.1364 34.0286 19.1028C32.995 18.0692 31.5932 17.4886 30.1314 17.4886H27.0972C25.6361 17.4908 24.2356 18.0722 23.2025 19.1053C22.1694 20.1384 21.588 21.539 21.5857 23C21.5857 23.2841 21.4728 23.5567 21.2719 23.7576C21.071 23.9585 20.7985 24.0714 20.5143 24.0714C20.2301 24.0714 19.9576 23.9585 19.7567 23.7576C19.5558 23.5567 19.4429 23.2841 19.4429 23C19.4451 20.9706 20.2523 19.0251 21.6873 17.5901C23.1222 16.1551 25.0678 15.348 27.0972 15.3457H30.1314C32.1615 15.3457 34.1084 16.1521 35.5438 17.5876C36.9793 19.023 37.7857 20.9699 37.7857 23C37.7857 25.03 36.9793 26.9769 35.5438 28.4124C34.1084 29.8478 32.1615 30.6543 30.1314 30.6543Z" fill="white" stroke="white" stroke-width="1.82857"/>
</g>
</g>
<defs>
<linearGradient id="paint0_linear_49_105" x1="22.5" y1="0" x2="22.5" y2="45" gradientUnits="userSpaceOnUse">
<stop stop-color="#E44642"/>
<stop offset="1" stop-color="#7E2725"/>
</linearGradient>
<clipPath id="clip0_49_105">
<rect width="30" height="30" fill="white" transform="translate(7.5 7.5)"/>
</clipPath>
<clipPath id="clip1_49_105">
<rect width="30" height="30" fill="white" transform="translate(8 8)"/>
</clipPath>
</defs>
</svg>
