<svg width="46" height="46" viewBox="0 0 46 46" fill="none" xmlns="http://www.w3.org/2000/svg">
<path d="M45.75 23.4375C45.75 11.0111 35.6764 0.9375 23.25 0.9375C10.8236 0.9375 0.75 11.0111 0.75 23.4375C0.75 35.8639 10.8236 45.9375 23.25 45.9375C35.6764 45.9375 45.75 35.8639 45.75 23.4375Z" fill="url(#paint0_linear_161_42)"/>
<g clip-path="url(#clip0_161_42)">
<path fill-rule="evenodd" clip-rule="evenodd" d="M14.3226 15.3005C14.2001 15.3005 14.1002 15.2032 14.1002 15.0809C14.1002 14.9586 14.2001 14.8612 14.3226 14.8612H16.5914C16.7082 14.8612 16.8109 14.9586 16.8109 15.0809C16.8109 15.2032 16.7081 15.3005 16.5914 15.3005H14.3226ZM14.3226 16.2514C14.2001 16.2514 14.1002 16.1512 14.1002 16.0317C14.1002 15.9094 14.2001 15.8121 14.3226 15.8121H17.9982C18.1207 15.8121 18.2206 15.9094 18.2206 16.0317C18.2206 16.1513 18.1207 16.2514 17.9982 16.2514H14.3226ZM14.3226 17.2022C14.2001 17.2022 14.1002 17.1021 14.1002 16.9797C14.1002 16.8602 14.2001 16.7602 14.3226 16.7602H19.2269C19.3466 16.7602 19.444 16.8603 19.444 16.9797C19.444 17.1021 19.3465 17.2022 19.2269 17.2022H14.3226ZM14.3226 18.1503C14.2001 18.1503 14.1002 18.0529 14.1002 17.9307C14.1002 17.8083 14.2001 17.711 14.3226 17.711H16.5914C16.7082 17.711 16.8109 17.8084 16.8109 17.9307C16.8109 18.053 16.7081 18.1503 16.5914 18.1503H14.3226ZM36.1232 12.9289C35.9032 12.7119 35.6061 12.5785 35.2805 12.5785H12.6071C12.2819 12.5785 11.9814 12.7119 11.7648 12.9289C11.5477 13.1457 11.4145 13.4432 11.4145 13.7712V30.0945C11.4145 30.4225 11.5477 30.7229 11.7648 30.9369C11.9814 31.1538 12.2819 31.29 12.6071 31.29H35.2804C35.606 31.29 35.9032 31.1537 36.1203 30.9397C36.337 30.7229 36.4705 30.4226 36.4705 30.0946V13.7712C36.4705 13.4432 36.337 13.1457 36.1232 12.9289ZM35.0194 26.8999V14.0159H12.8102V26.8999H35.0194ZM35.4614 13.7963V27.1196C35.4614 27.2419 35.3639 27.342 35.2419 27.342H12.5902C12.4682 27.342 12.3707 27.2419 12.3707 27.1196V13.7963C12.3707 13.6739 12.4682 13.5766 12.5902 13.5766H35.2419C35.3639 13.5766 35.4614 13.674 35.4614 13.7963ZM24.165 29.8137C24.1065 29.7581 24.0285 29.7248 23.9425 29.7248C23.8562 29.7248 23.7756 29.7581 23.7201 29.8137C23.6642 29.8721 23.6309 29.9499 23.6309 30.0362C23.6309 30.1224 23.6642 30.2002 23.7201 30.2559C23.7756 30.3142 23.8562 30.3476 23.9425 30.3476C24.0285 30.3476 24.1065 30.3142 24.165 30.2559C24.2204 30.2002 24.2537 30.1224 24.2537 30.0362C24.2537 29.9499 24.2204 29.8721 24.165 29.8137ZM23.9425 29.2826C24.1481 29.2826 24.34 29.3688 24.4761 29.5051C24.6098 29.6386 24.6961 29.8276 24.6961 30.0362C24.6961 30.2447 24.6098 30.4309 24.4761 30.5672C24.34 30.7034 24.1481 30.7896 23.9425 30.7896C23.7366 30.7896 23.5475 30.7034 23.4114 30.5672C23.2753 30.4309 23.1919 30.2447 23.1919 30.0362C23.1919 29.8276 23.2753 29.6386 23.4085 29.5051C23.5475 29.3688 23.7342 29.2826 23.9425 29.2826ZM19.099 21.2225H17.8867V23.8471H19.099V21.2225ZM17.6702 20.7804H19.319C19.4382 20.7804 19.5386 20.8806 19.5386 21.0001V24.0668C19.5386 24.1863 19.4383 24.2864 19.319 24.2864H17.6702C17.5477 24.2864 17.4477 24.1863 17.4477 24.0668V21.0001C17.4477 20.8806 17.5476 20.7804 17.6702 20.7804ZM21.8098 18.1559H20.6004V23.8471H21.8098V18.1559ZM20.3779 17.7165H22.0297C22.1518 17.7165 22.2492 17.8139 22.2492 17.9362V24.0668C22.2492 24.1863 22.1518 24.2864 22.0297 24.2864H20.3779C20.2559 24.2864 20.1584 24.1863 20.1584 24.0668V17.9362C20.1584 17.8139 20.2559 17.7165 20.3779 17.7165ZM24.5209 19.749H23.3115V23.8471H24.5209V19.749ZM23.0916 19.3069H24.7434C24.8626 19.3069 24.96 19.4042 24.96 19.5266V24.0669C24.96 24.1864 24.8626 24.2865 24.7434 24.2865H23.0916C22.9695 24.2865 22.8692 24.1864 22.8692 24.0669V19.5266C22.8692 19.4042 22.9695 19.3069 23.0916 19.3069ZM27.2317 20.8694H26.0222V23.8471H27.2317V20.8694ZM25.7999 20.4274H27.4512C27.5737 20.4274 27.6737 20.5275 27.6737 20.647V24.0668C27.6737 24.1863 27.5737 24.2864 27.4512 24.2864H25.7999C25.6802 24.2864 25.5828 24.1863 25.5828 24.0668V20.647C25.5828 20.5274 25.6802 20.4274 25.7999 20.4274ZM29.9424 18.8342H28.733V23.8471H29.9424V18.8342ZM28.5135 18.3949H30.1649C30.2874 18.3949 30.3844 18.4951 30.3844 18.6146V24.0668C30.3844 24.1863 30.2874 24.2864 30.1649 24.2864H28.5135C28.391 24.2864 28.2935 24.1863 28.2935 24.0668V18.6146C28.2935 18.495 28.391 18.3949 28.5135 18.3949ZM17.5143 37.2316H15.9714V36.1139C15.9714 35.9916 16.0684 35.8914 16.1909 35.8914H20.1169L21.212 31.7292H26.6754L27.7709 35.8914H31.694C31.8137 35.8914 31.9135 35.9916 31.9135 36.1139V37.2316H30.3704V36.3336H17.5143V37.2316ZM9.96873 19.5599C9.96873 19.6822 9.86842 19.7796 9.7488 19.7796C9.62667 19.7796 9.5293 19.6822 9.5293 19.5599V12.5646C9.5293 12.0725 9.72948 11.6221 10.0546 11.2968C10.3802 10.9715 10.8304 10.7686 11.32 10.7686H15.34C15.4625 10.7686 15.5625 10.8687 15.5625 10.991C15.5625 11.1106 15.4625 11.2106 15.34 11.2106H11.32C10.95 11.2106 10.6109 11.3636 10.3662 11.6082C10.1217 11.8529 9.96873 12.1921 9.96873 12.5646V19.5599ZM15.8572 25.2874C15.7375 25.2874 15.6377 25.1901 15.6377 25.0705C15.6377 24.9481 15.7375 24.8481 15.8572 24.8481H31.9719C32.0945 24.8481 32.1944 24.9481 32.1944 25.0705C32.1944 25.1901 32.0945 25.2874 31.9719 25.2874H15.8572Z" fill="white" stroke="white" stroke-width="0.125"/>
</g>
<defs>
<linearGradient id="paint0_linear_161_42" x1="23.25" y1="0.9375" x2="23.25" y2="45.9375" gradientUnits="userSpaceOnUse">
<stop stop-color="#E44642"/>
<stop offset="1" stop-color="#7E2725"/>
</linearGradient>
<clipPath id="clip0_161_42">
<rect width="30" height="30" fill="white" transform="translate(8 8)"/>
</clipPath>
</defs>
</svg>
