<svg width="45" height="45" viewBox="0 0 45 45" fill="none" xmlns="http://www.w3.org/2000/svg">
<path d="M45 22.5C45 10.0736 34.9264 0 22.5 0C10.0736 0 0 10.0736 0 22.5C0 34.9264 10.0736 45 22.5 45C34.9264 45 45 34.9264 45 22.5Z" fill="url(#paint0_linear_166_46)"/>
<g clip-path="url(#clip0_166_46)">
<path d="M31.6774 14.7419C28.7427 14.7419 26.3548 17.1298 26.3548 20.0645V21.8524C25.391 20.4811 23.8 19.5807 22 19.5807C19.0653 19.5807 16.6774 21.9686 16.6774 24.9032V26.6911C15.7135 25.3198 14.1226 24.4194 12.3226 24.4194C9.3879 24.4194 7 26.8073 7 29.7419V37H37V20.0645C37 17.1298 34.6121 14.7419 31.6774 14.7419ZM16.6774 36.0323H7.96774V32.7927C8.93161 34.164 10.5226 35.0645 12.3226 35.0645C14.1226 35.0645 15.7135 34.164 16.6774 32.7927V36.0323ZM12.3226 34.0968C9.92161 34.0968 7.96774 32.1429 7.96774 29.7419C7.96774 27.341 9.92161 25.3871 12.3226 25.3871C14.7235 25.3871 16.6774 27.341 16.6774 29.7419C16.6774 32.1429 14.7235 34.0968 12.3226 34.0968ZM26.3548 36.0323H17.6452V27.954C18.609 29.3253 20.2 30.2258 22 30.2258C23.8 30.2258 25.391 29.3253 26.3548 27.954V36.0323ZM22 29.2581C19.599 29.2581 17.6452 27.3042 17.6452 24.9032C17.6452 22.5023 19.599 20.5484 22 20.5484C24.401 20.5484 26.3548 22.5023 26.3548 24.9032C26.3548 27.3042 24.401 29.2581 22 29.2581ZM36.0323 36.0323H27.3226V23.1153C28.2865 24.4866 29.8774 25.3871 31.6774 25.3871C33.4774 25.3871 35.0684 24.4866 36.0323 23.1153V36.0323ZM31.6774 24.4194C29.2765 24.4194 27.3226 22.4655 27.3226 20.0645C27.3226 17.6636 29.2765 15.7097 31.6774 15.7097C34.0784 15.7097 36.0323 17.6636 36.0323 20.0645C36.0323 22.4655 34.0784 24.4194 31.6774 24.4194Z" fill="white" stroke="white" stroke-width="0.129032"/>
<path d="M31.1936 18.613H32.1613C32.4279 18.613 32.6452 18.8302 32.6452 19.0968H33.6129C33.6129 18.2965 32.9616 17.6452 32.1613 17.6452V16.6775H31.1936V17.6452C30.3932 17.6452 29.7419 18.2965 29.7419 19.0968C29.7419 19.8972 30.3932 20.5485 31.1936 20.5485H32.1613C32.4279 20.5485 32.6452 20.7657 32.6452 21.0323C32.6452 21.2989 32.4279 21.5162 32.1613 21.5162H31.1936C30.9269 21.5162 30.7097 21.2989 30.7097 21.0323H29.7419C29.7419 21.8327 30.3932 22.4839 31.1936 22.4839V23.4517H32.1613V22.4839C32.9616 22.4839 33.6129 21.8327 33.6129 21.0323C33.6129 20.232 32.9616 19.5807 32.1613 19.5807H31.1936C30.9269 19.5807 30.7097 19.3635 30.7097 19.0968C30.7097 18.8302 30.9269 18.613 31.1936 18.613Z" fill="white" stroke="white" stroke-width="0.129032"/>
<path d="M21.5161 23.4516H22.4838C22.7504 23.4516 22.9677 23.6689 22.9677 23.9355H23.9354C23.9354 23.1351 23.2841 22.4839 22.4838 22.4839V21.5161H21.5161V22.4839C20.7157 22.4839 20.0645 23.1351 20.0645 23.9355C20.0645 24.7358 20.7157 25.3871 21.5161 25.3871H22.4838C22.7504 25.3871 22.9677 25.6043 22.9677 25.871C22.9677 26.1376 22.7504 26.3548 22.4838 26.3548H21.5161C21.2495 26.3548 21.0322 26.1376 21.0322 25.871H20.0645C20.0645 26.6713 20.7157 27.3226 21.5161 27.3226V28.2903H22.4838V27.3226C23.2841 27.3226 23.9354 26.6713 23.9354 25.871C23.9354 25.0706 23.2841 24.4193 22.4838 24.4193H21.5161C21.2495 24.4193 21.0322 24.2021 21.0322 23.9355C21.0322 23.6689 21.2495 23.4516 21.5161 23.4516Z" fill="white" stroke="white" stroke-width="0.129032"/>
<path d="M11.8388 28.2902H12.8066C13.0732 28.2902 13.2904 28.5075 13.2904 28.7741H14.2582C14.2582 27.9738 13.6069 27.3225 12.8066 27.3225V26.3547H11.8388V27.3225C11.0385 27.3225 10.3872 27.9738 10.3872 28.7741C10.3872 29.5744 11.0385 30.2257 11.8388 30.2257H12.8066C13.0732 30.2257 13.2904 30.443 13.2904 30.7096C13.2904 30.9762 13.0732 31.1934 12.8066 31.1934H11.8388C11.5722 31.1934 11.3549 30.9762 11.3549 30.7096H10.3872C10.3872 31.5099 11.0385 32.1612 11.8388 32.1612V33.1289H12.8066V32.1612C13.6069 32.1612 14.2582 31.5099 14.2582 30.7096C14.2582 29.9093 13.6069 29.258 12.8066 29.258H11.8388C11.5722 29.258 11.3549 29.0407 11.3549 28.7741C11.3549 28.5075 11.5722 28.2902 11.8388 28.2902Z" fill="white" stroke="white" stroke-width="0.129032"/>
<path d="M8.22168 20.1226L8.68136 20.9742L31.3846 8.71435L30.2896 10.631L31.1296 11.111L33.4788 7H28.7741V7.96774H30.7309L8.22168 20.1226Z" fill="white" stroke="white" stroke-width="0.129032"/>
<path d="M9.64865 16.1356L15.2412 13.124C15.5959 13.5203 16.1054 13.7743 16.6774 13.7743C17.7448 13.7743 18.6128 12.9062 18.6128 11.8388C18.6128 10.7714 17.7448 9.90332 16.6774 9.90332C15.6099 9.90332 14.7419 10.7714 14.7419 11.8388C14.7419 11.9864 14.7617 12.1286 14.7932 12.2665L9.18994 15.284L9.64865 16.1356ZM16.6774 10.8711C17.2111 10.8711 17.6451 11.3051 17.6451 11.8388C17.6451 12.3725 17.2111 12.8065 16.6774 12.8065C16.1437 12.8065 15.7096 12.3725 15.7096 11.8388C15.7096 11.3051 16.1437 10.8711 16.6774 10.8711Z" fill="white" stroke="white" stroke-width="0.129032"/>
<path d="M8.6681 16.626L8.23535 15.7605L7.26772 16.2443L7.70047 17.1098L8.6681 16.626Z" fill="white" stroke="white" stroke-width="0.129032"/>
<path d="M16.4228 20.4903L22.0154 17.4787C22.3701 17.875 22.8796 18.129 23.4515 18.129C24.5189 18.129 25.387 17.261 25.387 16.1935C25.387 15.1261 24.5189 14.2581 23.4515 14.2581C22.3841 14.2581 21.516 15.1261 21.516 16.1935C21.516 16.3411 21.5359 16.4834 21.5673 16.6213L15.9641 19.6382L16.4228 20.4903ZM23.4515 15.2258C23.9852 15.2258 24.4193 15.6598 24.4193 16.1935C24.4193 16.7273 23.9852 17.1613 23.4515 17.1613C22.9178 17.1613 22.4838 16.7273 22.4838 16.1935C22.4838 15.6598 22.9178 15.2258 23.4515 15.2258Z" fill="white" stroke="white" stroke-width="0.129032"/>
<path d="M14.4745 21.465L15.4421 20.9812L15.0094 20.1157L14.0418 20.5995L14.4745 21.465Z" fill="white" stroke="white" stroke-width="0.129032"/>
</g>
<defs>
<linearGradient id="paint0_linear_166_46" x1="22.5" y1="0" x2="22.5" y2="45" gradientUnits="userSpaceOnUse">
<stop stop-color="#E44642"/>
<stop offset="1" stop-color="#7E2725"/>
</linearGradient>
<clipPath id="clip0_166_46">
<rect width="30" height="30" fill="white" transform="translate(7 7)"/>
</clipPath>
</defs>
</svg>
