<svg width="45" height="45" viewBox="0 0 45 45" fill="none" xmlns="http://www.w3.org/2000/svg">
<path d="M45 22.5C45 10.0736 34.9264 0 22.5 0C10.0736 0 0 10.0736 0 22.5C0 34.9264 10.0736 45 22.5 45C34.9264 45 45 34.9264 45 22.5Z" fill="url(#paint0_linear_27_1295)"/>
<path d="M21.5309 31.0955H15.316V24.8806H17.7071V26.861H19.1292V24.8806H21.5203V31.0955H21.5309ZM29.6524 31.0955H23.4375V24.8806H25.8286V26.861H27.2507V24.8806H29.6418V31.0955H29.6524ZM25.639 22.974H19.4241V16.7591H21.8153V18.7395H23.2373V16.7591H25.6285V22.974H25.639ZM34.993 17.328L33.297 16.5379V31.2746H31.3799V15.611L22.4789 11.408L13.599 15.611V31.2535H11.6819V16.5274L9.98594 17.328L9.16431 15.5899L22.4789 9.30127L35.8251 15.5794L34.993 17.328Z" fill="white" stroke="white" stroke-width="0.140449"/>
<defs>
<linearGradient id="paint0_linear_27_1295" x1="22.5" y1="0" x2="22.5" y2="45" gradientUnits="userSpaceOnUse">
<stop stop-color="#E44642"/>
<stop offset="1" stop-color="#7E2725"/>
</linearGradient>
</defs>
</svg>
