<svg width="45" height="45" viewBox="0 0 45 45" fill="none" xmlns="http://www.w3.org/2000/svg">
<path d="M45 22.5C45 10.0736 34.9264 0 22.5 0C10.0736 0 0 10.0736 0 22.5C0 34.9264 10.0736 45 22.5 45C34.9264 45 45 34.9264 45 22.5Z" fill="url(#paint0_linear_27_1296)"/>
<path d="M23.8628 20.947H7.38166C6.20623 20.947 5.25 21.9033 5.25 23.0788V31.6592C5.25 32.8346 6.20623 33.7908 7.38166 33.7908H20.7499C21.076 33.7908 21.3403 33.5265 21.3403 33.2005C21.3403 32.8744 21.076 32.6101 20.7499 32.6101H7.38166C6.85725 32.6101 6.43074 32.1835 6.43074 31.6592V27.4367H24.8137V31.6592C24.8137 32.1836 24.3872 32.6101 23.8628 32.6101H22.7178C22.3917 32.6101 22.1274 32.8744 22.1274 33.2005C22.1274 33.5265 22.3917 33.7908 22.7178 33.7908H23.8628C25.0383 33.7908 25.9945 32.8346 25.9945 31.6592V23.0788C25.9945 21.9033 25.0383 20.947 23.8628 20.947ZM24.8138 26.2559H6.43074V24.6777H9.96627C10.2923 24.6777 10.5566 24.4134 10.5566 24.0873C10.5566 23.7612 10.2923 23.4969 9.96627 23.4969H6.43074V23.0788C6.43074 22.5543 6.85732 22.1278 7.38166 22.1278H23.8628C24.3872 22.1278 24.8137 22.5544 24.8137 23.0788V23.4969H11.9341C11.608 23.4969 11.3437 23.7612 11.3437 24.0873C11.3437 24.4134 11.608 24.6777 11.9341 24.6777H24.8139L24.8138 26.2559Z" fill="white" stroke="white" stroke-width="0.125"/>
<path d="M30.5893 11.9595H12.6963C12.3703 11.9595 12.106 12.2238 12.106 12.5498V19.4468C12.106 19.7729 12.3703 20.0372 12.6963 20.0372C13.0224 20.0372 13.2867 19.7729 13.2867 19.4468V16.7351C15.1461 16.474 16.6206 14.9995 16.8816 13.1401H30.5893C30.9154 13.1401 31.1797 12.8758 31.1797 12.5498C31.1796 12.2238 30.9153 11.9595 30.5893 11.9595ZM13.2867 15.5386V13.1402H15.6851C15.4471 14.3474 14.4939 15.3005 13.2867 15.5386Z" fill="white" stroke="white" stroke-width="0.125"/>
<path d="M39.9097 11.9595H32.5571C32.2311 11.9595 31.9668 12.2238 31.9668 12.5498C31.9668 12.8759 32.2311 13.1402 32.5571 13.1402H35.7253C35.9863 14.9995 37.4605 16.4741 39.3194 16.7352V21.6578C37.4605 21.9188 35.9863 23.3934 35.7253 25.2527H27.4944C27.1684 25.2527 26.9041 25.517 26.9041 25.8431C26.9041 26.1691 27.1684 26.4335 27.4944 26.4335H39.9097C40.2358 26.4335 40.5001 26.1691 40.5001 25.8431V12.5498C40.5001 12.2238 40.2358 11.9595 39.9097 11.9595ZM39.3194 15.5385C38.1125 15.3004 37.1597 14.3473 36.9217 13.1402H39.3194V15.5385ZM39.3194 25.2526H36.9217C37.1597 24.0455 38.1125 23.0923 39.3194 22.8543V25.2526Z" fill="white" stroke="white" stroke-width="0.125"/>
<path d="M26.3028 14.9844C23.3066 14.9844 20.8689 16.8737 20.8689 19.1959C20.8689 19.2946 20.8737 19.397 20.8831 19.5002C20.9126 19.8248 21.1998 20.0637 21.5245 20.0346C21.8492 20.0051 22.0885 19.7179 22.059 19.3932C22.0528 19.3254 22.0497 19.259 22.0497 19.1959C22.0497 17.5247 23.9577 16.165 26.3029 16.165C28.6485 16.165 30.5569 17.5246 30.5569 19.1959C30.5568 20.5681 29.2523 21.7734 27.3845 22.1266C27.0642 22.1872 26.8535 22.4961 26.9142 22.8164C26.9678 23.0997 27.2154 23.2971 27.4936 23.2971C27.53 23.2971 27.567 23.2937 27.604 23.2867C30.0378 22.8263 31.7375 21.1441 31.7375 19.1959C31.7376 16.8737 29.2996 14.9844 26.3028 14.9844Z" fill="white" stroke="white" stroke-width="0.125"/>
<path d="M11.6928 28.6387H7.93046C7.60439 28.6387 7.34009 28.903 7.34009 29.229C7.34009 29.5551 7.60439 29.8194 7.93046 29.8194H11.6928C12.0188 29.8194 12.2831 29.5551 12.2831 29.229C12.2831 28.903 12.0188 28.6387 11.6928 28.6387Z" fill="white" stroke="white" stroke-width="0.125"/>
<defs>
<linearGradient id="paint0_linear_27_1296" x1="22.5" y1="0" x2="22.5" y2="45" gradientUnits="userSpaceOnUse">
<stop stop-color="#E44642"/>
<stop offset="1" stop-color="#7E2725"/>
</linearGradient>
</defs>
</svg>
