<svg width="45" height="45" viewBox="0 0 45 45" fill="none" xmlns="http://www.w3.org/2000/svg">
<path d="M45 22.5C45 10.0736 34.9264 0 22.5 0C10.0736 0 0 10.0736 0 22.5C0 34.9264 10.0736 45 22.5 45C34.9264 45 45 34.9264 45 22.5Z" fill="url(#paint0_linear_27_1297)"/>
<path d="M31.3944 8.25H12.8558C12.1051 8.25 11.4944 8.86072 11.4944 9.61143V34.6386C11.4944 35.3893 12.1051 36 12.8558 36H27.2233C27.3385 36 27.4491 35.9543 27.5305 35.8727L32.6286 30.7746C32.7101 30.6931 32.7559 30.5826 32.7559 30.4674V9.61143C32.7559 8.86072 32.1452 8.25 31.3944 8.25ZM27.6577 34.5166V31.3943C27.6577 31.1228 27.8786 30.9019 28.1502 30.9019H31.2724L27.6577 34.5166ZM31.8869 30.0329H28.1502C27.3995 30.0329 26.7888 30.6436 26.7888 31.3943V35.131H12.8558C12.5843 35.131 12.3634 34.9101 12.3634 34.6386V9.61143C12.3634 9.33989 12.5843 9.11898 12.8558 9.11898H31.3944C31.666 9.11898 31.8869 9.33989 31.8869 9.61143V30.0329Z" fill="white" stroke="white" stroke-width="0.125"/>
<path d="M19.3441 11.9578H15.6364C15.3965 11.9578 15.2019 12.1523 15.2019 12.3923C15.2019 12.6323 15.3964 12.8268 15.6364 12.8268H17.0558V17.027C17.0558 17.2669 17.2503 17.4615 17.4903 17.4615C17.7303 17.4615 17.9248 17.267 17.9248 17.027V12.8268H19.3442C19.5841 12.8268 19.7787 12.6323 19.7787 12.3923C19.7787 12.1523 19.5841 11.9578 19.3441 11.9578Z" fill="white" stroke="white" stroke-width="0.125"/>
<path d="M23.9316 16.9021L22.6403 12.5977C22.5254 12.2149 22.1798 11.9578 21.7802 11.9578H21.5429C21.1433 11.9578 20.7977 12.2149 20.6828 12.5977L19.3915 16.9021C19.3225 17.1319 19.4529 17.3742 19.6828 17.4431C19.9127 17.5122 20.1549 17.3816 20.2238 17.1518L20.409 16.5345H22.914L23.0992 17.1518C23.1557 17.34 23.3283 17.4615 23.5152 17.4615C23.5565 17.4615 23.5986 17.4556 23.6403 17.4431C23.8702 17.3742 24.0006 17.1319 23.9316 16.9021ZM20.6698 15.6655L21.5152 12.8474C21.5188 12.8352 21.5302 12.8267 21.5429 12.8267H21.7802C21.7929 12.8267 21.8043 12.8352 21.808 12.8474L22.6534 15.6655H20.6698Z" fill="white" stroke="white" stroke-width="0.125"/>
<path d="M28.506 16.7778L27.0583 14.7097L28.506 12.6415C28.6436 12.4449 28.5958 12.174 28.3993 12.0364C28.2027 11.8988 27.9317 11.9465 27.7941 12.1432L26.5279 13.952L25.2617 12.1432C25.1241 11.9465 24.8531 11.8987 24.6566 12.0364C24.46 12.174 24.4121 12.4449 24.5498 12.6415L25.9976 14.7097L24.5499 16.7778C24.4123 16.9744 24.4601 17.2453 24.6567 17.3829C24.7325 17.436 24.8195 17.4615 24.9055 17.4615C25.0424 17.4615 25.1773 17.3969 25.2618 17.2761L26.528 15.4673L27.7942 17.2761C27.8787 17.3969 28.0135 17.4615 28.1505 17.4615C28.2365 17.4615 28.3235 17.436 28.3993 17.3829C28.5958 17.2453 28.6437 16.9744 28.506 16.7778Z" fill="white" stroke="white" stroke-width="0.125"/>
<path d="M15.6366 19.8367H14.7097C14.4697 19.8367 14.2751 20.0312 14.2751 20.2712C14.2751 20.5112 14.4697 20.7057 14.7097 20.7057H15.6366C15.8765 20.7057 16.0711 20.5112 16.0711 20.2712C16.0711 20.0312 15.8765 19.8367 15.6366 19.8367Z" fill="white" stroke="white" stroke-width="0.125"/>
<path d="M15.6366 21.6904H14.7097C14.4697 21.6904 14.2751 21.885 14.2751 22.1249C14.2751 22.3649 14.4697 22.5595 14.7097 22.5595H15.6366C15.8765 22.5595 16.0711 22.3649 16.0711 22.1249C16.0711 21.885 15.8765 21.6904 15.6366 21.6904Z" fill="white" stroke="white" stroke-width="0.125"/>
<path d="M15.6366 23.5444H14.7097C14.4697 23.5444 14.2751 23.739 14.2751 23.9789C14.2751 24.2189 14.4697 24.4135 14.7097 24.4135H15.6366C15.8765 24.4135 16.0711 24.2189 16.0711 23.9789C16.0711 23.739 15.8765 23.5444 15.6366 23.5444Z" fill="white" stroke="white" stroke-width="0.125"/>
<path d="M29.5404 19.8367H28.6135C28.3735 19.8367 28.179 20.0312 28.179 20.2712C28.179 20.5112 28.3735 20.7057 28.6135 20.7057H29.5404C29.7803 20.7057 29.9749 20.5112 29.9749 20.2712C29.9749 20.0312 29.7804 19.8367 29.5404 19.8367Z" fill="white" stroke="white" stroke-width="0.125"/>
<path d="M29.5404 21.6904H28.6135C28.3735 21.6904 28.179 21.885 28.179 22.1249C28.179 22.3649 28.3735 22.5595 28.6135 22.5595H29.5404C29.7803 22.5595 29.9749 22.3649 29.9749 22.1249C29.9749 21.885 29.7804 21.6904 29.5404 21.6904Z" fill="white" stroke="white" stroke-width="0.125"/>
<path d="M29.5404 23.5444H28.6135C28.3735 23.5444 28.179 23.739 28.179 23.9789C28.179 24.2189 28.3735 24.4135 28.6135 24.4135H29.5404C29.7803 24.4135 29.9749 24.2189 29.9749 23.9789C29.9749 23.739 29.7804 23.5444 29.5404 23.5444Z" fill="white" stroke="white" stroke-width="0.125"/>
<path d="M23.052 19.8367H17.4904C17.2505 19.8367 17.0559 20.0312 17.0559 20.2712C17.0559 20.5112 17.2504 20.7057 17.4904 20.7057H23.052C23.292 20.7057 23.4865 20.5112 23.4865 20.2712C23.4865 20.0312 23.292 19.8367 23.052 19.8367Z" fill="white" stroke="white" stroke-width="0.125"/>
<path d="M21.1981 21.6904H17.4904C17.2505 21.6904 17.0559 21.885 17.0559 22.1249C17.0559 22.3649 17.2504 22.5595 17.4904 22.5595H21.1981C21.4381 22.5595 21.6327 22.3649 21.6327 22.1249C21.6327 21.885 21.4381 21.6904 21.1981 21.6904Z" fill="white" stroke="white" stroke-width="0.125"/>
<path d="M23.052 23.5444H17.4904C17.2505 23.5444 17.0559 23.739 17.0559 23.9789C17.0559 24.2189 17.2504 24.4135 17.4904 24.4135H23.052C23.292 24.4135 23.4865 24.2189 23.4865 23.9789C23.4865 23.739 23.292 23.5444 23.052 23.5444Z" fill="white" stroke="white" stroke-width="0.125"/>
<path d="M16.5345 29.2349V27.725C16.8547 27.8299 17.0559 28.0411 17.0559 28.237C17.0559 28.477 17.2505 28.6715 17.4905 28.6715C17.7305 28.6715 17.925 28.477 17.925 28.237C17.925 27.5441 17.3414 26.9797 16.5346 26.8287V26.7597C16.5346 26.5198 16.3401 26.3252 16.1001 26.3252C15.8601 26.3252 15.6656 26.5197 15.6656 26.7597V26.8287C14.8588 26.9797 14.2752 27.5441 14.2752 28.237C14.2752 29.2051 15.0484 29.612 15.6656 29.8462V31.3561C15.3454 31.2512 15.1442 31.0399 15.1442 30.8441C15.1442 30.6042 14.9497 30.4096 14.7097 30.4096C14.4697 30.4096 14.2751 30.6041 14.2751 30.8441C14.2751 31.537 14.8588 32.1014 15.6655 32.2524V32.3214C15.6655 32.5614 15.86 32.7559 16.1 32.7559C16.34 32.7559 16.5345 32.5614 16.5345 32.3214V32.2524C17.3413 32.1014 17.9249 31.537 17.9249 30.8441C17.9249 29.8759 17.1518 29.4691 16.5345 29.2349ZM15.6655 28.8981C15.2324 28.6859 15.1441 28.5005 15.1441 28.237C15.1441 28.0411 15.3454 27.8299 15.6655 27.725V28.8981ZM16.5345 31.356V30.1829C16.9677 30.3951 17.0559 30.5805 17.0559 30.844C17.0559 31.0399 16.8547 31.2511 16.5345 31.356Z" fill="white" stroke="white" stroke-width="0.125"/>
<path d="M22.5884 27.2522H19.3442C19.1042 27.2522 18.9097 27.4467 18.9097 27.6867C18.9097 27.9267 19.1042 28.1212 19.3442 28.1212H22.5884C22.8284 28.1212 23.023 27.9267 23.023 27.6867C23.023 27.4467 22.8284 27.2522 22.5884 27.2522Z" fill="white" stroke="white" stroke-width="0.125"/>
<path d="M21.1981 30.96H19.3442C19.1042 30.96 18.9097 31.1545 18.9097 31.3945C18.9097 31.6344 19.1042 31.829 19.3442 31.829H21.1981C21.438 31.829 21.6326 31.6345 21.6326 31.3945C21.6325 31.1545 21.438 30.96 21.1981 30.96Z" fill="white" stroke="white" stroke-width="0.125"/>
<path d="M23.9789 30.96H23.0519C22.812 30.96 22.6174 31.1545 22.6174 31.3945C22.6174 31.6344 22.812 31.829 23.0519 31.829H23.9789C24.2188 31.829 24.4134 31.6345 24.4134 31.3945C24.4133 31.1545 24.2188 30.96 23.9789 30.96Z" fill="white" stroke="white" stroke-width="0.125"/>
<path d="M25.3692 29.106H19.3442C19.1042 29.106 18.9097 29.3005 18.9097 29.5405C18.9097 29.7804 19.1042 29.975 19.3442 29.975H25.3692C25.6092 29.975 25.8038 29.7805 25.8038 29.5405C25.8038 29.3005 25.6092 29.106 25.3692 29.106Z" fill="white" stroke="white" stroke-width="0.125"/>
<path d="M23.0519 22.5595C23.2919 22.5595 23.4865 22.3649 23.4865 22.1249C23.4865 21.885 23.2919 21.6904 23.0519 21.6904C22.812 21.6904 22.6174 21.885 22.6174 22.1249C22.6174 22.3649 22.812 22.5595 23.0519 22.5595Z" fill="white" stroke="white" stroke-width="0.125"/>
<path d="M24.906 22.5595C25.1459 22.5595 25.3405 22.3649 25.3405 22.1249C25.3405 21.885 25.1459 21.6904 24.906 21.6904C24.666 21.6904 24.4714 21.885 24.4714 22.1249C24.4714 22.3649 24.666 22.5595 24.906 22.5595Z" fill="white" stroke="white" stroke-width="0.125"/>
<path d="M26.7597 22.5595C26.9997 22.5595 27.1942 22.3649 27.1942 22.1249C27.1942 21.885 26.9997 21.6904 26.7597 21.6904C26.5197 21.6904 26.3252 21.885 26.3252 22.1249C26.3252 22.3649 26.5197 22.5595 26.7597 22.5595Z" fill="white" stroke="white" stroke-width="0.125"/>
<path d="M24.906 20.7057C25.1459 20.7057 25.3405 20.5112 25.3405 20.2712C25.3405 20.0312 25.1459 19.8367 24.906 19.8367C24.666 19.8367 24.4714 20.0312 24.4714 20.2712C24.4714 20.5112 24.666 20.7057 24.906 20.7057Z" fill="white" stroke="white" stroke-width="0.125"/>
<path d="M26.7597 20.7057C26.9997 20.7057 27.1942 20.5112 27.1942 20.2712C27.1942 20.0312 26.9997 19.8367 26.7597 19.8367C26.5197 19.8367 26.3252 20.0312 26.3252 20.2712C26.3252 20.5112 26.5197 20.7057 26.7597 20.7057Z" fill="white" stroke="white" stroke-width="0.125"/>
<path d="M24.906 24.4135C25.1459 24.4135 25.3405 24.2189 25.3405 23.9789C25.3405 23.739 25.1459 23.5444 24.906 23.5444C24.666 23.5444 24.4714 23.739 24.4714 23.9789C24.4714 24.2189 24.666 24.4135 24.906 24.4135Z" fill="white" stroke="white" stroke-width="0.125"/>
<path d="M26.7597 24.4135C26.9997 24.4135 27.1942 24.2189 27.1942 23.9789C27.1942 23.739 26.9997 23.5444 26.7597 23.5444C26.5197 23.5444 26.3252 23.739 26.3252 23.9789C26.3252 24.2189 26.5197 24.4135 26.7597 24.4135Z" fill="white" stroke="white" stroke-width="0.125"/>
<defs>
<linearGradient id="paint0_linear_27_1297" x1="22.5" y1="0" x2="22.5" y2="45" gradientUnits="userSpaceOnUse">
<stop stop-color="#E44642"/>
<stop offset="1" stop-color="#7E2725"/>
</linearGradient>
</defs>
</svg>
