<svg width="493" height="328" viewBox="0 0 493 328" fill="none" xmlns="http://www.w3.org/2000/svg">
<path d="M466.499 225.924C466.499 225.924 484.682 115.436 419.341 56.0669C361.663 3.65988 273.217 -13.8276 203.876 34.6437C179.169 51.915 149.821 69.5932 120.557 80.5905C87.7435 92.9209 51.1568 96.6285 22.2884 144.572C-6.57926 192.516 13.3209 268.366 55.9333 298.392C98.5456 328.419 173.599 325.362 238.49 320.181C303.382 315.001 438.344 362.522 466.499 225.924Z" fill="#E44642"/>
<path opacity="0.7" d="M466.499 225.924C466.499 225.924 484.682 115.436 419.341 56.0669C361.663 3.65988 273.217 -13.8276 203.876 34.6437C179.169 51.915 149.821 69.5932 120.557 80.5905C87.7435 92.9209 51.1568 96.6285 22.2884 144.572C-6.57926 192.516 13.3209 268.366 55.9333 298.392C98.5456 328.419 173.599 325.362 238.49 320.181C303.382 315.001 438.344 362.522 466.499 225.924Z" fill="white"/>
<path d="M216.46 159.901H28.6458V300.314H216.46V159.901Z" stroke="#ABABAB" stroke-miterlimit="10"/>
<path d="M216.46 203.638H28.6458V210.038H216.46V203.638Z" stroke="#ABABAB" stroke-miterlimit="10"/>
<path d="M36.3484 245.284C36.3484 245.284 46.1033 232.903 60.36 233.653C74.6167 234.404 77.2433 245.658 77.2433 245.658H31.8467L36.3484 245.284Z" stroke="#ABABAB" stroke-miterlimit="10"/>
<path d="M48.7292 246.785C48.7292 246.785 51.3558 233.654 60.3601 233.654" stroke="#ABABAB" stroke-miterlimit="10"/>
<path d="M62.6106 246.034C62.6106 246.034 63.7359 235.904 71.6149 237.405" stroke="#ABABAB" stroke-miterlimit="10"/>
<path d="M101.255 245.284C101.255 245.284 111.01 232.903 125.266 233.653C139.523 234.404 142.15 245.658 142.15 245.658H96.7529L101.255 245.284Z" stroke="#ABABAB" stroke-miterlimit="10"/>
<path d="M113.635 246.785C113.635 246.785 116.262 233.654 125.266 233.654" stroke="#ABABAB" stroke-miterlimit="10"/>
<path d="M127.517 246.034C127.517 246.034 128.642 235.904 136.521 237.405" stroke="#ABABAB" stroke-miterlimit="10"/>
<path d="M166.16 245.284C166.16 245.284 175.915 232.903 190.172 233.653C204.429 234.404 207.055 245.658 207.055 245.658H161.659L166.16 245.284Z" stroke="#ABABAB" stroke-miterlimit="10"/>
<path d="M178.542 246.785C178.542 246.785 181.169 233.654 190.173 233.654" stroke="#ABABAB" stroke-miterlimit="10"/>
<path d="M192.423 246.034C192.423 246.034 193.549 235.904 201.428 237.405" stroke="#ABABAB" stroke-miterlimit="10"/>
<path d="M216.46 245.672H28.6458V252.072H216.46V245.672Z" stroke="#ABABAB" stroke-miterlimit="10"/>
<path d="M216.46 159.901H28.6458V166.282H216.46V159.901Z" stroke="#ABABAB" stroke-miterlimit="10"/>
<path d="M216.46 281.708H28.6458V300.314H216.46V281.708Z" stroke="#ABABAB" stroke-miterlimit="10"/>
<path d="M64.4863 181.503H38.9741V204.014H64.4863V181.503Z" stroke="#ABABAB" stroke-miterlimit="10"/>
<path d="M64.4863 181.503H38.9741V184.816H64.4863V181.503Z" stroke="#ABABAB" stroke-miterlimit="10"/>
<path d="M165.785 181.503H87.3726V204.014H165.785V181.503Z" stroke="#ABABAB" stroke-miterlimit="10"/>
<path d="M165.785 181.503H87.3726V184.816H165.785V181.503Z" stroke="#ABABAB" stroke-miterlimit="10"/>
<path d="M145.15 181.503H123.765V204.014H145.15V181.503Z" stroke="#ABABAB" stroke-miterlimit="10"/>
<path d="M145.15 181.503H123.765V184.816H145.15V181.503Z" stroke="#ABABAB" stroke-miterlimit="10"/>
<path d="M354.885 43.8706H232.627V207.912H354.885V43.8706Z" stroke="#ABABAB" stroke-miterlimit="10"/>
<path d="M246.555 85.6553H289.641" stroke="#ABABAB" stroke-miterlimit="10"/>
<path d="M246.555 104.226H289.641" stroke="#ABABAB" stroke-miterlimit="10"/>
<path d="M246.555 122.796H289.641" stroke="#ABABAB" stroke-miterlimit="10"/>
<path d="M246.555 141.367H289.641" stroke="#ABABAB" stroke-miterlimit="10"/>
<path d="M246.555 159.938H289.641" stroke="#ABABAB" stroke-miterlimit="10"/>
<path d="M246.555 178.509H289.641" stroke="#ABABAB" stroke-miterlimit="10"/>
<path d="M298.644 85.6553H341.73" stroke="#ABABAB" stroke-miterlimit="10"/>
<path d="M298.644 104.226H341.73" stroke="#ABABAB" stroke-miterlimit="10"/>
<path d="M298.644 122.796H341.73" stroke="#ABABAB" stroke-miterlimit="10"/>
<path d="M298.644 141.367H341.73" stroke="#ABABAB" stroke-miterlimit="10"/>
<path d="M298.644 159.938H341.73" stroke="#ABABAB" stroke-miterlimit="10"/>
<path d="M298.644 178.509H341.73" stroke="#ABABAB" stroke-miterlimit="10"/>
<path d="M457.779 98.8745H363.267V207.913H457.779V98.8745Z" stroke="#ABABAB" stroke-miterlimit="10"/>
<path d="M374.034 113.4H407.343" stroke="#ABABAB" stroke-miterlimit="10"/>
<path d="M374.034 127.755H407.343" stroke="#ABABAB" stroke-miterlimit="10"/>
<path d="M374.034 142.112H407.343" stroke="#ABABAB" stroke-miterlimit="10"/>
<path d="M374.034 156.468H407.343" stroke="#ABABAB" stroke-miterlimit="10"/>
<path d="M374.034 170.825H407.343" stroke="#ABABAB" stroke-miterlimit="10"/>
<path d="M374.034 185.182H407.343" stroke="#ABABAB" stroke-miterlimit="10"/>
<path d="M414.302 113.4H447.611" stroke="#ABABAB" stroke-miterlimit="10"/>
<path d="M414.302 127.755H447.611" stroke="#ABABAB" stroke-miterlimit="10"/>
<path d="M414.302 142.112H447.611" stroke="#ABABAB" stroke-miterlimit="10"/>
<path d="M414.302 156.468H447.611" stroke="#ABABAB" stroke-miterlimit="10"/>
<path d="M414.302 170.825H447.611" stroke="#ABABAB" stroke-miterlimit="10"/>
<path d="M414.302 185.182H447.611" stroke="#ABABAB" stroke-miterlimit="10"/>
<path d="M87.3539 64.6733L78.2626 51.686H71.1583H49.7876H42.6832L33.5919 64.6733C23.7004 78.8046 24.2671 97.7552 34.9852 111.269L39.1964 116.579H49.7876H71.1583H81.7494L85.9607 111.269C96.6787 97.7544 97.2455 78.8039 87.3539 64.6733Z" fill="white" stroke="#263238" stroke-miterlimit="10" stroke-linecap="round" stroke-linejoin="round"/>
<path d="M33.5911 64.6733H50.3009" stroke="#263238" stroke-miterlimit="10" stroke-linecap="round" stroke-linejoin="round"/>
<path d="M68.7772 69.9917H54.7" stroke="#263238" stroke-miterlimit="10" stroke-linecap="round" stroke-linejoin="round"/>
<path d="M93.8525 94.627H60.8584" stroke="#263238" stroke-miterlimit="10" stroke-linecap="round" stroke-linejoin="round"/>
<path d="M33.5837 94.1875H46.3413" stroke="#263238" stroke-miterlimit="10" stroke-linecap="round" stroke-linejoin="round"/>
<path d="M77.5758 87.5889H67.4575" stroke="#263238" stroke-miterlimit="10" stroke-linecap="round" stroke-linejoin="round"/>
<path d="M46.7812 103.866H55.5798" stroke="#263238" stroke-miterlimit="10" stroke-linecap="round" stroke-linejoin="round"/>
<path d="M80.215 55.9146H72.7361" stroke="#263238" stroke-miterlimit="10" stroke-linecap="round" stroke-linejoin="round"/>
<path d="M60.4727 51.6235V1.2583" stroke="#263238" stroke-miterlimit="10" stroke-linecap="round" stroke-linejoin="round"/>
<path d="M249.217 64.6733L240.126 51.686H233.021H211.651H204.546L195.454 64.6733C185.563 78.8046 186.13 97.7552 196.848 111.269L201.059 116.579H211.65H233.021H243.612L247.823 111.269C258.542 97.7544 259.109 78.8039 249.217 64.6733Z" fill="white" stroke="#263238" stroke-miterlimit="10" stroke-linecap="round" stroke-linejoin="round"/>
<path d="M195.454 64.6733H212.164" stroke="#263238" stroke-miterlimit="10" stroke-linecap="round" stroke-linejoin="round"/>
<path d="M230.64 69.9917H216.563" stroke="#263238" stroke-miterlimit="10" stroke-linecap="round" stroke-linejoin="round"/>
<path d="M255.716 94.627H222.722" stroke="#263238" stroke-miterlimit="10" stroke-linecap="round" stroke-linejoin="round"/>
<path d="M195.448 94.1875H208.205" stroke="#263238" stroke-miterlimit="10" stroke-linecap="round" stroke-linejoin="round"/>
<path d="M239.439 87.5889H229.321" stroke="#263238" stroke-miterlimit="10" stroke-linecap="round" stroke-linejoin="round"/>
<path d="M208.645 103.866H217.443" stroke="#263238" stroke-miterlimit="10" stroke-linecap="round" stroke-linejoin="round"/>
<path d="M242.078 55.9146H234.6" stroke="#263238" stroke-miterlimit="10" stroke-linecap="round" stroke-linejoin="round"/>
<path d="M222.336 51.6235V1.2583" stroke="#263238" stroke-miterlimit="10" stroke-linecap="round" stroke-linejoin="round"/>
<path d="M431.56 245.373C433.395 246.175 437.886 246.074 437.89 246.074C437.936 246.073 436.924 243.135 436.839 242.957C435.854 240.896 432.738 237.493 430.203 237.836C428.376 238.083 427.361 239.91 427.773 241.63C428.195 243.385 429.996 244.69 431.56 245.373Z" fill="#4E5051"/>
<path d="M476.978 246.361C477.018 246.385 477.795 243.377 477.823 243.181C478.138 240.918 477.417 236.361 475.113 235.248C473.453 234.447 471.598 235.411 470.993 237.073C470.375 238.77 471.159 240.852 472.086 242.284C473.175 243.966 476.975 246.358 476.978 246.361Z" fill="#4E5051"/>
<path d="M433.109 258.38C435.014 258.658 439.021 257.496 439.34 257.402C439.972 259.645 440.804 261.896 441.771 264.127C442.322 265.403 442.916 266.672 443.529 267.936C443.164 267.401 442.833 266.924 442.78 266.863C441.285 265.135 437.381 262.676 435.027 263.676C433.33 264.396 432.833 266.427 433.685 267.976C434.555 269.559 436.638 270.342 438.326 270.588C440.039 270.837 443.475 269.915 444.381 269.659C444.622 270.141 444.856 270.626 445.098 271.107C446.258 273.418 447.426 275.719 448.503 278.01C448.882 278.818 449.227 279.627 449.575 280.435C449.25 279.96 448.972 279.562 448.923 279.506C447.428 277.779 443.525 275.319 441.17 276.318C439.474 277.039 438.977 279.07 439.829 280.62C440.699 282.202 442.781 282.985 444.469 283.231C446.104 283.469 449.283 282.647 450.362 282.347C450.692 283.186 451.026 284.025 451.309 284.852C451.489 285.422 451.702 285.957 451.851 286.539C452.011 287.112 452.17 287.679 452.327 288.241C452.588 289.334 452.866 290.46 453.095 291.532C453.26 292.277 453.404 292.99 453.55 293.708C453.181 292.899 452.426 291.333 452.348 291.209C451.133 289.275 447.647 286.252 445.167 286.884C443.382 287.34 442.583 289.271 443.19 290.932C443.81 292.628 445.75 293.717 447.382 294.217C449.178 294.765 453.156 294.264 453.652 294.198C453.891 295.386 454.111 296.544 454.301 297.641C454.432 298.384 454.551 299.094 454.663 299.787H456.251C456.109 299.007 455.959 298.207 455.792 297.363C455.554 296.155 455.277 294.869 454.979 293.552C455.278 293.433 456.975 292.747 458.477 291.907C459.787 293.325 463.142 294.985 463.577 295.195C463.12 296.318 462.665 297.405 462.22 298.425C462.016 298.893 461.816 299.344 461.618 299.787H463.295C463.402 299.531 463.508 299.279 463.616 299.015C464.084 297.877 464.562 296.651 465.041 295.388C465.522 295.488 469.46 296.288 471.294 295.874C472.959 295.498 474.974 294.557 475.719 292.911C476.448 291.3 475.795 289.314 474.049 288.727C471.624 287.912 467.922 290.667 466.566 292.504C466.486 292.613 465.749 293.886 465.297 294.698C465.49 294.181 465.684 293.681 465.875 293.146C466.263 292.091 466.618 291.027 467.004 289.884C467.172 289.325 467.341 288.761 467.51 288.19C467.692 287.629 467.812 287.012 467.967 286.418C468.296 285.033 468.563 283.614 468.8 282.178C469.725 282.514 473.025 283.663 474.735 283.543C476.436 283.424 478.571 282.798 479.557 281.284C480.522 279.802 480.178 277.74 478.54 276.895C476.266 275.722 472.191 277.884 470.571 279.495C470.47 279.596 469.438 280.883 468.885 281.6C469.021 280.736 469.16 279.874 469.269 278.995C469.584 276.459 469.824 273.882 470.074 271.312C470.151 270.524 470.237 269.741 470.319 268.956C470.647 269.079 474.54 270.529 476.455 270.394C478.157 270.275 480.292 269.65 481.277 268.136C482.242 266.654 481.898 264.592 480.26 263.747C477.986 262.575 473.91 264.736 472.291 266.347C472.169 266.469 470.687 268.323 470.333 268.813C470.515 267.085 470.713 265.364 470.978 263.676C471.339 261.346 471.822 259.081 472.453 256.92C472.605 256.978 476.662 258.51 478.623 258.372C480.325 258.252 482.46 257.627 483.445 256.113C484.41 254.631 484.066 252.569 482.428 251.724C480.154 250.551 476.078 252.713 474.459 254.324C474.353 254.43 473.223 255.84 472.7 256.524C472.629 256.487 472.642 256.494 472.57 256.457C473.273 254.151 474.245 252.004 475.253 250.041C475.836 248.903 476.455 247.847 477.081 246.834C477.808 247.196 481.145 248.817 482.924 248.888C484.629 248.956 486.82 248.569 487.966 247.174C489.088 245.807 488.972 243.719 487.437 242.699C485.306 241.284 481.017 242.985 479.23 244.408C479.134 244.486 478.233 245.383 477.586 246.045C477.876 245.592 478.167 245.119 478.453 244.691C479.522 243.079 480.602 241.669 481.568 240.428C482.123 239.727 482.638 239.104 483.127 238.526C484.026 238.51 487.645 238.4 489.228 237.658C490.772 236.933 492.538 235.58 492.911 233.813C493.277 232.082 492.212 230.283 490.38 230.086C487.837 229.812 484.814 233.298 483.885 235.385C483.804 235.565 482.873 238.53 482.919 238.529C482.919 238.529 482.963 238.528 482.973 238.528C482.492 239.075 481.982 239.666 481.438 240.324C480.443 241.546 479.33 242.936 478.221 244.531C477.108 246.122 475.944 247.882 474.885 249.845C473.821 251.813 472.802 253.936 472.035 256.26C472.026 256.286 472.021 256.315 472.012 256.341C472.025 255.592 471.992 253.495 471.971 253.335C471.677 251.069 469.778 246.864 467.263 246.399C465.45 246.064 463.915 247.484 463.77 249.246C463.623 251.047 464.928 252.848 466.201 253.985C467.636 255.267 471.619 256.508 471.937 256.606C471.227 258.826 470.679 261.162 470.254 263.556C470.01 264.924 469.807 266.311 469.62 267.702C469.611 267.054 469.597 266.475 469.586 266.394C469.292 264.128 467.393 259.923 464.878 259.458C463.065 259.124 461.53 260.543 461.386 262.306C461.238 264.106 462.543 265.907 463.816 267.044C465.107 268.197 468.482 269.324 469.379 269.611C469.313 270.146 469.242 270.679 469.178 271.214C468.871 273.781 468.576 276.345 468.21 278.85C468.081 279.733 467.922 280.597 467.766 281.464C467.757 280.888 467.744 280.403 467.735 280.329C467.442 278.064 465.543 273.859 463.027 273.394C461.215 273.058 459.68 274.479 459.536 276.241C459.388 278.041 460.693 279.842 461.966 280.979C463.198 282.08 466.304 283.147 467.368 283.493C467.181 284.375 466.996 285.258 466.776 286.105C466.612 286.679 466.495 287.244 466.298 287.811C466.115 288.377 465.934 288.938 465.755 289.493C465.371 290.549 464.981 291.641 464.58 292.663C464.306 293.375 464.032 294.048 463.759 294.728C463.897 293.851 464.132 292.127 464.135 291.981C464.17 290.463 463.632 287.997 462.559 286.263C462.566 286.038 462.552 285.815 462.517 285.593C462.236 283.847 460.596 282.551 458.815 283.025C456.343 283.683 454.775 288.022 454.658 290.304C454.651 290.439 454.739 291.907 454.81 292.833C454.686 292.295 454.571 291.772 454.436 291.22C454.177 290.127 453.886 289.043 453.577 287.876C453.408 287.317 453.238 286.753 453.065 286.184C452.907 285.616 452.667 285.036 452.468 284.455C451.979 283.118 451.419 281.787 450.824 280.459C451.781 280.229 455.168 279.367 456.527 278.323C457.881 277.285 459.317 275.585 459.303 273.779C459.29 272.011 457.866 270.481 456.033 270.679C453.49 270.956 451.283 275.007 450.821 277.245C450.792 277.384 450.642 279.027 450.577 279.931C450.213 279.135 449.855 278.339 449.46 277.546C448.324 275.256 447.102 272.975 445.893 270.693C445.522 269.994 445.162 269.294 444.797 268.593C445.139 268.515 449.186 267.576 450.709 266.408C452.062 265.369 453.498 263.67 453.485 261.864C453.473 260.097 452.048 258.566 450.216 258.765C447.672 259.041 445.465 263.093 445.004 265.33C444.969 265.498 444.755 267.862 444.73 268.466C443.93 266.925 443.146 265.381 442.435 263.827C441.451 261.684 440.604 259.528 439.937 257.378C440.097 257.342 444.325 256.382 445.885 255.185C447.238 254.146 448.675 252.447 448.662 250.641C448.649 248.873 447.224 247.343 445.392 247.542C442.849 247.818 440.642 251.87 440.18 254.106C440.149 254.253 439.985 256.055 439.927 256.913C439.847 256.922 439.862 256.92 439.782 256.929C439.096 254.617 438.723 252.291 438.48 250.097C438.338 248.826 438.272 247.604 438.236 246.413C439.042 246.315 442.719 245.826 444.243 244.903C445.702 244.02 447.316 242.488 447.501 240.692C447.683 238.933 446.435 237.255 444.592 237.252C442.033 237.247 439.395 241.032 438.691 243.204C438.652 243.322 438.396 244.567 438.221 245.476C438.213 244.938 438.194 244.384 438.197 243.869C438.2 241.934 438.323 240.163 438.444 238.595C438.519 237.704 438.606 236.9 438.694 236.149C439.435 235.64 442.394 233.551 443.303 232.058C444.192 230.601 444.918 228.499 444.255 226.82C443.605 225.175 441.725 224.261 440.088 225.107C437.815 226.282 437.217 230.857 437.593 233.11C437.625 233.305 438.483 236.291 438.523 236.265C438.523 236.265 438.559 236.24 438.568 236.234C438.468 236.956 438.369 237.73 438.278 238.579C438.123 240.148 437.962 241.921 437.916 243.863C437.866 245.804 437.865 247.914 438.065 250.136C438.263 252.364 438.585 254.697 439.227 257.059C439.235 257.086 439.246 257.112 439.253 257.139C438.851 256.507 437.666 254.777 437.56 254.654C436.066 252.927 432.162 250.468 429.807 251.467C428.111 252.188 427.614 254.218 428.466 255.768C429.339 257.351 431.421 258.134 433.109 258.38Z" fill="#4E5051"/>
<path d="M331.921 103.979C331.921 103.979 336.933 96.3283 339.572 96.1969C342.21 96.0648 351.839 102.265 355.268 110.443C358.698 118.622 356.852 124.293 352.234 126.799C347.618 129.306 345.243 130.493 342.869 129.437C340.495 128.382 339.043 126.799 339.043 126.799C339.043 126.799 340.89 131.285 343.132 131.944C345.375 132.603 346.562 134.318 343.528 134.318C340.494 134.318 336.405 129.965 336.933 125.613C337.461 121.259 331.921 103.979 331.921 103.979Z" fill="#263238" stroke="#263238" stroke-miterlimit="10"/>
<path d="M272.316 258.961C272.316 258.961 247.644 286.065 246.254 287.629C244.864 289.192 242.78 290.756 242.78 290.756C242.78 290.756 224.884 285.718 221.409 285.37C217.934 285.022 208.899 293.015 206.814 295.794C204.73 298.574 204.208 300.66 204.208 300.66C205.946 301.181 225.753 301.181 230.096 301.181C234.44 301.181 249.208 299.096 250.424 298.574C251.64 298.053 279.44 283.11 279.44 283.11L278.745 259.654C278.745 259.656 275.096 258.266 272.316 258.961Z" fill="white" stroke="#263238" stroke-miterlimit="10"/>
<path d="M225.057 288.671C225.057 288.671 217.065 294.579 215.501 296.316C213.937 298.054 211.852 300.834 211.852 300.834" stroke="#263238" stroke-miterlimit="10"/>
<path d="M219.498 287.281C219.498 287.281 210.81 293.362 209.767 295.621C208.725 297.88 207.335 301.007 207.335 301.007" stroke="#263238" stroke-miterlimit="10"/>
<path d="M229.922 291.973C229.922 291.973 229.401 293.536 228.706 294.579C228.011 295.622 222.104 297.185 219.15 298.922C216.196 300.659 219.15 302.224 223.668 301.876C228.185 301.529 234.44 301.876 237.22 300.486C240 299.096 243.301 295.447 243.301 295.447" fill="white"/>
<path d="M229.922 291.973C229.922 291.973 229.401 293.536 228.706 294.579C228.011 295.622 222.104 297.185 219.15 298.922C216.196 300.659 219.15 302.224 223.668 301.876C228.185 301.529 234.44 301.876 237.22 300.486C240 299.096 243.301 295.447 243.301 295.447" stroke="#263238" stroke-miterlimit="10"/>
<path d="M275.791 247.146C275.791 247.146 271.621 246.104 271.273 247.667C270.926 249.231 268.494 258.439 269.535 259.655C270.578 260.871 276.833 263.13 277.701 262.957C278.571 262.783 275.791 247.146 275.791 247.146Z" fill="#E44642" stroke="#263238" stroke-miterlimit="10"/>
<path d="M299.567 172.596C299.567 172.596 292.03 177.95 284.89 182.314C277.751 186.678 274.974 187.272 274.974 190.049C274.974 192.826 274.379 237.252 274.379 237.252C274.379 237.252 273.585 245.185 275.767 252.523C277.948 259.862 278.543 300.519 278.543 300.519H359.462L356.686 273.546C356.686 273.546 366.206 190.842 364.222 187.471C362.239 184.1 338.836 171.803 338.836 171.803L299.567 172.596Z" fill="white" stroke="#263238" stroke-miterlimit="10"/>
<path d="M278.543 300.519H359.462L356.686 273.546C356.686 273.546 357.396 267.368 358.389 258.327L331.696 258.672C331.696 258.672 326.341 228.724 327.729 218.213C329.117 207.701 337.249 172.001 337.249 172.001L332.688 172.597L319.201 216.229L286.675 213.254L299.368 174.382L297.98 174.184C297.98 174.184 283.7 204.528 279.535 217.816C277.244 225.126 275.494 232.131 274.383 236.96C274.38 237.151 274.379 237.253 274.379 237.253C274.379 237.253 273.585 245.186 275.767 252.525C277.948 259.861 278.543 300.519 278.543 300.519Z" fill="#263238" stroke="#263238" stroke-miterlimit="10"/>
<path d="M289.46 300.52C290.016 283.591 291.596 233.287 290.802 230.905C290.268 229.306 293.131 221.073 295.876 214.095L295.098 214.024C292.841 219.767 289.409 229.1 290.09 231.142C290.756 233.14 289.566 274.698 288.71 300.52H289.46Z" fill="#828282"/>
<path d="M297.293 231.948C297.293 229.328 300.195 219.728 301.794 214.636L301.027 214.566C299.404 219.729 296.542 229.227 296.542 231.948C296.542 234.685 294.997 278.471 294.214 300.519H294.965C295.749 278.459 297.293 234.694 297.293 231.948Z" fill="#828282"/>
<path d="M303.455 233.844C303.687 231.983 305.531 220.449 306.396 215.058L305.647 214.989C304.777 220.405 302.943 231.885 302.71 233.751C302.434 235.954 299.539 288.005 298.845 300.519H299.597C300.287 288.09 303.186 235.99 303.455 233.844Z" fill="#828282"/>
<path d="M312.688 215.634L311.94 215.564L306.008 300.52H306.761L312.688 215.634Z" fill="#828282"/>
<path d="M297.51 175.188C296.506 177.341 294.004 182.735 291.131 189.189C286.651 200.348 280.64 215.685 277.046 226.348C275.944 230.396 275.048 234.069 274.383 236.958C274.381 237.15 274.38 237.252 274.38 237.252C274.38 237.252 274.136 239.698 274.291 243.128C274.452 240.507 274.606 238.487 274.751 237.297C275.925 227.661 297.406 175.757 297.623 175.234L297.51 175.188Z" fill="#828282"/>
<path d="M285.884 229.853C286.084 228.657 288.346 222.032 291.294 213.677L290.521 213.606C287.593 221.914 285.349 228.499 285.143 229.73C284.667 232.592 283.304 278.657 282.68 300.519H283.433C284.056 278.711 285.42 232.632 285.884 229.853Z" fill="#828282"/>
<path d="M278.258 287.907C278.78 267.279 279.815 234.611 281.255 228.645C282.01 225.516 284.847 217.562 288.2 208.584L293.128 193.488C287.803 207.332 281.695 223.623 280.525 228.47C279.316 233.478 278.405 256.319 277.831 275.769C278.012 279.974 278.153 284.182 278.258 287.907Z" fill="#828282"/>
<path d="M341.016 258.551L340.265 258.561L342.473 300.52H343.225L341.016 258.551Z" fill="#828282"/>
<path d="M315.478 257.215C315.256 245.259 317.294 225.918 318.435 216.158L317.687 216.09C316.544 225.875 314.506 245.24 314.728 257.228C314.973 270.459 315.615 292.307 315.862 300.519H316.614C316.365 292.327 315.723 270.455 315.478 257.215Z" fill="#828282"/>
<path d="M347.346 258.469L346.592 258.479L350.747 300.519H351.502L347.346 258.469Z" fill="#828282"/>
<path d="M334.153 258.64L333.402 258.649L335.222 300.519H335.974L334.153 258.64Z" fill="#828282"/>
<path d="M327.19 229.474C327.154 227.832 327.272 225.676 327.504 223.159C327.484 221.257 327.549 219.571 327.729 218.212C328.03 215.933 328.649 212.468 329.432 208.441C331.418 195.698 334.266 180.993 336.038 172.159L335.252 172.262C332.233 187.338 326.208 218.885 326.438 229.491C326.708 241.909 328.896 289.411 329.412 300.52H330.162C329.651 289.476 327.459 241.896 327.19 229.474Z" fill="#828282"/>
<path d="M322.558 220.932C324.167 213.371 326.724 198.053 328.791 185.202L327.193 190.37C325.315 201.898 323.213 214.242 321.823 220.775C319.207 233.072 321.041 285.292 321.643 300.52H322.394C321.794 285.349 319.957 233.155 322.558 220.932Z" fill="#828282"/>
<path d="M315.885 184.22C315.885 184.22 319.748 197.739 320.801 197.212C321.855 196.685 340.465 173.159 340.641 171.579C340.817 169.999 334.672 162.449 334.672 162.449C334.672 162.449 332.038 161.396 330.634 161.396C329.229 161.396 302.016 166.312 301.314 167.19C300.612 168.067 298.681 172.808 297.276 175.09C295.872 177.372 285.865 187.556 287.094 187.731C288.322 187.907 301.49 183.342 301.49 183.342L306.01 196.957C306.01 196.957 312.375 191.242 313.428 189.837C314.481 188.434 315.885 184.22 315.885 184.22Z" fill="#E44642" stroke="#263238" stroke-miterlimit="10"/>
<path d="M300.939 164.311C300.939 164.311 302.358 170.394 303.372 178.1C304.386 185.805 306.008 196.958 306.008 196.958C306.008 196.958 317.972 179.317 318.783 178.709C319.595 178.101 331.761 163.906 331.761 163.906L332.572 143.426C332.572 143.426 326.691 153.767 321.014 158.431C315.336 163.094 300.939 164.311 300.939 164.311Z" fill="white" stroke="#263238" stroke-miterlimit="10"/>
<path d="M321.014 158.43C321.014 158.43 315.274 167.224 310.887 171.337C306.5 175.45 303.373 178.099 303.373 178.099L301.313 167.19L321.014 158.43Z" fill="#263238" stroke="#263238" stroke-miterlimit="10"/>
<path d="M318.209 273.546L310.673 271.166L310.276 275.53L318.209 273.546Z" fill="white" stroke="#263238" stroke-miterlimit="10"/>
<path d="M312.268 266.464L311.6 275.089L310.226 292.955L309.633 300.589H288.547L287.954 292.955L286.58 275.089L285.912 266.464H312.268Z" fill="#E44642" stroke="#263238" stroke-miterlimit="10"/>
<path d="M314.118 262.401H283.568V268.068H314.118V262.401Z" fill="white" stroke="#263238" stroke-miterlimit="10"/>
<path d="M311.285 259.938H286.894V262.278H311.285V259.938Z" fill="white" stroke="#263238" stroke-miterlimit="10"/>
<path d="M311.6 275.089H286.58L287.954 292.955H310.226" fill="white"/>
<path d="M311.6 275.089H286.58L287.954 292.955H310.226" stroke="#263238" stroke-miterlimit="10"/>
<path d="M338.439 220.195L353.513 253.713H379.494C379.494 253.713 368.388 202.94 367.991 199.569C367.594 196.198 368.586 188.066 366.007 186.678C363.429 185.29 356.686 183.107 356.686 183.107" fill="white"/>
<path d="M338.439 220.195L353.513 253.713H379.494C379.494 253.713 368.388 202.94 367.991 199.569C367.594 196.198 368.586 188.066 366.007 186.678C363.429 185.29 356.686 183.107 356.686 183.107" stroke="#263238" stroke-miterlimit="10"/>
<path d="M343.794 232.095C343.794 232.095 336.853 227.533 334.87 223.765L343.794 232.095Z" fill="white"/>
<path d="M343.794 232.095C343.794 232.095 336.853 227.533 334.87 223.765" stroke="#263238" stroke-miterlimit="10"/>
<path d="M354.702 259.861C354.702 259.861 334.076 276.52 331.894 277.314C329.713 278.107 327.332 278.901 327.332 278.901C327.332 278.901 319.994 275.331 318.21 273.545C316.424 271.76 298.971 278.305 298.971 278.305L292.823 283.859C292.823 283.859 293.617 285.842 295.204 285.842C296.791 285.842 301.947 281.677 301.947 281.677L309.484 281.281L299.17 288.223L296.394 293.974C296.394 293.974 298.575 296.156 300.36 293.379C302.145 290.602 303.137 289.809 303.137 289.809L312.839 287.309C312.839 287.309 308.04 292.182 307.049 292.778C306.057 293.373 301.054 295.952 301.982 297.04C302.742 297.929 303.533 297.742 304.723 297.345C305.913 296.949 310.276 295.758 310.276 295.758C310.276 295.758 315.235 296.155 316.623 296.155C318.011 296.155 322.97 292.982 322.97 292.982L331.102 288.222C331.102 288.222 360.654 278.305 366.008 275.132C371.363 271.958 379.891 266.009 379.495 263.827C379.097 261.646 354.702 259.861 354.702 259.861Z" fill="white" stroke="#263238" stroke-miterlimit="10"/>
<path d="M310.276 295.759C310.276 295.759 316.424 293.578 318.607 291.197" stroke="#263238" stroke-miterlimit="10"/>
<path d="M350.736 253.117L352.323 256.29L353.314 260.455C353.314 260.455 359.264 261.645 364.619 262.637C369.974 263.628 381.676 266.405 381.676 266.405C381.676 266.405 383.659 264.62 383.263 261.645C382.867 258.67 383.263 251.332 382.073 249.348C380.882 247.367 356.289 248.159 350.736 253.117Z" fill="#E44642" stroke="#263238" stroke-miterlimit="10"/>
<path d="M353.612 256.34C353.612 256.34 359.154 252.877 370.065 252.703" stroke="#263238" stroke-miterlimit="10"/>
<path d="M375.994 256.165C376.903 256.369 377.773 256.6 378.552 256.86" stroke="#263238" stroke-miterlimit="10"/>
<path d="M365.909 254.781C365.909 254.781 369.551 255.018 373.355 255.654" stroke="#263238" stroke-miterlimit="10"/>
<path d="M293.009 146.188C289.876 146.188 287.337 148.728 287.337 151.861C287.337 154.993 289.876 157.533 293.009 157.533C296.141 157.533 298.681 154.993 298.681 151.861C298.681 148.728 296.141 146.188 293.009 146.188ZM293.009 156.001C290.721 156.001 288.868 154.147 288.868 151.861C288.868 149.574 290.722 147.72 293.009 147.72C295.295 147.72 297.149 149.574 297.149 151.861C297.149 154.147 295.296 156.001 293.009 156.001Z" stroke="#263238" stroke-miterlimit="10"/>
<path d="M288.013 128.694C288.013 128.694 289.179 144.781 290.111 149.444C291.043 154.107 301.069 167.397 303.167 168.33C305.266 169.262 307.597 169.029 309.696 168.33C311.794 167.63 325.783 158.771 327.182 155.506C328.581 152.242 330.679 147.113 330.679 147.113C330.679 147.113 336.741 145.714 337.441 142.216C338.14 138.719 337.674 134.289 337.674 134.289L338.374 125.896C338.374 125.896 334.876 111.907 325.783 109.342C316.691 106.777 303.634 111.208 298.272 115.871C292.909 120.534 288.013 128.694 288.013 128.694Z" fill="white" stroke="#263238" stroke-miterlimit="10"/>
<path d="M296.834 128.381C296.834 128.381 299.076 131.547 299.604 133.789" stroke="#263238" stroke-miterlimit="10"/>
<path d="M297.625 146.057C297.625 146.057 299.735 148.299 303.165 148.035" stroke="#263238" stroke-miterlimit="10"/>
<path d="M300.791 154.499C300.791 154.499 308.177 156.61 312.926 150.938" stroke="#263238" stroke-miterlimit="10"/>
<path d="M306.332 127.854C306.332 127.854 312.399 125.084 316.488 127.986" stroke="#263238" stroke-miterlimit="10"/>
<path d="M295.779 127.722C295.779 127.722 292.218 126.139 289.975 128.778" stroke="#263238" stroke-miterlimit="10"/>
<path d="M311.739 136.956C312.322 136.956 312.795 136.011 312.795 134.845C312.795 133.679 312.322 132.734 311.739 132.734C311.156 132.734 310.684 133.679 310.684 134.845C310.684 136.011 311.156 136.956 311.739 136.956Z" fill="#263238"/>
<path d="M294.855 134.053C294.855 135.219 294.383 136.164 293.8 136.164C293.217 136.164 292.744 135.219 292.744 134.053C292.744 132.888 293.217 131.943 293.8 131.943C294.383 131.943 294.855 132.888 294.855 134.053Z" fill="#263238"/>
<path d="M334.955 146.188C331.822 146.188 329.282 148.728 329.282 151.861C329.282 154.993 331.822 157.533 334.955 157.533C338.087 157.533 340.627 154.993 340.627 151.861C340.627 148.728 338.087 146.188 334.955 146.188ZM334.955 156.001C332.667 156.001 330.814 154.147 330.814 151.861C330.814 149.574 332.668 147.72 334.955 147.72C337.241 147.72 339.095 149.574 339.095 151.861C339.095 154.147 337.242 156.001 334.955 156.001Z" fill="white" stroke="#263238" stroke-miterlimit="10"/>
<path d="M317.157 114.705L288.013 128.694C288.013 128.694 278.687 121.933 278.687 115.405C278.687 108.876 294.075 95.1201 308.297 94.1877C322.519 93.2554 326.482 96.2858 330.446 99.317C334.409 102.348 347 112.84 345.368 120.534C343.736 128.227 337.673 134.29 337.673 134.29C337.673 134.29 337.44 129.86 334.876 131.026C332.311 132.192 332.778 135.689 330.912 135.456C329.047 135.222 327.881 131.725 327.881 131.725C327.881 131.725 316.224 121.466 317.157 114.705Z" fill="#263238" stroke="#263238" stroke-miterlimit="10"/>
<path d="M432.393 232.4H334.545V300.572H432.393V232.4Z" fill="#6E6E6E" stroke="#263238" stroke-miterlimit="10" stroke-linecap="round" stroke-linejoin="round"/>
<path d="M427.437 241.542H339.501V300.573H427.437V241.542Z" fill="#ABABAB" stroke="#263238" stroke-miterlimit="10" stroke-linecap="round" stroke-linejoin="round"/>
<path d="M397.767 271.058H369.17V300.573H397.767V271.058Z" fill="#6E6E6E" stroke="#263238" stroke-miterlimit="10" stroke-linecap="round" stroke-linejoin="round"/>
<path d="M339.501 241.542L334.545 232.4H432.393L427.436 241.542H339.501Z" fill="#D1D1D1" stroke="#263238" stroke-miterlimit="10" stroke-linecap="round" stroke-linejoin="round"/>
<path d="M484.931 300.519H0.322266" stroke="#263238" stroke-miterlimit="10"/>
<path d="M484.931 312.99H0.322266" stroke="#263238" stroke-miterlimit="10"/>
<path d="M232.269 306.596H188L183.338 251.925H227.607L232.269 306.596Z" fill="white" stroke="#263238" stroke-miterlimit="10"/>
<path d="M223.3 306.596H179.031L184.028 242.036H228.297L223.3 306.596Z" fill="white" stroke="#263238" stroke-miterlimit="10"/>
<path d="M188.805 253.365C188.384 253.365 188.039 253.284 187.768 253.119C187.499 252.954 187.304 252.714 187.184 252.396C187.064 252.08 187.014 251.691 187.033 251.229L188.148 251.013C188.139 251.284 188.153 251.523 188.192 251.73C188.231 251.938 188.302 252.098 188.406 252.21C188.51 252.323 188.654 252.379 188.839 252.379C189.047 252.379 189.198 252.318 189.294 252.193C189.39 252.069 189.446 251.912 189.46 251.721C189.484 251.416 189.434 251.165 189.311 250.969C189.188 250.773 189.019 250.577 188.803 250.381L187.981 249.602C187.75 249.388 187.57 249.15 187.444 248.888C187.317 248.626 187.269 248.301 187.298 247.915C187.341 247.362 187.536 246.935 187.882 246.635C188.228 246.335 188.68 246.185 189.24 246.185C189.568 246.185 189.839 246.235 190.05 246.336C190.261 246.437 190.425 246.576 190.541 246.756C190.658 246.934 190.738 247.138 190.784 247.365C190.83 247.594 190.851 247.834 190.849 248.088L189.745 248.278C189.75 248.06 189.741 247.863 189.717 247.69C189.693 247.517 189.637 247.382 189.55 247.284C189.462 247.185 189.326 247.136 189.141 247.136C188.951 247.136 188.8 247.198 188.69 247.322C188.58 247.446 188.517 247.601 188.503 247.785C188.485 248.021 188.518 248.216 188.605 248.368C188.691 248.521 188.821 248.678 188.993 248.84L189.807 249.61C190.077 249.852 190.301 250.136 190.48 250.462C190.66 250.788 190.732 251.181 190.696 251.643C190.67 251.977 190.574 252.275 190.406 252.533C190.239 252.793 190.018 252.996 189.745 253.143C189.469 253.293 189.156 253.365 188.805 253.365Z" fill="black"/>
<path d="M193.199 253.365C192.685 253.365 192.291 253.265 192.016 253.063C191.74 252.861 191.559 252.585 191.47 252.236C191.381 251.887 191.355 251.486 191.39 251.03L191.584 248.53C191.621 248.052 191.711 247.637 191.854 247.285C191.996 246.933 192.22 246.662 192.526 246.471C192.832 246.281 193.242 246.186 193.755 246.186C194.239 246.186 194.612 246.269 194.873 246.433C195.135 246.598 195.311 246.832 195.403 247.138C195.494 247.443 195.524 247.798 195.493 248.202L195.447 248.79H194.219L194.265 248.185C194.28 247.989 194.284 247.81 194.277 247.649C194.268 247.488 194.224 247.359 194.142 247.264C194.06 247.169 193.91 247.121 193.69 247.121C193.471 247.121 193.307 247.171 193.199 247.272C193.09 247.373 193.015 247.509 192.973 247.679C192.931 247.849 192.901 248.041 192.885 248.254L192.649 251.299C192.63 251.552 192.633 251.761 192.661 251.926C192.689 252.089 192.753 252.214 192.853 252.297C192.953 252.381 193.096 252.423 193.281 252.423C193.494 252.423 193.649 252.373 193.747 252.272C193.844 252.171 193.91 252.037 193.946 251.87C193.982 251.703 194.009 251.516 194.024 251.307L194.073 250.677H195.301L195.258 251.238C195.226 251.654 195.142 252.021 195.008 252.341C194.873 252.661 194.663 252.911 194.374 253.093C194.087 253.275 193.694 253.365 193.199 253.365Z" fill="black"/>
<path d="M195.636 253.271L197.579 246.265H198.946L199.804 253.271H198.62L198.468 251.654H197.249L196.839 253.271H195.636ZM197.441 250.84H198.392L198.144 247.9L197.441 250.84Z" fill="black"/>
<path d="M200.471 253.271L201.013 246.265H201.903L203.298 250.26L203.607 246.265H204.662L204.119 253.271H203.272L201.883 249.084L201.559 253.271H200.471Z" fill="black"/>
<path d="M207.304 253.271L207.846 246.265H209.117L208.891 249.197H210.318L210.544 246.265H211.825L211.283 253.271H210.002L210.247 250.105H208.82L208.575 253.271H207.304Z" fill="black"/>
<path d="M212.355 253.271L212.897 246.265H215.838L215.768 247.164H214.108L213.952 249.179H215.257L215.188 250.071H213.883L213.703 252.389H215.381L215.313 253.271H212.355V253.271Z" fill="black"/>
<path d="M216.056 253.271L216.598 246.265H218.276C218.749 246.265 219.144 246.321 219.461 246.434C219.777 246.546 220.011 246.738 220.16 247.009C220.309 247.28 220.366 247.649 220.329 248.116C220.307 248.398 220.261 248.652 220.193 248.877C220.123 249.102 220.021 249.294 219.885 249.452C219.748 249.611 219.567 249.733 219.341 249.82L220.051 253.271H218.772L218.172 250.062H217.584L217.336 253.271H216.056ZM217.647 249.257H218.045C218.293 249.257 218.493 249.222 218.645 249.149C218.798 249.077 218.911 248.963 218.988 248.803C219.064 248.645 219.112 248.442 219.13 248.194C219.157 247.842 219.113 247.578 218.998 247.402C218.881 247.226 218.642 247.138 218.278 247.138H217.811L217.647 249.257Z" fill="black"/>
<path d="M220.891 253.271L221.433 246.265H224.374L224.304 247.164H222.643L222.487 249.179H223.793L223.724 250.071H222.418L222.239 252.389H223.917L223.848 253.271H220.891V253.271Z" fill="black"/>
<path d="M191.096 302.261L191.565 296.198H190.45L190.523 295.255H194.017L193.944 296.198H192.846L192.377 302.261H191.096Z" fill="black"/>
<path d="M195.975 302.355C195.479 302.355 195.092 302.264 194.812 302.079C194.532 301.895 194.342 301.629 194.242 301.283C194.141 300.937 194.11 300.528 194.147 300.055L194.349 297.435C194.386 296.962 194.481 296.557 194.634 296.219C194.786 295.882 195.017 295.624 195.325 295.445C195.633 295.267 196.035 295.177 196.531 295.177C197.038 295.177 197.431 295.267 197.708 295.445C197.985 295.624 198.176 295.882 198.279 296.219C198.383 296.557 198.416 296.962 198.38 297.435L198.176 300.064C198.14 300.531 198.044 300.937 197.888 301.28C197.732 301.623 197.501 301.888 197.195 302.075C196.889 302.262 196.483 302.355 195.975 302.355ZM196.048 301.413C196.261 301.413 196.422 301.367 196.53 301.274C196.638 301.183 196.715 301.056 196.763 300.894C196.81 300.732 196.841 300.556 196.856 300.367L197.106 297.14C197.121 296.945 197.117 296.768 197.095 296.614C197.072 296.457 197.013 296.335 196.92 296.245C196.826 296.156 196.672 296.111 196.459 296.111C196.257 296.111 196.101 296.156 195.99 296.245C195.879 296.335 195.8 296.457 195.754 296.614C195.707 296.769 195.677 296.945 195.662 297.14L195.412 300.367C195.397 300.557 195.399 300.732 195.418 300.894C195.438 301.055 195.496 301.182 195.592 301.274C195.689 301.367 195.841 301.413 196.048 301.413Z" fill="black"/>
<path d="M201.051 302.261L201.593 295.255H203.651C204.072 295.255 204.408 295.333 204.657 295.489C204.907 295.644 205.083 295.871 205.184 296.168C205.285 296.465 205.32 296.825 205.287 297.245C205.251 297.701 205.145 298.068 204.968 298.348C204.79 298.628 204.557 298.831 204.267 298.958C203.977 299.084 203.643 299.148 203.262 299.148H202.571L202.33 302.262L201.051 302.261ZM202.642 298.247H203.126C203.357 298.247 203.54 298.214 203.674 298.148C203.809 298.081 203.907 297.975 203.967 297.827C204.027 297.68 204.067 297.484 204.086 297.235C204.106 296.982 204.103 296.776 204.078 296.617C204.052 296.459 203.981 296.343 203.863 296.267C203.745 296.192 203.553 296.154 203.288 296.154H202.804L202.642 298.247Z" fill="black"/>
<path d="M204.882 302.261L206.826 295.255H208.193L209.051 302.261H207.867L207.714 300.644H206.495L206.085 302.261H204.882ZM206.687 299.83H207.639L207.39 296.89L206.687 299.83Z" fill="black"/>
<path d="M210.461 302.261L210.668 299.588L209.585 295.255H210.779L211.429 298.032L212.457 295.255H213.624L211.888 299.588L211.681 302.261H210.461Z" fill="black"/>
<path d="M200.542 283.808C200.608 282.955 200.674 282.101 200.741 281.248L200.737 281.251C201.161 281.251 201.585 281.251 202.009 281.251C202.043 280.816 202.075 280.396 202.108 279.969C201.679 279.969 201.257 279.969 200.836 279.969L200.839 279.972C200.871 279.545 200.903 279.118 200.935 278.69C201.785 278.69 202.636 278.69 203.498 278.69C203.532 278.258 203.565 277.838 203.597 277.418C204.026 277.418 204.444 277.418 204.872 277.418C204.839 277.843 204.807 278.263 204.775 278.684C205.206 278.684 205.626 278.684 206.055 278.684C206.121 277.829 206.187 276.981 206.252 276.133L206.249 276.136C206.303 276.135 206.357 276.134 206.411 276.134C207.637 276.134 208.862 276.133 210.088 276.133C210.055 276.557 210.023 276.981 209.99 277.406C210.421 277.406 210.841 277.406 211.259 277.406C211.292 276.979 211.324 276.559 211.357 276.136C210.928 276.136 210.506 276.136 210.085 276.136C210.118 275.711 210.151 275.287 210.185 274.851C209.325 274.851 208.479 274.851 207.625 274.851C207.691 273.995 207.756 273.151 207.822 272.306C206.542 272.306 205.269 272.306 203.985 272.306C203.952 272.733 203.92 273.153 203.886 273.581C203.03 273.581 202.186 273.581 201.34 273.581C201.274 274.436 201.209 275.282 201.142 276.14C201.569 276.14 201.99 276.14 202.408 276.14C202.375 276.57 202.342 276.987 202.309 277.417C201.882 277.417 201.463 277.417 201.037 277.417C201.003 277.85 200.971 278.272 200.938 278.695C200.516 278.695 200.094 278.695 199.66 278.695C199.693 278.266 199.726 277.846 199.759 277.415C198.476 277.415 197.203 277.415 195.926 277.415C195.959 276.986 195.991 276.569 196.025 276.14C197.297 276.14 198.57 276.14 199.853 276.14C200.117 272.726 200.38 269.323 200.644 265.907C201.079 265.907 201.504 265.907 201.928 265.907L201.925 265.904C201.831 267.135 201.736 268.366 201.641 269.598C201.638 269.64 201.635 269.683 201.631 269.734C202.056 269.734 202.477 269.734 202.908 269.734C202.974 268.887 203.039 268.041 203.105 267.19C203.534 267.19 203.951 267.19 204.381 267.19C204.315 268.035 204.25 268.881 204.183 269.744C204.619 269.744 205.043 269.744 205.468 269.744L205.465 269.741C205.431 270.163 205.399 270.585 205.365 271.019C207.499 271.019 209.624 271.019 211.757 271.019C211.724 271.447 211.692 271.865 211.658 272.295C212.086 272.295 212.507 272.295 212.94 272.295C212.906 272.731 212.873 273.156 212.84 273.58L212.844 273.577C212.419 273.577 211.995 273.577 211.571 273.577C211.537 274.012 211.505 274.431 211.472 274.858C211.901 274.858 212.323 274.858 212.744 274.858L212.741 274.855C212.676 275.704 212.61 276.552 212.543 277.416C212.976 277.416 213.401 277.416 213.825 277.416L213.822 277.413C213.756 278.26 213.69 279.108 213.624 279.967C213.202 279.967 212.781 279.967 212.355 279.967C212.289 280.824 212.223 281.669 212.157 282.531C212.581 282.531 213.005 282.531 213.43 282.531L213.427 282.528C213.395 282.95 213.362 283.372 213.328 283.805C214.183 283.805 215.029 283.805 215.881 283.805C215.848 284.235 215.816 284.652 215.782 285.082C214.512 285.082 213.239 285.082 211.955 285.082C211.888 285.94 211.823 286.786 211.757 287.638C211.327 287.638 210.91 287.638 210.48 287.638C210.513 287.22 210.546 286.8 210.58 286.364C209.717 286.364 208.867 286.364 208.015 286.364L208.018 286.367C208.051 285.945 208.084 285.523 208.117 285.089C207.689 285.089 207.268 285.089 206.843 285.089C206.876 284.66 206.908 284.242 206.942 283.813C207.787 283.813 208.633 283.813 209.487 283.813C209.52 283.381 209.553 282.961 209.586 282.535C207.461 282.535 205.338 282.535 203.204 282.535C203.172 282.953 203.14 283.374 203.106 283.806C202.243 283.806 201.393 283.806 200.542 283.806L200.542 283.808ZM208.508 279.973C208.541 279.548 208.574 279.124 208.607 278.699C208.175 278.699 207.756 278.699 207.337 278.699C207.304 279.127 207.272 279.546 207.239 279.97C207.668 279.97 208.09 279.97 208.511 279.97C208.478 280.394 208.446 280.818 208.413 281.243C209.27 281.243 210.116 281.243 210.961 281.243C210.994 280.816 211.026 280.396 211.059 279.973C210.203 279.973 209.356 279.973 208.508 279.973ZM205.947 279.979C205.519 279.979 205.099 279.979 204.682 279.979C204.649 280.406 204.616 280.826 204.584 281.243C205.01 281.243 205.427 281.243 205.849 281.243C205.882 280.821 205.914 280.403 205.947 279.979ZM209.01 273.569C209.439 273.569 209.858 273.569 210.275 273.569C210.308 273.141 210.34 272.722 210.372 272.304C209.947 272.304 209.529 272.304 209.107 272.304C209.075 272.727 209.043 273.144 209.01 273.569Z" fill="#263238"/>
<path d="M190.125 269.734C190.356 266.751 190.586 263.776 190.818 260.795C193.797 260.795 196.772 260.795 199.756 260.795C199.525 263.771 199.295 266.748 199.064 269.734C196.09 269.734 193.112 269.734 190.125 269.734ZM192 262.073C191.835 264.206 191.67 266.331 191.506 268.453C193.639 268.453 195.763 268.453 197.887 268.453C198.052 266.322 198.215 264.2 198.381 262.073C196.252 262.073 194.13 262.073 192 262.073Z" fill="#263238"/>
<path d="M216.967 269.737C213.985 269.737 211.01 269.737 208.03 269.737C208.26 266.757 208.49 263.782 208.722 260.798C211.697 260.798 214.674 260.798 217.659 260.798C217.429 263.772 217.198 266.75 216.967 269.737ZM216.284 262.076C214.15 262.076 212.025 262.076 209.903 262.076C209.738 264.209 209.574 266.334 209.409 268.456C211.54 268.456 213.663 268.456 215.79 268.456C215.955 266.328 216.119 264.206 216.284 262.076Z" fill="#263238"/>
<path d="M189.435 278.697C192.417 278.697 195.392 278.697 198.373 278.697C198.143 281.677 197.912 284.652 197.681 287.635C194.705 287.635 191.728 287.635 188.743 287.635C188.973 284.661 189.204 281.683 189.435 278.697ZM196.995 279.979C194.862 279.979 192.738 279.979 190.615 279.979C190.45 282.111 190.285 284.236 190.121 286.359C192.252 286.359 194.374 286.359 196.502 286.359C196.666 284.231 196.83 282.109 196.995 279.979Z" fill="#263238"/>
<path d="M201.927 265.907C201.993 265.058 202.059 264.21 202.125 263.35C201.698 263.35 201.277 263.35 200.851 263.35C200.917 262.494 200.982 261.65 201.048 260.798C203.172 260.798 205.297 260.798 207.429 260.798C207.364 261.644 207.298 262.49 207.231 263.345C206.811 263.345 206.394 263.345 205.968 263.345C205.935 263.772 205.903 264.193 205.869 264.625C206.289 264.625 206.709 264.625 207.134 264.625C207.068 265.481 207.003 266.325 206.936 267.177C206.516 267.177 206.096 267.177 205.664 267.177C205.696 266.756 205.729 266.336 205.762 265.908C205.333 265.908 204.916 265.908 204.486 265.908C204.519 265.48 204.551 265.06 204.584 264.634C204.155 264.634 203.737 264.634 203.307 264.634C203.275 265.052 203.242 265.471 203.209 265.905C202.772 265.905 202.348 265.905 201.923 265.905L201.927 265.907ZM203.408 263.339C203.836 263.339 204.257 263.339 204.673 263.339C204.706 262.912 204.739 262.492 204.771 262.074C204.345 262.074 203.928 262.074 203.506 262.074C203.474 262.497 203.441 262.914 203.408 263.339Z" fill="#263238"/>
<path d="M196.315 272.297C196.282 272.719 196.249 273.141 196.216 273.575C197.071 273.575 197.917 273.575 198.769 273.575C198.736 274.004 198.704 274.422 198.67 274.851C197.399 274.851 196.126 274.851 194.842 274.851C194.775 275.709 194.71 276.556 194.644 277.408C192.936 277.408 191.239 277.408 189.535 277.408C189.6 276.563 189.665 275.717 189.731 274.863C190.149 274.863 190.569 274.863 190.998 274.863C190.965 275.283 190.933 275.7 190.9 276.126C191.754 276.126 192.601 276.126 193.464 276.126C193.563 274.85 193.661 273.573 193.76 272.296L193.756 272.299C194.61 272.299 195.463 272.299 196.316 272.299L196.315 272.297Z" fill="#263238"/>
<path d="M200.539 283.806C200.507 284.228 200.474 284.65 200.44 285.084C200.868 285.084 201.288 285.084 201.716 285.084C201.683 285.513 201.651 285.931 201.617 286.361C202.045 286.361 202.466 286.361 202.893 286.361C202.86 286.793 202.827 287.213 202.794 287.639C201.521 287.639 200.251 287.639 198.973 287.639C199.071 286.367 199.169 285.095 199.269 283.809C199.692 283.809 200.117 283.809 200.542 283.809L200.539 283.806Z" fill="#263238"/>
<path d="M193.761 272.297C192.913 272.297 192.064 272.297 191.205 272.297C191.172 272.724 191.14 273.145 191.107 273.571C190.677 273.571 190.26 273.571 189.833 273.571C189.899 272.728 189.964 271.882 190.03 271.028C191.299 271.028 192.571 271.028 193.856 271.028C193.823 271.451 193.79 271.876 193.758 272.3L193.761 272.297Z" fill="#263238"/>
<path d="M216.571 274.851C216.147 274.851 215.728 274.851 215.303 274.851C215.369 274.002 215.434 273.158 215.5 272.303C215.072 272.303 214.652 272.303 214.226 272.303C214.259 271.87 214.292 271.451 214.325 271.025C215.172 271.025 216.016 271.025 216.868 271.025C216.769 272.298 216.67 273.57 216.571 274.851Z" fill="#263238"/>
<path d="M196.317 272.3C196.349 271.878 196.382 271.456 196.415 271.027C197.266 271.027 198.111 271.027 198.965 271.027C198.932 271.446 198.9 271.865 198.866 272.297C198.015 272.297 197.164 272.297 196.314 272.297L196.317 272.3Z" fill="#263238"/>
<path d="M213.824 277.415C213.857 276.993 213.889 276.572 213.922 276.142C214.346 276.142 214.765 276.142 215.193 276.142C215.16 276.56 215.128 276.98 215.094 277.411C214.669 277.411 214.245 277.411 213.821 277.411L213.824 277.415Z" fill="#263238"/>
<path d="M215.008 278.697C215.431 278.697 215.848 278.697 216.273 278.697C216.241 279.118 216.208 279.538 216.175 279.964C215.755 279.964 215.336 279.964 214.91 279.964C214.942 279.544 214.975 279.127 215.008 278.697Z" fill="#263238"/>
<path d="M205.467 269.743C205.5 269.321 205.532 268.9 205.565 268.47C205.989 268.47 206.408 268.47 206.835 268.47C206.803 268.888 206.771 269.309 206.737 269.74C206.312 269.74 205.888 269.74 205.464 269.74L205.467 269.743Z" fill="#263238"/>
<path d="M200.74 281.248C200.318 281.248 199.896 281.248 199.467 281.248C199.5 280.824 199.532 280.404 199.566 279.972C199.99 279.972 200.414 279.972 200.839 279.972L200.836 279.969C200.803 280.396 200.77 280.823 200.737 281.251L200.74 281.248Z" fill="#263238"/>
<path d="M213.428 282.53C213.461 282.108 213.494 281.687 213.527 281.257C213.95 281.257 214.37 281.257 214.797 281.257C214.765 281.675 214.732 282.095 214.698 282.526C214.274 282.526 213.849 282.526 213.425 282.526L213.428 282.53Z" fill="#263238"/>
<path d="M212.839 273.578C213.261 273.578 213.683 273.578 214.112 273.578C214.079 274.003 214.047 274.422 214.013 274.855C213.589 274.855 213.165 274.855 212.741 274.855L212.744 274.858C212.777 274.43 212.81 274.003 212.843 273.576L212.839 273.578Z" fill="#263238"/>
<path d="M205.45 286.36C205.025 286.36 204.608 286.36 204.185 286.36C204.218 285.938 204.25 285.521 204.283 285.095C204.701 285.095 205.121 285.095 205.549 285.095C205.516 285.512 205.483 285.932 205.45 286.36Z" fill="#263238"/>
<path d="M208.014 286.363C207.981 286.785 207.948 287.206 207.915 287.636C207.492 287.636 207.072 287.636 206.645 287.636C206.678 287.218 206.71 286.798 206.744 286.367C207.168 286.367 207.593 286.367 208.017 286.367L208.014 286.363Z" fill="#263238"/>
<path d="M215.581 287.639C215.156 287.639 214.739 287.639 214.316 287.639C214.349 287.217 214.381 286.8 214.414 286.374C214.831 286.374 215.252 286.374 215.679 286.374C215.647 286.79 215.614 287.21 215.581 287.639Z" fill="#263238"/>
<path d="M206.251 276.134C205.829 276.134 205.408 276.134 204.978 276.134C205.011 275.711 205.043 275.29 205.076 274.864C205.494 274.864 205.915 274.864 206.346 274.864C206.313 275.289 206.28 275.713 206.247 276.137L206.251 276.134Z" fill="#263238"/>
<path d="M196.705 267.178C195.427 267.178 194.157 267.178 192.882 267.178C192.981 265.903 193.078 264.633 193.178 263.355C194.448 263.355 195.721 263.355 197.001 263.355C196.902 264.625 196.804 265.897 196.705 267.178Z" fill="#263238"/>
<path d="M210.784 267.176C210.883 265.899 210.981 264.629 211.079 263.353C212.354 263.353 213.624 263.353 214.903 263.353C214.804 264.623 214.706 265.896 214.607 267.176C213.337 267.176 212.065 267.176 210.784 267.176Z" fill="#263238"/>
<path d="M191.495 285.079C191.594 283.801 191.693 282.531 191.791 281.255C193.066 281.255 194.336 281.255 195.614 281.255C195.516 282.526 195.418 283.799 195.319 285.079C194.048 285.079 192.776 285.079 191.495 285.079Z" fill="#263238"/>
<path d="M194.765 257.766H189.168L188.69 263.941" stroke="#E44642" stroke-miterlimit="10"/>
<path d="M215.125 257.766H220.721L220.243 263.941" stroke="#E44642" stroke-miterlimit="10"/>
<path d="M192.248 290.29H186.651L187.129 284.114" stroke="#E44642" stroke-miterlimit="10"/>
<path d="M212.607 290.29H218.203L218.682 284.114" stroke="#E44642" stroke-miterlimit="10"/>
<path d="M135.607 238.863C135.607 238.863 141.634 231.916 142.678 231.398C143.722 230.88 157.799 223.999 157.799 223.999L153.881 243.902L132.351 253.91L135.607 238.863Z" fill="white" stroke="#263238" stroke-miterlimit="10"/>
<path d="M173.257 254.123L154.142 250.589C152.583 250.3 151.553 248.803 151.841 247.244L160.293 201.533C160.582 199.974 162.079 198.944 163.638 199.232L182.753 202.767C184.312 203.056 185.342 204.553 185.054 206.112L176.602 251.822C176.313 253.382 174.816 254.412 173.257 254.123Z" fill="white" stroke="#263238" stroke-miterlimit="10"/>
<path d="M166.054 230.541C166.167 229.945 166.279 229.349 166.392 228.753L166.39 228.755C166.658 228.806 166.926 228.856 167.195 228.907C167.252 228.603 167.308 228.311 167.364 228.012C167.092 227.961 166.826 227.91 166.558 227.86L166.56 227.862C166.615 227.564 166.671 227.266 166.727 226.967C167.266 227.069 167.804 227.171 168.35 227.274C168.407 226.972 168.462 226.679 168.518 226.385C168.789 226.437 169.054 226.486 169.325 226.538C169.268 226.835 169.213 227.128 169.157 227.422C169.43 227.474 169.696 227.525 169.967 227.576C170.081 226.978 170.192 226.387 170.304 225.794L170.302 225.796C170.337 225.802 170.37 225.808 170.405 225.814C171.18 225.96 171.956 226.107 172.731 226.253C172.675 226.549 172.619 226.845 172.563 227.142C172.836 227.194 173.101 227.244 173.366 227.294C173.423 226.996 173.478 226.703 173.534 226.408C173.263 226.356 172.996 226.305 172.729 226.255C172.785 225.959 172.841 225.662 172.899 225.357C172.355 225.255 171.819 225.153 171.279 225.05C171.392 224.453 171.503 223.864 171.615 223.274C170.805 223.12 169.999 222.967 169.187 222.813C169.13 223.112 169.075 223.405 169.018 223.704C168.477 223.601 167.943 223.5 167.407 223.399C167.295 223.996 167.183 224.586 167.07 225.185C167.34 225.237 167.606 225.287 167.871 225.337C167.814 225.637 167.759 225.929 167.702 226.228C167.432 226.177 167.166 226.127 166.897 226.076C166.84 226.379 166.784 226.673 166.728 226.968C166.461 226.918 166.194 226.867 165.92 226.815C165.976 226.516 166.031 226.223 166.089 225.921C165.276 225.767 164.471 225.615 163.662 225.462C163.719 225.162 163.774 224.871 163.831 224.571C164.636 224.724 165.441 224.876 166.252 225.03C166.703 222.646 167.152 220.27 167.603 217.885C167.879 217.937 168.147 217.988 168.416 218.039L168.414 218.037C168.252 218.896 168.09 219.757 167.928 220.616C167.922 220.646 167.916 220.676 167.91 220.712C168.179 220.763 168.445 220.813 168.718 220.865C168.83 220.273 168.942 219.682 169.054 219.088C169.326 219.139 169.59 219.189 169.861 219.241C169.75 219.831 169.638 220.422 169.524 221.025C169.8 221.077 170.069 221.127 170.337 221.178L170.336 221.176C170.28 221.47 170.225 221.765 170.167 222.068C171.517 222.324 172.862 222.578 174.211 222.834C174.154 223.133 174.1 223.425 174.043 223.725C174.314 223.776 174.58 223.826 174.854 223.879C174.796 224.183 174.741 224.48 174.684 224.776L174.687 224.775C174.418 224.724 174.15 224.674 173.881 224.622C173.823 224.927 173.769 225.219 173.712 225.517C173.983 225.569 174.25 225.619 174.517 225.67L174.515 225.667C174.404 226.26 174.292 226.852 174.177 227.455C174.451 227.507 174.72 227.558 174.988 227.609L174.986 227.607C174.874 228.199 174.762 228.791 174.649 229.391C174.382 229.34 174.116 229.289 173.846 229.238C173.733 229.837 173.621 230.427 173.507 231.029C173.776 231.08 174.044 231.13 174.313 231.181L174.311 231.179C174.256 231.473 174.2 231.768 174.142 232.071C174.684 232.173 175.219 232.275 175.759 232.377C175.702 232.676 175.647 232.968 175.59 233.268C174.786 233.116 173.98 232.963 173.167 232.809C173.054 233.408 172.942 233.999 172.829 234.594C172.558 234.543 172.294 234.493 172.022 234.441C172.077 234.149 172.132 233.856 172.19 233.551C171.644 233.447 171.106 233.346 170.568 233.244L170.569 233.246C170.625 232.951 170.68 232.657 170.738 232.354C170.466 232.303 170.201 232.252 169.931 232.2C169.988 231.901 170.043 231.609 170.099 231.309C170.634 231.411 171.17 231.512 171.71 231.614C171.767 231.312 171.822 231.02 171.878 230.722C170.534 230.467 169.191 230.213 167.841 229.957C167.785 230.249 167.729 230.542 167.672 230.844C167.127 230.74 166.588 230.638 166.05 230.537L166.054 230.541ZM171.413 228.782C171.469 228.485 171.525 228.19 171.581 227.893C171.308 227.841 171.043 227.791 170.778 227.741C170.722 228.039 170.666 228.332 170.61 228.628C170.882 228.68 171.148 228.73 171.415 228.78C171.359 229.077 171.303 229.373 171.247 229.669C171.79 229.772 172.325 229.873 172.859 229.975C172.915 229.677 172.971 229.383 173.027 229.088C172.486 228.985 171.95 228.884 171.413 228.782ZM169.792 228.479C169.521 228.428 169.255 228.378 168.991 228.328C168.935 228.627 168.879 228.919 168.824 229.211C169.093 229.262 169.358 229.313 169.624 229.363C169.68 229.067 169.736 228.776 169.792 228.479ZM172.263 224.312C172.534 224.363 172.799 224.413 173.063 224.463C173.119 224.165 173.175 223.872 173.23 223.58C172.961 223.529 172.697 223.478 172.429 223.428C172.374 223.724 172.319 224.015 172.263 224.312Z" fill="#263238"/>
<path d="M160.632 219.334C161.026 217.251 161.419 215.174 161.813 213.093C163.698 213.45 165.58 213.807 167.468 214.164C167.075 216.242 166.682 218.32 166.287 220.405C164.405 220.048 162.521 219.692 160.632 219.334ZM162.455 214.138C162.174 215.628 161.893 217.112 161.612 218.594C162.962 218.85 164.306 219.104 165.649 219.359C165.931 217.871 166.211 216.389 166.492 214.903C165.146 214.648 163.803 214.394 162.455 214.138Z" fill="#263238"/>
<path d="M177.616 222.553C175.729 222.196 173.847 221.84 171.96 221.482C172.354 219.401 172.747 217.324 173.141 215.241C175.024 215.598 176.908 215.955 178.797 216.312C178.404 218.389 178.011 220.468 177.616 222.553ZM177.821 217.052C176.47 216.796 175.126 216.541 173.784 216.287C173.502 217.776 173.221 219.26 172.941 220.742C174.289 220.997 175.632 221.252 176.978 221.507C177.259 220.021 177.539 218.539 177.821 217.052Z" fill="#263238"/>
<path d="M159.45 225.593C161.338 225.95 163.22 226.307 165.106 226.664C164.712 228.745 164.319 230.822 163.925 232.905C162.042 232.548 160.158 232.191 158.27 231.834C158.662 229.757 159.055 227.678 159.45 225.593ZM164.128 227.406C162.778 227.15 161.434 226.895 160.091 226.641C159.809 228.13 159.528 229.613 159.248 231.096C160.596 231.351 161.939 231.606 163.285 231.861C163.566 230.375 163.846 228.893 164.128 227.406Z" fill="#263238"/>
<path d="M168.418 218.04C168.53 217.448 168.642 216.856 168.756 216.255C168.485 216.204 168.219 216.154 167.949 216.102C168.063 215.505 168.174 214.915 168.287 214.321C169.63 214.575 170.975 214.83 172.324 215.086C172.213 215.676 172.101 216.267 171.988 216.863C171.722 216.813 171.458 216.763 171.189 216.712C171.132 217.01 171.077 217.304 171.02 217.606C171.285 217.656 171.551 217.706 171.82 217.757C171.707 218.355 171.595 218.944 171.483 219.539C171.217 219.488 170.951 219.438 170.677 219.386C170.733 219.093 170.788 218.799 170.845 218.501C170.573 218.449 170.309 218.399 170.037 218.347C170.093 218.049 170.149 217.755 170.205 217.457C169.933 217.405 169.669 217.356 169.398 217.304C169.343 217.595 169.287 217.889 169.229 218.191C168.953 218.139 168.684 218.088 168.416 218.037L168.418 218.04ZM169.569 216.402C169.84 216.453 170.105 216.504 170.369 216.554C170.425 216.255 170.481 215.963 170.536 215.671C170.267 215.619 170.003 215.569 169.735 215.519C169.68 215.814 169.624 216.105 169.569 216.402Z" fill="#263238"/>
<path d="M164.335 221.89C164.279 222.185 164.224 222.479 164.166 222.782C164.707 222.885 165.242 222.986 165.781 223.089C165.724 223.388 165.669 223.68 165.612 223.98C164.808 223.827 164.003 223.675 163.19 223.521C163.077 224.12 162.965 224.711 162.852 225.306C161.771 225.101 160.698 224.898 159.62 224.693C159.732 224.104 159.843 223.513 159.956 222.917C160.22 222.967 160.487 223.017 160.758 223.068C160.702 223.361 160.648 223.652 160.591 223.95C161.132 224.052 161.668 224.154 162.213 224.257C162.382 223.367 162.55 222.475 162.719 221.583L162.717 221.585C163.257 221.687 163.797 221.79 164.337 221.892L164.335 221.89Z" fill="#263238"/>
<path d="M166.052 230.538C165.996 230.833 165.941 231.127 165.883 231.431C166.154 231.482 166.419 231.532 166.69 231.584C166.633 231.883 166.579 232.175 166.522 232.475C166.793 232.526 167.058 232.576 167.328 232.628C167.271 232.93 167.216 233.222 167.16 233.52C166.354 233.368 165.551 233.216 164.742 233.063C164.91 232.175 165.078 231.286 165.248 230.389C165.516 230.439 165.784 230.49 166.052 230.541L166.052 230.538Z" fill="#263238"/>
<path d="M162.719 221.583C162.183 221.482 161.646 221.38 161.102 221.277C161.046 221.576 160.99 221.869 160.934 222.167C160.662 222.115 160.398 222.065 160.128 222.014C160.239 221.426 160.351 220.835 160.464 220.238C161.267 220.391 162.072 220.543 162.885 220.697C162.829 220.993 162.774 221.289 162.717 221.586L162.719 221.583Z" fill="#263238"/>
<path d="M176.941 226.125C176.672 226.074 176.408 226.024 176.138 225.972C176.25 225.379 176.362 224.791 176.475 224.193C176.204 224.142 175.938 224.092 175.668 224.041C175.725 223.739 175.78 223.445 175.837 223.149C176.373 223.25 176.907 223.352 177.446 223.454C177.278 224.342 177.11 225.231 176.941 226.125Z" fill="#263238"/>
<path d="M164.336 221.892C164.392 221.598 164.448 221.303 164.505 221.003C165.043 221.106 165.578 221.207 166.118 221.309C166.062 221.602 166.007 221.894 165.95 222.195C165.411 222.093 164.873 221.991 164.336 221.889L164.336 221.892Z" fill="#263238"/>
<path d="M174.989 227.61C175.045 227.316 175.1 227.021 175.157 226.721C175.425 226.772 175.691 226.823 175.961 226.874C175.906 227.166 175.851 227.459 175.794 227.76C175.525 227.709 175.256 227.658 174.988 227.608L174.989 227.61Z" fill="#263238"/>
<path d="M175.632 228.659C175.899 228.71 176.163 228.759 176.432 228.81C176.376 229.104 176.321 229.397 176.265 229.695C175.999 229.645 175.733 229.595 175.464 229.544C175.52 229.25 175.575 228.959 175.632 228.659Z" fill="#263238"/>
<path d="M170.339 221.179C170.394 220.885 170.45 220.59 170.507 220.29C170.775 220.341 171.041 220.391 171.311 220.442C171.255 220.734 171.2 221.028 171.143 221.329C170.875 221.278 170.606 221.227 170.338 221.177L170.339 221.179Z" fill="#263238"/>
<path d="M166.392 228.753C166.125 228.703 165.858 228.652 165.586 228.601C165.642 228.304 165.697 228.012 165.754 227.71C166.023 227.761 166.291 227.811 166.56 227.862L166.558 227.86C166.502 228.158 166.446 228.457 166.389 228.755L166.392 228.753Z" fill="#263238"/>
<path d="M174.313 231.181C174.369 230.887 174.425 230.592 174.482 230.292C174.75 230.343 175.015 230.393 175.286 230.444C175.23 230.736 175.175 231.03 175.118 231.331C174.849 231.28 174.581 231.229 174.313 231.179L174.313 231.181Z" fill="#263238"/>
<path d="M174.685 224.777C174.952 224.827 175.219 224.878 175.49 224.929C175.434 225.226 175.379 225.519 175.322 225.82C175.053 225.769 174.785 225.718 174.516 225.668L174.518 225.67C174.574 225.372 174.63 225.073 174.687 224.775L174.685 224.777Z" fill="#263238"/>
<path d="M168.947 232.935C168.678 232.884 168.414 232.833 168.146 232.783C168.202 232.488 168.257 232.197 168.313 231.899C168.578 231.95 168.843 232 169.114 232.051C169.06 232.342 169.004 232.636 168.947 232.935Z" fill="#263238"/>
<path d="M170.569 233.244C170.514 233.538 170.458 233.832 170.401 234.133C170.133 234.082 169.867 234.031 169.597 233.98C169.653 233.688 169.708 233.395 169.765 233.094C170.033 233.145 170.302 233.196 170.57 233.246L170.569 233.244Z" fill="#263238"/>
<path d="M175.251 235.054C174.982 235.003 174.718 234.953 174.451 234.902C174.506 234.607 174.562 234.316 174.618 234.019C174.883 234.069 175.148 234.119 175.419 234.17C175.364 234.461 175.308 234.754 175.251 235.054Z" fill="#263238"/>
<path d="M170.304 225.795C170.038 225.744 169.771 225.693 169.499 225.642C169.555 225.346 169.61 225.053 169.666 224.755C169.931 224.805 170.197 224.855 170.469 224.907C170.413 225.204 170.358 225.5 170.301 225.797L170.304 225.795Z" fill="#263238"/>
<path d="M165.008 218.314C164.199 218.161 163.395 218.009 162.588 217.856C162.756 216.966 162.924 216.08 163.093 215.187C163.897 215.339 164.703 215.492 165.513 215.645C165.345 216.532 165.177 217.42 165.008 218.314Z" fill="#263238"/>
<path d="M173.917 220C174.085 219.109 174.253 218.222 174.422 217.331C175.228 217.483 176.032 217.636 176.84 217.789C176.672 218.676 176.505 219.564 176.335 220.458C175.532 220.307 174.727 220.154 173.917 220Z" fill="#263238"/>
<path d="M160.224 230.355C160.393 229.463 160.56 228.577 160.729 227.686C161.536 227.839 162.339 227.99 163.148 228.143C162.98 229.031 162.813 229.919 162.643 230.813C161.839 230.661 161.034 230.509 160.224 230.355Z" fill="#263238"/>
<path d="M164.562 211.423L161.021 210.751L160.206 215.064" stroke="#E44642" stroke-miterlimit="10"/>
<path d="M177.445 213.863L180.986 214.534L180.171 218.846" stroke="#E44642" stroke-miterlimit="10"/>
<path d="M160.266 234.132L156.725 233.461L157.541 229.149" stroke="#E44642" stroke-miterlimit="10"/>
<path d="M173.149 236.573L176.69 237.243L177.506 232.932" stroke="#E44642" stroke-miterlimit="10"/>
<path d="M184.388 209.709L185.053 206.112C185.342 204.553 184.312 203.056 182.752 202.767L163.638 199.232C162.078 198.944 160.581 199.974 160.293 201.533L159.627 205.13L184.388 209.709Z" fill="#263238" stroke="#263238" stroke-miterlimit="10"/>
<path d="M152.251 245.023L151.841 247.244C151.553 248.803 152.583 250.301 154.142 250.589L173.257 254.124C174.816 254.412 176.313 253.382 176.602 251.823L177.012 249.602L152.251 245.023Z" fill="#263238" stroke="#263238" stroke-miterlimit="10"/>
<path d="M146.042 236.288C146.042 236.288 152.733 237.287 154.797 237.67C156.86 238.051 165.147 235.553 165.852 236.869C166.557 238.185 165.53 239.892 163.628 241.2C161.727 242.508 153.882 243.902 153.882 243.902C153.882 243.902 151.429 248.191 146.649 249.678C141.869 251.165 134.321 250.955 134.321 250.955" fill="white"/>
<path d="M146.042 236.288C146.042 236.288 152.733 237.287 154.797 237.67C156.86 238.051 165.147 235.553 165.852 236.869C166.557 238.185 165.53 239.892 163.628 241.2C161.727 242.508 153.882 243.902 153.882 243.902C153.882 243.902 151.429 248.191 146.649 249.678C141.869 251.165 134.321 250.955 134.321 250.955" stroke="#263238" stroke-miterlimit="10"/>
<path d="M36.7409 326.703H149.34C149.61 323.037 150.583 303.613 143.459 277.212C135.532 247.834 135.532 219.39 135.532 219.39C135.532 219.39 140.894 207.266 134.132 197.241C127.371 187.216 118.482 184.365 118.482 184.365C118.482 184.365 69.783 169.263 60.6894 170.428C60.6894 170.428 37.8406 189.78 35.9752 190.946C34.1098 192.111 28.9805 200.038 28.9805 204.702C28.9805 209.365 38.0733 274.88 39.2391 283.274C40.3133 291.005 37.2333 321.878 36.7409 326.703Z" fill="#E44642" stroke="#263238" stroke-miterlimit="10"/>
<path d="M52.2961 211.929C52.2961 211.929 61.389 247.368 70.948 260.192" stroke="#263238" stroke-miterlimit="10"/>
<path d="M61.8552 248.301C61.8552 248.301 67.6842 260.425 74.2127 266.021" stroke="#263238" stroke-miterlimit="10"/>
<path d="M143.85 110.344C143.85 110.344 143.614 125.328 142.19 127.161C140.766 128.994 138.527 131.723 138.651 133.229C138.774 134.736 141.995 144.058 142.158 145.361C142.322 146.664 136.949 149.191 136.949 149.191C136.949 149.191 128.163 166.703 127.268 168.007C126.373 169.311 124.296 169.107 121.853 168.62C119.409 168.133 115.092 165.366 115.092 165.366L106.632 181.249C106.632 181.249 92.986 170.059 86.8358 165.869C80.6856 161.678 73.0693 157.407 73.0693 157.407L81.0031 146.287C81.0031 146.287 84.7062 141.521 85.679 133.459C86.6519 125.397 88.8048 114.606 105.698 106.332C122.59 98.0581 139.247 106.885 143.85 110.344Z" fill="white" stroke="#263238" stroke-miterlimit="10"/>
<path d="M131.431 109.984C131.431 109.984 132.29 117.353 131.07 119.227C129.849 121.101 119.385 122.613 119.346 123.874C119.306 125.136 119.309 131.488 117.436 131.326C115.563 131.164 115.074 131.491 114.545 130.961C114.015 130.432 115.071 125.139 110.675 125.955C106.278 126.772 102.209 133.37 102.293 137.197C102.376 141.025 105.838 143.832 105.838 143.832C105.838 143.832 105.473 145.665 98.2264 148.03C90.9802 150.396 82.4286 148.69 81.0023 146.288C79.5761 143.886 75.3663 112.985 74.467 104.76C73.567 96.5359 80.3996 81.386 92.3277 77.8376C104.256 74.2892 118.263 76.2364 118.263 76.2364C118.263 76.2364 125.468 71.9576 131.739 74.4791C138.011 77.0006 139.48 84.4915 139.48 84.4915C139.48 84.4915 151.206 84.0786 154.345 91.6904C157.485 99.3029 155.168 107.732 151.058 111.358C146.947 114.984 139.861 111.241 136.724 109.981C133.589 108.721 131.431 109.984 131.431 109.984Z" fill="#263238" stroke="#263238" stroke-miterlimit="10"/>
<path d="M142.19 127.161C142.19 127.161 138.768 123.091 134.984 127.205" stroke="#263238" stroke-miterlimit="10"/>
<path d="M136.879 132.558C136.643 133.739 135.951 134.596 135.333 134.472C134.714 134.349 134.404 133.292 134.639 132.112C134.875 130.931 135.567 130.074 136.185 130.197C136.804 130.321 137.114 131.377 136.879 132.558Z" fill="#263238"/>
<path d="M131.657 153.428C131.657 153.428 128.93 154.366 126.689 150.744" stroke="#263238" stroke-miterlimit="10"/>
<path d="M115.092 165.367C115.092 165.367 112.24 162.681 110.773 159.425C109.305 156.168 107.797 153.115 107.797 153.115C107.797 153.115 107.966 165.004 108.416 168.058C108.866 171.112 110.088 174.531 110.088 174.531L115.092 165.367Z" fill="#263238" stroke="#263238" stroke-miterlimit="10"/>
<path d="M67.2017 161.942C67.2017 161.942 69.9003 156.959 71.3536 156.752C72.8069 156.544 95.8516 162.357 101.042 165.264C106.233 168.17 111.423 175.437 111.423 175.437L67.2017 161.942Z" fill="white" stroke="#263238" stroke-miterlimit="10"/>
<path d="M66.3706 160.074C66.3706 160.074 79.4502 163.395 93.3601 167.548C107.27 171.7 113.083 176.061 113.914 177.306C114.744 178.551 118.482 184.365 118.482 184.365C118.482 184.365 106.856 182.081 85.0562 177.098C63.2568 172.115 58.897 171.493 58.897 171.493C58.897 171.493 65.3324 161.734 66.3706 160.074Z" fill="#E44642" stroke="#263238" stroke-miterlimit="10"/>
<path d="M91.2327 219.623C91.2327 219.623 99.6259 267.652 100.325 273.249C101.025 278.844 99.6259 293.533 100.325 304.958C100.974 315.549 103.625 325.332 104.008 326.704H145.294C144.953 324.767 141.558 305.36 140.895 295.398C140.195 284.906 139.962 245.037 138.563 235.245C137.164 225.452 137.631 219.391 137.631 219.391C137.631 219.391 140.662 203.769 137.164 196.308C133.667 188.847 119.678 186.516 116.88 186.283" fill="#E44642"/>
<path d="M91.2327 219.623C91.2327 219.623 99.6259 267.652 100.325 273.249C101.025 278.844 99.6259 293.533 100.325 304.958C100.974 315.549 103.625 325.332 104.008 326.704H145.294C144.953 324.767 141.558 305.36 140.895 295.398C140.195 284.906 139.962 245.037 138.563 235.245C137.164 225.452 137.631 219.391 137.631 219.391C137.631 219.391 140.662 203.769 137.164 196.308C133.667 188.847 119.678 186.516 116.88 186.283" stroke="#263238" stroke-miterlimit="10"/>
<path d="M110.989 193.262C110.989 193.262 99.3488 201.992 96.4392 219.451L110.989 193.262Z" fill="#E44642"/>
<path d="M110.989 193.262C110.989 193.262 99.3488 201.992 96.4392 219.451" stroke="#263238" stroke-miterlimit="10"/>
<path d="M279.518 60.1818H282.048L286.447 70.9233H286.609L291.009 60.1818H293.539V74H291.555V64.0007H291.427L287.352 73.9798H285.705L281.63 63.994H281.502V74H279.518V60.1818ZM300.875 74.2092C299.853 74.2092 298.974 73.991 298.236 73.5547C297.503 73.1139 296.936 72.4954 296.536 71.6992C296.14 70.8986 295.942 69.9607 295.942 68.8857C295.942 67.8241 296.14 66.8885 296.536 66.0788C296.936 65.2692 297.494 64.6372 298.209 64.1829C298.929 63.7286 299.77 63.5014 300.733 63.5014C301.318 63.5014 301.884 63.5981 302.433 63.7915C302.982 63.985 303.474 64.2886 303.911 64.7024C304.347 65.1162 304.691 65.6538 304.943 66.315C305.195 66.9717 305.321 67.7701 305.321 68.7102V69.4254H297.083V67.9141H303.344C303.344 67.3833 303.236 66.9132 303.02 66.5039C302.804 66.0901 302.501 65.764 302.109 65.5256C301.722 65.2872 301.268 65.168 300.746 65.168C300.18 65.168 299.685 65.3074 299.262 65.5863C298.844 65.8607 298.52 66.2205 298.29 66.6658C298.065 67.1067 297.953 67.5857 297.953 68.103V69.2837C297.953 69.9764 298.074 70.5657 298.317 71.0515C298.565 71.5373 298.909 71.9084 299.35 72.1648C299.791 72.4167 300.306 72.5426 300.895 72.5426C301.277 72.5426 301.626 72.4886 301.941 72.3807C302.255 72.2682 302.528 72.1018 302.757 71.8814C302.986 71.661 303.162 71.3888 303.283 71.065L305.193 71.4091C305.04 71.9714 304.765 72.4639 304.37 72.8867C303.978 73.305 303.486 73.6312 302.892 73.8651C302.303 74.0945 301.63 74.2092 300.875 74.2092ZM309.577 67.8466V74H307.559V63.6364H309.496V65.3232H309.624C309.862 64.7744 310.236 64.3336 310.744 64.0007C311.257 63.6679 311.902 63.5014 312.68 63.5014C313.387 63.5014 314.005 63.6499 314.536 63.9467C315.067 64.2391 315.478 64.6754 315.771 65.2557C316.063 65.8359 316.209 66.5534 316.209 67.408V74H314.192V67.6509C314.192 66.8997 313.996 66.3127 313.605 65.8899C313.213 65.4626 312.676 65.2489 311.992 65.2489C311.524 65.2489 311.108 65.3501 310.744 65.5526C310.384 65.755 310.098 66.0518 309.887 66.4432C309.68 66.83 309.577 67.2978 309.577 67.8466ZM325.48 69.7021V63.6364H327.504V74H325.52V72.2053H325.412C325.174 72.7585 324.792 73.2196 324.265 73.5884C323.743 73.9528 323.094 74.1349 322.315 74.1349C321.65 74.1349 321.06 73.9888 320.548 73.6964C320.039 73.3995 319.639 72.9609 319.347 72.3807C319.059 71.8004 318.915 71.083 318.915 70.2283V63.6364H320.932V69.9854C320.932 70.6916 321.128 71.2539 321.519 71.6722C321.911 72.0906 322.419 72.2997 323.044 72.2997C323.422 72.2997 323.797 72.2053 324.171 72.0163C324.549 71.8274 324.861 71.5418 325.109 71.1594C325.361 70.7771 325.484 70.2913 325.48 69.7021Z" fill="#A09E9E"/>
</svg>
