<svg width="45" height="45" viewBox="0 0 45 45" fill="none" xmlns="http://www.w3.org/2000/svg">
<path d="M45 22.5C45 10.0736 34.9264 0 22.5 0C10.0736 0 0 10.0736 0 22.5C0 34.9264 10.0736 45 22.5 45C34.9264 45 45 34.9264 45 22.5Z" fill="url(#paint0_linear_20_1118)"/>
<path d="M29.0136 19.3719C29.5152 19.0219 30.6892 18.2022 30.6892 16.2167V12.1257H31.2489C31.505 12.1257 31.7147 11.916 31.7147 11.66V9.46542C31.7147 9.20948 31.505 9 31.2489 9H13.2154C12.9592 9 12.75 9.20948 12.75 9.46542V11.66C12.75 11.916 12.9592 12.1257 13.2154 12.1257H13.7752V16.2909C13.7752 18.2574 14.3741 18.7178 15.4322 19.3627L20.0351 22.1674V23.3636C18.8759 24.0607 15.8475 25.8855 15.4505 26.1628C14.9493 26.5125 13.7753 27.3319 13.7753 29.318V32.8403H13.2154C12.9593 32.8403 12.7501 33.0499 12.7501 33.3058V35.5003C12.7501 35.7562 12.9593 35.966 13.2154 35.966H31.249C31.505 35.966 31.7148 35.7562 31.7148 35.5003V33.3058C31.7148 33.0499 31.505 32.8403 31.249 32.8403H30.6893V29.2433C30.6893 27.2771 30.0904 26.8166 29.032 26.1717L24.4296 23.3671V22.1707C25.5884 21.4739 28.617 19.6493 29.0136 19.3719ZM23.1553 24.5536L28.1599 27.6032C28.5446 27.8375 28.7494 27.9665 28.844 28.1164C28.9578 28.2967 29.0128 28.6651 29.0128 29.2432V32.8403H15.4512V29.3179C15.4512 28.206 16.0052 27.8194 16.4097 27.5371C16.7258 27.3167 19.5101 25.6338 21.3047 24.5565C21.5568 24.405 21.7111 24.1323 21.7111 23.8376V21.6964C21.7111 21.4044 21.5591 21.1331 21.3091 20.981L16.3039 17.9312C15.92 17.6972 15.7152 17.5681 15.6204 17.4177C15.5064 17.2378 15.4511 16.869 15.4511 16.2909V12.1257H29.0128V16.2168C29.0128 17.3283 28.4588 17.7153 28.0545 17.9973C27.7384 18.218 24.9543 19.9009 23.1595 20.9782C22.9072 21.1297 22.7528 21.4024 22.7528 21.6965V23.8377C22.7529 24.1302 22.9056 24.4014 23.1553 24.5536Z" fill="white" stroke="white" stroke-width="0.0760032"/>
<path d="M16.248 29.4983C16.134 29.5835 16.0714 29.6409 16.0714 29.8443C16.0714 30.048 16.0714 32.0114 16.0714 32.0114C16.0714 32.0114 16.0489 32.2227 16.2869 32.2227C16.4024 32.2227 19.2754 32.2259 22.2101 32.2291C25.1447 32.2258 28.018 32.2227 28.1331 32.2227C28.3708 32.2227 28.3484 32.0114 28.3484 32.0114C28.3484 32.0114 28.3484 30.0482 28.3484 29.8443C28.3484 29.6409 28.2856 29.5835 28.172 29.4983C27.3666 28.8963 23.786 26.071 22.2101 26.071C20.6337 26.0709 17.0529 28.8963 16.248 29.4983Z" fill="white" stroke="white" stroke-width="0.0760032"/>
<defs>
<linearGradient id="paint0_linear_20_1118" x1="22.5" y1="0" x2="22.5" y2="45" gradientUnits="userSpaceOnUse">
<stop stop-color="#E44642"/>
<stop offset="1" stop-color="#7E2725"/>
</linearGradient>
</defs>
</svg>
