<svg width="354" height="354" viewBox="0 0 354 354" fill="none" xmlns="http://www.w3.org/2000/svg">
<path d="M177 346.413C254.05 346.413 316.511 310.931 316.511 267.162C316.511 223.393 254.05 187.912 177 187.912C99.9497 187.912 37.4883 223.393 37.4883 267.162C37.4883 310.931 99.9497 346.413 177 346.413Z" fill="#F7C7C6"/>
<path d="M235.059 317.132L130.913 257.003C126.898 254.685 126.901 248.89 130.917 246.576L141.19 240.1C144.798 238.02 149.241 238.022 152.848 240.105L256.994 300.233C261.008 302.551 261.006 308.346 256.99 310.661L246.716 317.137C243.109 319.217 238.665 319.214 235.059 317.132Z" fill="#E0E0E0"/>
<path d="M76.7116 262.315C89.1944 262.315 99.3138 256.506 99.3138 249.339C99.3138 242.172 89.1944 236.363 76.7116 236.363C64.2287 236.363 54.1094 242.172 54.1094 249.339C54.1094 256.506 64.2287 262.315 76.7116 262.315Z" fill="#E6E6E6"/>
<path d="M271.982 265.289L281.9 270.99C281.9 270.99 276.836 255.08 279.533 239.04C280.551 232.986 282.738 229.97 283.507 228.352C284.277 226.735 290.194 216.71 284.924 212.126C279.653 207.542 267.377 216.765 268.042 241.447C268.383 254.113 271.982 265.289 271.982 265.289Z" fill="#E44642"/>
<path opacity="0.5" d="M271.982 265.289L281.9 270.99C281.9 270.99 276.836 255.08 279.533 239.04C280.551 232.986 282.738 229.97 283.507 228.352C284.277 226.735 290.194 216.71 284.924 212.126C279.653 207.542 267.377 216.765 268.042 241.447C268.383 254.113 271.982 265.289 271.982 265.289Z" fill="black"/>
<path d="M276.593 268.293C276.449 268.293 276.314 268.205 276.261 268.062C276.222 267.96 272.441 257.607 272.561 240.966C272.682 224.245 281.421 215.296 281.51 215.208C281.648 215.069 281.872 215.07 282.01 215.207C282.148 215.345 282.148 215.569 282.011 215.708C281.925 215.794 273.388 224.556 273.269 240.971C273.15 257.471 276.886 267.714 276.924 267.816C276.992 267.999 276.899 268.202 276.716 268.271C276.676 268.286 276.634 268.293 276.593 268.293Z" fill="#FAFAFA"/>
<path d="M276.118 267.723L289.671 275.48C292.606 277.16 296.446 276.435 298.322 273.621C299.098 272.456 299.575 270.924 299.39 268.913C298.74 261.877 295.681 260.253 299.429 257.114C303.178 253.975 304.152 253.758 303.936 250.728C303.719 247.697 301.662 246.398 300.688 245.208C299.714 244.017 297.008 241.527 298.848 237.847C300.688 234.167 303.197 230.603 299.389 228.971C297.116 227.997 293.327 229.296 290.838 232.002C288.348 234.708 286.292 236.656 283.91 237.306C281.529 237.955 276.55 238.063 276.766 242.177C276.983 246.29 278.068 247.698 277.091 249.537C275.252 253.001 267.241 254.95 276.118 267.723Z" fill="#E44642"/>
<path d="M282.818 271.912C282.637 271.912 282.483 271.775 282.466 271.591C282.443 271.347 280.381 247.05 297.087 230.882C297.228 230.747 297.452 230.75 297.588 230.891C297.724 231.031 297.72 231.255 297.58 231.391C281.114 247.325 283.148 271.285 283.171 271.525C283.189 271.72 283.046 271.892 282.852 271.911C282.84 271.911 282.829 271.912 282.818 271.912Z" fill="#FAFAFA"/>
<path d="M285.5 250.998C285.319 250.998 285.163 250.859 285.148 250.675C284.594 244.226 280.073 240.984 280.027 240.952C279.866 240.839 279.828 240.619 279.941 240.459C280.053 240.298 280.275 240.26 280.433 240.373C280.63 240.511 285.27 243.84 285.852 250.614C285.869 250.809 285.725 250.981 285.53 250.997C285.52 250.998 285.51 250.998 285.5 250.998Z" fill="#FAFAFA"/>
<path d="M284.344 255.17C284.261 255.17 284.178 255.141 284.111 255.081C283.964 254.953 283.949 254.729 284.078 254.582C284.251 254.385 288.43 249.767 298.244 250.996C298.438 251.02 298.575 251.197 298.551 251.391C298.527 251.585 298.343 251.718 298.155 251.698C288.738 250.516 284.651 255.004 284.61 255.05C284.54 255.13 284.443 255.17 284.344 255.17Z" fill="#FAFAFA"/>
<path d="M231.886 309.947L140.294 257.067C133.831 253.336 128.593 243.326 128.593 234.71V38.5796C128.593 29.9632 133.832 26.0026 140.294 29.7338L231.886 82.6143C238.349 86.3455 243.588 96.3552 243.588 104.972V301.101C243.588 309.718 238.349 313.679 231.886 309.947Z" fill="#455A64"/>
<path d="M242.434 76.4667L150.842 23.5862C148.079 21.9911 145.541 21.8056 143.54 22.7855L143.537 22.7869C143.292 22.9072 143.054 23.046 142.825 23.201L132.563 29.1667C134.626 27.934 137.331 28.0225 140.296 29.7345L231.888 82.615C238.351 86.3462 243.589 96.3559 243.589 104.972V301.102C243.589 305.657 242.124 308.909 239.789 310.414L249.915 304.515L249.914 304.514C252.493 303.141 254.136 299.778 254.136 294.954V98.8239C254.136 90.2076 248.896 80.1979 242.434 76.4667Z" fill="#37474F"/>
<path d="M243.589 104.972V301.102C243.589 305.657 242.124 308.91 239.788 310.414L249.915 304.515L249.913 304.514C252.492 303.141 254.135 299.778 254.135 294.954V98.8242C254.135 98.8192 254.135 98.8135 254.135 98.8086L243.587 104.933C243.588 104.946 243.589 104.959 243.589 104.972Z" fill="#263238"/>
<path d="M254.135 114.05L243.588 120.14V124.895L254.135 118.805V114.05Z" fill="#37474F"/>
<path d="M249.514 145.693C248.57 146.238 247.806 145.66 247.806 144.402V134.173C247.806 132.915 248.57 131.454 249.514 130.91C250.458 130.365 251.222 130.943 251.222 132.201V142.429C251.222 143.688 250.457 145.149 249.514 145.693Z" fill="#37474F"/>
<path d="M247.806 144.402V134.173C247.806 132.915 248.57 131.454 249.514 130.909C249.925 130.672 250.297 130.659 250.592 130.811L250.594 130.799L249.318 130.137L249.316 130.147C249.017 129.978 248.633 129.985 248.208 130.23C247.265 130.775 246.5 132.237 246.5 133.494V143.723C246.5 144.402 246.727 144.873 247.081 145.086L247.078 145.097L248.418 145.795L248.42 145.783C248.048 145.582 247.806 145.103 247.806 144.402Z" fill="#455A64"/>
<path d="M249.514 170.454C248.57 170.999 247.806 170.421 247.806 169.163V158.935C247.806 157.677 248.57 156.215 249.514 155.671C250.458 155.126 251.222 155.704 251.222 156.962V167.191C251.222 168.449 250.457 169.91 249.514 170.454Z" fill="#37474F"/>
<path d="M247.806 169.163V158.934C247.806 157.676 248.57 156.215 249.514 155.671C249.925 155.433 250.297 155.42 250.592 155.572L250.594 155.56L249.318 154.898L249.316 154.909C249.017 154.739 248.633 154.747 248.208 154.992C247.265 155.537 246.5 156.997 246.5 158.255V168.484C246.5 169.163 246.727 169.634 247.081 169.848L247.078 169.858L248.418 170.556L248.42 170.544C248.048 170.343 247.806 169.864 247.806 169.163Z" fill="#455A64"/>
<path d="M228.703 88.1301L138.686 36.1494C137.031 35.1936 134.962 36.388 134.962 38.2989V234.709C134.962 241.268 139.609 249.317 145.289 252.596L233.118 303.304C234.941 304.356 237.219 303.041 237.219 300.936V102.881C237.219 97.4729 233.387 90.8347 228.703 88.1301Z" fill="#E44642"/>
<path opacity="0.9" d="M228.703 88.1301L138.686 36.1494C137.031 35.1936 134.962 36.388 134.962 38.2989V234.709C134.962 241.268 139.609 249.317 145.289 252.596L233.118 303.304C234.941 304.356 237.219 303.041 237.219 300.936V102.881C237.219 97.4729 233.387 90.8347 228.703 88.1301Z" fill="#FAFAFA"/>
<path d="M165.603 49.7197L166.997 55.5933L196.832 72.7956L201.984 70.0492L165.603 49.7197Z" fill="#455A64"/>
<path d="M174.37 55.3947C174.37 56.3689 173.686 56.7633 172.843 56.2762C171.999 55.7891 171.315 54.6053 171.315 53.6311C171.315 52.6576 171.999 52.2625 172.843 52.7496C173.687 53.2367 174.37 54.4212 174.37 55.3947Z" fill="#263238"/>
<path d="M194.471 67.8189C194.312 67.8189 194.153 67.78 194.006 67.6971L178.767 59.182C178.307 58.9243 178.142 58.3423 178.399 57.8821C178.656 57.4212 179.239 57.257 179.698 57.514L194.937 66.0291C195.398 66.2868 195.563 66.8688 195.306 67.329C195.131 67.6419 194.806 67.8189 194.471 67.8189Z" fill="#263238"/>
<path d="M153.831 77.0288C152.904 76.4936 152.232 76.9587 152.232 78.1432C152.232 79.3404 152.904 80.595 153.831 81.1303C154.382 81.4489 155.078 81.4552 155.585 81.1239L157.064 83.7987C156.203 84.3842 154.89 84.3269 153.699 83.6387C151.327 82.2694 149.606 79.327 149.606 76.6649C149.606 74.041 151.371 73.1497 153.799 74.5508C154.979 75.2326 156.269 76.6146 157.064 78.0667L155.585 79.2385C155.122 78.2452 154.427 77.3729 153.831 77.0288Z" fill="#E44642"/>
<path d="M165.579 85.9008C165.579 88.5502 163.793 89.4677 161.333 88.0475C158.873 86.6272 157.086 83.6593 157.086 80.9972C157.086 78.3479 158.873 77.482 161.333 78.9022C163.793 80.3218 165.579 83.2635 165.579 85.9008ZM159.711 82.5258C159.711 83.7485 160.483 85.0987 161.366 85.6084C162.249 86.1182 162.955 85.6212 162.955 84.3984C162.955 83.175 162.249 81.8893 161.366 81.3795C160.472 80.8634 159.711 81.3024 159.711 82.5258Z" fill="#E44642"/>
<path d="M168.436 83.0919L171.491 89.4413V84.8555L173.807 86.1929V95.1215L171.668 93.8861L168.623 87.5686V92.1288L166.296 90.785V81.8564L168.436 83.0919Z" fill="#E44642"/>
<path d="M181.375 90.5623V92.893L179.169 91.6193V98.2172L176.611 96.7396V90.1417L174.415 88.8744V86.543L181.375 90.5623Z" fill="#E44642"/>
<path d="M186.362 101.11L183.46 99.4344L183.064 100.466L180.439 98.9501L183.704 91.9062L186.329 93.4221L189.472 104.166L186.748 102.593L186.362 101.11ZM185.733 98.6322L184.94 95.5624L184.123 97.7026L185.733 98.6322Z" fill="#E44642"/>
<path d="M193.533 99.9502C192.606 99.4149 191.934 99.8801 191.934 101.065C191.934 102.262 192.606 103.516 193.533 104.052C194.084 104.37 194.78 104.377 195.287 104.045L196.766 106.72C195.905 107.306 194.592 107.248 193.401 106.56C191.029 105.191 189.309 102.248 189.309 99.5863C189.309 96.9624 191.074 96.0711 193.501 97.4722C194.681 98.154 195.971 99.536 196.766 100.988L195.287 102.16C194.823 101.167 194.129 100.294 193.533 99.9502Z" fill="#E44642"/>
<path d="M203.747 103.478V105.809L201.541 104.535V111.133L198.983 109.655V103.058L196.787 101.79V99.4595L203.747 103.478Z" fill="#E44642"/>
<path d="M211.304 114.44C211.933 114.803 212.418 114.523 212.418 113.63V108.485L214.977 109.962V115.108C214.977 117.478 213.532 118.184 211.293 116.891C209.042 115.592 207.554 113.191 207.554 110.823V105.677L210.112 107.154V112.3C210.113 113.178 210.665 114.07 211.304 114.44Z" fill="#E44642"/>
<path d="M219.103 114.471C218.816 114.306 218.629 114.299 218.629 114.567C218.629 115.688 222.633 117.299 222.633 120.534C222.633 122.521 221.121 122.527 219.378 121.521C218.033 120.744 216.532 119.356 215.506 117.859L216.455 116.19C217.249 117.413 218.617 118.827 219.4 119.279C219.775 119.496 220.018 119.496 220.018 119.177C220.018 118.018 216.014 116.47 216.014 113.337C216.014 111.554 217.316 111.185 219.323 112.343C220.547 113.05 221.816 114.203 222.688 115.343L221.761 117.05C220.978 116.101 219.776 114.859 219.103 114.471Z" fill="#E44642"/>
<path d="M140.955 121.026C143.511 117.893 145.045 113.893 145.045 109.534C145.045 99.4846 136.899 91.3384 126.85 91.3384C116.801 91.3384 108.654 99.4846 108.654 109.534C108.654 119.583 116.801 127.73 126.85 127.73C130.263 127.73 133.456 126.788 136.186 125.152L145.046 129L140.955 121.026Z" fill="#E44642"/>
<path opacity="0.4" d="M140.955 121.026C143.511 117.893 145.045 113.893 145.045 109.534C145.045 99.4846 136.899 91.3384 126.85 91.3384C116.801 91.3384 108.654 99.4846 108.654 109.534C108.654 119.583 116.801 127.73 126.85 127.73C130.263 127.73 133.456 126.788 136.186 125.152L145.046 129L140.955 121.026Z" fill="black"/>
<path d="M120.114 108.567C120.114 108.286 119.915 108.134 119.552 108.134C118.932 108.134 118.113 108.544 117.318 109.187L116.312 107.233C117.481 106.426 118.686 105.946 119.974 105.946C121.67 105.946 122.958 106.835 122.958 108.169C122.958 109.116 122.267 110.03 121.343 110.942L120.079 112.194H123.074V114.276H116.639L116.627 112.568L119.494 109.608C119.833 109.257 120.114 108.848 120.114 108.567Z" fill="#FAFAFA"/>
<path d="M128.312 106.063L126.358 110.755H127.153V109.175H129.622V110.755H130.558V112.685H129.622V114.276H127.153V112.685H123.655V110.93L125.762 106.063H128.312Z" fill="#FAFAFA"/>
<path d="M138.161 110.194V114.277H135.528V110.954C135.528 110.416 135.224 110.077 134.768 110.077C134.253 110.077 133.926 110.487 133.926 111.107V114.278H131.293V105.596H133.926V108.79C134.359 108.135 135.026 107.761 135.868 107.761C137.213 107.76 138.161 108.719 138.161 110.194Z" fill="#FAFAFA"/>
<path d="M224.037 175.983V263.95C224.037 268.319 219.306 271.054 215.522 268.865L168.141 241.507L159.748 236.666C157.975 235.644 156.408 234.355 155.085 232.869C152.01 229.433 150.238 224.94 150.238 220.189V132.215C150.238 127.845 154.963 125.118 158.753 127.299L214.52 159.505C220.411 162.9 224.037 169.186 224.037 175.983Z" fill="#E44642"/>
<path opacity="0.5" d="M224.037 175.983V263.95C224.037 268.319 219.306 271.054 215.522 268.865L168.141 241.507L159.748 236.666C157.975 235.644 156.408 234.355 155.085 232.869C152.01 229.433 150.238 224.94 150.238 220.189V132.215C150.238 127.845 154.963 125.118 158.753 127.299L214.52 159.505C220.411 162.9 224.037 169.186 224.037 175.983Z" fill="#FAFAFA"/>
<path d="M196.747 228.031C196.747 228.031 205.62 242.743 199.208 259.335L168.141 241.506L196.747 228.031Z" fill="#263238"/>
<path d="M210.89 161.928C211.561 156.476 207.685 151.511 202.233 150.84C196.78 150.169 191.816 154.045 191.144 159.497C190.473 164.95 194.349 169.914 199.802 170.586C205.254 171.257 210.219 167.381 210.89 161.928Z" fill="#263238"/>
<path d="M201.062 132.811C201.062 132.811 204.116 127.832 205.053 128.216C205.991 128.6 204.443 133.303 204.443 133.303C204.443 133.303 209.062 134.262 208.198 135.414C207.334 136.566 201.699 136.301 201.699 136.301L201.062 132.811Z" fill="#263238"/>
<path d="M203.211 145.584C201.063 161.544 187.633 161.544 187.633 161.544L159.442 149.143C159.442 149.143 157.315 147.282 156.667 143.001C156.442 141.535 156.388 139.776 156.66 137.717C156.66 137.703 156.667 137.683 156.667 137.669C157.567 130.96 162.585 123.741 173.52 121.525C175.701 121.075 178.122 120.83 180.794 120.83C182.015 120.83 183.187 120.884 184.312 121.007C192.841 121.838 198.765 125.806 201.601 131.969C202.222 133.319 202.692 134.772 203.006 136.326C203.586 139.121 203.66 142.223 203.211 145.584Z" fill="#263238"/>
<path d="M135.549 176.453C135.549 176.453 125.543 176.111 121.689 185.86C121.689 185.86 125.947 188.727 131.514 185.873C137.08 183.018 135.549 176.453 135.549 176.453Z" fill="#E44642"/>
<path opacity="0.5" d="M135.549 176.453C135.549 176.453 125.543 176.111 121.689 185.86C121.689 185.86 125.947 188.727 131.514 185.873C137.08 183.018 135.549 176.453 135.549 176.453Z" fill="black"/>
<path d="M135.261 181.147C135.261 181.147 132.438 168.845 130.941 168.693C129.367 168.533 129.154 172.448 129.276 174.648L125.711 167.033C125.24 166.029 124.023 165.641 123.051 166.175C119.505 168.123 113.301 174.041 126.396 188.678L135.261 181.147Z" fill="#945959"/>
<path d="M171.513 172.641L169.402 172.362C165.042 171.785 160.709 173.604 158.068 177.12L145.433 193.945L135.549 176.453C135.549 176.453 134.356 188.35 121.689 185.86L135.295 208.748C139.013 215.003 147.82 215.648 152.411 210.003L164.05 195.691L171.513 172.641Z" fill="#E44642"/>
<path d="M198.485 211.897C195.656 219.076 195.343 220.48 197.101 224.066C198.854 227.645 199.951 232.309 199.951 232.309C199.951 232.309 186.827 247.021 168.14 241.506L159.748 236.665C157.975 235.643 156.408 234.354 155.085 232.868L157.594 213.847C157.724 212.845 157.622 211.815 157.294 210.861L154.615 203C151.942 195.154 154.008 186.475 159.939 180.686L168.959 171.871L192.65 174.857L196.168 175.873C200.954 177.25 204.008 181.941 203.327 186.876C202.16 195.27 200.265 207.384 198.485 211.897Z" fill="#E44642"/>
<path opacity="0.5" d="M198.485 211.897C195.656 219.076 195.343 220.48 197.101 224.066C198.854 227.645 199.951 232.309 199.951 232.309C199.951 232.309 186.827 247.021 168.14 241.506L159.748 236.665C157.975 235.643 156.408 234.354 155.085 232.868L157.594 213.847C157.724 212.845 157.622 211.815 157.294 210.861L154.615 203C151.942 195.154 154.008 186.475 159.939 180.686L168.959 171.871L192.65 174.857L196.168 175.873C200.954 177.25 204.008 181.941 203.327 186.876C202.16 195.27 200.265 207.384 198.485 211.897Z" fill="black"/>
<path d="M184.204 190.475L179.459 186.433C178.435 185.56 177.025 185.293 175.752 185.731L170.017 187.703L169.246 184.491C168.74 182.381 166.574 181.12 164.489 181.721L162.003 182.437L166.213 174.38C167.585 171.756 169.699 169.594 172.292 168.165L173.939 167.256L187.569 167.958C187.569 167.958 192.65 170.062 192.65 174.861L184.204 190.475Z" fill="#E44642"/>
<path d="M187.63 173.966L173.961 184.616V150.713H187.63V173.966Z" fill="#945959"/>
<path d="M174.173 171.176L170.017 187.702L187.569 173.966L174.173 171.176Z" fill="#945959"/>
<path d="M173.961 168.719C179.219 166.689 184.714 162.615 187.63 155.72V150.713H173.961V168.719Z" fill="#703838"/>
<path d="M176.911 125.587C171.727 125.587 160.705 128.477 159.434 142.038C158.162 155.601 159.389 166.125 166.39 167.134C173.391 168.142 189.641 163.075 191.817 145.517C193.993 127.96 181.967 125.587 176.911 125.587Z" fill="#945959"/>
<path d="M168.749 147.779V155.777L164.065 154.339L168.749 147.779Z" fill="#703838"/>
<path d="M173.961 150.792C174.861 150.792 175.591 150.062 175.591 149.162C175.591 148.262 174.861 147.532 173.961 147.532C173.061 147.532 172.331 148.262 172.331 149.162C172.331 150.062 173.061 150.792 173.961 150.792Z" fill="#263238"/>
<path d="M164.872 148.026C164.872 148.926 164.143 149.655 163.242 149.655C162.342 149.655 161.612 148.926 161.612 148.026C161.612 147.126 162.342 146.396 163.242 146.396C164.142 146.396 164.872 147.126 164.872 148.026Z" fill="#263238"/>
<path d="M161.257 144.632L164.444 142.74C164.444 142.74 163.22 141.469 162.003 142.232C160.785 142.996 161.257 144.632 161.257 144.632Z" fill="#263238"/>
<path d="M166.547 159.019C166.547 159.019 169.134 159.255 170.936 157.844C170.936 157.844 171.235 160.155 169.299 160.597C167.362 161.04 166.547 159.019 166.547 159.019Z" fill="#703838"/>
<path d="M163.769 130.199C163.769 130.199 165.718 148.929 191.181 149.514C191.181 149.514 198.874 130.903 183.669 124.856C168.464 118.81 163.769 130.199 163.769 130.199Z" fill="#263238"/>
<path d="M198.676 146.709L198.677 146.709L198.663 146.701C198.66 146.699 198.656 146.697 198.652 146.695L195.522 144.887L195.52 144.889C194.335 144.19 192.69 144.28 190.872 145.33C187.259 147.416 184.331 152.487 184.331 156.658C184.331 158.746 185.065 160.212 186.252 160.895L189.326 162.661C189.385 162.697 189.444 162.731 189.505 162.763L189.609 162.824L189.614 162.815C190.779 163.379 192.327 163.245 194.033 162.26C197.646 160.175 200.574 155.103 200.574 150.932C200.573 148.857 199.848 147.398 198.676 146.709Z" fill="#E44642"/>
<path d="M198.652 157.382C201.207 152.958 201.207 148.177 198.653 146.702C196.099 145.228 191.958 147.619 189.404 152.042C186.85 156.466 186.85 161.248 189.404 162.722C191.957 164.197 196.098 161.806 198.652 157.382Z" fill="#E44642"/>
<path opacity="0.5" d="M198.652 157.382C201.207 152.958 201.207 148.177 198.653 146.702C196.099 145.228 191.958 147.619 189.404 152.042C186.85 156.466 186.85 161.248 189.404 162.722C191.957 164.197 196.098 161.806 198.652 157.382Z" fill="black"/>
<path d="M199.934 150.638L199.935 150.637L199.926 150.632C199.923 150.63 199.921 150.629 199.918 150.627L197.776 149.39L197.775 149.392C196.964 148.913 195.839 148.976 194.594 149.693C192.123 151.121 190.119 154.591 190.119 157.445C190.119 158.873 190.622 159.877 191.433 160.343L193.536 161.551C193.576 161.576 193.617 161.599 193.659 161.622L193.73 161.663L193.733 161.657C194.53 162.042 195.59 161.952 196.757 161.278C199.229 159.85 201.233 156.38 201.233 153.527C201.233 152.107 200.736 151.109 199.934 150.638Z" fill="#E44642"/>
<path d="M201.233 153.526C201.233 156.38 199.229 159.85 196.758 161.278C194.286 162.705 192.282 161.548 192.282 158.694C192.282 155.84 194.286 152.37 196.758 150.943C199.229 149.516 201.233 150.673 201.233 153.526Z" fill="#E44642"/>
<path opacity="0.3" d="M201.233 153.526C201.233 156.38 199.229 159.85 196.758 161.278C194.286 162.705 192.282 161.548 192.282 158.694C192.282 155.84 194.286 152.37 196.758 150.943C199.229 149.516 201.233 150.673 201.233 153.526Z" fill="black"/>
<path d="M188.956 121.928C186.934 120.348 184.438 119.514 181.873 119.476C181.668 119.474 181.463 119.472 181.256 119.472C178.414 119.472 175.841 119.733 173.521 120.211C173.986 120.193 174.452 120.195 174.918 120.211H173.521V121.525H174.835C177.65 121.624 180.45 122.398 182.969 123.849C188.376 126.971 191.737 132.794 191.737 139.038V144.608C191.737 145.536 192.53 146.271 193.471 146.174C193.526 146.169 193.577 146.152 193.63 146.141L195.027 145.706V145.704C194.933 145.733 194.836 145.755 194.735 145.765C195.605 145.676 196.233 144.877 196.233 144.002V138.835C196.233 129.486 192.191 124.458 188.956 121.928Z" fill="#E44642"/>
<path d="M180.047 166.744C179.473 166.744 178.895 166.622 178.351 166.37L173.924 164.323C173.66 164.201 173.545 163.887 173.667 163.623C173.79 163.358 174.104 163.246 174.367 163.365L178.794 165.412C179.95 165.947 181.32 165.69 182.203 164.771L186.427 160.379C186.629 160.17 186.963 160.162 187.173 160.364C187.382 160.566 187.39 160.9 187.188 161.11L182.965 165.501C182.184 166.314 181.124 166.744 180.047 166.744Z" fill="#E44642"/>
<path opacity="0.5" d="M180.047 166.744C179.473 166.744 178.895 166.622 178.351 166.37L173.924 164.323C173.66 164.201 173.545 163.887 173.667 163.623C173.79 163.358 174.104 163.246 174.367 163.365L178.794 165.412C179.95 165.947 181.32 165.69 182.203 164.771L186.427 160.379C186.629 160.17 186.963 160.162 187.173 160.364C187.382 160.566 187.39 160.9 187.188 161.11L182.965 165.501C182.184 166.314 181.124 166.744 180.047 166.744Z" fill="black"/>
<path d="M175.09 162.823C175.09 163.965 174.164 164.891 173.022 164.891C171.88 164.891 170.955 163.965 170.955 162.823C170.955 161.681 171.88 160.756 173.022 160.756C174.164 160.756 175.09 161.681 175.09 162.823Z" fill="#E44642"/>
<path opacity="0.5" d="M175.09 162.823C175.09 163.965 174.164 164.891 173.022 164.891C171.88 164.891 170.955 163.965 170.955 162.823C170.955 161.681 171.88 160.756 173.022 160.756C174.164 160.756 175.09 161.681 175.09 162.823Z" fill="black"/>
<path d="M196.233 138.836V144.003C196.233 144.879 195.605 145.676 194.735 145.766C193.735 145.869 192.89 145.087 192.89 144.101V138.836C192.89 132.196 189.316 126.005 183.567 122.684C180.472 120.901 176.977 120.074 173.52 120.212C175.84 119.733 178.413 119.473 181.255 119.473C181.462 119.473 181.668 119.474 181.872 119.477C184.437 119.514 186.934 120.348 188.955 121.929C192.191 124.458 196.233 129.486 196.233 138.836Z" fill="#E44642"/>
<path opacity="0.5" d="M196.233 138.836V144.003C196.233 144.879 195.605 145.676 194.735 145.766C193.735 145.869 192.89 145.087 192.89 144.101V138.836C192.89 132.196 189.316 126.005 183.567 122.684C180.472 120.901 176.977 120.074 173.52 120.212C175.84 119.733 178.413 119.473 181.255 119.473C181.462 119.473 181.668 119.474 181.872 119.477C184.437 119.514 186.934 120.348 188.955 121.929C192.191 124.458 196.233 129.486 196.233 138.836Z" fill="black"/>
<path d="M188.276 236.24C188.276 236.24 184.848 245.691 197.099 249.913C197.099 249.913 201.1 244.042 197.099 239.235C193.098 234.429 188.276 236.24 188.276 236.24Z" fill="#E44642"/>
<path opacity="0.7" d="M188.276 236.24C188.276 236.24 184.848 245.691 197.099 249.913C197.099 249.913 201.1 244.042 197.099 239.235C193.098 234.429 188.276 236.24 188.276 236.24Z" fill="black"/>
<path d="M192.555 236.668C192.555 236.668 180.593 241.056 180.654 242.75C180.714 244.443 185.741 243.291 185.741 243.291L183.904 244.493C181.974 245.754 180.48 247.579 179.622 249.719C179.231 250.696 179.64 251.811 180.57 252.303L185.116 254.711C186.197 255.283 187.538 254.849 188.079 253.751C188.583 252.73 189.486 251.973 190.567 251.612C193.037 250.788 197.627 248.422 199.493 241.955L192.555 236.668Z" fill="#945959"/>
<path d="M196.166 175.874C196.166 175.874 189.8 179.424 193.176 190.163C196.553 200.901 202.915 217.585 202.915 217.585L188.276 236.241C188.276 236.241 193.176 236.57 196.144 240.939C199.112 245.308 197.099 249.915 197.099 249.915L215.265 226.578C218.68 222.191 219.65 216.377 217.843 211.12L210.03 188.376C208.095 182.745 203.64 178.343 197.987 176.476L196.166 175.874Z" fill="#E44642"/>
<path d="M88.6077 112.388L60.4512 96.1312C59.6016 95.6405 58.8221 95.5839 58.2061 95.8848L58.2054 95.8855C58.1297 95.9223 58.0568 95.9648 57.986 96.0129L51.8625 99.6018C51.8745 99.5947 51.888 99.5897 51.9 99.5834C51.1311 100.019 50.6426 101.039 50.6426 102.496V133.804C50.6426 136.452 52.2533 139.529 54.2399 140.676L82.3964 156.933C83.3578 157.488 84.2287 157.485 84.8737 157.038C84.8567 157.05 84.8418 157.065 84.8248 157.076L90.9065 153.507L90.9058 153.506C91.6988 153.084 92.2036 152.05 92.2036 150.567V119.259C92.2043 116.611 90.5943 113.535 88.6077 112.388Z" fill="#E44642"/>
<path d="M91.1974 115.355C90.5432 114.07 89.6256 112.975 88.6075 112.388L60.4511 96.1312C59.6015 95.6405 58.8219 95.5839 58.206 95.8848L58.2053 95.8855C58.1295 95.9223 58.0566 95.9648 57.9858 96.0129L51.8623 99.6018C52.496 99.223 53.3279 99.2499 54.2391 99.7766L82.3955 116.033C83.449 116.641 84.3942 117.795 85.0519 119.137L91.1974 115.355Z" fill="#E44642"/>
<path d="M85.9934 154.213C85.9934 155.614 85.5431 156.613 84.8252 157.076L90.9069 153.507L90.9062 153.506C91.6992 153.084 92.204 152.05 92.204 150.567V119.259C92.204 117.968 91.8188 116.576 91.1965 115.354L85.0518 119.135C85.6344 120.324 85.9927 121.66 85.9927 122.904L85.9934 154.213Z" fill="#E44642"/>
<path opacity="0.3" d="M91.1974 115.355C90.5432 114.07 89.6256 112.975 88.6075 112.388L60.4511 96.1312C59.6015 95.6405 58.8219 95.5839 58.206 95.8848L58.2053 95.8855C58.1295 95.9223 58.0566 95.9648 57.9858 96.0129L51.8623 99.6018C52.496 99.223 53.3279 99.2499 54.2391 99.7766L82.3955 116.033C83.449 116.641 84.3942 117.795 85.0519 119.137L91.1974 115.355Z" fill="black"/>
<path opacity="0.6" d="M85.9934 154.213C85.9934 155.614 85.5431 156.613 84.8252 157.076L90.9069 153.507L90.9062 153.506C91.6992 153.084 92.204 152.05 92.204 150.567V119.259C92.204 117.968 91.8188 116.576 91.1965 115.354L85.0518 119.135C85.6344 120.324 85.9927 121.66 85.9927 122.904L85.9934 154.213Z" fill="black"/>
<path d="M77.7416 131.88C77.7416 135.934 76.1337 137.314 73.7215 135.921C72.3884 135.152 71.4474 133.929 71.0354 132.401C70.3486 133.272 69.2314 133.329 67.6816 132.435C65.1526 130.974 63.1518 127.51 63.1518 124.091C63.1518 120.695 65.1328 119.528 67.6816 121C68.9758 121.747 69.996 122.857 70.7012 124.238V122.902L73.3683 124.442V131.778C73.3683 132.865 73.7803 133.465 74.3099 133.771C75.2119 134.292 75.7606 133.408 75.7606 130.782C75.7606 126.186 72.8188 121.318 68.4661 118.804C64.0935 116.279 61.1708 118.035 61.1708 122.767C61.1708 127.59 64.0347 132.661 68.3875 135.175C69.6222 135.887 71.0149 136.397 72.2496 136.409L72.8776 138.854C71.6811 138.865 69.9359 138.242 68.3875 137.348C62.7199 134.076 58.9746 127.476 58.9746 121.499C58.9746 115.589 62.7589 113.359 68.4654 116.653C73.9764 119.835 77.7416 126.197 77.7416 131.88ZM70.7409 128.473C70.7409 126.503 69.7015 124.793 68.2898 123.978C66.8582 123.152 65.8585 123.729 65.8585 125.654C65.8585 127.601 66.8582 129.356 68.2898 130.182C69.7015 130.997 70.7409 130.466 70.7409 128.473Z" fill="#E44642"/>
<g opacity="0.9">
<path d="M77.7416 131.88C77.7416 135.934 76.1337 137.314 73.7215 135.921C72.3884 135.152 71.4474 133.929 71.0354 132.401C70.3486 133.272 69.2314 133.329 67.6816 132.435C65.1526 130.974 63.1518 127.51 63.1518 124.091C63.1518 120.695 65.1328 119.528 67.6816 121C68.9758 121.747 69.996 122.857 70.7012 124.238V122.902L73.3683 124.442V131.778C73.3683 132.865 73.7803 133.465 74.3099 133.771C75.2119 134.292 75.7606 133.408 75.7606 130.782C75.7606 126.186 72.8188 121.318 68.4661 118.804C64.0935 116.279 61.1708 118.035 61.1708 122.767C61.1708 127.59 64.0347 132.661 68.3875 135.175C69.6222 135.887 71.0149 136.397 72.2496 136.409L72.8776 138.854C71.6811 138.865 69.9359 138.242 68.3875 137.348C62.7199 134.076 58.9746 127.476 58.9746 121.499C58.9746 115.589 62.7589 113.359 68.4654 116.653C73.9764 119.835 77.7416 126.197 77.7416 131.88ZM70.7409 128.473C70.7409 126.503 69.7015 124.793 68.2898 123.978C66.8582 123.152 65.8585 123.729 65.8585 125.654C65.8585 127.601 66.8582 129.356 68.2898 130.182C69.7015 130.997 70.7409 130.466 70.7409 128.473Z" fill="#FAFAFA"/>
</g>
<path d="M88.6077 168.16L60.4512 151.904C59.6016 151.413 58.8221 151.357 58.2061 151.658L58.2054 151.658C58.1297 151.695 58.0568 151.738 57.986 151.786L51.8625 155.375C51.8745 155.368 51.888 155.363 51.9 155.356C51.1311 155.792 50.6426 156.812 50.6426 158.269V189.577C50.6426 192.225 52.2533 195.302 54.2399 196.449L82.3964 212.706C83.3578 213.261 84.2287 213.258 84.8737 212.811C84.8567 212.823 84.8418 212.838 84.8248 212.849L90.9065 209.28L90.9058 209.279C91.6988 208.857 92.2036 207.823 92.2036 206.34V175.032C92.2043 172.385 90.5943 169.307 88.6077 168.16Z" fill="#E44642"/>
<path d="M91.1974 171.128C90.5432 169.844 89.6256 168.749 88.6075 168.161L60.4511 151.905C59.6015 151.414 58.8219 151.357 58.206 151.658L58.2053 151.659C58.1295 151.696 58.0566 151.738 57.9858 151.786L51.8623 155.375C52.496 154.996 53.3279 155.023 54.2391 155.55L82.3955 171.806C83.449 172.415 84.3942 173.568 85.0519 174.91L91.1974 171.128Z" fill="#E44642"/>
<path d="M85.9934 209.987C85.9934 211.388 85.5431 212.387 84.8252 212.85L90.9069 209.281L90.9062 209.28C91.6992 208.858 92.204 207.824 92.204 206.341V175.033C92.204 173.742 91.8188 172.35 91.1965 171.128L85.0518 174.909C85.6344 176.098 85.9927 177.434 85.9927 178.679L85.9934 209.987Z" fill="#E44642"/>
<path opacity="0.3" d="M91.1974 171.128C90.5432 169.844 89.6256 168.749 88.6075 168.161L60.4511 151.905C59.6015 151.414 58.8219 151.357 58.206 151.658L58.2053 151.659C58.1295 151.696 58.0566 151.738 57.9858 151.786L51.8623 155.375C52.496 154.996 53.3279 155.023 54.2391 155.55L82.3955 171.806C83.449 172.415 84.3942 173.568 85.0519 174.91L91.1974 171.128Z" fill="black"/>
<path opacity="0.6" d="M85.9934 209.987C85.9934 211.388 85.5431 212.387 84.8252 212.85L90.9069 209.281L90.9062 209.28C91.6992 208.858 92.204 207.824 92.204 206.341V175.033C92.204 173.742 91.8188 172.35 91.1965 171.128L85.0518 174.909C85.6344 176.098 85.9927 177.434 85.9927 178.679L85.9934 209.987Z" fill="black"/>
<path d="M65.1682 182.159L58.3799 171.128V186.079L65.1682 182.159Z" fill="#E44642"/>
<path d="M71.4805 185.337L78.2567 197.075V182.15L71.4805 185.337Z" fill="#E44642"/>
<path d="M59.4111 170.644L66.3835 181.975C66.4104 182.005 66.4423 182.029 66.4628 182.065C66.4784 182.092 66.4805 182.122 66.4918 182.15L68.5351 185.472L70.2896 184.646C70.3193 184.619 70.3441 184.587 70.3802 184.566C70.4531 184.524 70.531 184.503 70.6096 184.495L77.6591 181.179L59.4111 170.644Z" fill="#E44642"/>
<path d="M70.452 185.822L68.5595 186.711C68.4823 186.748 68.3995 186.765 68.3195 186.765C68.1283 186.765 67.9428 186.668 67.8366 186.496L65.7615 183.124L58.9463 187.059L77.2764 197.642L70.452 185.822Z" fill="#E44642"/>
<g opacity="0.9">
<path d="M65.1682 182.159L58.3799 171.128V186.079L65.1682 182.159Z" fill="#FAFAFA"/>
<path d="M71.4805 185.337L78.2567 197.075V182.15L71.4805 185.337Z" fill="#FAFAFA"/>
<path d="M59.4111 170.644L66.3835 181.975C66.4104 182.005 66.4423 182.029 66.4628 182.065C66.4784 182.092 66.4805 182.122 66.4918 182.15L68.5351 185.472L70.2896 184.646C70.3193 184.619 70.3441 184.587 70.3802 184.566C70.4531 184.524 70.531 184.503 70.6096 184.495L77.6591 181.179L59.4111 170.644Z" fill="#FAFAFA"/>
<path d="M70.452 185.822L68.5595 186.711C68.4823 186.748 68.3995 186.765 68.3195 186.765C68.1283 186.765 67.9428 186.668 67.8366 186.496L65.7615 183.124L58.9463 187.059L77.2764 197.642L70.452 185.822Z" fill="#FAFAFA"/>
</g>
<path d="M88.6077 56.6151L60.4512 40.3587C59.6016 39.8681 58.8221 39.8114 58.2061 40.1123L58.2054 40.113C58.1297 40.1498 58.0568 40.1923 57.986 40.2405L51.8625 43.8293C51.8745 43.8222 51.888 43.8173 51.9 43.8109C51.1311 44.2463 50.6426 45.2666 50.6426 46.7236V78.0314C50.6426 80.68 52.2533 83.7577 54.2399 84.9046L82.3964 101.161C83.3578 101.716 84.2287 101.713 84.8737 101.267C84.8567 101.278 84.8418 101.293 84.8248 101.304L90.9065 97.735L90.9058 97.7343C91.6988 97.3123 92.2036 96.2787 92.2036 94.7954V63.4876C92.2043 60.839 90.5943 57.762 88.6077 56.6151Z" fill="#E44642"/>
<path d="M91.1974 59.5823C90.5432 58.298 89.6256 57.2027 88.6075 56.6144L60.4511 40.3587C59.6015 39.8681 58.8219 39.8114 58.206 40.1123L58.2053 40.113C58.1295 40.1498 58.0566 40.1923 57.9858 40.2405L51.8623 43.8293C52.496 43.4505 53.3279 43.4774 54.2391 44.0042L82.3955 60.2606C83.449 60.8687 84.3942 62.0221 85.0519 63.3645L91.1974 59.5823Z" fill="#E44642"/>
<path d="M85.9934 98.4408C85.9934 99.8413 85.5431 100.841 84.8252 101.303L90.9069 97.7342L90.9062 97.7335C91.6992 97.3116 92.204 96.2779 92.204 94.7946V63.4869C92.204 62.1955 91.8188 60.8036 91.1965 59.5815L85.0518 63.363C85.6344 64.5517 85.9927 65.8877 85.9927 67.1324L85.9934 98.4408Z" fill="#E44642"/>
<path opacity="0.3" d="M91.1974 59.5823C90.5432 58.298 89.6256 57.2027 88.6075 56.6144L60.4511 40.3587C59.6015 39.8681 58.8219 39.8114 58.206 40.1123L58.2053 40.113C58.1295 40.1498 58.0566 40.1923 57.9858 40.2405L51.8623 43.8293C52.496 43.4505 53.3279 43.4774 54.2391 44.0042L82.3955 60.2606C83.449 60.8687 84.3942 62.0221 85.0519 63.3645L91.1974 59.5823Z" fill="black"/>
<path opacity="0.6" d="M85.9934 98.4408C85.9934 99.8413 85.5431 100.841 84.8252 101.303L90.9069 97.7342L90.9062 97.7335C91.6992 97.3116 92.204 96.2779 92.204 94.7946V63.4869C92.204 62.1955 91.8188 60.8036 91.1965 59.5815L85.0518 63.363C85.6344 64.5517 85.9927 65.8877 85.9927 67.1324L85.9934 98.4408Z" fill="black"/>
<path d="M76.7847 84.9351C75.7022 83.1552 74.6105 81.3817 73.5265 79.6025C73.0288 78.7854 72.4688 78.3118 71.8217 78.173C71.2963 78.0605 70.7703 77.9458 70.235 77.785C70.0934 77.7426 69.8676 77.5599 69.7699 77.39C67.9645 74.2627 66.5549 71.0505 65.5743 67.7591C65.529 67.6061 65.5608 67.4015 65.633 67.3293C65.9651 66.9958 66.3184 66.6907 66.6759 66.3947C67.117 66.0301 67.1935 65.4078 66.9478 64.5192C66.4246 62.6282 65.9191 60.7399 65.4001 58.8496C65.061 57.6127 64.2949 56.7192 63.3724 56.4955C62.0881 56.184 60.9305 56.2243 59.9025 56.6215C59.4692 56.7893 59.2462 57.1794 59.2412 57.8485C59.4203 59.1455 59.5442 60.4256 59.7871 61.7418C61.538 71.2375 65.7499 79.9841 72.3966 87.9689C72.9198 88.5976 73.4437 88.895 73.9733 88.8716C75.1408 88.8206 76.1412 88.4433 76.9639 87.7197C77.5947 87.1668 77.5303 86.1607 76.7847 84.9351Z" fill="#E44642"/>
<path d="M76.7002 75.3091C76.5855 73.4167 76.0255 71.4675 75.0265 69.4731C74.3043 68.0302 73.4172 66.731 72.3743 65.5741C72.094 65.2626 71.8582 65.1621 71.723 65.4007C71.5849 65.6442 71.7187 65.9657 71.9913 66.2708C72.084 66.3749 72.1761 66.4797 72.2653 66.5887C74.3178 69.0787 75.4959 71.7521 75.7933 74.6089C75.8159 74.827 75.777 75.0429 75.8556 75.2546C75.9391 75.4798 76.1196 75.7856 76.2747 75.8961C76.4213 76.0001 76.5898 75.8954 76.7108 75.8862C76.7066 75.6079 76.7094 75.4621 76.7002 75.3091Z" fill="#E44642"/>
<path d="M70.2841 69.4974C71.2279 70.5856 71.7213 71.7467 71.819 73.0105C71.8339 73.2002 71.9918 73.4573 72.0413 73.5804C72.4718 73.9373 72.6842 73.8169 72.6849 73.3723C72.6863 72.0413 71.7638 69.9427 70.6926 68.8305C70.4264 68.5536 70.202 68.4701 70.0745 68.7023C69.9577 68.9176 70.0469 69.2241 70.2841 69.4974Z" fill="#E44642"/>
<g opacity="0.9">
<path d="M76.7847 84.9351C75.7022 83.1552 74.6105 81.3817 73.5265 79.6025C73.0288 78.7854 72.4688 78.3118 71.8217 78.173C71.2963 78.0605 70.7703 77.9458 70.235 77.785C70.0934 77.7426 69.8676 77.5599 69.7699 77.39C67.9645 74.2627 66.5549 71.0505 65.5743 67.7591C65.529 67.6061 65.5608 67.4015 65.633 67.3293C65.9651 66.9958 66.3184 66.6907 66.6759 66.3947C67.117 66.0301 67.1935 65.4078 66.9478 64.5192C66.4246 62.6282 65.9191 60.7399 65.4001 58.8496C65.061 57.6127 64.2949 56.7192 63.3724 56.4955C62.0881 56.184 60.9305 56.2243 59.9025 56.6215C59.4692 56.7893 59.2462 57.1794 59.2412 57.8485C59.4203 59.1455 59.5442 60.4256 59.7871 61.7418C61.538 71.2375 65.7499 79.9841 72.3966 87.9689C72.9198 88.5976 73.4437 88.895 73.9733 88.8716C75.1408 88.8206 76.1412 88.4433 76.9639 87.7197C77.5947 87.1668 77.5303 86.1607 76.7847 84.9351Z" fill="#FAFAFA"/>
<path d="M76.7002 75.3091C76.5855 73.4167 76.0255 71.4675 75.0265 69.4731C74.3043 68.0302 73.4172 66.731 72.3743 65.5741C72.094 65.2626 71.8582 65.1621 71.723 65.4007C71.5849 65.6442 71.7187 65.9657 71.9913 66.2708C72.084 66.3749 72.1761 66.4797 72.2653 66.5887C74.3178 69.0787 75.4959 71.7521 75.7933 74.6089C75.8159 74.827 75.777 75.0429 75.8556 75.2546C75.9391 75.4798 76.1196 75.7856 76.2747 75.8961C76.4213 76.0001 76.5898 75.8954 76.7108 75.8862C76.7066 75.6079 76.7094 75.4621 76.7002 75.3091Z" fill="#FAFAFA"/>
<path d="M70.2841 69.4974C71.2279 70.5856 71.7213 71.7467 71.819 73.0105C71.8339 73.2002 71.9918 73.4573 72.0413 73.5804C72.4718 73.9373 72.6842 73.8169 72.6849 73.3723C72.6863 72.0413 71.7638 69.9427 70.6926 68.8305C70.4264 68.5536 70.202 68.4701 70.0745 68.7023C69.9577 68.9176 70.0469 69.2241 70.2841 69.4974Z" fill="#FAFAFA"/>
</g>
<path d="M233.071 37.8639L239.706 41.639V39.2905C239.696 39.1234 239.685 38.9556 239.685 38.7914C239.685 38.6271 239.696 38.4721 239.706 38.317V38.2618L239.708 38.2632C239.947 35.1509 242.304 33.9579 245.181 35.6188C246.406 36.3261 247.534 37.4462 248.448 38.7567C249.097 34.5292 252.545 33.0035 256.714 35.4107C261.345 38.0841 265.099 44.5864 265.099 49.9332L265.103 54.9642C265.104 55.7742 265.533 56.524 266.232 56.9339L270.135 59.2236C271.858 60.2339 272.916 62.081 272.916 64.0783C272.916 65.8625 270.984 66.9776 269.439 66.0848L233.171 45.1351C231.212 44.003 230.004 41.9115 230.004 39.6474C230.004 38.0735 231.703 37.0851 233.071 37.8639Z" fill="#E6E6E6"/>
<path d="M283.643 36.8826L288.468 39.6282V37.9205C288.461 37.7987 288.453 37.677 288.453 37.558C288.453 37.4384 288.461 37.3258 288.468 37.2132V37.1729L288.47 37.1736C288.644 34.9101 290.358 34.0428 292.449 35.2506C293.341 35.7654 294.161 36.5796 294.825 37.5325C295.297 34.4584 297.805 33.349 300.836 35.0991C304.204 37.0433 306.934 41.772 306.934 45.6604L306.936 49.3186C306.937 49.9077 307.249 50.4528 307.758 50.7509L310.596 52.4161C311.849 53.151 312.618 54.4941 312.618 55.9462C312.618 57.2439 311.214 58.0546 310.09 57.4054L283.716 42.1699C282.291 41.3465 281.413 39.8257 281.413 38.1796C281.413 37.0355 282.649 36.3169 283.643 36.8826Z" fill="#E6E6E6"/>
</svg>
