<svg width="456" height="275" viewBox="0 0 456 275" fill="none" xmlns="http://www.w3.org/2000/svg">
<path d="M442.078 273.463C453.154 234.729 450.3 213.453 418.301 181.453C386.3 149.453 338.937 70.325 204.081 65.5801C100.685 61.943 130.05 106.401 31.9963 141.514C-13.0989 157.663 -5.26118 213.567 23.0953 273.562C79.4265 273.563 380.716 273.463 442.078 273.463Z" fill="#FFD8D7"/>
<path d="M57.5329 237.265C57.5329 210.106 79.5495 188.091 106.708 188.091C133.867 188.091 155.883 210.106 155.883 237.265C155.883 251.641 149.713 264.573 139.879 273.563H171.462C174.426 268.405 180.312 265.954 185.852 267.131C187.909 261.681 189.424 255.967 190.321 250.049C184.882 248.345 180.936 243.265 180.936 237.265C180.936 231.265 184.88 226.189 190.317 224.482C189.356 218.147 187.698 212.042 185.414 206.249C179.852 207.517 173.881 205.114 170.86 199.923C167.843 194.742 168.696 188.375 172.53 184.166C168.493 179.169 163.899 174.641 158.843 170.678C154.69 174.572 148.336 175.517 143.11 172.577C137.88 169.634 135.39 163.702 136.573 158.126C131.123 156.069 125.407 154.556 119.488 153.658C117.781 159.094 112.705 163.037 106.706 163.037C100.708 163.037 95.6312 159.094 93.9243 153.657C87.5889 154.619 81.4826 156.278 75.6908 158.562C76.958 164.123 74.554 170.093 69.365 173.114C64.1841 176.129 57.8176 175.277 53.6081 171.444C48.6111 175.48 44.0798 180.07 40.115 185.127C44.0116 189.28 44.9577 195.635 42.0169 200.862C39.0724 206.094 33.1397 208.585 27.5629 207.4C25.5052 212.848 23.9903 218.564 23.0931 224.482C28.5313 226.188 32.4775 231.265 32.4775 237.266C32.4775 243.265 28.5335 248.341 23.0975 250.047C24.0585 256.383 25.718 262.489 28.0026 268.281C33.1753 267.101 38.6987 269.103 41.8761 273.564H73.5352C63.7036 264.573 57.5329 251.641 57.5329 237.265Z" fill="#E44642"/>
<path d="M63.6941 138.948C63.6941 137.742 64.486 136.723 65.5782 136.381C65.3854 135.108 65.0517 133.883 64.5935 132.719C63.4768 132.974 62.2778 132.491 61.6712 131.448C61.0654 130.408 61.2367 129.129 62.0064 128.284C61.1959 127.282 60.2735 126.371 59.2584 125.575C58.4242 126.357 57.1488 126.547 56.0981 125.956C55.0481 125.365 54.5484 124.174 54.7857 123.054C53.6912 122.641 52.5434 122.337 51.3555 122.157C51.0122 123.248 49.9926 124.041 48.7876 124.041C47.5834 124.041 46.5631 123.248 46.2206 122.157C44.9489 122.35 43.7217 122.684 42.559 123.142C42.8134 124.259 42.3306 125.457 41.2888 126.066C40.2485 126.669 38.9694 126.499 38.1234 125.729C37.1201 126.54 36.2103 127.461 35.4139 128.477C36.1969 129.31 36.3875 130.587 35.7965 131.637C35.2048 132.688 34.0132 133.187 32.8936 132.951C32.4813 134.044 32.1773 135.192 31.9963 136.381C33.0886 136.723 33.8805 137.743 33.8805 138.948C33.8805 140.152 33.0893 141.171 31.9971 141.515C32.1899 142.787 32.5235 144.014 32.9825 145.176C34.0992 144.921 35.299 145.404 35.9048 146.447C36.5106 147.486 36.3401 148.765 35.5696 149.611C36.3801 150.615 37.3018 151.524 38.3176 152.321C39.1518 151.538 40.4287 151.349 41.4779 151.939C42.5279 152.53 43.0284 153.721 42.7911 154.841C43.8848 155.255 45.0327 155.559 46.2213 155.739C46.5639 154.646 47.5834 153.854 48.7884 153.854C49.9933 153.854 51.0129 154.646 51.3562 155.738C52.6279 155.544 53.8543 155.212 55.0177 154.752C54.7634 153.636 55.2461 152.438 56.2887 151.831C57.329 151.226 58.6081 151.395 59.4527 152.166C60.4567 151.355 61.3657 150.434 62.1621 149.418C61.3798 148.584 61.1893 147.307 61.7802 146.258C62.372 145.207 63.5628 144.707 64.6825 144.945C65.097 143.851 65.401 142.703 65.5804 141.514C64.4867 141.172 63.6941 140.152 63.6941 138.948ZM48.7869 148.823C43.3339 148.823 38.9116 144.402 38.9116 138.949C38.9116 133.494 43.3332 129.072 48.7869 129.072C54.2414 129.072 58.663 133.494 58.663 138.949C58.6622 144.402 54.2414 148.823 48.7869 148.823Z" fill="#E44642"/>
<path d="M148.689 115.998H83.1599V121.089H148.689V115.998Z" fill="#E44642"/>
<path d="M143.793 126.657H88.056V131.748H143.793V126.657Z" fill="#E44642"/>
<path d="M137.341 137.314H94.5078V142.406H137.341V137.314Z" fill="#E44642"/>
<path d="M275.927 102.562H249.468C244.81 102.562 241.032 106.339 241.032 110.998V115.736C241.032 120.395 244.81 124.172 249.468 124.172H266.247V131.37L275.172 124.172H275.927C280.586 124.172 284.363 120.395 284.363 115.736V110.998C284.363 106.339 280.586 102.562 275.927 102.562Z" fill="#E44642"/>
<path d="M252.379 115.692C252.379 116.691 251.569 117.5 250.571 117.5C249.572 117.5 248.762 116.69 248.762 115.692C248.762 114.694 249.572 113.884 250.571 113.884C251.57 113.884 252.379 114.694 252.379 115.692Z" fill="white"/>
<path d="M260.463 115.692C260.463 116.691 259.655 117.5 258.656 117.5C257.655 117.5 256.847 116.69 256.847 115.692C256.847 114.694 257.655 113.884 258.656 113.884C259.655 113.884 260.463 114.694 260.463 115.692Z" fill="white"/>
<path d="M268.548 115.692C268.548 116.691 267.738 117.5 266.739 117.5C265.741 117.5 264.931 116.69 264.931 115.692C264.931 114.694 265.741 113.884 266.739 113.884C267.738 113.884 268.548 114.694 268.548 115.692Z" fill="white"/>
<path d="M276.632 115.692C276.632 116.691 275.822 117.5 274.824 117.5C273.825 117.5 273.017 116.69 273.017 115.692C273.017 114.694 273.825 113.884 274.824 113.884C275.823 113.884 276.632 114.694 276.632 115.692Z" fill="white"/>
<path d="M229.916 91.5352H250.17C253.737 91.5352 256.628 94.427 256.628 97.9936V101.62C256.628 105.187 253.737 108.079 250.17 108.079H237.326V113.589L230.494 108.079H229.917C226.35 108.079 223.458 105.188 223.458 101.62V97.9936C223.457 94.4263 226.349 91.5352 229.916 91.5352Z" fill="#E44642"/>
<path d="M247.942 101.586C247.942 102.35 248.562 102.97 249.326 102.97C250.09 102.97 250.709 102.35 250.709 101.586C250.709 100.822 250.09 100.203 249.326 100.203C248.562 100.203 247.942 100.823 247.942 101.586Z" fill="white"/>
<path d="M241.752 101.586C241.752 102.35 242.371 102.97 243.135 102.97C243.9 102.97 244.519 102.35 244.519 101.586C244.519 100.822 243.9 100.203 243.135 100.203C242.371 100.203 241.752 100.823 241.752 101.586Z" fill="white"/>
<path d="M235.564 101.586C235.564 102.35 236.183 102.97 236.947 102.97C237.713 102.97 238.332 102.35 238.332 101.586C238.332 100.822 237.713 100.203 236.947 100.203C236.183 100.203 235.564 100.823 235.564 101.586Z" fill="white"/>
<path d="M229.375 101.586C229.375 102.35 229.994 102.97 230.758 102.97C231.523 102.97 232.142 102.35 232.142 101.586C232.142 100.822 231.523 100.203 230.758 100.203C229.994 100.203 229.375 100.823 229.375 101.586Z" fill="white"/>
<path d="M211.297 13.0089C211.297 20.1941 205.472 26.0186 198.288 26.0186C191.103 26.0186 185.279 20.1941 185.279 13.0089C185.279 5.82375 191.103 0 198.288 0C205.472 0 211.297 5.82375 211.297 13.0089Z" fill="#E44642"/>
<path d="M202.061 14.0469C201.506 12.9687 200.409 12.3474 199.299 11.967C198.609 11.723 197.82 11.568 197.244 11.0927C196.235 10.2608 196.981 8.9142 198.032 8.63614C199.213 8.32323 200.612 8.48043 201.779 8.78741C201.779 8.39071 201.779 7.99326 201.779 7.59655C201.779 7.23396 201.957 6.58811 201.561 6.49617C201.062 6.37901 200.549 6.31005 200.037 6.28262C199.703 6.26556 199.507 6.40052 199.507 6.05572C199.507 5.52703 199.507 4.9976 199.507 4.4689C199.507 4.11373 199.197 4.26054 198.875 4.26054C198.334 4.26054 197.793 4.26054 197.252 4.26054C196.923 4.26054 197.072 4.64687 197.072 4.9316C197.072 5.44695 197.072 5.96303 197.072 6.47911C197.072 6.49246 196.038 6.87581 195.925 6.93884C195.541 7.15314 195.2 7.43936 194.922 7.77971C194.352 8.47672 194.117 9.36281 194.117 10.2526C194.117 12.1494 195.368 13.4522 197.107 14.0432C198.286 14.4443 200.165 14.8603 199.709 16.5302C199.19 18.4299 195.703 17.523 194.449 17.1523C194.449 17.7329 194.449 18.3127 194.449 18.8933C194.449 19.23 194.345 19.3612 194.687 19.4658C195.377 19.6786 196.097 19.7943 196.817 19.8462C197.205 19.8751 197.072 20.0649 197.072 20.4282C197.072 20.8034 197.072 21.1786 197.072 21.5546C197.072 21.7185 196.998 21.8682 197.177 21.8682C197.548 21.8682 197.918 21.8682 198.289 21.8682C198.616 21.8682 199.507 22.0736 199.507 21.674C199.507 21.0118 199.507 20.3496 199.507 19.6875C199.507 19.6118 200.642 19.1714 200.809 19.0617C201.294 18.7443 201.699 18.3164 201.978 17.8063C202.576 16.7096 202.637 15.1651 202.061 14.0469Z" fill="white"/>
<path d="M152 55.7187C151.804 55.7187 151.608 55.6431 151.459 55.4933C151.163 55.1952 151.165 54.7117 151.463 54.4159L152.815 53.0737C153.114 52.7786 153.596 52.7801 153.893 53.0782C154.189 53.3763 154.188 53.8597 153.89 54.1556L152.537 55.4977C152.388 55.6453 152.195 55.7187 152 55.7187Z" fill="#E44642"/>
<path d="M156.132 51.6174C155.935 51.6174 155.74 51.5417 155.591 51.392C155.295 51.0939 155.296 50.6104 155.595 50.3146L158.375 47.5554C158.674 47.2588 159.156 47.2611 159.452 47.5591C159.749 47.858 159.747 48.3399 159.449 48.6365L156.669 51.3957C156.52 51.544 156.325 51.6174 156.132 51.6174ZM161.69 46.0984C161.494 46.0984 161.299 46.0235 161.15 45.8737C160.853 45.5749 160.854 45.0929 161.153 44.7963L163.933 42.0364C164.232 41.7406 164.715 41.7428 165.011 42.0409C165.307 42.339 165.305 42.8224 165.007 43.1183L162.227 45.8774C162.079 46.025 161.884 46.0984 161.69 46.0984ZM167.25 40.5801C167.053 40.5801 166.858 40.5045 166.709 40.3547C166.413 40.0566 166.414 39.5732 166.713 39.2773L169.492 36.5182C169.791 36.2223 170.274 36.2238 170.57 36.5219C170.866 36.8207 170.865 37.3034 170.566 37.6L167.787 40.3584C167.638 40.506 167.444 40.5801 167.25 40.5801ZM172.808 35.0619C172.612 35.0619 172.417 34.987 172.268 34.8365C171.971 34.5384 171.973 34.0549 172.271 33.7591L175.051 30.9999C175.35 30.7033 175.833 30.7055 176.129 31.0036C176.425 31.3017 176.423 31.7852 176.125 32.081L173.345 34.8402C173.197 34.9885 173.003 35.0619 172.808 35.0619ZM178.368 29.5429C178.172 29.5429 177.977 29.4672 177.827 29.3182C177.531 29.0194 177.532 28.5367 177.83 28.2408L180.61 25.4809C180.909 25.1843 181.391 25.1865 181.688 25.4846C181.984 25.7835 181.983 26.2662 181.684 26.562L178.904 29.3219C178.756 29.4687 178.562 29.5429 178.368 29.5429Z" fill="#E44642"/>
<path d="M183.927 24.0247C183.731 24.0247 183.536 23.9491 183.387 23.7993C183.091 23.5012 183.092 23.0177 183.39 22.7219L184.742 21.3798C185.042 21.0839 185.523 21.0846 185.82 21.3842C186.117 21.6823 186.115 22.1657 185.816 22.4616L184.465 23.8037C184.315 23.9505 184.121 24.0247 183.927 24.0247Z" fill="#E44642"/>
<path d="M216.367 52.4924C216.141 52.4924 215.917 52.3916 215.766 52.1995C215.507 51.8674 215.565 51.3891 215.897 51.1296L217.397 49.9558C217.729 49.6977 218.207 49.7548 218.466 50.087C218.726 50.4185 218.667 50.8975 218.336 51.1562L216.835 52.33C216.696 52.4398 216.531 52.4924 216.367 52.4924Z" fill="#E44642"/>
<path d="M193.151 70.6487C192.925 70.6487 192.701 70.5486 192.551 70.3566C192.291 70.0251 192.35 69.5461 192.681 69.2873L195.583 67.0176C195.914 66.7588 196.393 66.8159 196.653 67.1481C196.912 67.4796 196.854 67.9586 196.522 68.2181L193.621 70.4878C193.481 70.5961 193.315 70.6487 193.151 70.6487ZM198.955 66.11C198.729 66.11 198.505 66.0092 198.354 65.8171C198.095 65.4864 198.153 65.0067 198.485 64.7479L201.387 62.4774C201.719 62.2186 202.198 62.2764 202.457 62.6086C202.717 62.9401 202.658 63.4191 202.327 63.6779L199.424 65.9484C199.284 66.0566 199.12 66.11 198.955 66.11ZM204.759 61.5705C204.533 61.5705 204.309 61.4704 204.158 61.2776C203.899 60.9462 203.957 60.4672 204.289 60.2077L207.191 57.9379C207.522 57.6784 208.001 57.7377 208.26 58.0684C208.52 58.3999 208.461 58.8789 208.13 59.1377L205.227 61.4074C205.089 61.5179 204.923 61.5705 204.759 61.5705ZM210.562 57.0318C210.336 57.0318 210.112 56.9317 209.962 56.7397C209.702 56.4075 209.761 55.9292 210.092 55.6697L212.995 53.3999C213.326 53.1411 213.806 53.199 214.065 53.5312C214.324 53.8619 214.266 54.3416 213.934 54.6004L211.032 56.8702C210.892 56.9784 210.727 57.0318 210.562 57.0318Z" fill="#E44642"/>
<path d="M188.748 74.0917C188.522 74.0917 188.298 73.9908 188.148 73.7988C187.888 73.4681 187.947 72.9883 188.278 72.7295L189.778 71.5557C190.11 71.297 190.589 71.3548 190.848 71.6863C191.108 72.0177 191.048 72.4967 190.718 72.7562L189.217 73.93C189.078 74.039 188.913 74.0917 188.748 74.0917Z" fill="#E44642"/>
<path d="M256.674 40.1086C256.674 50.922 247.908 59.6873 237.095 59.6873C226.282 59.6873 217.516 50.922 217.516 40.1086C217.516 29.2961 226.282 20.5293 237.095 20.5293C247.908 20.5293 256.674 29.2961 256.674 40.1086Z" fill="#E44642"/>
<path d="M246.887 48.2844L240.439 41.8363C241.372 40.5669 241.882 39.0438 241.882 37.4385C241.882 35.4461 241.107 33.5745 239.698 32.1657C238.29 30.7568 236.418 29.9819 234.426 29.9819C232.435 29.9819 230.562 30.7568 229.153 32.1657C227.745 33.5745 226.968 35.4468 226.968 37.4392C226.968 39.4316 227.744 41.3032 229.153 42.712C230.56 44.1201 232.433 44.8958 234.426 44.8958C236.03 44.8958 237.554 44.3849 238.824 43.4521L245.272 49.9001C245.495 50.1233 245.786 50.2353 246.08 50.2353C246.372 50.2353 246.665 50.1241 246.888 49.9001C247.334 49.4545 247.334 48.7301 246.887 48.2844ZM230.769 41.0956C229.791 40.119 229.254 38.8199 229.254 37.4392C229.254 36.0578 229.793 34.7587 230.769 33.7814C231.746 32.8056 233.044 32.2672 234.426 32.2672C235.806 32.2672 237.105 32.8056 238.082 33.7814C239.06 34.7587 239.598 36.0571 239.598 37.4385C239.598 38.8199 239.06 40.119 238.082 41.0956C237.106 42.0714 235.807 42.6097 234.426 42.6097C233.044 42.6097 231.744 42.0729 230.769 41.0956Z" fill="white"/>
<path d="M183.294 127.828C183.139 127.828 182.983 127.781 182.848 127.684L181.304 126.568C180.963 126.321 180.887 125.844 181.134 125.504C181.381 125.163 181.856 125.086 182.198 125.333L183.742 126.449C184.083 126.695 184.159 127.172 183.913 127.513C183.763 127.719 183.53 127.828 183.294 127.828Z" fill="#C74B50"/>
<path d="M178.735 124.532C178.58 124.532 178.424 124.485 178.289 124.387L175.274 122.208C174.933 121.961 174.857 121.485 175.103 121.144C175.35 120.803 175.826 120.726 176.167 120.973L179.182 123.152C179.523 123.399 179.6 123.875 179.353 124.217C179.204 124.422 178.971 124.532 178.735 124.532ZM172.705 120.172C172.55 120.172 172.394 120.125 172.259 120.028L169.245 117.848C168.903 117.602 168.827 117.125 169.073 116.784C169.32 116.443 169.796 116.367 170.137 116.613L173.152 118.792C173.493 119.039 173.57 119.516 173.323 119.856C173.174 120.062 172.942 120.172 172.705 120.172ZM166.675 115.812C166.521 115.812 166.365 115.766 166.23 115.668L163.215 113.488C162.874 113.242 162.797 112.765 163.044 112.424C163.29 112.083 163.766 112.007 164.108 112.252L167.122 114.432C167.464 114.679 167.54 115.155 167.294 115.496C167.145 115.703 166.912 115.812 166.675 115.812Z" fill="#C74B50"/>
<path d="M160.645 111.452C160.49 111.452 160.335 111.405 160.2 111.308L158.656 110.192C158.315 109.945 158.238 109.469 158.485 109.128C158.732 108.787 159.208 108.71 159.549 108.956L161.093 110.072C161.434 110.319 161.511 110.795 161.264 111.136C161.115 111.342 160.881 111.452 160.645 111.452Z" fill="#C74B50"/>
<path d="M217.867 143.99C217.867 154.802 209.102 163.568 198.288 163.568C187.474 163.568 178.709 154.802 178.709 143.99C178.709 133.175 187.474 124.41 198.288 124.41C209.102 124.41 217.867 133.175 217.867 143.99Z" fill="#C74B50"/>
<path d="M209.9 153.045C209.48 153.045 209.138 152.704 209.138 152.282V137.094C209.138 136.673 209.479 136.332 209.9 136.332C210.321 136.332 210.662 136.673 210.662 137.094V152.282C210.663 152.704 210.321 153.045 209.9 153.045Z" fill="white"/>
<path d="M204.08 153.045C203.66 153.045 203.319 152.704 203.319 152.283V145.235C203.319 144.813 203.66 144.473 204.08 144.473C204.501 144.473 204.843 144.813 204.843 145.235V152.283C204.843 152.704 204.501 153.045 204.08 153.045Z" fill="white"/>
<path d="M198.26 153.045C197.84 153.045 197.499 152.704 197.499 152.282V142.187C197.499 141.766 197.84 141.425 198.26 141.425C198.681 141.425 199.022 141.766 199.022 142.187V152.282C199.022 152.704 198.681 153.045 198.26 153.045Z" fill="white"/>
<path d="M192.44 153.044C192.019 153.044 191.678 152.703 191.678 152.282V138.186C191.678 137.765 192.019 137.424 192.44 137.424C192.861 137.424 193.202 137.765 193.202 138.186V152.282C193.203 152.703 192.861 153.044 192.44 153.044Z" fill="white"/>
<path d="M186.62 153.044C186.2 153.044 185.858 152.703 185.858 152.282V146.186C185.858 145.766 186.199 145.425 186.62 145.425C187.041 145.425 187.382 145.766 187.382 146.186V152.282C187.382 152.703 187.041 153.044 186.62 153.044Z" fill="white"/>
<path d="M212.843 153.045H183.888C183.468 153.045 183.127 152.704 183.127 152.283C183.127 151.862 183.468 151.521 183.888 151.521H212.843C213.264 151.521 213.606 151.862 213.606 152.283C213.605 152.704 213.264 153.045 212.843 153.045Z" fill="white"/>
<path d="M185.644 138.948C185.425 138.948 185.207 138.853 185.056 138.671C184.789 138.346 184.835 137.866 185.159 137.598L192.97 131.156C193.23 130.94 193.602 130.922 193.881 131.113L202.901 137.213L208.172 132.274C208.48 131.986 208.961 132.002 209.248 132.309C209.536 132.616 209.521 133.098 209.214 133.385L203.499 138.741C203.239 138.984 202.846 139.015 202.551 138.816L193.498 132.694L186.128 138.773C185.988 138.892 185.816 138.948 185.644 138.948Z" fill="white"/>
<path d="M40.2351 107.234C33.6313 96.1127 42.2668 69.1895 69.19 69.1895C74.2701 39.9713 132.433 24.488 151.991 59.7924C169.262 56.9984 202.281 72.57 192.629 106.947C172.818 106.946 95.0974 107.234 40.2351 107.234Z" fill="#E44642"/>
<path d="M90.4816 98.0607C88.3631 98.0607 86.4641 97.7811 84.7839 97.2205C83.1029 96.66 81.6785 95.765 80.5106 94.5356C79.342 93.3054 78.4507 91.7075 77.836 89.7395C77.2206 87.7723 76.9136 85.381 76.9136 82.5662C76.9136 78.9321 77.4704 75.9639 78.5842 73.6616C79.6972 71.3592 81.2966 69.6648 83.3802 68.5785C85.4638 67.4922 87.9679 66.9487 90.8909 66.9487C91.8474 66.9487 92.8002 67.0036 93.7501 67.1133C94.7 67.2231 95.6113 67.3929 96.4863 67.625V72.7488C95.6254 72.53 94.7749 72.3661 93.9347 72.2571C93.0939 72.1481 92.2367 72.0933 91.3625 72.0933C89.5866 72.0933 88.0969 72.4181 86.8949 73.0669C85.6922 73.7157 84.7839 74.7953 84.1684 76.305C83.5537 77.8147 83.2467 79.8746 83.2467 82.4847C83.2467 85.1756 83.55 87.2763 84.1588 88.786C84.7661 90.2957 85.6648 91.3612 86.8534 91.9833C88.042 92.6047 89.531 92.9154 91.3209 92.9154C92.0862 92.9154 92.8989 92.8301 93.7597 92.6596C94.6206 92.489 95.529 92.2458 96.4863 91.9322V97.0767C95.6928 97.377 94.7645 97.6172 93.6989 97.7937C92.6334 97.9709 91.5605 98.0607 90.4816 98.0607Z" fill="white"/>
<path d="M101.405 97.6713V67.8511C102.238 67.6739 103.095 67.5167 103.977 67.3803C104.858 67.2431 105.773 67.1415 106.723 67.0725C107.672 67.0043 108.666 66.9702 109.705 66.9702C113.749 66.9702 116.775 67.7762 118.784 69.3883C120.793 71.001 121.797 73.4391 121.797 76.7054C121.797 78.8365 121.315 80.6272 120.352 82.0746C119.39 83.5228 118.026 84.6157 116.264 85.3535C114.501 86.0913 112.418 86.4606 110.013 86.4606C109.453 86.4606 108.974 86.4539 108.578 86.4398C108.181 86.4265 107.778 86.4065 107.368 86.3783V97.6706L101.405 97.6713ZM109.971 81.6646C112.007 81.6646 113.53 81.2782 114.542 80.5063C115.552 79.7352 116.058 78.4665 116.058 76.7046C116.058 75.5709 115.85 74.6344 115.433 73.8958C115.016 73.1588 114.395 72.6086 113.568 72.246C112.741 71.8841 111.706 71.7032 110.463 71.7032C109.821 71.7032 109.26 71.7277 108.782 71.7751C108.304 71.8226 107.833 71.8871 107.368 71.9694V81.5415C107.682 81.5689 107.973 81.5926 108.239 81.6126C108.505 81.6334 108.775 81.6468 109.049 81.6534C109.322 81.6616 109.629 81.6646 109.971 81.6646ZM117.554 97.6713L108.762 83.7348H115.096L124.051 97.6713H117.554Z" fill="white"/>
<path d="M128.684 97.6712V67.3394H136.103L143.87 87.3621H143.236L150.777 67.3394H158.217V97.6712H152.581V73.1386H153.667L145.858 93.2852H141.022L133.008 73.1386H134.32V97.6712H128.684Z" fill="white"/>
<path d="M279.712 205.645C273.71 215.486 264.889 227.425 262.984 229.329C251.399 238.996 238.298 250.576 216.589 262.093C224.886 266.286 234.859 270.148 250.539 270.148C266.616 263.921 284.907 252.525 289.669 247.762C294.432 243 305.643 228.384 309.083 222.344C305.987 209.896 290.76 208.312 279.712 205.645Z" fill="#EB9763"/>
<path d="M310.607 103.986C300.321 100.939 281.842 86.6516 306.035 62.4594C330.228 38.2672 360.706 34.0762 372.708 46.0774C384.709 58.0786 389.661 73.6984 400.138 84.1758C410.615 94.6525 408.139 108.559 408.139 121.131C408.139 133.704 448.142 143.61 432.522 164.563C391.376 164.563 318.547 172.503 302.545 172.503C294.125 140.942 333.999 151.271 331.237 130.878C328.951 114.875 315.94 109.32 310.607 103.986Z" fill="#363440"/>
<path d="M384.518 90.5913C387.214 92.907 389.539 95.7863 391.526 98.7167C394.059 102.452 395.977 106.571 396.985 110.977C397.146 112.117 397.426 113.246 397.44 114.402C397.507 115.523 397.457 116.734 397.714 117.831C398.075 120.09 399.135 122.19 400.367 124.094C402.881 128.087 406.277 131.481 409.427 134.966C412.276 138.116 415.117 141.489 416.911 145.373C417.783 147.265 418.344 149.284 418.414 151.372C418.473 153.041 418.136 154.594 417.663 156.181C418.032 154.508 418.267 152.861 418.082 151.144C417.844 148.922 417.023 146.823 415.95 144.876C413.641 140.7 410.188 137.225 406.96 133.762C403.828 130.404 400.514 127.007 398.362 122.907C397.35 120.98 396.626 118.876 396.524 116.689C396.415 114.348 396.258 112.077 395.684 109.796C393.888 102.642 389.686 95.83 384.518 90.5913Z" fill="#F49C9A"/>
<path d="M384.518 115.419C385.472 119.087 387.06 122.721 389.024 125.956C391.393 129.855 394.394 133.157 397.915 136.046C401.499 138.986 405.462 141.714 408.471 145.274C409.841 146.87 410.972 148.569 411.798 150.507C412.564 152.306 412.689 154.258 412.71 156.181C412.49 154.334 412.127 152.674 411.444 150.938C410.649 149.114 409.391 147.453 408.028 146.019C404.898 142.728 401.114 140.161 397.621 137.283C394.095 134.378 390.926 131.108 388.71 127.077C386.709 123.436 385.183 119.534 384.518 115.419Z" fill="#F49C9A"/>
<path d="M318.036 67.9838C315.507 66.3985 313.951 62.6688 313.814 59.7925C314.75 61.0048 315.409 62.4485 316.106 63.8055C316.775 65.1825 317.465 66.5602 318.036 67.9838Z" fill="#F49C9A"/>
<path d="M335.371 151.99C320.512 153.895 313.338 156.752 308.702 161.388C302.479 167.611 286.569 194.978 279.711 205.646C296.093 215.17 303.613 216.877 309.082 222.346C310.708 232.705 315.116 246.221 320.894 273.563C341.277 273.563 402.844 273.563 418.844 273.563C412.749 261.372 413.346 246.983 414.996 232.887C416.978 233.904 418.329 234.443 421.35 235.74C423.255 227.358 431.379 207.107 437.22 194.153C443.062 181.2 444.206 168.883 437.475 162.151C430.744 155.421 410.587 150.774 397.885 147.24C383.884 149.45 358.23 157.07 335.371 151.99Z" fill="#C74B50"/>
<path d="M320.626 272.303C320.709 272.69 320.791 273.071 320.873 273.462C340.32 273.462 382.842 273.462 395.059 273.462C403.399 265.123 410.297 258.57 413.927 251.794C413.735 245.581 414.257 239.206 414.997 232.885C403.583 239.734 359.191 264.539 320.626 272.303Z" fill="#A83F44"/>
<path d="M309.083 222.345C308.358 219.392 308.107 216.263 308.118 213.23C308.136 209.043 308.878 205.12 310.332 201.201C312.867 194.366 316.869 188.219 319.56 181.453C318.882 184.565 317.899 187.5 316.611 190.417C314.996 194.077 313.181 197.692 311.858 201.469C310.41 205.218 309.543 208.985 309.217 212.994C308.967 216.096 308.907 219.237 309.083 222.345Z" fill="#A83F44"/>
<path d="M386.333 213.71C389.24 207.551 392.701 201.679 396.259 195.883C399.892 190.139 403.548 184.37 407.696 178.976C404.679 185.068 401.114 190.887 397.56 196.675C393.926 202.411 390.368 208.243 386.333 213.71Z" fill="#A83F44"/>
<path d="M414.997 232.886C402.043 251.808 387.346 265.942 382.994 267.429C375.47 270.001 322.418 275.048 287.748 273.143C280.129 269.333 261.841 274.287 258.984 269.143C267.746 264.571 281.019 263.619 291.939 264.635C306.416 261.049 349.937 250.516 365.132 244.802C376.136 230.705 379.565 224.198 386.333 213.71C392.81 220.187 408.644 230.033 414.997 232.886Z" fill="#EB9763"/>
<path d="M318.036 67.9839C328.704 78.6511 335.752 85.3187 349.467 85.3187C350.419 93.5894 356.706 94.9701 361.908 94.9701C361.908 89.1278 365.595 83.9069 370.358 84.8746C377.279 86.2819 379.058 101.13 370.74 106.591C374.042 118.782 379.216 137.735 385.185 143.705C389.307 144.868 393.823 146.255 397.887 147.239C395.6 158.923 355.703 194.953 335.371 151.991C340.514 150.976 344.514 150.214 347.309 149.071C347.309 145.769 347.119 142.213 346.674 138.53C342.103 139.8 318.486 149.794 311.508 111.861C308.147 93.5894 307.469 83.1602 309.655 78.7787C311.178 75.7252 311.052 74.9688 318.036 67.9839Z" fill="#EB9763"/>
<path d="M328.605 112.884C327.225 114.532 325.403 115.693 323.233 115.945C321.264 116.174 317.914 115.269 318.591 112.617C319.066 110.764 320.281 109.173 321.416 107.669C322.707 105.952 324.116 104.287 325.01 102.318C323.969 106.221 320.514 108.963 319.382 112.808C319.003 115.075 322.126 115.466 323.722 115.262C325.593 115.1 327.208 114.053 328.605 112.884Z" fill="#B87046"/>
<path d="M322.512 122.664C324.482 122.657 326.452 122.673 328.388 122.255C329.499 122.015 330.547 121.584 331.493 120.958C332.307 120.404 332.943 119.712 333.656 119.045C332.564 123.834 326.338 125.252 322.512 122.664Z" fill="#B87046"/>
<path d="M336.598 100.084C336.752 101.407 336.141 102.568 335.23 102.674C334.32 102.78 333.457 101.793 333.302 100.471C333.146 99.1463 333.757 97.9866 334.667 97.8806C335.578 97.7731 336.443 98.76 336.598 100.084Z" fill="#363440"/>
<path d="M319.197 102.124C319.353 103.448 318.742 104.608 317.83 104.714C316.921 104.821 316.057 103.834 315.902 102.51C315.747 101.186 316.359 100.027 317.268 99.9199C318.179 99.8139 319.042 100.8 319.197 102.124Z" fill="#363440"/>
<path d="M331.237 96.7214C332.396 94.4991 335.612 94.4776 337.29 96.011C336.285 95.8434 335.211 95.4764 334.182 95.6996C333.157 95.7737 332.123 96.2194 331.237 96.7214Z" fill="#B87046"/>
<path d="M329.385 92.4336C330.775 89.2177 335.705 89.1991 337.899 91.4355C336.457 91.4629 335 91.1611 333.56 91.3962C332.128 91.5512 330.735 91.939 329.385 92.4336Z" fill="#3A3845"/>
<path d="M319.868 98.0546C318.891 97.7721 317.782 97.5756 316.766 97.7417C315.713 97.7624 314.752 98.3682 313.814 98.7642C315.09 96.8808 318.229 96.163 319.868 98.0546Z" fill="#B87046"/>
<path d="M320.477 93.7639C319.048 93.5941 317.604 93.5392 316.174 93.7201C314.718 93.8247 313.372 94.4572 311.962 94.7619C313.582 92.0799 318.377 90.9551 320.477 93.7639Z" fill="#3A3845"/>
<path d="M346.673 138.529C349.565 136.78 352.352 134.616 354.66 132.144C355.906 130.81 357.093 129.434 358.11 127.914C359.125 126.391 359.968 124.799 360.897 123.227C360.269 126.939 358.517 130.385 355.869 133.072C353.415 135.563 350.185 137.883 346.673 138.529Z" fill="#B87046"/>
<path d="M365.132 97.2561C366.104 92.0485 369.369 89.2708 371.311 91.2136C373.253 93.1556 371.737 100.304 368.222 101.701C368.222 99.9225 367.463 98.0176 365.132 97.2561Z" fill="#B87046"/>
<path d="M375.375 107.431C375.375 109.483 373.711 111.146 371.66 111.146C369.609 111.146 367.945 109.483 367.945 107.431C367.945 105.379 369.609 103.717 371.66 103.717C373.71 103.717 375.375 105.379 375.375 107.431Z" fill="white"/>
<path d="M304.13 270.115C304.13 271.598 302.928 272.801 301.444 272.801H229.096C227.613 272.801 226.41 271.598 226.41 270.115C226.41 268.631 227.613 267.428 229.096 267.428H301.444C302.928 267.428 304.13 268.631 304.13 270.115Z" fill="#565366"/>
<path d="M242.92 272.801H118.464L89.3827 174.087H213.837L242.92 272.801Z" fill="#3A3845"/>
<path d="M89.3827 174.087L242.92 272.801H118.464L89.3827 174.087Z" fill="#42414F"/>
<path d="M174.061 223.444C174.061 228.705 169.796 232.969 164.536 232.969C159.275 232.969 155.011 228.705 155.011 223.444C155.011 218.184 159.275 213.919 164.536 213.919C169.796 213.919 174.061 218.184 174.061 223.444Z" fill="#66657A"/>
<path d="M455.439 273.918C455.439 273.918 448.545 273.994 436.484 274.126C424.42 274.212 407.188 274.421 386.508 274.519C376.17 274.575 364.968 274.635 353.12 274.698C341.272 274.746 328.779 274.798 315.855 274.851C290.006 274.899 262.434 274.949 234.861 275C207.289 274.956 179.717 274.911 153.868 274.87C140.943 274.821 128.449 274.772 116.602 274.728C104.755 274.666 93.5536 274.609 83.2141 274.555C62.5351 274.463 45.3026 274.255 33.2398 274.17C21.1771 274.041 14.2833 273.966 14.2833 273.966C14.1647 273.965 14.069 273.867 14.0698 273.748C14.0713 273.631 14.1662 273.536 14.2833 273.535C14.2833 273.535 21.1763 273.46 33.2398 273.331C45.3026 273.247 62.5351 273.038 83.2141 272.947C93.5536 272.893 104.755 272.836 116.602 272.774C128.45 272.729 140.944 272.681 153.868 272.632C179.717 272.591 207.29 272.546 234.861 272.502C262.434 272.553 290.006 272.604 315.855 272.651C328.779 272.704 341.272 272.756 353.12 272.804C364.968 272.867 376.17 272.927 386.508 272.983C407.189 273.081 424.421 273.29 436.484 273.376C448.546 273.509 455.439 273.584 455.439 273.584C455.531 273.585 455.606 273.661 455.606 273.753C455.604 273.843 455.53 273.917 455.439 273.918Z" fill="#FF928E"/>
</svg>
