<svg width="435" height="268" viewBox="0 0 435 268" fill="none" xmlns="http://www.w3.org/2000/svg">
<path d="M198.71 238.377C122.906 212.555 121.727 221.387 78.1923 216.274C27.7155 210.345 -2.79672 176.632 32.9906 143.632C68.7778 110.631 59.9728 93.4815 84.0501 67.997C106.558 44.1747 146.964 48.7377 194.031 49.1571C243.961 49.6018 274.876 18.3259 307.35 31.6307C339.824 44.9356 321.188 87.0875 364.041 118.323C406.894 149.559 408.397 182.414 349.148 207.004C297.632 228.383 290.386 247.014 259.928 251.598C233.101 255.637 213.37 243.37 198.71 238.377Z" fill="url(#paint0_linear_126_80023)" stroke="white" stroke-width="1.5" stroke-miterlimit="10"/>
<path d="M284.586 148.407L395.26 162.65" stroke="white" stroke-width="1.5" stroke-miterlimit="10"/>
<path d="M54.4756 118.793L137.575 129.487" stroke="white" stroke-width="1.5" stroke-miterlimit="10"/>
<path d="M99.8838 217.795L161.996 174.307" stroke="white" stroke-width="1.5" stroke-miterlimit="10"/>
<path d="M261.799 104.431L328.264 57.8966" stroke="white" stroke-width="1.5" stroke-miterlimit="10"/>
<path d="M270.672 248.924L235.613 182.986" stroke="white" stroke-width="1.5" stroke-miterlimit="10"/>
<path d="M164.195 48.667L188.476 94.332" stroke="white" stroke-width="1.5" stroke-miterlimit="10"/>
<path d="M284.594 148.382C292.978 123.085 266.866 98.3432 226.27 93.1188C185.674 87.8943 145.967 104.166 137.583 129.463C129.199 154.759 155.312 179.501 195.908 184.726C236.504 189.95 276.21 173.679 284.594 148.382Z" stroke="white" stroke-width="1.5" stroke-miterlimit="10"/>
<defs>
<linearGradient id="paint0_linear_126_80023" x1="299.991" y1="237.405" x2="207.796" y2="12.43" gradientUnits="userSpaceOnUse">
<stop stop-color="#9C1313"/>
<stop offset="1" stop-color="#E44642"/>
</linearGradient>
</defs>
</svg>
