<svg width="28" height="21" viewBox="0 0 28 21" fill="none" xmlns="http://www.w3.org/2000/svg">
<path d="M8.6591 16.1984L13.9885 13.1148L19.3179 16.1984L17.3193 11.1938L22.6487 8.31241H16.1202L13.9885 3.05506L11.8567 8.31241H5.32824L10.6576 11.1938L8.6591 16.1984ZM13.9885 20.2426C12.1454 20.2426 10.4134 19.9772 8.79234 19.4464C7.17132 18.9156 5.76126 18.1952 4.56215 17.2853C3.36304 16.3754 2.41374 15.3054 1.71426 14.0753C1.01478 12.8452 0.665039 11.5309 0.665039 10.1323C0.665039 8.73368 1.01478 7.41934 1.71426 6.18925C2.41374 4.95917 3.36304 3.88916 4.56215 2.97923C5.76126 2.06931 7.17132 1.34895 8.79234 0.818158C10.4134 0.287368 12.1454 0.0219727 13.9885 0.0219727C15.8316 0.0219727 17.5636 0.287368 19.1846 0.818158C20.8056 1.34895 22.2157 2.06931 23.4148 2.97923C24.6139 3.88916 25.5632 4.95917 26.2627 6.18925C26.9622 7.41934 27.3119 8.73368 27.3119 10.1323C27.3119 11.5309 26.9622 12.8452 26.2627 14.0753C25.5632 15.3054 24.6139 16.3754 23.4148 17.2853C22.2157 18.1952 20.8056 18.9156 19.1846 19.4464C17.5636 19.9772 15.8316 20.2426 13.9885 20.2426Z" fill="#FF3B30"/>
</svg>
