<svg width="26" height="27" viewBox="0 0 26 27" fill="none" xmlns="http://www.w3.org/2000/svg">
<path fill-rule="evenodd" clip-rule="evenodd" d="M2.62582 7.20535L2.75938 7.05509C3.24889 6.54322 3.97814 6.28711 4.94646 6.28711H21.5416C22.4541 6.28711 23.1553 6.50982 23.6452 6.95492L23.6619 6.97162C23.7621 7.06077 23.8626 7.16628 23.9624 7.28883C23.9624 7.30018 23.9681 7.3112 23.9791 7.32222L23.9958 7.33891C24.3634 7.79536 24.5467 8.4408 24.5467 9.27557V18.7251C24.5357 20.7285 23.534 21.7303 21.5416 21.7303H4.94646C2.95405 21.7192 1.95801 20.7175 1.95801 18.7251V9.27557C1.95801 8.37402 2.18072 7.68384 2.62582 7.20535ZM22.0925 7.92325C21.9256 7.87884 21.7419 7.86181 21.5419 7.87316H4.94646C4.82392 7.86214 4.70705 7.86749 4.59586 7.88986L13.1939 16.6048L22.0925 7.92325ZM3.54406 9.09192C3.53304 9.14768 3.53304 9.20879 3.54406 9.27557V18.7251C3.54406 19.6714 4.01153 20.1442 4.94646 20.1442H21.5416C22.4875 20.1442 22.9607 19.6714 22.9607 18.7251V9.29226L13.7449 18.291C13.5779 18.447 13.3889 18.5248 13.1776 18.5248C12.9549 18.5137 12.7655 18.4356 12.6099 18.291L3.54406 9.09192Z" fill="#FF3B30"/>
<path fill-rule="evenodd" clip-rule="evenodd" d="M2.62598 7.20494C2.64835 7.17155 2.67606 7.13816 2.70945 7.10477C2.7208 7.0824 2.73717 7.06571 2.75954 7.05469L2.62598 7.20494Z" fill="#FF3B30"/>
</svg>
