<svg width="449" height="274" viewBox="0 0 449 274" fill="none" xmlns="http://www.w3.org/2000/svg">
<path opacity="0.48" d="M299.142 15.1938L293.082 271.636L431.079 271.806L443.046 124.394L299.142 15.1938Z" fill="#FCF6F2"/>
<path opacity="0.48" d="M18.0264 270.821L5.06641 77.2404L299.142 1.33057L293.082 271.636L18.0264 270.821Z" fill="#EFE9E6"/>
<path d="M357.831 248.667L351.331 272.528H354.581L365.365 248.667H357.831Z" fill="#C9C9C9"/>
<path d="M388.411 248.667L399.048 272.528H402.298L396.536 247.277L388.411 248.667Z" fill="#C9C9C9"/>
<path d="M304.975 248.667L298.475 272.528H301.725L312.509 248.667H304.975Z" fill="#C9C9C9"/>
<path d="M335.555 248.667L346.191 272.528H349.442L343.68 247.277L335.555 248.667Z" fill="#C9C9C9"/>
<path d="M405.961 186.619H345.234C340.505 186.619 336.296 189.619 334.754 194.091L324.375 224.196C322.833 228.667 318.624 231.668 313.895 231.668H305.49C301.286 231.668 298.027 235.34 298.525 239.514L299.022 243.675C299.443 247.203 302.434 249.859 305.987 249.859H377.894L405.961 186.619Z" fill="#DECAC0"/>
<path d="M414.323 198.236L401.278 243.294C400.152 247.183 396.591 249.86 392.541 249.86H356.436C349.514 249.86 345.129 242.434 348.471 236.372C350.071 233.47 353.123 231.668 356.436 231.668H378.52C382.92 231.668 386.689 228.518 387.471 224.189L392.937 193.936C393.745 189.467 397.725 186.278 402.263 186.466L405.961 186.619C411.857 186.862 415.964 192.568 414.323 198.236Z" fill="#DECAC0"/>
<path d="M223.379 180.6H206.399H31.5534C28.8532 180.6 26.6646 178.411 26.6646 175.711V38.5461C26.6646 36.8065 27.5733 35.2789 28.9423 34.4123C29.6974 33.9344 30.5935 33.6572 31.5534 33.6572H223.379C226.079 33.6572 228.268 35.8459 228.268 38.5461V175.711C228.268 178.411 226.079 180.6 223.379 180.6Z" fill="#F0F5FC"/>
<path opacity="0.49" d="M123.96 135.139H122.193H45.7565C43.0563 135.139 40.8677 132.951 40.8677 130.25V75.9016C40.8677 73.2014 43.0563 71.0127 45.7565 71.0127H123.96C126.66 71.0127 128.848 73.2014 128.848 75.9016V130.25C128.848 132.482 127.354 134.364 125.311 134.95C124.882 135.073 124.428 135.139 123.96 135.139Z" fill="#F7C7C6"/>
<path opacity="0.49" d="M216.817 101.151H139.92H138.614C135.914 101.151 133.726 98.9621 133.726 96.2619V75.9016C133.726 73.2014 135.914 71.0127 138.614 71.0127H216.817C219.518 71.0127 221.706 73.2014 221.706 75.9016V96.2619C221.706 98.9621 219.517 101.151 216.817 101.151Z" fill="#F7C7C6"/>
<path opacity="0.49" d="M108.388 63.391H45.7565C43.0563 63.391 40.8677 61.2024 40.8677 58.5022C40.8677 55.8019 43.0563 53.6133 45.7565 53.6133H108.388C111.089 53.6133 113.277 55.8019 113.277 58.5022C113.277 59.7147 112.836 60.8248 112.105 61.6788C111.207 62.7265 109.875 63.391 108.388 63.391Z" fill="#F7C7C6"/>
<path opacity="0.49" d="M216.817 135.969H200.694H138.614C135.914 135.969 133.726 133.781 133.726 131.08V110.72C133.726 108.02 135.914 105.831 138.614 105.831H216.817C219.518 105.831 221.706 108.02 221.706 110.72V131.08C221.706 133.781 219.517 135.969 216.817 135.969Z" fill="#F7C7C6"/>
<path opacity="0.49" d="M68.9973 172.033H48.6369C45.9367 172.033 43.748 169.844 43.748 167.144V146.783C43.748 144.083 45.9367 141.895 48.6369 141.895H68.9973C71.6975 141.895 73.8862 144.083 73.8862 146.783V167.144C73.8862 168.325 73.4672 169.408 72.7697 170.253C71.8729 171.34 70.5158 172.033 68.9973 172.033Z" fill="#F7C7C6"/>
<path opacity="0.49" d="M105.316 172.033H84.9553C82.2551 172.033 80.0664 169.844 80.0664 167.144V146.783C80.0664 144.083 82.2551 141.895 84.9553 141.895H105.316C108.016 141.895 110.205 144.083 110.205 146.783V167.144C110.205 168.494 109.657 169.716 108.772 170.6C107.887 171.485 106.666 172.033 105.316 172.033Z" fill="#F7C7C6"/>
<path opacity="0.49" d="M142.247 171.725H121.886C119.186 171.725 116.998 169.536 116.998 166.836V146.475C116.998 143.775 119.186 141.586 121.886 141.586H142.247C144.947 141.586 147.136 143.775 147.136 146.475V166.836C147.136 168.515 146.289 169.996 144.999 170.877C144.215 171.412 143.267 171.725 142.247 171.725Z" fill="#F7C7C6"/>
<path opacity="0.49" d="M177.808 171.725H170.326H157.447C154.747 171.725 152.558 169.536 152.558 166.836V146.475C152.558 143.775 154.747 141.586 157.447 141.586H177.807C178.404 141.586 178.976 141.693 179.504 141.889C181.368 142.579 182.696 144.372 182.696 146.475V166.836C182.697 169.536 180.508 171.725 177.808 171.725Z" fill="#F7C7C6"/>
<path d="M228.268 49.4448H26.6646V38.5471C26.6646 38.0832 26.7291 37.6348 26.8498 37.2096C27.4315 35.1599 29.317 33.6582 31.5534 33.6582H223.379C226.079 33.6582 228.268 35.8469 228.268 38.5471V49.4448Z" fill="#F7C7C6"/>
<path d="M40.8673 41.7718C40.8673 43.5464 39.4287 44.9849 37.6541 44.9849C35.8794 44.9849 34.4409 43.5464 34.4409 41.7718C34.4409 39.9971 35.8794 38.5586 37.6541 38.5586C39.4287 38.5586 40.8673 39.9971 40.8673 41.7718Z" fill="white"/>
<path d="M50.1744 41.7718C50.1744 43.5464 48.7359 44.9849 46.9612 44.9849C45.1866 44.9849 43.748 43.5464 43.748 41.7718C43.748 39.9971 45.1866 38.5586 46.9612 38.5586C48.7359 38.5586 50.1744 39.9971 50.1744 41.7718Z" fill="white"/>
<path d="M59.3419 41.7718C59.3419 43.5464 57.9033 44.9849 56.1287 44.9849C54.354 44.9849 52.9155 43.5464 52.9155 41.7718C52.9155 39.9971 54.354 38.5586 56.1287 38.5586C57.9026 38.5586 59.3419 39.9971 59.3419 41.7718Z" fill="white"/>
<path d="M127.466 271.636L136.064 194.128L140.93 194.979L130.734 271.636H127.466Z" fill="#322830"/>
<path d="M162.446 198.091L177.315 271.638H181.077L169.017 197.377L162.446 198.091Z" fill="#322830"/>
<path d="M175.73 184.795L168.678 200.121H135.578L101.867 128.959L105.663 128.791L148.447 126.861L175.73 184.795Z" fill="#CDCDCD"/>
<path d="M142.658 199.84H135.578L101.867 128.679L105.663 128.51C111.067 130.819 118.505 135.591 121.073 144.937C125.073 159.484 141.044 196.156 142.658 199.84Z" fill="#A1A5AC"/>
<path d="M192.731 265.689C191.254 265.689 190.057 264.492 190.057 263.015V255.906C190.057 255.102 190.411 254.381 190.974 253.89C191.444 253.48 192.058 253.231 192.731 253.231C194.208 253.231 195.406 254.429 195.406 255.906V263.015C195.406 264.491 194.208 265.689 192.731 265.689Z" fill="#F6C19F"/>
<path d="M222.478 266.183C221.015 266.386 219.638 265.174 219.402 263.476L218.265 255.299C218.136 254.374 218.372 253.497 218.85 252.855C219.25 252.318 219.819 251.948 220.486 251.855C221.949 251.652 223.326 252.864 223.562 254.563L224.699 262.739C224.936 264.438 223.942 265.979 222.478 266.183Z" fill="#F6C19F"/>
<path d="M171.339 121.072L139.533 120.287C135.689 120.193 132.626 123.291 133.014 126.884L138.268 175.604L178.51 175.295L177.542 126.942C177.479 123.742 174.747 121.157 171.339 121.072Z" fill="#BF5E4F"/>
<path d="M138.269 175.605C138.269 175.605 138.088 193.146 155.228 194.255C172.369 195.364 178.511 175.296 178.511 175.296L138.269 175.605Z" fill="#BF5E4F"/>
<path d="M219.675 253.849C216.217 253.85 213.231 251.51 212.817 248.332C209.413 222.157 203.39 196.997 199.614 193.107C194.528 189.992 176.36 188.234 165.541 188.025C161.724 187.951 158.695 185.096 158.777 181.648C158.857 178.2 161.992 175.458 165.832 175.535C171.078 175.634 197.758 176.465 207.881 183.089C211.934 185.74 216.436 191.918 221.889 218.934C224.749 233.104 226.478 246.319 226.551 246.874C226.995 250.301 224.283 253.404 220.491 253.806C220.216 253.835 219.944 253.849 219.675 253.849Z" fill="#BF5E4F"/>
<path d="M192.479 256.631C192.4 256.631 192.322 256.63 192.243 256.628C188.427 256.512 185.437 253.624 185.565 250.176C186.418 227.125 184.946 204.459 182.344 200.257C179.453 197.949 168.105 194.239 154.199 192.091C150.435 191.509 147.906 188.281 148.55 184.881C149.194 181.481 152.764 179.197 156.53 179.777C161.103 180.484 184.323 184.373 192.312 191.583C195.542 194.499 198.64 200.605 199.426 225.33C199.835 238.201 199.403 250.095 199.385 250.595C199.259 253.971 196.189 256.631 192.479 256.631Z" fill="#BF5E4F"/>
<path d="M187.624 252.624L189.321 259.15H196.746L197.876 251.829L187.624 252.624Z" fill="#BF5E4F"/>
<path d="M215.569 250.256L217.769 256.631L225.171 256.055L225.729 248.667L215.569 250.256Z" fill="#BF5E4F"/>
<path d="M188.632 271.806V263.173H193.688L194.724 264.794L195.406 263.015H197.876C197.876 263.015 203.341 268.573 207.822 268.343C212.303 268.113 212.533 271.806 212.533 271.806H188.632Z" fill="#99453C"/>
<path d="M217.704 271.806V263.173H222.76L223.796 264.794L224.478 263.015H226.949C226.949 263.015 232.413 268.573 236.894 268.343C241.376 268.113 241.605 271.806 241.605 271.806H217.704Z" fill="#99453C"/>
<path opacity="0.16" d="M135.58 150.673L178.075 153.511L178.511 175.295L138.269 175.605L135.58 150.673Z" fill="white"/>
<path d="M140.264 168.037C128.491 168.037 122.807 166.224 120.782 161.889C119.248 158.605 119.536 153.428 125.931 138.839C129.354 131.032 133.028 124.022 133.183 123.727C134.491 121.237 137.571 120.277 140.061 121.585C142.552 122.893 143.511 125.972 142.203 128.463C135.45 141.327 130.928 152.796 130.275 157.019C134.126 158.109 145.13 158.145 155.593 157.011C158.386 156.707 160.904 158.728 161.208 161.525C161.512 164.322 159.491 166.836 156.694 167.14C156.396 167.172 149.31 167.934 141.782 168.027C141.264 168.034 140.758 168.037 140.264 168.037Z" fill="#FF928E"/>
<path d="M214.116 169.162C204.197 169.162 195.496 166.478 188.15 161.136C171.608 149.105 168.342 128.008 168.212 127.116C167.803 124.332 169.729 121.744 172.513 121.336C175.292 120.926 177.877 122.847 178.291 125.624C178.318 125.802 181.135 143.484 194.205 152.941C201.715 158.375 211.352 160.143 222.853 158.201C225.628 157.73 228.257 159.6 228.725 162.374C229.194 165.149 227.326 167.778 224.551 168.246C220.94 168.857 217.458 169.162 214.116 169.162Z" fill="#FF928E"/>
<path opacity="0.32" d="M161.324 162.5C161.324 164.523 159.684 166.162 157.661 166.162C155.639 166.162 153.999 164.523 153.999 162.5C153.999 160.478 155.639 158.838 157.661 158.838C159.684 158.838 161.324 160.477 161.324 162.5Z" fill="white"/>
<path d="M159.946 160.493C163.775 160.03 171.334 159.925 174.025 165.674H160.262C158.826 165.674 157.662 164.51 157.662 163.075C157.661 161.759 158.639 160.651 159.946 160.493Z" fill="#F6C19F"/>
<path d="M149.448 104.986C149.448 104.986 145.457 98.6749 149.448 96.1073C149.448 96.1073 148.448 92.657 151.476 91.0374C154.503 89.4179 164.714 89.9105 168.235 89.0656C171.755 88.2207 168.516 93.2092 168.516 93.2092C168.516 93.2092 169.995 93.2191 170.277 93.7131C170.558 94.2064 168.516 96.108 168.516 96.108C168.516 96.108 169.432 96.2996 169.643 96.9782C169.854 97.6567 166.709 99.9808 166.709 99.9808L149.448 104.986Z" fill="#5E3531"/>
<path d="M150.137 96.1075C150.137 96.1075 148.238 93.2207 147.674 94.0655C147.109 94.9104 149.448 96.1075 149.448 96.1075C149.448 96.1075 147.321 94.9104 146.898 96.1075C146.476 97.3047 150.137 97.2127 150.137 97.2127V96.1075Z" fill="#5E3531"/>
<path d="M155.172 128.957C153.859 128.957 152.671 128.425 151.811 127.565C150.951 126.704 150.419 125.516 150.419 124.204V108.043H159.925V124.204C159.926 126.829 157.798 128.957 155.172 128.957Z" fill="#F6C19F"/>
<path d="M159.186 117.268C154.189 117.268 150.138 113.217 150.138 108.219V101.952C150.138 96.9543 154.189 92.9033 159.186 92.9033C164.184 92.9033 168.235 96.9543 168.235 101.952V108.219C168.235 110.003 167.719 111.667 166.827 113.068C165.222 115.593 162.4 117.268 159.186 117.268Z" fill="#F6C19F"/>
<path d="M150.138 111.001C152.16 111.001 153.799 109.362 153.799 107.339C153.799 105.317 152.16 103.678 150.138 103.678C148.115 103.678 146.476 105.317 146.476 107.339C146.476 109.362 148.115 111.001 150.138 111.001Z" fill="#F6C19F"/>
<path d="M150.178 108.989C149.601 109.253 148.832 108.807 148.46 107.994C148.089 107.18 148.256 106.307 148.834 106.044C149.411 105.78 150.18 106.226 150.551 107.039C150.923 107.853 150.756 108.726 150.178 108.989Z" fill="#BD695D"/>
<path d="M151.76 113.387C151.76 113.387 153.8 117.523 159.926 117.237V120.002C159.926 120.002 152.537 119.822 151.76 113.387Z" fill="#BD695D"/>
<path d="M161.088 102.688C161.368 103.615 160.143 102.801 159.035 103.135C157.928 103.469 157.358 104.826 157.078 103.898C156.798 102.97 157.469 101.947 158.576 101.613C159.683 101.279 160.807 101.76 161.088 102.688Z" fill="#5E3531"/>
<path d="M168.772 104.028C168.536 104.986 167.886 103.636 166.742 103.353C165.599 103.071 164.395 103.962 164.632 103.005C164.869 102.048 165.987 101.5 167.131 101.783C168.274 102.066 169.01 103.071 168.772 104.028Z" fill="#5E3531"/>
<path d="M159.275 105.75C159.696 105.75 160.038 105.408 160.038 104.986C160.038 104.564 159.696 104.223 159.275 104.223C158.853 104.223 158.511 104.564 158.511 104.986C158.511 105.408 158.853 105.75 159.275 105.75Z" fill="#5E3531"/>
<path d="M167.26 105.255C167.26 105.669 166.924 106.005 166.51 106.005C166.096 106.005 165.76 105.669 165.76 105.255C165.76 104.841 166.096 104.505 166.51 104.505C166.924 104.505 167.26 104.841 167.26 105.255Z" fill="#5E3531"/>
<path d="M163.462 103.721C163.462 103.721 162.977 106.122 163.723 106.399C164.468 106.676 165.179 106.867 164.919 107.526C164.659 108.185 162.7 108.705 162.284 107.665C161.868 106.624 163.185 103.261 163.462 103.721Z" fill="#BD695D"/>
<path d="M163.817 110.004C163.561 111.37 162.152 112.253 160.669 111.975C159.186 111.698 158.192 110.365 158.448 108.998C158.704 107.631 159.783 108.514 161.265 108.791C162.747 109.069 164.073 108.637 163.817 110.004Z" fill="white"/>
<path d="M150.137 103.678L151.264 107.04L151.76 106.776L151.335 100.897C151.335 100.897 154.222 100.333 154.715 98.1503C154.715 98.1503 166.356 100.333 167.261 96.1083C167.261 96.1083 165.066 90.1936 154.364 92.9043C154.362 92.9036 147.25 97.0234 150.137 103.678Z" fill="#5E3531"/>
<path d="M311.476 168H116V172.592H311.476V168Z" fill="#DECAC0"/>
<path d="M311.478 168.001H173.026V172.593H311.478V168.001Z" fill="#DECAC0"/>
<path d="M184.221 172.593H127.24V271.813H184.221V172.593Z" fill="#DECAC0"/>
<path d="M180.851 172.592H127.237V271.815H180.851V172.592Z" fill="#DECAC0"/>
<path d="M299.747 172.593H242.252V271.813H299.747V172.593Z" fill="#DECAC0"/>
<path d="M295.863 172.593H242.252V271.813H295.863V172.593Z" fill="#DECAC0"/>
<path d="M197.266 165.674H168.676V167.824H197.266V165.674Z" fill="#436168"/>
<path d="M180.367 165.674H158.774V167.824H180.367V165.674Z" fill="#F7C7C6"/>
<path d="M184.99 130.475L177.104 165.683C176.834 166.89 177.768 168.034 179.024 168.034H230.975C231.889 168.034 232.682 167.414 232.89 166.538L241.066 131.995C241.351 130.793 240.432 129.639 239.177 129.623L186.935 128.956C186.003 128.945 185.19 129.579 184.99 130.475Z" fill="#F7C7C6"/>
<path d="M187.045 130.475L179.288 165.683C179.022 166.89 179.94 168.034 181.177 168.034H232.281C233.18 168.034 233.961 167.414 234.164 166.538L242.207 131.995C242.487 130.793 241.584 129.639 240.349 129.623L188.959 128.956C188.041 128.945 187.242 129.579 187.045 130.475Z" fill="#F7C7C6"/>
<path d="M209.382 154.338C212.016 154.338 214.151 152.202 214.151 149.569C214.151 146.935 212.016 144.8 209.382 144.8C206.748 144.8 204.613 146.935 204.613 149.569C204.613 152.202 206.748 154.338 209.382 154.338Z" fill="#F7C7C6"/>
<mask id="mask0_62_5950" style="mask-type:luminance" maskUnits="userSpaceOnUse" x="212" y="29" width="91" height="75">
<path d="M274.312 30.3944C294.234 35.2131 306.478 55.2694 301.659 75.192C296.841 95.1146 276.784 107.358 256.862 102.54C236.939 97.721 208.046 76.1163 212.865 56.1944C217.684 36.2725 254.389 25.5756 274.312 30.3944Z" fill="white"/>
</mask>
<g mask="url(#mask0_62_5950)">
<path d="M301.659 75.1918C306.478 55.2694 294.234 35.2128 274.312 30.3941C254.389 25.5754 234.333 37.8194 229.514 57.7418C224.695 77.6642 236.939 97.7208 256.862 102.539C276.784 107.358 296.841 95.1141 301.659 75.1918Z" fill="#F7C7C6"/>
</g>
<mask id="mask1_62_5950" style="mask-type:luminance" maskUnits="userSpaceOnUse" x="228" y="12" width="75" height="92">
<path d="M302.686 66.4696C302.686 86.9661 286.07 103.581 265.574 103.581C245.077 103.581 228.462 86.9661 228.462 66.4696C228.462 45.9731 242.668 12.812 263.164 12.812C283.66 12.812 302.686 45.9731 302.686 66.4696Z" fill="white"/>
</mask>
<g mask="url(#mask1_62_5950)">
<path d="M246.755 48.9575L280.223 48.1316C284.268 48.032 287.49 51.2922 287.083 55.073L281.553 106.338L239.208 106.012L240.227 55.1334C240.296 51.7658 243.17 49.046 246.755 48.9575Z" fill="#BF5E4F"/>
<path d="M270.736 33.3103C270.736 33.3103 274.105 29.7834 273.421 26.3148C272.737 22.8463 268.628 22.3789 268.628 22.3789L269.026 33.1159L270.736 33.3103Z" fill="#5E3531"/>
<path d="M261.033 58.7429L261.543 58.8011C264.238 59.1078 266.672 57.1711 266.979 54.4757L268.994 36.7602L258.723 35.5918L256.708 53.3074C256.401 56.0027 258.338 58.4369 261.033 58.7429Z" fill="#DB8F67"/>
<path d="M258.388 45.6499C263.788 46.2639 268.663 42.3848 269.277 36.9858L270.047 30.2142C270.661 24.8145 266.782 19.9396 261.383 19.3256C255.984 18.7116 251.109 22.5907 250.495 27.9898L249.724 34.7613C249.505 36.689 249.858 38.5499 250.649 40.1737C252.073 43.0985 254.916 45.2548 258.388 45.6499Z" fill="#DB8F67"/>
<path d="M265.428 35.5841C265.18 37.7693 266.75 39.7418 268.935 39.9902C271.12 40.2386 273.092 38.6689 273.341 36.4837C273.589 34.2985 272.019 32.326 269.834 32.0776C267.649 31.8292 265.677 33.3989 265.428 35.5841Z" fill="#DB8F67"/>
<path d="M269.138 37.8121C269.73 38.1678 270.615 37.7805 271.117 36.9468C271.618 36.1132 271.545 35.149 270.953 34.7933C270.362 34.4375 269.476 34.8249 268.975 35.6585C268.473 36.4928 268.547 37.457 269.138 37.8121Z" fill="#BD695D"/>
<path d="M266.889 42.3691C266.889 42.3691 264.177 46.5872 257.593 45.5255L257.253 48.5134C257.253 48.5134 265.259 49.2263 266.889 42.3691Z" fill="#BD695D"/>
<path d="M259.416 30.4372C259.064 31.2554 260.268 30.6386 261.246 31.059C262.222 31.4793 262.603 32.7782 262.955 31.96C263.307 31.1418 262.801 30.1369 261.824 29.7166C260.846 29.2963 259.768 29.619 259.416 30.4372Z" fill="#5E3531"/>
<path d="M248.69 30.5067C248.8 31.3579 249.495 30.2548 250.511 30.1228C251.527 29.9909 252.48 30.88 252.369 30.0295C252.259 29.1783 251.345 28.5952 250.329 28.7271C249.313 28.8583 248.579 29.6555 248.69 30.5067Z" fill="#5E3531"/>
<path d="M259.532 32.9105C259.47 33.4536 259.86 33.9434 260.403 34.0052C260.946 34.0669 261.436 33.6768 261.497 33.1343C261.559 32.5912 261.169 32.1014 260.626 32.0396C260.083 31.9779 259.594 32.3673 259.532 32.9105Z" fill="#5E3531"/>
<path d="M250.191 32.1984C250.131 32.7317 250.514 33.2138 251.047 33.2749C251.581 33.3359 252.063 32.9521 252.124 32.4188C252.184 31.8854 251.801 31.4034 251.268 31.3423C250.734 31.2813 250.252 31.6651 250.191 32.1984Z" fill="#5E3531"/>
<path d="M255.432 30.4865C255.432 30.4865 255.662 33.1404 254.822 33.3481C253.983 33.5565 253.192 33.6751 253.392 34.4189C253.592 35.1628 255.644 35.9648 256.222 34.8926C256.798 33.8197 255.789 30.0248 255.432 30.4865Z" fill="#BD695D"/>
<path d="M254.404 38.9812C254.519 40.5818 255.938 41.7839 257.575 41.666C259.21 41.5481 260.444 40.1552 260.328 38.5546C260.213 36.9539 258.942 37.8191 257.306 37.937C255.67 38.0549 254.289 37.3806 254.404 38.9812Z" fill="white"/>
<path d="M269.834 32.0777L269.265 34.3681L267.823 34.1597L268.755 30.7437C268.755 30.7437 262.408 29.3915 261.875 25.3931L264.528 23.8381C264.528 23.8381 260.33 24.3623 257.655 23.0564C254.981 21.7505 252.155 23.5336 252.155 23.5336C252.155 23.5336 253.986 17.63 260.337 17.35C266.689 17.07 270.548 22.3645 271.228 25.9103C271.908 29.4561 269.834 32.0777 269.834 32.0777Z" fill="#5E3531"/>
<path d="M268.975 22.855C268.975 22.855 269.276 19.2299 270.243 19.8797C271.209 20.5288 270.198 22.3021 270.198 22.3021C270.198 22.3021 271.875 21.4523 272.216 22.1849C272.556 22.9175 269.379 23.7504 269.379 23.7504L268.975 22.855Z" fill="#5E3531"/>
<path d="M223.585 87.7869C222.372 87.7869 221.15 87.3897 220.129 86.5736C217.845 84.7464 217.391 81.4799 219.027 79.1088C219.174 78.8512 219.509 78.219 219.807 77.6555C222.957 71.7084 231.326 55.9092 242.249 49.5362C244.891 47.9953 248.282 48.8864 249.823 51.5291C251.364 54.1704 250.472 57.5618 247.83 59.1028C239.634 63.8843 232.077 78.1516 229.594 82.8398C228.72 84.4902 228.393 85.1077 227.912 85.7084C226.82 87.0754 225.21 87.7869 223.585 87.7869ZM219.265 78.7895C219.217 78.8498 219.15 78.9312 219.076 79.04C219.135 78.9558 219.199 78.8723 219.265 78.7895Z" fill="#BF5E4F"/>
<path d="M298.976 111.882C298.858 111.882 298.74 111.878 298.621 111.871C295.569 111.678 293.251 109.047 293.444 105.994C295.47 73.9827 278.553 60.0655 277.261 59.0593C275.027 57.7113 273.995 54.9241 274.939 52.3887C276.005 49.5222 279.197 48.0633 282.06 49.13C285.236 50.3117 306.936 68.162 304.497 106.693C304.312 109.627 301.874 111.881 298.976 111.882ZM278.19 59.507C278.193 59.5084 278.195 59.5091 278.198 59.5098C278.195 59.5091 278.192 59.5077 278.19 59.507Z" fill="#BF5E4F"/>
</g>
<path d="M226.987 76.5558C233.038 70.0334 232.656 59.8409 226.133 53.7901C219.611 47.7392 209.418 48.1215 203.368 54.6438C197.317 61.1662 197.699 71.3588 204.221 77.4096C210.744 83.4604 220.936 83.0781 226.987 76.5558Z" fill="#F49C9A"/>
<path d="M207.426 63.4435L213.516 70.9778L223.878 61.8927L222.438 60.0093L213.516 67.3219L209.252 62.3355L207.426 63.4435Z" fill="white"/>
<mask id="mask2_62_5950" style="mask-type:luminance" maskUnits="userSpaceOnUse" x="299" y="67" width="83" height="97">
<path d="M381.268 122.571C381.268 145.25 362.884 163.635 340.205 163.635C317.526 163.635 299.142 145.25 299.142 122.571C299.142 99.8925 315.563 67.8906 338.242 67.8906C360.92 67.8906 381.268 99.8925 381.268 122.571Z" fill="white"/>
</mask>
<g mask="url(#mask2_62_5950)">
<path d="M340.205 163.635C362.883 163.635 381.268 145.25 381.268 122.571C381.268 99.8929 362.883 81.5083 340.205 81.5083C317.526 81.5083 299.142 99.8929 299.142 122.571C299.142 145.25 317.526 163.635 340.205 163.635Z" fill="#F49C9A"/>
</g>
<mask id="mask3_62_5950" style="mask-type:luminance" maskUnits="userSpaceOnUse" x="299" y="67" width="83" height="97">
<path d="M381.268 122.571C381.268 145.25 362.884 163.635 340.205 163.635C317.526 163.635 299.142 145.25 299.142 122.571C299.142 99.8925 315.563 67.8906 338.242 67.8906C360.92 67.8906 381.268 99.8925 381.268 122.571Z" fill="white"/>
</mask>
<g mask="url(#mask3_62_5950)">
<path d="M354.794 109.306C354.794 109.306 366.154 115.639 370.176 125.097C374.198 134.555 370.176 156.858 370.176 156.858C370.176 156.858 339.502 169.137 337.289 169.579C335.077 170.02 308.386 154.664 308.386 154.664C308.386 154.664 295.532 119.677 316.703 107.625C337.873 95.5727 354.794 109.306 354.794 109.306Z" fill="#BF5E4F"/>
<path d="M332.02 112.671H342.558V89.488H332.02V112.671Z" fill="#F6C19F"/>
<path d="M332.84 99.7138C338.379 99.7138 342.87 95.2228 342.87 89.6834V82.7364C342.87 77.1971 338.379 72.7061 332.84 72.7061C327.301 72.7061 322.81 77.1971 322.81 82.7364V89.6834C322.81 91.6609 323.382 93.505 324.37 95.0586C326.15 97.8571 329.278 99.7138 332.84 99.7138Z" fill="#F6C19F"/>
<path d="M342.87 92.7664C345.112 92.7664 346.929 90.9492 346.929 88.7077C346.929 86.4661 345.112 84.6489 342.87 84.6489C340.629 84.6489 338.812 86.4661 338.812 88.7077C338.812 90.9492 340.629 92.7664 342.87 92.7664Z" fill="#F6C19F"/>
<path d="M342.825 90.5374C343.465 90.8293 344.318 90.3353 344.73 89.4329C345.142 88.5312 344.956 87.5628 344.316 87.2709C343.676 86.979 342.823 87.473 342.411 88.3754C342 89.2771 342.185 90.2455 342.825 90.5374Z" fill="#BD695D"/>
<path d="M341.072 95.4121C341.072 95.4121 338.811 99.9964 332.02 99.68V102.746C332.02 102.746 340.211 102.545 341.072 95.4121Z" fill="#BD695D"/>
<path d="M331.559 84.0096C331.338 84.7394 332.303 84.0987 333.173 84.3612C334.044 84.6243 334.493 85.6909 334.713 84.9618C334.933 84.232 334.406 83.4279 333.535 83.1647C332.663 82.9016 331.779 83.2798 331.559 84.0096Z" fill="#5E3531"/>
<path d="M322.45 85.105C322.626 85.8172 323.11 84.8131 323.96 84.6032C324.811 84.3934 325.707 85.0565 325.531 84.3443C325.355 83.6314 324.522 83.2244 323.672 83.4349C322.821 83.6447 322.275 84.3927 322.45 85.105Z" fill="#5E3531"/>
<path d="M331.896 86.0997C331.896 86.567 332.275 86.946 332.742 86.946C333.21 86.946 333.589 86.567 333.589 86.0997C333.589 85.6323 333.21 85.2534 332.742 85.2534C332.275 85.2534 331.896 85.6323 331.896 86.0997Z" fill="#5E3531"/>
<path d="M323.89 86.397C323.89 86.8559 324.263 87.2285 324.722 87.2285C325.181 87.2285 325.553 86.8559 325.553 86.397C325.553 85.9373 325.181 85.5654 324.722 85.5654C324.263 85.5654 323.89 85.938 323.89 86.397Z" fill="#5E3531"/>
<path d="M328.099 84.6965C328.099 84.6965 328.637 87.3581 327.811 87.6654C326.985 87.9728 326.197 88.184 326.484 88.9145C326.773 89.645 328.944 90.2211 329.405 89.0682C329.867 87.9152 328.407 84.187 328.099 84.6965Z" fill="#BD695D"/>
<path d="M327.942 92.9189C328.096 93.7392 329.553 94.1547 331.196 93.8466C332.839 93.5386 334.047 92.6242 333.894 91.8039C333.74 90.9836 332.482 91.6278 330.838 91.9351C329.195 92.2439 327.789 92.0986 327.942 92.9189Z" fill="white"/>
<path d="M316.638 110.115L329.621 120.131C330.072 120.479 330.675 120.549 331.195 120.317C335.462 118.404 354.533 109.827 354.794 109.307C355.086 108.722 348.242 103.224 347.559 99.0774C346.872 94.9352 345.994 93.6166 345.994 93.6166C345.994 93.6166 349.035 88.8758 346.928 78.5851C344.82 68.2951 330.187 68.2951 325.553 73.2359C320.919 78.1718 320.626 91.908 323.264 96.1105C323.264 96.1105 322.92 102.658 321.848 103.782C321.156 104.506 318.504 106.382 316.703 107.626C315.843 108.22 315.811 109.478 316.638 110.115ZM323.157 88.2618C323.329 80.2426 323.157 76.8947 328.71 73.5938C328.71 73.5938 337.158 75.7151 339.159 80.8973C341.161 86.0795 338.983 98.3153 334.256 98.9932C329.524 99.6662 322.981 96.2768 323.157 88.2618Z" fill="#5E3531"/>
<path d="M356.404 137.115L353.083 163.635L357.423 161.926L356.404 137.115Z" fill="#5E3531"/>
<path d="M310.823 130.046L318.38 139.715L314.937 158.378L316.038 139.715L310.823 130.046Z" fill="#5E3531"/>
</g>
<path d="M377.935 107.129C386.832 107.129 394.044 99.9165 394.044 91.0195C394.044 82.1226 386.832 74.9102 377.935 74.9102C369.038 74.9102 361.826 82.1226 361.826 91.0195C361.826 99.9165 369.038 107.129 377.935 107.129Z" fill="#BBBB59"/>
<path d="M369.709 88.9699L375.8 96.5042L386.161 87.4191L384.721 85.5356L375.8 92.8483L371.536 87.8618L369.709 88.9699Z" fill="white"/>
<path d="M356.399 53.184H295.003C293.11 53.184 291.575 51.6494 291.575 49.7561V27.3615C291.575 25.4682 293.11 23.9336 295.003 23.9336H356.399C358.292 23.9336 359.826 25.4682 359.826 27.3615V49.7561C359.826 51.6494 358.292 53.184 356.399 53.184Z" fill="#BF5E4F"/>
<path opacity="0.35" d="M307.341 44.8343C303.874 44.8343 301.067 42.0275 301.067 38.561C301.067 35.0945 303.874 32.2876 307.341 32.2876C307.706 32.2876 308.071 32.3157 308.414 32.3788L310.407 27.6984C309.432 27.4247 308.407 27.2773 307.341 27.2773C301.124 27.2773 296.092 32.3157 296.092 38.5259C296.092 44.7431 301.124 49.7744 307.341 49.7744C313.165 49.7744 317.958 45.3466 318.533 39.6697H313.516C312.99 42.6099 310.428 44.8343 307.341 44.8343Z" fill="white"/>
<path opacity="0.59" d="M310.407 27.6987L308.415 32.3792C311.369 32.8914 313.614 35.4597 313.614 38.5613C313.614 38.9403 313.579 39.3122 313.516 39.67H318.533C318.568 39.2911 318.589 38.9122 318.589 38.5262C318.589 33.3756 315.13 29.039 310.407 27.6987Z" fill="white"/>
<path opacity="0.59" d="M350.409 32.2876H322.82V33.684H350.409V32.2876Z" fill="white"/>
<path opacity="0.59" d="M342.88 36.8296H322.82V38.226H342.88V36.8296Z" fill="white"/>
<path opacity="0.59" d="M346.85 40.9854H322.82V42.3818H346.85V40.9854Z" fill="white"/>
<path opacity="0.35" d="M266.41 124.118C265.875 129.371 261.441 133.476 256.042 133.476C250.288 133.476 245.63 128.818 245.63 123.057C245.63 117.303 250.288 112.637 256.042 112.637C257.034 112.637 257.983 112.775 258.888 113.025L257.042 117.363C256.723 117.303 256.387 117.277 256.042 117.277C252.833 117.277 250.237 119.874 250.237 123.091C250.237 126.3 252.834 128.896 256.042 128.896C258.905 128.896 261.277 126.834 261.761 124.117L266.41 124.118Z" fill="#BBBB59"/>
<path opacity="0.59" d="M266.462 123.057C266.462 123.41 266.444 123.764 266.41 124.118H261.761C261.821 123.782 261.856 123.436 261.856 123.091C261.856 120.219 259.777 117.838 257.042 117.364L258.888 113.025C263.261 114.268 266.462 118.287 266.462 123.057Z" fill="#BBBB59"/>
<path opacity="0.59" d="M295.934 117.279H270.382V118.572H295.934V117.279Z" fill="#BBBB59"/>
<path opacity="0.59" d="M288.961 121.486H270.382V122.779H288.961V121.486Z" fill="#BBBB59"/>
<path opacity="0.59" d="M292.639 125.333H270.382V126.627H292.639V125.333Z" fill="#BBBB59"/>
<path opacity="0.35" d="M267.296 148.283C266.761 153.536 262.328 157.641 256.928 157.641C251.175 157.641 246.517 152.983 246.517 147.222C246.517 141.468 251.175 136.802 256.928 136.802C257.92 136.802 258.869 136.94 259.774 137.19L257.929 141.529C257.609 141.468 257.273 141.442 256.928 141.442C253.719 141.442 251.123 144.039 251.123 147.256C251.123 150.465 253.719 153.061 256.928 153.061C259.792 153.061 262.164 150.999 262.647 148.282L267.296 148.283Z" fill="#F49C9A"/>
<path opacity="0.59" d="M267.348 147.222C267.348 147.576 267.331 147.93 267.296 148.283H262.647C262.707 147.947 262.741 147.602 262.741 147.257C262.741 144.384 260.663 142.004 257.928 141.529L259.774 137.19C264.148 138.432 267.348 142.452 267.348 147.222Z" fill="#F49C9A"/>
<path opacity="0.59" d="M296.821 141.444H271.269V142.737H296.821V141.444Z" fill="#F49C9A"/>
<path opacity="0.59" d="M289.847 145.651H271.269V146.944H289.847V145.651Z" fill="#F49C9A"/>
<path opacity="0.59" d="M293.526 149.5H271.269V150.793H293.526V149.5Z" fill="#F49C9A"/>
<path d="M92.6028 221.686C92.6028 221.686 83.1907 210.448 86.4228 206.164C89.6549 201.88 90.2458 206.903 93.3481 201.584C96.4504 196.266 97.9275 189.766 100.292 192.277C102.655 194.789 102.066 191.982 110.338 189.175C118.61 186.368 127.474 188.732 126.587 191.391C125.701 194.05 120.234 193.376 121.712 197.037C123.189 200.698 123.042 203.505 117.871 206.607C112.701 209.71 118.757 210.005 118.315 213.551C117.872 217.095 103.232 225.98 92.6028 221.686Z" fill="#F49C9A"/>
<path d="M76.066 217.211C76.066 217.211 87.2268 208.151 84.7652 203.509C82.3036 198.867 80.8763 203.546 78.7164 197.943C76.5572 192.339 76.1965 185.893 73.4465 187.872C70.6964 189.852 71.749 187.282 64.0757 183.169C56.4024 179.057 47.2766 179.763 47.7018 182.449C48.1271 185.136 53.6229 185.445 51.5522 188.674C49.4807 191.902 49.1537 194.6 53.7233 198.454C58.2929 202.308 52.2784 201.535 52.1177 204.988C51.9556 208.44 64.875 219.449 76.066 217.211Z" fill="#F49C9A"/>
<path d="M84.501 210.021C84.501 210.021 70.7817 204.856 71.4925 199.536C72.2034 194.217 75.1857 198.301 75.2748 192.145C75.3646 185.989 73.458 179.601 76.7505 180.628C80.043 181.654 78.1511 179.499 83.9775 172.99C89.8039 166.482 98.6855 164.186 99.2195 166.938C99.7535 169.689 94.6612 171.788 97.7466 174.251C100.832 176.714 102.082 179.231 99.1023 184.473C96.1228 189.716 101.544 186.997 102.899 190.303C104.256 193.61 95.8695 208.539 84.501 210.021Z" fill="#FF928E"/>
<path d="M73.9268 236.941C73.9268 236.941 80.5644 222.379 76.4123 218.191C72.2595 214.002 72.8363 219.788 68.5727 214.407C64.3097 209.025 61.3667 201.985 59.6286 205.291C57.8904 208.597 57.8217 205.312 49.0705 203.797C40.3194 202.282 32.1781 206.72 33.658 209.544C35.1379 212.367 40.339 210.514 39.7335 214.941C39.1279 219.367 39.9187 222.505 45.6981 224.973C51.4781 227.441 45.6111 228.984 46.8608 232.897C48.1106 236.81 64.4992 243.91 73.9268 236.941Z" fill="#FF928E"/>
<path d="M79.8691 258.984L79.1885 258.813C79.199 258.77 79.2229 258.66 79.2608 258.488C81.1371 249.864 91.8327 206.212 118.161 193.641L118.464 194.274C92.4306 206.704 81.8115 250.07 79.947 258.636C79.9056 258.821 79.8804 258.938 79.8691 258.984Z" fill="#F7C7C6"/>
<path d="M80.8301 259.961C80.8287 259.348 80.8308 198.451 92.0344 177.4L92.6541 177.73C81.5325 198.626 81.5304 259.349 81.5318 259.96L80.8301 259.961Z" fill="#F7C7C6"/>
<path d="M78.3203 256.323C78.302 256.129 78.3343 255.691 78.4178 254.63C80.6851 225.677 74.4889 204.361 60.498 192.982L60.9408 192.438C75.1184 203.968 81.4036 225.492 79.1174 254.684C79.055 255.484 79.0052 256.116 79.0185 256.257L78.3203 256.323Z" fill="#F7C7C6"/>
<path d="M77.952 255.215C77.9176 255.088 77.8783 254.826 77.7927 254.246C75.1528 236.396 69.0675 228.369 64.4277 224.778L64.8572 224.223C69.5987 227.892 75.8124 236.063 78.4867 254.144C78.5526 254.589 78.6038 254.939 78.6291 255.032L77.952 255.215Z" fill="#898731"/>
<path d="M104.456 245.828C103.145 260.756 92.3546 272.411 79.2437 272.411C66.1412 272.411 55.3508 260.757 54.04 245.828H104.456Z" fill="#F7C7C6"/>
<path d="M448.172 270.821H0V274H448.172V270.821Z" fill="#C9C9C9"/>
</svg>
