<svg width="490" height="235" viewBox="0 0 490 235" fill="none" xmlns="http://www.w3.org/2000/svg">
<path d="M489.841 43.7622H367.464V213.796H489.841V43.7622Z" fill="white"/>
<path d="M489.841 43.7622H367.464V105.307H489.841V43.7622Z" fill="#E44642"/>
<path d="M468.652 120.372C468.652 120.475 451.828 120.558 431.078 120.558C410.322 120.558 393.501 120.474 393.501 120.372C393.501 120.27 410.322 120.187 431.078 120.187C451.828 120.186 468.652 120.27 468.652 120.372Z" fill="#E44642"/>
<path d="M468.652 136.947C468.652 137.05 451.828 137.132 431.078 137.132C410.322 137.132 393.501 137.049 393.501 136.947C393.501 136.844 410.322 136.762 431.078 136.762C451.828 136.762 468.652 136.844 468.652 136.947Z" fill="#E44642"/>
<path d="M468.652 153.523C468.652 153.625 451.828 153.708 431.078 153.708C410.322 153.708 393.501 153.625 393.501 153.523C393.501 153.421 410.322 153.337 431.078 153.337C451.828 153.337 468.652 153.42 468.652 153.523Z" fill="#E44642"/>
<path d="M468.342 200.169H394.833C387.604 200.169 381.745 194.312 381.745 187.086V185.716C381.745 178.49 387.604 172.632 394.833 172.632H468.342C475.571 172.632 481.43 178.49 481.43 185.716V187.086C481.43 194.312 475.571 200.169 468.342 200.169Z" fill="#E44642"/>
<path d="M404.162 85.8253C404.705 86.0698 405.123 86.4184 405.419 86.8717C405.713 87.325 405.86 87.8581 405.86 88.4704C405.86 89.0827 405.713 89.6137 405.419 90.0634C405.123 90.5132 404.705 90.8603 404.162 91.1041C403.619 91.3485 402.979 91.4704 402.243 91.4704H400.825V93.598H398.521V85.459H402.243C402.979 85.459 403.619 85.5816 404.162 85.8253ZM403.173 89.3485C403.413 89.1432 403.534 88.8503 403.534 88.4704C403.534 88.0905 403.413 87.7961 403.173 87.5866C402.932 87.377 402.576 87.2722 402.103 87.2722H400.824V89.6557H402.103C402.576 89.6564 402.933 89.5538 403.173 89.3485Z" fill="white"/>
<path d="M410.537 91.4355H409.281V93.598H406.978V85.459H410.699C411.436 85.459 412.076 85.5809 412.619 85.8253C413.162 86.0698 413.58 86.4184 413.875 86.8717C414.17 87.325 414.317 87.8581 414.317 88.4704C414.317 89.0598 414.179 89.573 413.904 90.0114C413.629 90.449 413.235 90.7926 412.724 91.0399L414.48 93.598H412.014L410.537 91.4355ZM411.63 87.5866C411.389 87.377 411.032 87.2722 410.56 87.2722H409.281V89.6557H410.56C411.032 89.6557 411.389 89.5531 411.63 89.3478C411.87 89.1425 411.991 88.8496 411.991 88.4697C411.991 88.0905 411.87 87.7961 411.63 87.5866Z" fill="white"/>
<path d="M422.12 91.8189V93.598H415.583V85.459H421.969V87.238H417.863V88.6101H421.48V90.3307H417.863V91.8189H422.12Z" fill="white"/>
<path d="M430.75 93.598L430.727 89.2844L428.633 92.7954H427.609L425.527 89.4006V93.598H423.399V85.459H425.295L428.156 90.1561L430.948 85.459H432.844L432.866 93.598H430.75Z" fill="white"/>
<path d="M434.495 85.459H436.798V93.598H434.495V85.459Z" fill="white"/>
<path d="M439.375 92.7724C438.705 92.1138 438.369 91.1794 438.369 89.9705V85.4595H440.672V89.9007C440.672 91.2029 441.188 91.8544 442.219 91.8544C443.243 91.8544 443.755 91.2029 443.755 89.9007V85.4595H446.023V89.9705C446.023 91.1794 445.687 92.1138 445.017 92.7724C444.346 93.431 443.406 93.761 442.197 93.761C440.986 93.7603 440.045 93.431 439.375 92.7724Z" fill="white"/>
<path d="M454.931 93.598L454.908 89.2844L452.814 92.7954H451.791L449.709 89.4006V93.598H447.581V85.459H449.476L452.338 90.1561L455.129 85.459H457.025L457.048 93.598H454.931Z" fill="white"/>
<path d="M412.914 189.184C412.29 188.849 411.799 188.385 411.443 187.79C411.085 187.195 410.907 186.523 410.907 185.773C410.907 185.023 411.085 184.351 411.443 183.757C411.799 183.162 412.29 182.697 412.914 182.362C413.538 182.026 414.238 181.859 415.018 181.859C415.674 181.859 416.267 181.974 416.797 182.205C417.326 182.435 417.772 182.767 418.133 183.2L417.008 184.238C416.496 183.647 415.861 183.351 415.104 183.351C414.636 183.351 414.217 183.455 413.849 183.66C413.481 183.865 413.195 184.152 412.989 184.519C412.784 184.887 412.681 185.306 412.681 185.774C412.681 186.242 412.783 186.661 412.989 187.028C413.195 187.396 413.481 187.683 413.849 187.888C414.217 188.093 414.636 188.197 415.104 188.197C415.862 188.197 416.496 187.897 417.008 187.298L418.133 188.337C417.772 188.776 417.325 189.112 416.792 189.342C416.258 189.573 415.663 189.688 415.006 189.688C414.235 189.687 413.538 189.52 412.914 189.184Z" fill="white"/>
<path d="M424.476 184.302C424.92 184.735 425.141 185.377 425.141 186.227V189.557H423.454V186.486C423.454 186.025 423.353 185.681 423.151 185.454C422.95 185.227 422.658 185.113 422.275 185.113C421.849 185.113 421.511 185.245 421.258 185.508C421.006 185.772 420.88 186.163 420.88 186.682V189.557H419.192V181.535H420.88V184.345C421.103 184.122 421.373 183.95 421.691 183.832C422.008 183.713 422.355 183.653 422.729 183.653C423.451 183.654 424.033 183.87 424.476 184.302Z" fill="white"/>
<path d="M427.852 189.26C427.365 189.005 426.985 188.65 426.71 188.196C426.436 187.741 426.299 187.226 426.299 186.649C426.299 186.072 426.436 185.557 426.71 185.103C426.985 184.648 427.365 184.293 427.852 184.038C428.339 183.782 428.888 183.654 429.502 183.654C430.114 183.654 430.663 183.782 431.146 184.038C431.629 184.293 432.008 184.648 432.282 185.103C432.556 185.557 432.693 186.072 432.693 186.649C432.693 187.226 432.556 187.741 432.282 188.196C432.008 188.65 431.629 189.005 431.146 189.26C430.663 189.516 430.115 189.644 429.502 189.644C428.888 189.644 428.338 189.517 427.852 189.26ZM430.566 187.823C430.844 187.531 430.982 187.14 430.982 186.65C430.982 186.159 430.844 185.769 430.566 185.476C430.289 185.184 429.934 185.039 429.501 185.039C429.068 185.039 428.711 185.184 428.43 185.476C428.149 185.768 428.008 186.159 428.008 186.65C428.008 187.14 428.148 187.531 428.43 187.823C428.711 188.114 429.069 188.26 429.501 188.26C429.934 188.26 430.289 188.114 430.566 187.823Z" fill="white"/>
<path d="M434.936 189.26C434.449 189.005 434.069 188.65 433.794 188.196C433.52 187.741 433.383 187.226 433.383 186.649C433.383 186.072 433.52 185.557 433.794 185.103C434.069 184.648 434.449 184.293 434.936 184.038C435.423 183.782 435.972 183.654 436.585 183.654C437.197 183.654 437.746 183.782 438.229 184.038C438.712 184.293 439.091 184.648 439.366 185.103C439.639 185.557 439.776 186.072 439.776 186.649C439.776 187.226 439.639 187.741 439.366 188.196C439.091 188.65 438.712 189.005 438.229 189.26C437.746 189.516 437.198 189.644 436.585 189.644C435.972 189.644 435.423 189.517 434.936 189.26ZM437.651 187.823C437.929 187.531 438.067 187.14 438.067 186.65C438.067 186.159 437.929 185.769 437.651 185.476C437.373 185.184 437.018 185.039 436.585 185.039C436.153 185.039 435.796 185.184 435.515 185.476C435.233 185.768 435.093 186.159 435.093 186.65C435.093 187.14 435.233 187.531 435.515 187.823C435.796 188.114 436.153 188.26 436.585 188.26C437.018 188.26 437.373 188.114 437.651 187.823Z" fill="white"/>
<path d="M441.442 189.465C440.98 189.346 440.613 189.197 440.339 189.016L440.901 187.805C441.16 187.971 441.475 188.107 441.842 188.211C442.21 188.316 442.57 188.368 442.924 188.368C443.638 188.368 443.995 188.192 443.995 187.838C443.995 187.673 443.897 187.554 443.703 187.481C443.508 187.409 443.209 187.348 442.805 187.297C442.329 187.225 441.935 187.143 441.626 187.048C441.316 186.955 441.047 186.789 440.82 186.551C440.593 186.314 440.479 185.974 440.479 185.535C440.479 185.167 440.585 184.841 440.798 184.556C441.011 184.272 441.321 184.05 441.729 183.891C442.136 183.732 442.617 183.653 443.172 183.653C443.583 183.653 443.992 183.698 444.4 183.788C444.807 183.879 445.145 184.004 445.411 184.161L444.849 185.362C444.337 185.074 443.778 184.929 443.172 184.929C442.812 184.929 442.541 184.98 442.361 185.081C442.181 185.182 442.09 185.311 442.09 185.47C442.09 185.651 442.188 185.777 442.382 185.849C442.576 185.921 442.886 185.989 443.313 186.054C443.788 186.133 444.178 186.218 444.481 186.308C444.784 186.398 445.047 186.562 445.27 186.8C445.493 187.038 445.606 187.369 445.606 187.795C445.606 188.155 445.498 188.476 445.282 188.757C445.065 189.038 444.75 189.257 444.335 189.411C443.92 189.567 443.428 189.644 442.859 189.644C442.376 189.644 441.904 189.584 441.442 189.465Z" fill="white"/>
<path d="M452.312 187.125H447.91C447.989 187.485 448.177 187.77 448.473 187.979C448.768 188.187 449.136 188.291 449.576 188.291C449.879 188.291 450.148 188.247 450.382 188.157C450.616 188.067 450.834 187.924 451.036 187.73L451.934 188.703C451.387 189.33 450.585 189.643 449.533 189.643C448.877 189.643 448.297 189.515 447.792 189.259C447.287 189.004 446.898 188.649 446.623 188.195C446.349 187.74 446.212 187.225 446.212 186.648C446.212 186.078 446.347 185.564 446.618 185.108C446.888 184.649 447.259 184.292 447.733 184.037C448.205 183.781 448.733 183.653 449.317 183.653C449.887 183.653 450.402 183.775 450.864 184.021C451.325 184.267 451.688 184.617 451.951 185.076C452.214 185.534 452.346 186.065 452.346 186.67C452.345 186.692 452.335 186.844 452.312 187.125ZM448.364 185.254C448.105 185.47 447.946 185.766 447.889 186.14H450.756C450.698 185.773 450.539 185.479 450.279 185.259C450.02 185.039 449.702 184.929 449.328 184.929C448.945 184.929 448.625 185.038 448.364 185.254Z" fill="white"/>
<path d="M385.855 123.462C385.604 123.462 385.352 123.374 385.149 123.195L383.055 121.353C382.612 120.964 382.568 120.288 382.959 119.844C383.348 119.401 384.025 119.358 384.468 119.748L385.77 120.894L388.724 117.633C389.121 117.194 389.797 117.162 390.234 117.559C390.672 117.955 390.706 118.631 390.31 119.069L386.649 123.11C386.438 123.343 386.147 123.462 385.855 123.462Z" fill="#E44642"/>
<path d="M385.855 140.037C385.604 140.037 385.352 139.949 385.149 139.771L383.055 137.929C382.612 137.539 382.568 136.863 382.959 136.42C383.348 135.977 384.025 135.933 384.468 136.324L385.77 137.469L388.724 134.209C389.121 133.77 389.797 133.738 390.234 134.134C390.672 134.531 390.706 135.207 390.31 135.644L386.649 139.686C386.438 139.919 386.147 140.037 385.855 140.037Z" fill="#E44642"/>
<path d="M385.855 156.613C385.604 156.613 385.352 156.526 385.149 156.347L383.055 154.504C382.611 154.114 382.569 153.439 382.959 152.995C383.349 152.553 384.024 152.508 384.468 152.899L385.77 154.045L388.723 150.784C389.121 150.346 389.796 150.313 390.234 150.709C390.672 151.106 390.705 151.782 390.31 152.22L386.648 156.262C386.438 156.495 386.146 156.613 385.855 156.613Z" fill="#E44642"/>
<path d="M435.945 60.2031L437.71 63.7776L441.656 64.3507L438.801 67.1333L439.475 71.062L435.945 69.2074L432.416 71.062L433.09 67.1333L430.234 64.3507L434.18 63.7776L435.945 60.2031Z" fill="white"/>
<path d="M422.078 60.2031L423.843 63.7776L427.79 64.3507L424.934 67.1333L425.608 71.062L422.078 69.2074L418.549 71.062L419.223 67.1333L416.367 64.3507L420.314 63.7776L422.078 60.2031Z" fill="white"/>
<path d="M433.289 74.9326L428.654 72.4287L423.963 74.8257L424.913 69.6454L421.182 65.9262L426.404 65.2284L428.79 60.5327L431.067 65.2819L436.272 66.0987L432.458 69.7316L433.289 74.9326Z" fill="white"/>
<path d="M420.269 65.6176L426.126 64.8357L428.802 59.5684L431.357 64.8948L437.195 65.8114L432.917 69.8863L433.849 75.7195L428.65 72.9113L423.389 75.5998L424.454 69.7894L420.269 65.6176ZM435.352 66.3866L430.781 65.6689L428.779 61.4971L426.684 65.6218L422.096 66.2341L425.373 69.5007L424.539 74.051L428.66 71.9455L432.731 74.145L432.001 69.577L435.352 66.3866Z" fill="#E44642"/>
<path d="M489.841 213.797C489.839 212.303 489.772 144.269 489.672 43.7625L489.841 43.9307C452.912 43.9357 411.321 43.9414 367.478 43.9478H367.464L367.649 43.7625C367.636 107.382 367.624 166.249 367.614 213.797L367.463 213.646C441.705 213.738 488.599 213.795 489.841 213.797C488.599 213.798 441.705 213.856 367.464 213.948H367.313V213.797C367.303 166.249 367.291 107.383 367.278 43.7625V43.5771H367.463H367.477C411.32 43.5836 452.911 43.5893 489.84 43.5943H490.009V43.7625C489.91 144.269 489.842 212.305 489.841 213.797Z" fill="#E44642"/>
<path d="M123.061 43.7622H0.68457V213.796H123.061V43.7622Z" fill="white"/>
<path d="M123.061 43.7622H0.68457V105.307H123.061V43.7622Z" fill="#E44642"/>
<path d="M101.872 120.372C101.872 120.475 85.0477 120.558 64.2982 120.558C43.5415 120.558 26.7207 120.474 26.7207 120.372C26.7207 120.27 43.5415 120.187 64.2982 120.187C85.0477 120.186 101.872 120.27 101.872 120.372Z" fill="#E44642"/>
<path d="M101.872 136.947C101.872 137.05 85.0477 137.132 64.2982 137.132C43.5415 137.132 26.7207 137.049 26.7207 136.947C26.7207 136.844 43.5415 136.762 64.2982 136.762C85.0477 136.762 101.872 136.844 101.872 136.947Z" fill="#E44642"/>
<path d="M101.872 153.523C101.872 153.625 85.0477 153.708 64.2982 153.708C43.5415 153.708 26.7207 153.625 26.7207 153.523C26.7207 153.421 43.5415 153.337 64.2982 153.337C85.0477 153.337 101.872 153.42 101.872 153.523Z" fill="#E44642"/>
<path d="M101.563 200.169H28.0535C20.8249 200.169 14.9653 194.312 14.9653 187.086V185.716C14.9653 178.49 20.8249 172.632 28.0535 172.632H101.563C108.791 172.632 114.651 178.49 114.651 185.716V187.086C114.651 194.312 108.791 200.169 101.563 200.169Z" fill="#E44642"/>
<path d="M50.5058 90.1164C50.7696 90.4614 50.9015 90.8784 50.9015 91.3666C50.9015 92.0794 50.6149 92.6296 50.0409 93.0174C49.4669 93.4051 48.637 93.5983 47.5517 93.5983H43.1553V85.46H47.3186C48.3575 85.46 49.1482 85.6517 49.6915 86.0352C50.2341 86.4193 50.5058 86.9368 50.5058 87.5876C50.5058 87.9753 50.411 88.3224 50.2213 88.6282C50.0309 88.9347 49.7614 89.177 49.4127 89.3552C49.8776 89.5177 50.242 89.7722 50.5058 90.1164ZM45.4341 87.1228V88.6923H47.0163C47.7913 88.6923 48.1792 88.4286 48.1792 87.9019C48.1792 87.383 47.7913 87.1228 47.0163 87.1228H45.4341ZM48.5749 91.1107C48.5749 90.5605 48.1721 90.2854 47.3657 90.2854H45.4348V91.9361H47.3657C48.1714 91.9361 48.5749 91.661 48.5749 91.1107Z" fill="white"/>
<path d="M57.5542 92.0183H54.111L53.4715 93.5992H51.1221L54.7157 85.4609H56.9838L60.5895 93.5992H58.1938L57.5542 92.0183ZM56.8797 90.3205L55.833 87.7161L54.7863 90.3205H56.8797Z" fill="white"/>
<path d="M62.1827 93.5174C61.5617 93.3542 61.0583 93.1375 60.6704 92.8659L61.4262 91.1688C61.7906 91.409 62.2134 91.6029 62.694 91.7497C63.1745 91.8973 63.648 91.9707 64.1129 91.9707C64.997 91.9707 65.4391 91.7497 65.4391 91.3078C65.4391 91.0754 65.3129 90.903 65.0612 90.7903C64.8088 90.6784 64.4038 90.5601 63.8455 90.4354C63.233 90.3042 62.7211 90.1624 62.3104 90.0113C61.8989 89.8602 61.5467 89.6178 61.2522 89.2843C60.957 88.9507 60.8102 88.5017 60.8102 87.9357C60.8102 87.4397 60.9456 86.992 61.2173 86.5929C61.4882 86.1937 61.8939 85.878 62.433 85.6449C62.9713 85.4126 63.633 85.2964 64.4159 85.2964C64.9514 85.2964 65.4783 85.3563 65.9974 85.4767C66.5172 85.5965 66.9742 85.7732 67.3699 86.0056L66.6605 87.7148C65.8854 87.2964 65.1332 87.0868 64.4038 87.0868C63.946 87.0868 63.613 87.1546 63.4034 87.29C63.1945 87.4261 63.0897 87.6022 63.0897 87.8188C63.0897 88.0362 63.2137 88.1987 63.4619 88.3078C63.71 88.4161 64.1093 88.5288 64.6597 88.6449C65.2801 88.7768 65.7942 88.9179 66.2013 89.0697C66.6084 89.2208 66.9607 89.461 67.2594 89.7903C67.5575 90.1204 67.7072 90.5673 67.7072 91.1332C67.7072 91.6214 67.5717 92.0633 67.3001 92.4582C67.0284 92.8538 66.6213 93.1695 66.0787 93.4062C65.536 93.6421 64.8765 93.7604 64.1015 93.7604C63.4426 93.7611 62.803 93.6799 62.1827 93.5174Z" fill="white"/>
<path d="M68.7661 85.46H71.0685V93.5983H68.7661V85.46Z" fill="white"/>
<path d="M74.47 93.2209C73.7912 92.861 73.2585 92.3585 72.8707 91.7156C72.4828 91.0726 72.2896 90.3435 72.2896 89.5295C72.2896 88.7155 72.4828 87.9871 72.8707 87.3442C73.2585 86.7006 73.7919 86.1988 74.47 85.8381C75.148 85.4782 75.9138 85.2979 76.7673 85.2979C77.5117 85.2979 78.1819 85.4297 78.7794 85.6934C79.3762 85.9572 79.8732 86.3371 80.2682 86.8331L78.803 88.1582C78.2753 87.5224 77.6358 87.2052 76.8842 87.2052C76.4422 87.2052 76.0486 87.3021 75.7035 87.496C75.3584 87.6899 75.091 87.9629 74.9013 88.3157C74.711 88.6685 74.6161 89.0733 74.6161 89.5309C74.6161 89.9885 74.711 90.3934 74.9013 90.7462C75.091 91.099 75.3591 91.372 75.7035 91.5659C76.0486 91.7597 76.4422 91.8567 76.8842 91.8567C77.6365 91.8567 78.276 91.5388 78.803 90.903L80.2682 92.2287C79.8732 92.7248 79.3769 93.1047 78.7794 93.3684C78.1826 93.6322 77.5117 93.764 76.7673 93.764C75.9145 93.7612 75.1488 93.5808 74.47 93.2209Z" fill="white"/>
<path d="M46.1329 189.185C45.509 188.85 45.0185 188.386 44.6619 187.791C44.3047 187.196 44.1265 186.524 44.1265 185.774C44.1265 185.024 44.3047 184.352 44.6619 183.758C45.0185 183.163 45.509 182.698 46.1329 182.363C46.7568 182.027 47.4577 181.86 48.237 181.86C48.893 181.86 49.4862 181.975 50.0167 182.206C50.5465 182.436 50.9921 182.768 51.3522 183.201L50.227 184.239C49.7151 183.648 49.0805 183.352 48.3233 183.352C47.8548 183.352 47.4363 183.456 47.0684 183.661C46.7005 183.866 46.4138 184.153 46.2085 184.52C46.0031 184.888 45.9005 185.307 45.9005 185.775C45.9005 186.243 46.0031 186.662 46.2085 187.029C46.4145 187.397 46.7005 187.684 47.0684 187.889C47.4363 188.094 47.8548 188.198 48.3233 188.198C49.0805 188.198 49.7151 187.898 50.227 187.299L51.3522 188.338C50.9914 188.777 50.5443 189.113 50.011 189.343C49.477 189.574 48.8823 189.689 48.2263 189.689C47.4541 189.688 46.7568 189.521 46.1329 189.185Z" fill="white"/>
<path d="M57.6965 184.303C58.14 184.736 58.3618 185.378 58.3618 186.227V189.558H56.674V186.487C56.674 186.026 56.5728 185.682 56.371 185.455C56.1692 185.228 55.8769 185.113 55.4947 185.113C55.069 185.113 54.7304 185.245 54.478 185.508C54.2255 185.772 54.0993 186.163 54.0993 186.682V189.557H52.4116V181.535H54.0993V184.345C54.3225 184.122 54.5927 183.95 54.9107 183.832C55.228 183.713 55.5739 183.653 55.9489 183.653C56.6705 183.654 57.253 183.871 57.6965 184.303Z" fill="white"/>
<path d="M61.071 189.261C60.584 189.005 60.204 188.651 59.9295 188.196C59.655 187.742 59.5181 187.227 59.5181 186.65C59.5181 186.073 59.655 185.558 59.9295 185.104C60.2033 184.649 60.5833 184.294 61.071 184.039C61.558 183.783 62.1077 183.655 62.7209 183.655C63.3334 183.655 63.8817 183.783 64.3652 184.039C64.8479 184.294 65.2272 184.65 65.501 185.104C65.7748 185.558 65.9124 186.073 65.9124 186.65C65.9124 187.227 65.7755 187.742 65.501 188.196C65.2272 188.651 64.8479 189.005 64.3652 189.261C63.8817 189.517 63.3341 189.645 62.7209 189.645C62.1077 189.645 61.558 189.518 61.071 189.261ZM63.7862 187.824C64.0636 187.531 64.2026 187.141 64.2026 186.65C64.2026 186.159 64.0636 185.769 63.7862 185.477C63.5081 185.185 63.153 185.04 62.7209 185.04C62.2881 185.04 61.9309 185.185 61.65 185.477C61.3683 185.769 61.2279 186.16 61.2279 186.65C61.2279 187.141 61.3683 187.531 61.65 187.824C61.9316 188.115 62.2881 188.261 62.7209 188.261C63.153 188.261 63.5081 188.115 63.7862 187.824Z" fill="white"/>
<path d="M68.1555 189.261C67.6685 189.005 67.2885 188.651 67.014 188.196C66.7394 187.742 66.6025 187.227 66.6025 186.65C66.6025 186.073 66.7394 185.558 67.014 185.104C67.2878 184.649 67.6678 184.294 68.1555 184.039C68.6425 183.783 69.1922 183.655 69.8054 183.655C70.4179 183.655 70.9662 183.783 71.4496 184.039C71.9324 184.294 72.311 184.65 72.5855 185.104C72.8593 185.558 72.9969 186.073 72.9969 186.65C72.9969 187.227 72.86 187.742 72.5855 188.196C72.3117 188.651 71.9331 189.005 71.4496 189.261C70.9662 189.517 70.4186 189.645 69.8054 189.645C69.1922 189.645 68.6425 189.518 68.1555 189.261ZM70.8707 187.824C71.148 187.531 71.2871 187.141 71.2871 186.65C71.2871 186.159 71.148 185.769 70.8707 185.477C70.5926 185.185 70.2375 185.04 69.8054 185.04C69.3726 185.04 69.0161 185.185 68.7345 185.477C68.4528 185.769 68.3124 186.16 68.3124 186.65C68.3124 187.141 68.4528 187.531 68.7345 187.824C69.0161 188.115 69.3726 188.261 69.8054 188.261C70.2375 188.261 70.5926 188.115 70.8707 187.824Z" fill="white"/>
<path d="M74.6616 189.466C74.2003 189.347 73.8324 189.198 73.5586 189.017L74.1212 187.806C74.3807 187.972 74.6944 188.108 75.0624 188.212C75.4303 188.316 75.7903 188.369 76.144 188.369C76.8577 188.369 77.215 188.193 77.215 187.839C77.215 187.674 77.1173 187.555 76.9226 187.482C76.728 187.41 76.4285 187.349 76.0249 187.298C75.5493 187.226 75.1558 187.143 74.8463 187.049C74.5361 186.956 74.2673 186.79 74.0406 186.552C73.8131 186.315 73.6998 185.975 73.6998 185.535C73.6998 185.168 73.806 184.842 74.0192 184.557C74.2317 184.272 74.5418 184.051 74.9497 183.892C75.3568 183.733 75.8381 183.654 76.3936 183.654C76.805 183.654 77.2135 183.699 77.6214 183.789C78.0285 183.879 78.3658 184.004 78.6324 184.161L78.0699 185.362C77.5579 185.074 76.9989 184.93 76.3928 184.93C76.0321 184.93 75.7618 184.98 75.5814 185.081C75.401 185.183 75.3112 185.312 75.3112 185.471C75.3112 185.651 75.4089 185.777 75.6035 185.849C75.7982 185.92 76.1084 185.99 76.534 186.054C77.0096 186.134 77.3996 186.218 77.7027 186.309C78.0057 186.399 78.2688 186.563 78.492 186.801C78.7151 187.039 78.8271 187.37 78.8271 187.795C78.8271 188.156 78.7187 188.476 78.5027 188.757C78.2859 189.039 77.9708 189.257 77.5558 189.411C77.1415 189.567 76.6488 189.644 76.0791 189.644C75.5957 189.645 75.1237 189.585 74.6616 189.466Z" fill="white"/>
<path d="M85.5327 187.126H81.1305C81.2097 187.486 81.3972 187.771 81.6931 187.98C81.989 188.188 82.3562 188.293 82.7962 188.293C83.0985 188.293 83.3673 188.248 83.6019 188.158C83.8364 188.068 84.0546 187.925 84.2564 187.731L85.1541 188.704C84.6058 189.331 83.8051 189.644 82.7527 189.644C82.0967 189.644 81.5163 189.516 81.0115 189.26C80.5067 189.005 80.1173 188.65 79.8435 188.196C79.569 187.741 79.4321 187.226 79.4321 186.649C79.4321 186.079 79.5676 185.565 79.8378 185.109C80.1081 184.65 80.4796 184.293 80.9523 184.038C81.425 183.782 81.9527 183.654 82.5373 183.654C83.107 183.654 83.6225 183.776 84.0839 184.022C84.5452 184.267 84.9074 184.618 85.1705 185.076C85.4336 185.534 85.5655 186.065 85.5655 186.67C85.5648 186.693 85.5541 186.845 85.5327 187.126ZM81.5847 185.255C81.3252 185.471 81.1662 185.767 81.1092 186.141H83.9755C83.9177 185.774 83.7594 185.48 83.4999 185.26C83.2404 185.04 82.9231 184.93 82.548 184.93C82.1651 184.93 81.8443 185.039 81.5847 185.255Z" fill="white"/>
<path d="M19.0753 123.462C18.8243 123.462 18.5719 123.374 18.3694 123.195L16.2753 121.354C15.8318 120.964 15.7883 120.288 16.179 119.845C16.5697 119.401 17.2457 119.359 17.6885 119.748L18.9912 120.894L21.9445 117.634C22.3409 117.196 23.0169 117.163 23.4554 117.559C23.8932 117.955 23.9267 118.631 23.5302 119.069L19.8689 123.111C19.6571 123.344 19.3669 123.462 19.0753 123.462Z" fill="#E44642"/>
<path d="M19.0753 140.037C18.8243 140.037 18.5719 139.949 18.3694 139.771L16.2753 137.929C15.8318 137.539 15.7883 136.863 16.179 136.42C16.5697 135.977 17.2457 135.933 17.6885 136.324L18.9912 137.469L21.9445 134.209C22.3409 133.771 23.0169 133.738 23.4554 134.134C23.8932 134.531 23.9267 135.207 23.5302 135.644L19.8689 139.686C19.6571 139.919 19.3669 140.037 19.0753 140.037Z" fill="#E44642"/>
<path d="M19.0752 156.614C18.8242 156.614 18.5718 156.526 18.3686 156.347L16.2745 154.504C15.831 154.115 15.7882 153.439 16.1782 152.996C16.569 152.552 17.2449 152.509 17.6877 152.899L18.9904 154.045L21.9437 150.785C22.3401 150.347 23.0161 150.313 23.4546 150.71C23.8924 151.107 23.9259 151.782 23.5295 152.22L19.8681 156.262C19.657 156.495 19.3669 156.614 19.0752 156.614Z" fill="#E44642"/>
<path d="M66.5094 74.9326L61.8741 72.4287L57.1831 74.8257L58.1329 69.6454L54.4023 65.9262L59.6252 65.2284L62.0102 60.5327L64.2883 65.2819L69.4927 66.0987L65.678 69.7316L66.5094 74.9326Z" fill="white"/>
<path d="M123.061 213.797C123.06 212.303 122.992 144.269 122.893 43.7625L123.061 43.9307C86.1328 43.9357 44.5417 43.9414 0.698892 43.9478H0.684633L0.870018 43.7625C0.857183 107.382 0.845062 166.249 0.83508 213.797L0.68392 213.646C74.9255 213.738 121.819 213.795 123.061 213.797C121.82 213.798 74.9255 213.856 0.684633 213.948H0.533473V213.797C0.523491 166.249 0.512083 107.383 0.498535 43.7625V43.5771H0.68392H0.698179C44.541 43.5836 86.132 43.5893 123.061 43.5943H123.23V43.7625C123.13 144.269 123.063 212.305 123.061 213.797Z" fill="#E44642"/>
<path d="M390.943 22.1309C392.577 19.4102 391.337 15.3938 388.453 14.0674C389.052 10.2228 385.999 6.19565 382.134 5.73307C380.296 5.51283 378.435 5.99822 376.589 5.85282C374.816 5.71311 373.139 4.99964 371.389 4.68317C369.638 4.36671 367.616 4.54347 366.417 5.85709C365.084 7.31683 365.288 9.70173 366.346 11.371C367.404 13.0403 369.121 14.1608 370.784 15.2292C369.794 15.1258 368.909 16.031 368.746 17.0125C368.582 17.994 368.979 18.9876 369.512 19.8279C371.28 22.6177 374.72 24.2506 378 23.8579L382.653 23.726C385.181 25.6462 389.31 24.8522 390.943 22.1309Z" fill="#263238"/>
<path d="M376.228 26.7297C375.281 26.8779 374.334 26.1053 374.145 25.1652C373.956 24.225 374.433 23.2279 375.194 22.6448C375.956 22.0611 376.954 21.8515 377.912 21.8971C378.871 21.9428 379.801 22.225 380.707 22.5422C382.104 23.0319 383.478 23.6149 384.719 24.4232C385.159 24.7097 385.592 25.0361 385.865 25.4845C386.138 25.9335 386.22 26.5308 385.948 26.9798C385.566 27.6114 384.703 27.7054 383.965 27.7126C381.211 27.7404 378.455 27.518 375.741 27.0497" fill="#FF725E"/>
<path d="M374.697 25.1574C374.149 19.94 366.779 15.2579 363.602 16.0946C362.094 13.039 357.887 11.6819 354.876 13.2799C351.985 11.997 349.094 10.7147 346.204 9.43247C344.725 8.77601 343.165 8.1053 341.554 8.24785C339.942 8.39041 338.307 9.6577 338.363 11.2742C335.228 10.0276 331.32 13.188 331.884 16.513C329.98 16.8544 328.667 19.0897 329.298 20.9179C325.42 21.8766 321.709 23.5038 318.376 25.7048C316.982 26.6257 315.572 27.7604 315.113 29.367C314.655 30.9735 315.678 33.0634 317.35 33.0769C315.853 33.5516 314.707 34.9771 314.567 36.5409C313.28 35.6443 311.469 37.3221 311.663 38.8773C311.858 40.4333 313.198 41.5645 314.483 42.4625C315.769 43.3606 317.187 44.3 317.695 45.7833C317.372 46.1268 317.041 46.2651 316.694 46.2822C313.228 46.4533 310.38 49.0413 310.338 52.5103C310.333 52.8318 310.331 53.1297 310.326 53.3956C310.296 54.9722 311.409 57.2531 312.106 58.6679C313.871 62.2552 315.78 63.2224 318.633 66.0243C316.252 67.4427 318.089 75.8012 327.308 75.6744C336.81 87.534 344.455 94.9995 356.685 104.021C358.43 105.308 360.705 106.613 362.63 105.615C363.772 107.031 365.786 107.496 367.587 107.238C369.388 106.98 371.036 106.115 372.643 105.263C376.267 106.672 380.741 105.465 383.163 102.424C386.389 102.328 389.547 100.803 391.627 98.3352C395.23 99.5975 399.655 96.9703 400.269 93.2033C402.283 89.1327 403.618 84.7271 404.202 80.2232C406.525 81.261 409.263 79.112 409.817 76.6302C410.371 74.1483 409.433 71.6031 408.511 69.2331C409.717 70.7314 412.404 69.8076 413.155 68.0371C413.905 66.2666 413.312 64.2303 412.568 62.4569C411.478 59.8582 410.072 57.392 408.39 55.1304C409.613 51.9693 408.446 46.4932 406.833 43.5124C400.329 31.4896 394.222 25.1745 374.697 25.1574Z" fill="#263238"/>
<path d="M353.686 34.0833C355.07 31.8809 357.911 31.1033 360.225 32.2943L386.153 41.2651C393.769 45.1846 392.75 57.0578 388.509 64.4983C383.798 72.7642 377.72 82.6716 372.891 87.9774C363.18 98.646 351.592 93.0073 351.592 93.0073C351.601 92.9909 345.854 101.603 345.854 101.603L339.259 111.659C336.254 108.866 318.013 89.2525 318.013 89.2525L353.686 34.0833Z" fill="#FFBF9D"/>
<path d="M364.686 73.9744C364.739 73.876 365.877 74.3699 367.672 75.2452C368.121 75.4769 368.573 75.6543 368.832 75.4148C369.131 75.1761 369.251 74.6087 369.369 73.9872C369.64 72.7128 369.926 71.3771 370.225 69.9765C371.488 64.2951 372.696 59.7348 372.925 59.7876C373.153 59.8403 372.315 64.4882 371.051 70.1696C370.73 71.5638 370.425 72.8938 370.13 74.1654C369.976 74.7463 369.894 75.4669 369.266 75.9551C368.947 76.1946 368.49 76.2196 368.173 76.1155C367.85 76.0207 367.61 75.871 367.395 75.7463C365.67 74.7427 364.631 74.072 364.686 73.9744Z" fill="#263238"/>
<path d="M351.59 93.0061C351.59 93.0061 344.697 89.4281 339.889 79.4473C339.889 79.4473 335.985 89.5792 348.855 97.1031L351.59 93.0061Z" fill="#FF9A6C"/>
<path d="M370.715 51.325C370.26 51.6657 368.757 50.377 366.676 49.3435C364.615 48.2687 362.689 47.8125 362.696 47.2437C362.708 46.9771 363.255 46.7348 364.168 46.7148C365.074 46.692 366.339 46.9337 367.581 47.5652C368.823 48.1981 369.763 49.0769 370.277 49.8239C370.799 50.5737 370.924 51.1582 370.715 51.325Z" fill="#263238"/>
<path d="M386.22 62.1309C385.685 62.3141 384.807 61.1836 383.457 60.272C382.139 59.3134 380.776 58.8729 380.767 58.3076C380.775 58.0418 381.203 57.7873 381.939 57.7645C382.667 57.7382 383.686 57.9955 384.603 58.6377C385.519 59.2813 386.108 60.1516 386.331 60.8444C386.561 61.5443 386.466 62.0325 386.22 62.1309Z" fill="#263238"/>
<path d="M389.691 73.788C390.887 71.9007 391.649 69.6519 391.365 67.4359C391.21 66.2214 390.748 65.0496 390.718 63.8258C390.651 61.1814 392.547 58.9462 393.491 56.4758C394.709 53.2919 394.259 49.5214 392.327 46.7124C390.719 44.3752 388.19 42.7081 386.937 40.1635C386.01 38.2826 385.866 36.0744 384.83 34.2512C382.812 30.7009 378.202 29.723 374.133 29.3638C371.938 31.2148 371.955 34.202 371.977 37.073C371.998 39.944 373.355 42.7772 375.578 44.5955C377.303 46.006 379.703 47.1187 380.042 49.3204C380.399 51.6361 378.16 53.6461 378.135 55.989C378.1 59.3375 382.275 61.0674 383.629 64.1301C384.674 66.4951 383.871 69.21 383.419 71.7552C382.966 74.3012 383.119 77.4082 385.286 78.8209C386.883 77.257 388.495 75.6747 389.691 73.788Z" fill="#263238"/>
<path d="M375.664 36.7237C370.452 32.8398 364.481 29.9788 358.187 28.3509C356.312 27.8655 354.274 27.4991 352.478 28.2276C350.901 28.8683 349.763 30.2568 348.781 31.6488C345.71 36.0088 343.629 42.5576 342.391 47.7444L345.457 54.8741C350.326 56.892 353.601 48.336 355.999 44.5933C359.822 45.4144 364.056 43.8164 366.382 40.6745C369.86 40.8662 373.391 39.3623 375.664 36.7237Z" fill="#263238"/>
<path d="M346.505 53.2673C348.126 50.6772 345.437 48.005 342.391 47.7456C340.719 47.603 338.841 48.3521 337.096 51.0856C332.442 58.3757 340.724 61.5418 340.87 61.3415C340.96 61.2161 344.606 56.3001 346.505 53.2673Z" fill="#FFBF9D"/>
<path d="M340.405 57.1581C340.388 57.1139 340.221 57.1659 339.944 57.1274C339.674 57.0896 339.271 56.9257 338.981 56.5415C338.392 55.7667 338.524 54.131 339.327 52.7938C339.732 52.1188 340.275 51.5757 340.844 51.2029C341.407 50.8116 341.99 50.6591 342.422 50.838C342.865 50.9948 342.991 51.4025 342.949 51.6641C342.916 51.9307 342.777 52.0461 342.808 52.0839C342.817 52.1153 343.043 52.0618 343.176 51.7225C343.238 51.5586 343.262 51.3319 343.18 51.0832C343.096 50.8294 342.885 50.5928 342.596 50.4495C342.009 50.1295 341.173 50.3234 340.548 50.7325C339.89 51.1245 339.265 51.7247 338.81 52.4838C337.919 53.9827 337.793 55.8373 338.653 56.8138C339.08 57.2749 339.607 57.3933 339.938 57.3619C340.28 57.3256 340.422 57.1873 340.405 57.1581Z" fill="#FF9A6C"/>
<path d="M337.501 59.5394C337.504 59.5415 337.474 59.5679 337.414 59.6178C337.348 59.6584 337.273 59.7611 337.127 59.8167C336.861 59.9813 336.378 60.0633 335.79 59.9578C335.199 59.8544 334.51 59.5551 333.797 59.069C333.438 58.8295 333.077 58.5344 332.726 58.1851C332.376 57.8359 332.027 57.4318 331.767 56.93L331.881 56.9485C331.042 57.7924 329.67 58.3676 328.192 58.1516C326.729 57.9478 325.258 56.8238 324.738 55.158L324.872 55.2229C324.441 55.3883 323.938 55.3683 323.511 55.173C323.078 54.9898 322.712 54.6584 322.445 54.26C322.179 53.8601 322.031 53.3597 322.067 52.8608C322.099 52.364 322.274 51.8779 322.544 51.451C323.088 50.5957 323.993 49.9713 324.993 49.6669C325.995 49.3455 327.066 49.2699 328.137 49.2015L328.032 49.3726C327.691 48.6014 327.764 47.6833 328.119 46.9121C328.47 46.1345 329.062 45.4566 329.81 44.9912C330.56 44.5315 331.422 44.272 332.296 44.1288C333.174 43.9848 334.07 43.9506 334.967 43.9221L334.842 44.0718C334.696 43.1794 335.035 42.2442 335.618 41.5429C336.201 40.8337 337.009 40.297 337.911 40.0347C339.641 39.5372 341.409 39.8444 343.047 40.1159L342.904 40.1965C343.633 38.3903 345.285 37.0674 347.1 36.7096C348.92 36.3511 350.817 36.9285 352.099 38.1024L351.904 38.1444C352.535 36.6897 353.917 35.7567 355.311 35.421C356.715 35.0724 358.224 35.3048 359.319 36.1024L359.168 36.1273C360.095 34.8458 361.605 34.2606 362.961 34.2214C364.334 34.1736 365.628 34.6754 366.472 35.525L366.343 35.5357C366.857 34.87 367.543 34.4502 368.208 34.1501C368.88 33.855 369.557 33.6797 370.199 33.6327C371.485 33.4944 372.591 33.8593 373.34 34.3276C373.435 34.386 373.527 34.4438 373.616 34.4994C373.699 34.5628 373.773 34.6334 373.849 34.6961C373.994 34.8294 374.146 34.9356 374.255 35.0674C374.467 35.334 374.678 35.5343 374.789 35.7389C374.903 35.9285 374.992 36.0774 375.058 36.1879C375.117 36.2891 375.146 36.3411 375.142 36.344C375.139 36.3461 375.103 36.297 375.038 36.2C374.967 36.0931 374.871 35.9491 374.75 35.7659C374.634 35.5671 374.419 35.3746 374.205 35.1166C374.095 34.9897 373.942 34.8878 373.798 34.7595C373.722 34.6989 373.649 34.6305 373.565 34.5699C373.477 34.5172 373.386 34.4623 373.291 34.406C372.55 33.9591 371.468 33.617 370.212 33.7652C369.585 33.818 368.924 33.9954 368.271 34.2891C367.624 34.5856 366.96 35.0054 366.482 35.6348L366.422 35.7139L366.352 35.6455C365.538 34.8379 364.292 34.3618 362.968 34.416C361.66 34.4609 360.215 35.0347 359.344 36.2513L359.281 36.3397L359.193 36.2763C358.153 35.525 356.712 35.3055 355.367 35.6448C354.029 35.9712 352.717 36.87 352.129 38.2399L352.061 38.3975L351.934 38.282C350.709 37.1637 348.885 36.6127 347.151 36.9584C345.423 37.3005 343.838 38.5728 343.147 40.2927L343.108 40.3903L343.005 40.3732C341.367 40.101 339.634 39.8102 337.986 40.287C337.136 40.5336 336.37 41.0432 335.823 41.709C335.275 42.369 334.969 43.2257 335.101 44.0333L335.125 44.1794L334.977 44.1837C333.203 44.2343 331.389 44.3284 329.946 45.2086C329.243 45.6441 328.679 46.287 328.349 47.0147C328.016 47.7389 327.952 48.5771 328.259 49.2763L328.329 49.4367L328.154 49.4474C327.084 49.5123 326.033 49.5864 325.067 49.8936C324.102 50.1851 323.252 50.7724 322.737 51.575C322.217 52.3605 322.106 53.4068 322.627 54.1445C323.095 54.8822 324.026 55.3448 324.799 55.0369L324.901 54.9962L324.933 55.1017C325.417 56.6876 326.824 57.7796 328.22 57.982C329.634 58.1994 330.966 57.6556 331.782 56.8501L331.852 56.781L331.896 56.8687C332.14 57.3512 332.478 57.7525 332.818 58.0982C333.159 58.4453 333.511 58.7404 333.862 58.9806C334.557 59.4688 335.231 59.7739 335.806 59.8858C336.378 59.9998 336.847 59.9335 337.111 59.7846C337.377 59.6456 337.491 59.5259 337.501 59.5394Z" fill="#263238"/>
<path d="M316.244 32.783C316.244 32.783 316.225 32.5706 316.286 32.17C316.351 31.773 316.501 31.1779 316.916 30.5171C317.323 29.8657 318.019 29.1294 319.077 28.7352C320.113 28.3418 321.502 28.2905 322.779 28.9541L322.66 28.9954C323.209 27.7609 324.307 26.6126 325.788 25.9982C326.523 25.6839 327.353 25.5086 328.21 25.5321C329.078 25.5428 329.918 25.8343 330.777 26.0132C331.207 26.103 331.647 26.1636 332.087 26.1308C332.527 26.1009 332.953 25.9583 333.349 25.731C334.146 25.2848 334.818 24.5642 335.734 24.1258C337.544 23.2698 339.969 23.5642 341.525 25.0909L341.319 25.1223C342.246 23.3589 344.038 21.9604 346.13 21.5535C348.308 21.1315 350.589 21.8343 352.127 23.2541L351.927 23.2855C353.202 21.0845 355.789 19.9326 358.075 20.284C360.378 20.6368 362.217 22.3019 362.913 24.2142L362.793 24.1436C364.031 23.9476 365.237 24.1187 366.317 24.418C367.397 24.7295 368.388 25.1436 369.246 25.6554C370.992 26.6354 372.274 27.8507 373.195 28.9341C374.106 30.0332 374.652 31.0261 374.921 31.7388C375.082 32.0845 375.127 32.3789 375.191 32.5635C375.245 32.7524 375.264 32.8514 375.264 32.8514C375.241 32.8579 375.147 32.4623 374.86 31.7645C374.574 31.066 374.016 30.0916 373.099 29.0161C372.173 27.9555 370.891 26.7652 369.158 25.8108C368.307 25.3111 367.327 24.9106 366.264 24.6112C365.203 24.3232 364.023 24.165 362.828 24.3603L362.738 24.3753L362.707 24.2905C362.032 22.4565 360.246 20.855 358.04 20.5257C355.855 20.1921 353.363 21.3104 352.152 23.4138L352.071 23.5542L351.952 23.4444C350.475 22.0816 348.271 21.4045 346.181 21.8122C344.172 22.2014 342.439 23.5513 341.549 25.2434L341.468 25.3981L341.343 25.2748C339.88 23.83 337.556 23.5406 335.84 24.3496C334.978 24.7552 334.305 25.4687 333.467 25.9398C333.05 26.1779 332.579 26.3347 332.105 26.3646C331.632 26.3974 331.17 26.3304 330.73 26.237C329.852 26.0496 329.03 25.7616 328.204 25.7488C327.381 25.7224 326.579 25.8856 325.867 26.1857C324.429 26.7716 323.358 27.8771 322.818 29.0653L322.779 29.1494L322.698 29.1066C321.48 28.4601 320.132 28.4929 319.124 28.8628C318.096 29.232 317.408 29.937 316.997 30.5685C316.578 31.2085 316.415 31.7894 316.335 32.1793C316.259 32.572 316.257 32.7844 316.244 32.783Z" fill="#263238"/>
<path d="M381.821 83.0602C381.826 83.0766 381.812 82.7637 382.209 82.4672C382.403 82.3261 382.689 82.2149 383.038 82.1835C383.389 82.1436 383.794 82.2363 384.217 82.3738C384.642 82.5043 385.109 82.6967 385.64 82.7067C386.168 82.7174 386.738 82.5192 387.24 82.1529C387.75 81.7922 388.189 81.2783 388.574 80.6789C388.967 80.0837 389.319 79.4066 389.792 78.7516C390.739 77.4145 392.275 76.4743 393.673 75.2583C394.367 74.6475 395.006 73.9091 395.432 73.0253C395.852 72.1521 396.006 71.0844 395.586 70.14C395.19 69.1878 394.405 68.4208 393.732 67.5356C393.397 67.0908 393.084 66.6026 392.9 66.0452C392.706 65.4892 392.712 64.8741 392.815 64.2989C393.029 63.1321 393.623 62.0951 394.07 61.0124C394.299 60.4728 394.49 59.9112 394.545 59.3353C394.607 58.7586 394.466 58.1799 394.167 57.6852C393.728 57.0231 393.032 56.569 392.421 56.0209C392.115 55.7472 391.824 55.4379 391.618 55.0665C391.412 54.6973 391.305 54.2697 391.317 53.8541C391.33 53.0152 391.655 52.2689 391.876 51.5369C392.122 50.8092 392.212 50.0601 392.14 49.3231C392.007 47.8513 391.252 46.4934 390.145 45.6631C389.042 44.8249 387.662 44.4571 386.396 44.5911L386.243 44.6075L386.274 44.4564C386.784 41.9282 385.981 39.4898 384.711 37.8647C384.069 37.0444 383.298 36.4214 382.517 35.9724C381.738 35.5198 380.944 35.2411 380.207 35.1171C378.719 34.8683 377.534 35.2097 376.804 35.5191C376.429 35.668 376.162 35.822 375.98 35.926C375.896 35.9717 375.829 36.008 375.772 36.0387C375.725 36.0629 375.7 36.0743 375.699 36.0714C375.697 36.0693 375.719 36.0529 375.763 36.0237C375.817 35.9895 375.881 35.9481 375.963 35.8961C376.138 35.7814 376.403 35.6167 376.777 35.4556C377.506 35.1235 378.706 34.7528 380.229 34.9873C380.984 35.1042 381.797 35.3801 382.597 35.8341C383.398 36.2846 384.192 36.9146 384.856 37.7507C386.169 39.4057 387.009 41.8947 386.495 44.5013L386.373 44.3666C387.697 44.2212 389.136 44.5975 390.292 45.4706C391.455 46.3381 392.25 47.7593 392.393 49.2989C392.471 50.0651 392.373 50.8691 392.123 51.6132C391.897 52.3573 391.587 53.0922 391.578 53.8563C391.544 54.6296 391.996 55.3117 392.598 55.8263C393.187 56.3588 393.904 56.8164 394.388 57.5427C394.723 58.0872 394.876 58.7373 394.808 59.3595C394.748 59.9817 394.545 60.5648 394.314 61.1136C393.857 62.2127 393.273 63.2412 393.07 64.346C392.972 64.8919 392.965 65.455 393.144 65.9682C393.313 66.4843 393.608 66.9504 393.935 67.3852C394.587 68.2533 395.39 69.0331 395.812 70.0481C396.018 70.5498 396.118 71.1001 396.064 71.6297C396.019 72.1593 395.861 72.6646 395.643 73.1251C395.195 74.0452 394.532 74.8008 393.82 75.4223C392.39 76.6497 390.872 77.5684 389.944 78.8621C389.477 79.4979 389.12 80.1714 388.716 80.7716C388.321 81.376 387.86 81.9063 387.327 82.2741C386.803 82.6483 386.199 82.8521 385.64 82.8329C385.077 82.8129 384.608 82.6076 384.188 82.4715C383.768 82.3275 383.384 82.232 383.046 82.2627C382.71 82.2848 382.433 82.3838 382.242 82.5121C381.851 82.778 381.844 83.0781 381.821 83.0602Z" fill="#263238"/>
<path d="M403.247 82.0405C403.243 82.0397 403.25 81.9777 403.269 81.8573C403.292 81.7247 403.322 81.5486 403.36 81.3256C403.449 80.8437 403.575 80.1602 403.736 79.2863C403.894 78.4011 404.133 77.3227 404.275 76.0568C404.406 74.8059 404.438 73.2934 403.746 71.8508C403.402 71.1345 402.894 70.4588 402.449 69.6919C402.228 69.3077 402.022 68.8957 401.896 68.4417C401.765 67.9905 401.742 67.4916 401.843 67.0126C402.036 66.0468 402.621 65.2157 402.899 64.2735C403.033 63.8045 403.074 63.302 402.916 62.8301C402.773 62.354 402.478 61.9235 402.168 61.4965C401.859 61.0682 401.515 60.6391 401.272 60.128C401.014 59.6241 400.94 59.0154 401.031 58.4466C401.227 57.2927 401.914 56.3304 402.395 55.2991C402.637 54.7845 402.843 54.2406 402.859 53.679C402.886 53.1166 402.658 52.5678 402.276 52.1458C401.494 51.2891 400.273 50.8949 399.365 49.9933C398.915 49.5378 398.623 48.927 398.534 48.3069C398.44 47.6854 398.482 47.0695 398.533 46.473C398.584 45.8757 398.65 45.2876 398.637 44.711C398.628 44.1358 398.522 43.567 398.244 43.0866C397.688 42.1009 396.591 41.624 395.584 41.1985C394.568 40.7716 393.503 40.3325 392.758 39.5078C392.012 38.7003 391.589 37.7124 391.207 36.7837C390.821 35.8535 390.494 34.9226 389.974 34.1522C388.912 32.6076 387.385 31.609 385.916 31.0174C384.431 30.423 382.955 30.2904 381.693 30.3788C380.421 30.4707 379.375 30.8392 378.543 31.1607C377.73 31.5363 377.113 31.8656 376.727 32.1407C376.536 32.2612 376.386 32.3567 376.272 32.4287C376.169 32.4921 376.115 32.5235 376.112 32.5199C376.109 32.5164 376.158 32.4779 376.257 32.4073C376.367 32.3296 376.513 32.227 376.699 32.0965C377.077 31.8065 377.688 31.4601 378.503 31.0673C379.337 30.7273 380.391 30.3396 381.682 30.2327C382.962 30.1286 384.466 30.2498 385.984 30.8449C387.487 31.4387 389.05 32.4422 390.156 34.0317C390.702 34.835 391.032 35.7701 391.421 36.6967C391.805 37.6205 392.225 38.5813 392.936 39.3446C393.639 40.1194 394.658 40.5421 395.682 40.9683C396.195 41.1864 396.722 41.4066 397.217 41.7153C397.71 42.021 398.17 42.4316 398.469 42.9612C398.776 43.4886 398.887 44.1073 398.897 44.7053C398.911 45.3069 398.844 45.9027 398.794 46.4965C398.744 47.0888 398.706 47.6861 398.794 48.2677C398.879 48.8486 399.14 49.3896 399.553 49.8115C400.394 50.659 401.616 51.0503 402.472 51.9733C402.892 52.4359 403.152 53.0624 403.12 53.6868C403.101 54.3105 402.878 54.8835 402.63 55.411C402.131 56.4637 401.459 57.4167 401.28 58.4872C401.197 59.0154 401.259 59.5521 401.496 60.0233C401.72 60.5008 402.053 60.922 402.365 61.3554C402.675 61.7866 402.987 62.2385 403.143 62.7617C403.316 63.282 403.266 63.8451 403.121 64.339C402.819 65.3305 402.238 66.1502 402.056 67.0568C401.846 67.9634 402.195 68.8494 402.624 69.5921C403.056 70.3469 403.564 71.0311 403.914 71.771C404.618 73.2706 404.566 74.8145 404.42 76.0739C404.263 77.3498 404.009 78.4239 403.836 79.3063C403.654 80.1759 403.512 80.8566 403.412 81.3362C403.363 81.5572 403.324 81.7311 403.295 81.863C403.268 81.9813 403.252 82.0419 403.247 82.0405Z" fill="#263238"/>
<path d="M401.091 69.3345C401.093 69.3302 401.141 69.3537 401.235 69.405C401.318 69.4678 401.452 69.5668 401.548 69.7564C401.744 70.1249 401.766 70.817 401.348 71.4999C401.133 71.8398 400.801 72.1299 400.442 72.4378C400.085 72.7458 399.68 73.0679 399.385 73.5191C399.091 73.9703 398.975 74.5526 398.944 75.1677C398.91 75.7857 398.957 76.45 398.873 77.1542C398.809 77.8498 398.459 78.6253 397.775 79.0423C397.12 79.4764 396.327 79.6624 395.676 80.115C395.019 80.5633 394.649 81.3452 394.475 82.1792C394.285 83.0159 394.226 83.9169 393.98 84.8206C393.86 85.2718 393.673 85.7237 393.383 86.1193C393.095 86.5156 392.709 86.8406 392.28 87.0858C391.414 87.5726 390.439 87.7936 389.506 88.1193C388.58 88.4344 387.646 88.9162 387.164 89.8014C386.669 90.6746 386.589 91.743 386.304 92.7743C386.16 93.2918 385.958 93.8071 385.634 94.2491C385.306 94.6874 384.868 95.0281 384.396 95.2697C383.444 95.7523 382.418 95.9226 381.455 96.1585C380.488 96.3888 379.558 96.6824 378.799 97.2555C378.023 97.8 377.34 98.4729 376.497 98.9098C376.079 99.1258 375.615 99.2705 375.146 99.2819C374.675 99.2975 374.227 99.1749 373.811 99.0438C373.394 98.9112 372.994 98.7644 372.591 98.6881C372.186 98.6204 371.781 98.6076 371.384 98.6539C370.589 98.7558 369.851 99.0352 369.154 99.3232C368.456 99.6119 367.786 99.9091 367.119 100.126C365.781 100.578 364.438 100.513 363.384 100.159C362.32 99.815 361.502 99.2655 360.939 98.7252C360.372 98.1835 360.03 97.6717 359.838 97.3089C359.649 96.9447 359.581 96.7394 359.581 96.7394C359.625 96.7052 359.868 97.5919 361.008 98.6504C361.572 99.1707 362.383 99.6967 363.427 100.019C364.465 100.352 365.759 100.401 367.061 99.9504C367.714 99.7316 368.375 99.4323 369.076 99.1372C369.776 98.8435 370.527 98.5506 371.357 98.4394C371.772 98.3873 372.203 98.3987 372.632 98.4686C373.06 98.5477 373.469 98.696 373.881 98.8243C374.291 98.9519 374.713 99.0638 375.14 99.0459C375.568 99.0338 375.991 98.9012 376.386 98.696C377.183 98.2826 377.86 97.6154 378.654 97.0523C379.439 96.455 380.425 96.1407 381.394 95.9098C382.366 95.6717 383.377 95.4971 384.275 95.0395C384.721 94.8107 385.122 94.4964 385.423 94.093C385.72 93.6881 385.911 93.2063 386.05 92.7059C386.331 91.7059 386.405 90.6204 386.936 89.6738C387.196 89.2034 387.588 88.8143 388.025 88.5277C388.465 88.2405 388.945 88.043 389.421 87.877C390.372 87.5484 391.335 87.3289 392.155 86.8684C392.561 86.6375 392.917 86.3381 393.183 85.9739C393.449 85.6111 393.629 85.1899 393.746 84.7551C393.988 83.8855 394.05 82.9867 394.249 82.1271C394.428 81.2747 394.831 80.4179 395.551 79.9354C396.254 79.4578 397.047 79.2796 397.661 78.8719C398.297 78.4863 398.614 77.8021 398.687 77.1292C398.775 76.4528 398.735 75.7885 398.775 75.1585C398.813 74.5312 398.94 73.9168 399.26 73.4393C399.58 72.9653 400 72.6445 400.36 72.343C400.721 72.043 401.053 71.7607 401.261 71.445C401.673 70.8006 401.671 70.1349 401.499 69.78C401.317 69.4157 401.072 69.3523 401.091 69.3345Z" fill="#263238"/>
<path d="M357.96 72.6853C358.492 72.3574 359.192 72.5206 359.541 73.0388C360.615 74.6318 361.689 76.2241 362.764 77.8171L363.123 78.3481C362.355 78.969 361.212 79.8442 360.296 80.2141C359.38 80.5834 358.294 80.661 357.429 80.1828C356.779 79.8236 356.193 79.0752 355.915 78.3881C355.426 77.1842 355.021 75.9504 355.573 74.7744C355.964 73.939 357.175 73.1685 357.96 72.6853Z" fill="#FF9A6C"/>
<path d="M334.191 55.404C334.191 55.404 333.677 55.223 332.706 55.2522C331.754 55.2822 330.283 55.6243 328.985 56.8203C328.336 57.4026 327.757 58.1945 327.38 59.1567C327.022 60.1204 326.858 61.2366 326.996 62.3862C327.12 63.5338 327.535 64.717 328.273 65.7441C329.003 66.7754 330.089 67.6087 331.347 68.0677C332.602 68.5303 333.955 68.6308 335.192 68.3699C336.433 68.1176 337.536 67.4861 338.358 66.6707C340.013 65.0178 340.573 62.7911 340.31 61.0719C340.17 60.1981 339.814 59.4803 339.46 58.893C339.1 58.305 338.699 57.8581 338.338 57.5352C337.975 57.2137 337.648 57.017 337.414 56.9158C337.18 56.816 337.048 56.7875 337.046 56.7953C337.027 56.8303 337.567 56.9657 338.251 57.63C338.589 57.9593 338.965 58.4062 339.301 58.9885C339.632 59.568 339.962 60.2779 340.078 61.104C340.301 62.7547 339.737 64.8859 338.144 66.4526C337.353 67.2245 336.308 67.8146 335.127 68.0513C333.95 68.295 332.658 68.1974 331.461 67.7562C330.262 67.3179 329.235 66.5324 328.537 65.5545C327.831 64.5801 327.426 63.4497 327.299 62.3506C327.16 61.2494 327.307 60.1788 327.638 59.2529C327.987 58.3328 328.53 57.5637 329.145 56.9921C330.375 55.8189 331.786 55.4497 332.715 55.3812C333.66 55.3135 334.186 55.4447 334.191 55.404Z" fill="#E0E0E0"/>
<path d="M363.062 61.0126C362.546 61.8587 361.404 62.1195 360.51 61.5971C359.618 61.0753 359.31 59.9684 359.826 59.1217C360.342 58.2756 361.485 58.014 362.377 58.5351C363.271 59.0575 363.578 60.1666 363.062 61.0126Z" fill="#263238"/>
<path d="M377.962 71.4062C377.446 72.2522 376.304 72.5131 375.41 71.9906C374.518 71.4696 374.21 70.362 374.726 69.5152C375.242 68.6692 376.384 68.4076 377.276 68.9286C378.171 69.4511 378.478 70.5601 377.962 71.4062Z" fill="#263238"/>
<path d="M382.23 67.3055C381.919 67.4288 381.328 65.8009 379.716 64.8885C378.121 63.9512 376.404 64.2499 376.358 63.9192C376.329 63.7681 376.745 63.463 377.502 63.3162C378.249 63.1672 379.347 63.2335 380.347 63.8094C381.345 64.3867 381.949 65.2998 382.19 66.0182C382.439 66.746 382.378 67.2556 382.23 67.3055Z" fill="#263238"/>
<path d="M367.087 58.2303C366.712 58.3165 366.153 56.3992 364.347 55.119C362.561 53.8118 360.534 53.8653 360.506 53.4883C360.484 53.3143 360.992 53.0399 361.889 53.0007C362.773 52.9551 364.049 53.2081 365.169 54.0143C366.287 54.8225 366.918 55.9416 367.142 56.7841C367.373 57.6372 367.262 58.1975 367.087 58.2303Z" fill="#263238"/>
<path d="M358.821 80.3559C358.823 80.3801 358.559 80.4564 358.083 80.3644C357.609 80.2789 356.95 79.9532 356.356 79.3231C355.775 78.6909 355.233 77.7821 355.036 76.636C354.933 76.0672 354.987 75.4065 355.241 74.8106C355.494 74.2112 355.927 73.6894 356.428 73.2639C356.932 72.8327 357.477 72.507 358.021 72.2261C358.301 72.0886 358.679 71.9375 359.088 72.0907C359.482 72.2596 359.639 72.5768 359.786 72.792C360.336 73.6666 360.851 74.4863 361.327 75.244C362.19 76.6495 362.69 77.5412 362.622 77.5854C362.555 77.6296 361.933 76.8184 360.982 75.4713C360.473 74.7343 359.923 73.9382 359.336 73.0879C359.025 72.5789 358.798 72.4535 358.279 72.7365C357.774 73.0059 357.261 73.3195 356.808 73.708C355.872 74.4663 355.392 75.5476 355.569 76.5597C355.713 77.574 356.174 78.4443 356.667 79.0501C357.171 79.6567 357.727 80.0016 358.145 80.1456C358.563 80.2953 358.823 80.3003 358.821 80.3559Z" fill="#263238"/>
<path d="M423.406 52.6302C423.332 52.6558 423.239 51.6288 422.295 50.1434C421.815 49.4178 421.118 48.5803 420.1 47.8775C419.098 47.169 417.766 46.5888 416.229 46.4848L416.007 46.4698L416.03 46.246C416.196 44.5917 415.653 42.6886 414.385 41.1369C413.145 39.5952 411.146 38.3621 408.898 38.3578L408.618 38.3571L408.617 38.0792C408.603 35.3243 407.437 32.3343 405.254 30.1269C403.584 28.422 401.398 27.3806 399.209 27.0078C397.016 26.6286 394.829 26.8938 392.985 27.6308L392.854 27.6828L392.737 27.6051C390.545 26.1447 388.211 25.2887 386.077 24.923C383.942 24.521 382.015 24.5816 380.458 24.7748C377.325 25.1981 375.674 26.1219 375.64 26.0178C375.634 26.0043 375.733 25.9465 375.933 25.8475C376.134 25.7534 376.426 25.5951 376.828 25.4383C377.625 25.1169 378.831 24.7142 380.414 24.4619C381.992 24.2202 383.959 24.1155 386.153 24.4911C388.344 24.8304 390.755 25.6785 393.033 27.1675L392.787 27.1418C394.716 26.3514 397.006 26.0584 399.306 26.4462C401.599 26.8247 403.912 27.9187 405.671 29.7149C407.966 32.0364 409.178 35.1732 409.178 38.0749L408.897 37.7969C411.361 37.8183 413.482 39.169 414.782 40.819C416.112 42.4812 416.667 44.5225 416.458 46.2937L416.259 46.055C417.892 46.1932 419.276 46.8361 420.301 47.5995C421.342 48.3586 422.036 49.2496 422.499 50.0172C422.959 50.7941 423.178 51.4648 423.297 51.9196C423.398 52.3807 423.425 52.6266 423.406 52.6302Z" fill="#263238"/>
<path d="M377.735 15.902C377.735 15.902 376.916 15.8357 375.683 15.0581C374.49 14.304 372.823 12.7124 372.271 10.0823C372.014 8.78796 372.115 7.26479 372.75 5.8243C373.375 4.39164 374.478 3.0153 376.025 2.11223C377.562 1.19847 379.566 0.886285 381.467 1.35885C383.363 1.81074 385.2 2.99107 386.312 4.79935L385.991 4.66891C387.184 4.36099 388.537 4.51353 389.712 5.07162C390.689 5.52494 391.524 6.24839 392.106 7.13292C392.678 8.02744 392.948 9.08803 392.908 10.1073C392.838 12.1479 391.694 14.0417 390.019 14.9426L389.91 14.4309C391.56 14.5756 392.883 15.6882 393.568 16.9633C394.288 18.2491 394.35 19.7816 393.885 21.0061C392.966 23.51 390.685 24.8115 388.853 25.0289C386.978 25.2813 385.512 24.793 384.606 24.3967C384.146 24.195 383.816 23.994 383.597 23.8536C383.382 23.7068 383.275 23.6241 383.284 23.6113C383.306 23.5721 383.753 23.8807 384.675 24.2321C385.582 24.5706 387.023 24.9862 388.802 24.6982C390.534 24.4509 392.64 23.1693 393.45 20.8564C393.858 19.7239 393.784 18.371 393.123 17.2085C392.49 16.056 391.287 15.0852 389.868 14.9754L388.947 14.9034L389.759 14.463C391.241 13.659 392.28 11.9284 392.333 10.0902C392.365 9.17214 392.124 8.24198 391.617 7.44868C391.098 6.66464 390.347 6.00962 389.463 5.6012C388.401 5.09657 387.187 4.96257 386.136 5.23199L385.927 5.28545L385.814 5.10084C384.801 3.44296 383.099 2.33177 381.334 1.90197C379.562 1.45436 377.721 1.72805 376.284 2.56127C374.835 3.38736 373.778 4.67034 373.172 6.01033C372.556 7.35958 372.437 8.78083 372.655 10.0096C373.125 12.51 374.676 14.0959 375.8 14.8806C376.961 15.6911 377.76 15.8393 377.735 15.902Z" fill="#263238"/>
<path d="M331.298 10.0364C331.283 10.0321 331.301 9.90878 331.353 9.67357C331.402 9.43693 331.504 9.09409 331.674 8.66216C332.017 7.80756 332.667 6.57092 333.923 5.39058C335.159 4.22664 337.057 3.10904 339.431 2.92942C341.765 2.73698 344.523 3.45971 346.634 5.40056L346.311 5.35851C348.544 4.14254 351.436 3.67283 354.236 4.31859C356.317 4.79472 358.164 5.8995 359.559 7.30078C360.954 8.70778 361.921 10.3992 362.413 12.1034L362.192 11.9159C364.511 12.2409 366.521 13.1761 368.032 14.3286C369.572 15.4583 370.634 16.7819 371.358 17.9423C372.078 19.1134 372.456 20.1369 372.658 20.8447C372.845 21.5574 372.899 21.9495 372.876 21.9537C372.773 21.9922 372.567 20.3693 371.091 18.1134C370.348 17.0057 369.283 15.747 367.773 14.6836C366.291 13.5959 364.343 12.7285 362.127 12.4405L361.955 12.4184L361.905 12.253C361.421 10.6394 360.489 9.03707 359.155 7.70563C357.82 6.37918 356.074 5.34069 354.104 4.88952C351.45 4.27725 348.697 4.71489 346.576 5.85245L346.399 5.94725L346.252 5.8104C344.29 3.97861 341.683 3.25729 339.465 3.40768C337.215 3.54239 335.386 4.56236 334.16 5.65146C332.917 6.7541 332.236 7.92588 331.847 8.73985C331.463 9.56167 331.342 10.0485 331.298 10.0364Z" fill="#263238"/>
<path d="M287.583 63.5679C287.583 63.5679 288.351 62.1994 294.288 62.9735C300.225 63.7476 323.756 80.0413 323.756 80.0413C323.756 80.0413 319.476 96.8667 332.421 100.076C341.845 102.413 346.847 99.7833 346.847 99.7833C346.847 99.7833 362.625 119.399 363.916 127.399C363.916 127.399 287.873 180.584 300.215 174.801L287.584 174.944L287.583 63.5679Z" fill="#FF725E"/>
<path d="M362.682 123.794C362.888 124.363 365.838 127.866 362.918 143.489C360.267 157.681 348.636 172.005 348.636 172.005L325.516 151.182L362.682 123.794Z" fill="#FF725E"/>
<path d="M350.609 134.927C350.618 134.937 350.495 135.055 350.254 135.27C349.982 135.507 349.628 135.815 349.188 136.199C348.251 136.99 346.88 138.122 345.164 139.489C341.736 142.229 336.944 145.942 331.613 149.993C326.28 154.043 321.423 157.67 317.893 160.276C316.148 161.552 314.724 162.594 313.698 163.343C313.222 163.68 312.839 163.952 312.545 164.161C312.279 164.344 312.136 164.435 312.128 164.425C312.12 164.415 312.248 164.303 312.5 164.101C312.784 163.878 313.152 163.589 313.611 163.228C314.619 162.455 316.019 161.382 317.735 160.067C321.259 157.39 326.072 153.736 331.389 149.698C336.718 145.648 341.534 141.969 345.002 139.283C346.706 137.954 348.096 136.869 349.097 136.087C349.555 135.726 349.923 135.436 350.207 135.213C350.462 135.016 350.602 134.917 350.609 134.927Z" fill="#E44642"/>
<path d="M312.127 0.53418H143.707V234.544H312.127V0.53418Z" fill="white"/>
<path d="M312.127 0.53418H143.707V85.2352H312.127V0.53418Z" fill="#FF725E"/>
<path d="M294.585 24.2313H264.647C260.206 24.2313 256.606 20.6326 256.606 16.1935V15.3518C256.606 10.9127 260.206 7.31396 264.647 7.31396H294.585C299.026 7.31396 302.626 10.9127 302.626 15.3518V16.1935C302.626 20.6326 299.026 24.2313 294.585 24.2313Z" fill="#E44642"/>
<path d="M282.966 105.968C282.966 106.071 259.812 106.153 231.255 106.153C202.689 106.153 179.54 106.07 179.54 105.968C179.54 105.865 202.689 105.783 231.255 105.783C259.812 105.782 282.966 105.865 282.966 105.968Z" fill="#E44642"/>
<path d="M282.966 128.78C282.966 128.883 259.812 128.965 231.255 128.965C202.689 128.965 179.54 128.882 179.54 128.78C179.54 128.678 202.689 128.595 231.255 128.595C259.812 128.594 282.966 128.677 282.966 128.78Z" fill="#E44642"/>
<path d="M282.966 151.592C282.966 151.694 259.812 151.777 231.255 151.777C202.689 151.777 179.54 151.694 179.54 151.592C179.54 151.49 202.689 151.406 231.255 151.406C259.812 151.406 282.966 151.489 282.966 151.592Z" fill="#E44642"/>
<path d="M282.54 215.79H181.373C171.425 215.79 163.361 207.729 163.361 197.784V195.898C163.361 185.954 171.425 177.893 181.373 177.893H282.54C292.488 177.893 300.553 185.954 300.553 195.898V197.784C300.553 207.728 292.488 215.79 282.54 215.79Z" fill="#FF725E"/>
<path d="M187.745 72.1301C186.89 71.9063 186.197 71.6076 185.664 71.2342L186.704 68.8984C187.206 69.2292 187.787 69.4957 188.449 69.6989C189.111 69.9013 189.762 70.0025 190.402 70.0025C191.618 70.0025 192.227 69.6989 192.227 69.0909C192.227 68.7709 192.053 68.5335 191.707 68.3788C191.36 68.2242 190.802 68.0617 190.034 67.8906C189.191 67.7096 188.487 67.515 187.921 67.3068C187.355 67.0987 186.871 66.7659 186.465 66.3068C186.059 65.8485 185.857 65.2299 185.857 64.4508C185.857 63.768 186.043 63.1522 186.417 62.6026C186.791 62.0531 187.348 61.6183 188.09 61.2983C188.831 60.9782 189.741 60.8179 190.819 60.8179C191.556 60.8179 192.281 60.9005 192.996 61.0659C193.71 61.2313 194.341 61.4736 194.885 61.7936L193.909 64.1457C192.841 63.5691 191.806 63.2819 190.804 63.2819C190.174 63.2819 189.715 63.3753 189.427 63.562C189.139 63.7487 188.995 63.9918 188.995 64.2897C188.995 64.5884 189.165 64.8129 189.507 64.9619C189.848 65.1115 190.398 65.2662 191.156 65.4259C192.009 65.6069 192.717 65.8015 193.277 66.0096C193.837 66.2177 194.322 66.5485 194.734 67.0018C195.144 67.4558 195.35 68.0716 195.35 68.85C195.35 69.5221 195.163 70.1301 194.789 70.6739C194.416 71.2178 193.855 71.6533 193.109 71.9783C192.361 72.304 191.454 72.4665 190.388 72.4665C189.478 72.4665 188.597 72.3539 187.745 72.1301Z" fill="white"/>
<path d="M199.029 63.5533H195.587V61.0415H205.623V63.5533H202.197V72.2418H199.028V63.5533H199.029Z" fill="white"/>
<path d="M213.756 70.066H209.017L208.137 72.2421H204.904L209.85 61.041H212.972L217.933 72.2421H214.636L213.756 70.066ZM212.827 67.7296L211.386 64.1458L209.945 67.7296H212.827Z" fill="white"/>
<path d="M229.49 61.041V72.2421H226.881L221.935 66.2734V72.2421H218.83V61.041H221.44L226.386 67.009V61.041H229.49Z" fill="white"/>
<path d="M231.731 61.041H237.03C238.257 61.041 239.346 61.2705 240.295 61.7288C241.245 62.1879 241.982 62.8386 242.504 63.6811C243.027 64.5243 243.289 65.5107 243.289 66.6412C243.289 67.7716 243.027 68.7588 242.504 69.6013C241.982 70.4438 241.245 71.0945 240.295 71.5535C239.346 72.0126 238.257 72.2414 237.03 72.2414H231.731V61.041ZM236.902 69.7139C237.863 69.7139 238.633 69.4416 239.215 68.8978C239.796 68.354 240.087 67.602 240.087 66.6419C240.087 65.6818 239.796 64.9298 239.215 64.386C238.633 63.8422 237.863 63.5699 236.902 63.5699H234.902V69.7146H236.902V69.7139Z" fill="white"/>
<path d="M252.3 70.066H247.562L246.682 72.2421H243.448L248.395 61.041H251.516L256.477 72.2421H253.18L252.3 70.066ZM251.371 67.7296L249.931 64.1458L248.491 67.7296H251.371Z" fill="white"/>
<path d="M262.272 69.2656H260.543V72.2421H257.374V61.041H262.497C263.51 61.041 264.391 61.2092 265.138 61.5449C265.885 61.8814 266.461 62.3611 266.866 62.9854C267.272 63.6098 267.475 64.3432 267.475 65.1857C267.475 65.9968 267.286 66.7032 266.907 67.3062C266.528 67.9092 265.987 68.381 265.283 68.7225L267.7 72.2428H264.306L262.272 69.2656ZM263.777 63.9698C263.445 63.6818 262.955 63.5378 262.305 63.5378H260.543V66.818H262.305C262.955 66.818 263.446 66.6768 263.777 66.3939C264.107 66.1116 264.272 65.7089 264.272 65.1857C264.273 64.6633 264.107 64.257 263.777 63.9698Z" fill="white"/>
<path d="M269.219 61.041H274.518C275.745 61.041 276.834 61.2705 277.783 61.7288C278.733 62.1879 279.469 62.8386 279.992 63.6811C280.515 64.5243 280.777 65.5107 280.777 66.6412C280.777 67.7716 280.515 68.7588 279.992 69.6013C279.47 70.4438 278.733 71.0945 277.783 71.5535C276.834 72.0126 275.745 72.2414 274.518 72.2414H269.219V61.041ZM274.39 69.7139C275.35 69.7139 276.121 69.4416 276.702 68.8978C277.283 68.354 277.575 67.602 277.575 66.6419C277.575 65.6818 277.284 64.9298 276.702 64.386C276.121 63.8422 275.35 63.5699 274.39 63.5699H272.389V69.7146H274.39V69.7139Z" fill="white"/>
<path d="M270.91 13.7767C271.206 13.9107 271.433 14.1003 271.593 14.3455C271.753 14.5914 271.832 14.8822 271.832 15.2186C271.832 15.5507 271.753 15.8408 271.593 16.0882C271.433 16.3362 271.206 16.5258 270.91 16.6569C270.615 16.7888 270.267 16.8537 269.866 16.8537H268.954V18.1017H267.906V13.5757H269.866C270.267 13.5764 270.615 13.6434 270.91 13.7767ZM270.525 15.7974C270.689 15.6619 270.771 15.4688 270.771 15.2186C270.771 14.9649 270.689 14.7696 270.525 14.6334C270.361 14.498 270.123 14.4296 269.807 14.4296H268.954V16.0005H269.807C270.123 16.0012 270.362 15.9335 270.525 15.7974Z" fill="white"/>
<path d="M273.167 17.9246C272.876 17.7721 272.649 17.559 272.485 17.2874C272.321 17.0158 272.239 16.7079 272.239 16.3629C272.239 16.0187 272.321 15.7101 272.485 15.4385C272.649 15.1669 272.876 14.9545 273.167 14.8013C273.458 14.648 273.787 14.5718 274.154 14.5718C274.52 14.5718 274.848 14.648 275.137 14.8013C275.426 14.9545 275.653 15.1669 275.816 15.4385C275.979 15.7101 276.062 16.018 276.062 16.3629C276.062 16.7079 275.98 17.0165 275.816 17.2874C275.653 17.559 275.426 17.7714 275.137 17.9246C274.848 18.0778 274.52 18.1541 274.154 18.1541C273.787 18.1541 273.459 18.0771 273.167 17.9246ZM274.791 17.0643C274.957 16.8897 275.04 16.6559 275.04 16.3629C275.04 16.07 274.957 15.8362 274.791 15.6616C274.625 15.487 274.413 15.3993 274.155 15.3993C273.896 15.3993 273.683 15.487 273.514 15.6616C273.347 15.8362 273.262 16.07 273.262 16.3629C273.262 16.6566 273.346 16.8904 273.514 17.0643C273.683 17.2389 273.896 17.3266 274.155 17.3266C274.412 17.3266 274.625 17.2389 274.791 17.0643Z" fill="white"/>
<path d="M279.675 14.7951C279.94 14.9441 280.147 15.1529 280.299 15.4224C280.45 15.6918 280.525 16.0054 280.525 16.3632C280.525 16.721 280.45 17.0346 280.299 17.3041C280.147 17.5735 279.94 17.7823 279.675 17.9313C279.409 18.0795 279.115 18.1544 278.792 18.1544C278.348 18.1544 277.998 18.014 277.744 17.7339V19.3568H276.735V14.6241H277.699V15.0254C277.949 14.7239 278.313 14.5728 278.792 14.5728C279.115 14.572 279.409 14.6462 279.675 14.7951ZM279.254 17.0646C279.419 16.8899 279.504 16.6562 279.504 16.3632C279.504 16.0703 279.42 15.8365 279.254 15.6619C279.088 15.4872 278.875 15.3996 278.617 15.3996C278.358 15.3996 278.145 15.4872 277.98 15.6619C277.814 15.8365 277.73 16.0703 277.73 16.3632C277.73 16.6569 277.813 16.8907 277.98 17.0646C278.145 17.2392 278.358 17.3269 278.617 17.3269C278.875 17.3269 279.088 17.2392 279.254 17.0646Z" fill="white"/>
<path d="M284.702 14.6242V18.1025H283.746V17.6891C283.611 17.8402 283.452 17.955 283.266 18.0348C283.081 18.1146 282.881 18.1546 282.665 18.1546C282.208 18.1546 281.846 18.0227 281.579 17.7597C281.311 17.4967 281.177 17.1068 281.177 16.5893V14.6235H282.186V16.4404C282.186 17.0013 282.421 17.2814 282.891 17.2814C283.132 17.2814 283.326 17.203 283.473 17.0448C283.619 16.888 283.693 16.6542 283.693 16.3434V14.6235L284.702 14.6242Z" fill="white"/>
<path d="M285.642 13.3047H286.651V18.1023H285.642V13.3047Z" fill="white"/>
<path d="M290.234 14.9569C290.523 15.2135 290.667 15.5998 290.667 16.1173V18.1023H289.723V17.669C289.533 17.9926 289.179 18.1544 288.662 18.1544C288.395 18.1544 288.163 18.1095 287.966 18.0182C287.77 17.9277 287.621 17.803 287.517 17.6433C287.413 17.4837 287.362 17.3026 287.362 17.1002C287.362 16.7766 287.484 16.5229 287.728 16.3376C287.971 16.1522 288.347 16.0596 288.856 16.0596H289.658C289.658 15.84 289.591 15.6711 289.457 15.5521C289.323 15.4338 289.123 15.3746 288.856 15.3746C288.67 15.3746 288.488 15.4038 288.309 15.4623C288.13 15.52 287.978 15.5991 287.853 15.6982L287.49 14.9933C287.681 14.8593 287.908 14.7559 288.173 14.6825C288.438 14.6091 288.711 14.5728 288.991 14.5728C289.532 14.572 289.945 14.7003 290.234 14.9569ZM289.374 17.3554C289.507 17.2755 289.602 17.1587 289.658 17.0033V16.6476H288.965C288.552 16.6476 288.345 16.783 288.345 17.0546C288.345 17.1843 288.395 17.2862 288.497 17.3618C288.598 17.4373 288.737 17.4751 288.914 17.4751C289.087 17.4751 289.24 17.4352 289.374 17.3554Z" fill="white"/>
<path d="M293.031 14.7015C293.235 14.6153 293.471 14.5718 293.739 14.5718V15.5034C293.627 15.4948 293.551 15.4898 293.513 15.4898C293.224 15.4898 292.997 15.5711 292.834 15.7322C292.67 15.8939 292.588 16.1363 292.588 16.4599V18.1021H291.579V14.6238H292.543V15.0828C292.663 14.9146 292.826 14.7877 293.031 14.7015Z" fill="white"/>
<path d="M206.256 200.671C205.398 200.21 204.723 199.57 204.232 198.753C203.741 197.934 203.496 197.009 203.496 195.976C203.496 194.945 203.741 194.02 204.232 193.201C204.723 192.383 205.398 191.743 206.256 191.281C207.115 190.82 208.08 190.589 209.152 190.589C210.055 190.589 210.871 190.748 211.6 191.065C212.33 191.383 212.942 191.84 213.439 192.435L211.891 193.863C211.187 193.05 210.313 192.643 209.272 192.643C208.626 192.643 208.051 192.784 207.545 193.068C207.039 193.35 206.644 193.744 206.361 194.25C206.078 194.756 205.937 195.332 205.937 195.976C205.937 196.621 206.078 197.197 206.361 197.703C206.644 198.209 207.039 198.604 207.545 198.886C208.051 199.169 208.626 199.31 209.272 199.31C210.313 199.31 211.187 198.899 211.891 198.076L213.439 199.504C212.943 200.11 212.328 200.57 211.593 200.887C210.859 201.205 210.04 201.364 209.137 201.364C208.075 201.364 207.115 201.133 206.256 200.671Z" fill="white"/>
<path d="M222.17 193.953C222.78 194.548 223.086 195.431 223.086 196.601V201.185H220.763V196.959C220.763 196.323 220.624 195.85 220.346 195.538C220.068 195.226 219.666 195.069 219.14 195.069C218.554 195.069 218.088 195.25 217.741 195.613C217.394 195.975 217.22 196.513 217.22 197.227V201.186H214.898V190.145H217.22V194.013C217.528 193.706 217.9 193.47 218.337 193.307C218.773 193.144 219.249 193.061 219.766 193.061C220.758 193.06 221.56 193.358 222.17 193.953Z" fill="white"/>
<path d="M226.814 200.776C226.145 200.424 225.621 199.935 225.243 199.31C224.866 198.684 224.677 197.975 224.677 197.182C224.677 196.389 224.865 195.679 225.243 195.054C225.621 194.429 226.144 193.94 226.814 193.588C227.484 193.236 228.241 193.06 229.084 193.06C229.928 193.06 230.682 193.236 231.347 193.588C232.011 193.94 232.533 194.429 232.91 195.054C233.287 195.679 233.475 196.389 233.475 197.182C233.475 197.975 233.287 198.684 232.91 199.31C232.533 199.935 232.011 200.424 231.347 200.776C230.682 201.128 229.927 201.304 229.084 201.304C228.241 201.304 227.484 201.128 226.814 200.776ZM230.55 198.796C230.933 198.394 231.124 197.856 231.124 197.181C231.124 196.507 230.933 195.969 230.55 195.566C230.168 195.165 229.68 194.964 229.084 194.964C228.488 194.964 227.998 195.164 227.611 195.566C227.223 195.968 227.029 196.506 227.029 197.181C227.029 197.856 227.223 198.394 227.611 198.796C227.997 199.198 228.488 199.399 229.084 199.399C229.68 199.399 230.168 199.198 230.55 198.796Z" fill="white"/>
<path d="M236.565 200.776C235.896 200.424 235.372 199.935 234.994 199.31C234.617 198.684 234.428 197.975 234.428 197.182C234.428 196.389 234.616 195.679 234.994 195.054C235.372 194.429 235.895 193.94 236.565 193.588C237.235 193.236 237.992 193.06 238.835 193.06C239.679 193.06 240.433 193.236 241.098 193.588C241.762 193.94 242.284 194.429 242.661 195.054C243.038 195.679 243.226 196.389 243.226 197.182C243.226 197.975 243.038 198.684 242.661 199.31C242.284 199.935 241.762 200.424 241.098 200.776C240.433 201.128 239.678 201.304 238.835 201.304C237.992 201.304 237.235 201.128 236.565 200.776ZM240.301 198.796C240.684 198.394 240.875 197.856 240.875 197.181C240.875 196.507 240.684 195.969 240.301 195.566C239.919 195.165 239.431 194.964 238.835 194.964C238.239 194.964 237.749 195.164 237.362 195.566C236.974 195.968 236.78 196.506 236.78 197.181C236.78 197.856 236.974 198.394 237.362 198.796C237.748 199.198 238.239 199.399 238.835 199.399C239.431 199.399 239.92 199.198 240.301 198.796Z" fill="white"/>
<path d="M245.52 201.058C244.885 200.895 244.379 200.688 244.001 200.441L244.776 198.775C245.133 199.003 245.565 199.189 246.071 199.332C246.577 199.476 247.073 199.548 247.559 199.548C248.541 199.548 249.033 199.305 249.033 198.819C249.033 198.591 248.898 198.427 248.63 198.328C248.363 198.229 247.951 198.145 247.395 198.076C246.74 197.976 246.2 197.862 245.773 197.734C245.346 197.605 244.976 197.377 244.664 197.05C244.351 196.722 244.195 196.256 244.195 195.65C244.195 195.144 244.341 194.695 244.634 194.303C244.927 193.911 245.353 193.606 245.915 193.388C246.475 193.17 247.137 193.061 247.902 193.061C248.467 193.061 249.03 193.123 249.591 193.247C250.152 193.372 250.616 193.542 250.983 193.761L250.209 195.412C249.505 195.015 248.735 194.817 247.902 194.817C247.405 194.817 247.033 194.887 246.785 195.025C246.537 195.164 246.413 195.343 246.413 195.561C246.413 195.809 246.548 195.983 246.815 196.082C247.083 196.182 247.51 196.275 248.096 196.364C248.751 196.473 249.286 196.59 249.703 196.714C250.12 196.838 250.483 197.063 250.789 197.39C251.097 197.718 251.251 198.174 251.251 198.76C251.251 199.256 251.102 199.697 250.805 200.084C250.507 200.471 250.074 200.771 249.502 200.984C248.931 201.198 248.255 201.304 247.47 201.304C246.805 201.304 246.155 201.222 245.52 201.058Z" fill="white"/>
<path d="M260.48 197.837H254.422C254.53 198.333 254.789 198.725 255.195 199.013C255.603 199.3 256.109 199.444 256.714 199.444C257.131 199.444 257.501 199.382 257.824 199.257C258.146 199.133 258.446 198.938 258.724 198.67L259.96 200.009C259.205 200.872 258.103 201.303 256.655 201.303C255.751 201.303 254.952 201.127 254.258 200.775C253.563 200.423 253.027 199.934 252.651 199.309C252.273 198.684 252.084 197.975 252.084 197.181C252.084 196.397 252.271 195.691 252.643 195.06C253.015 194.431 253.525 193.94 254.176 193.588C254.825 193.236 255.553 193.06 256.357 193.06C257.141 193.06 257.851 193.228 258.485 193.566C259.121 193.903 259.619 194.386 259.982 195.016C260.344 195.647 260.525 196.378 260.525 197.211C260.525 197.242 260.51 197.45 260.48 197.837ZM255.047 195.262C254.689 195.56 254.471 195.966 254.392 196.482H258.336C258.257 195.976 258.039 195.573 257.682 195.27C257.324 194.967 256.887 194.816 256.371 194.816C255.846 194.816 255.404 194.965 255.047 195.262Z" fill="white"/>
<path d="M169.017 109.818C168.766 109.818 168.514 109.73 168.311 109.551L165.43 107.016C164.987 106.626 164.943 105.95 165.334 105.507C165.724 105.064 166.401 105.021 166.843 105.41L168.934 107.249L173.265 102.469C173.661 102.031 174.338 101.997 174.776 102.394C175.213 102.79 175.247 103.467 174.85 103.904L169.812 109.466C169.599 109.699 169.309 109.818 169.017 109.818Z" fill="#FF725E"/>
<path d="M169.017 132.63C168.766 132.63 168.514 132.542 168.311 132.363L165.43 129.828C164.987 129.438 164.943 128.762 165.334 128.319C165.724 127.876 166.401 127.833 166.843 128.223L168.934 130.061L173.265 125.281C173.661 124.843 174.338 124.809 174.776 125.206C175.213 125.602 175.247 126.278 174.85 126.716L169.812 132.277C169.599 132.511 169.309 132.63 169.017 132.63Z" fill="#FF725E"/>
<path d="M169.017 155.442C168.766 155.442 168.514 155.354 168.311 155.175L165.43 152.641C164.987 152.251 164.943 151.575 165.334 151.132C165.724 150.689 166.401 150.646 166.843 151.036L168.934 152.874L173.265 148.093C173.661 147.656 174.338 147.621 174.776 148.019C175.213 148.416 175.247 149.091 174.85 149.529L169.812 155.091C169.599 155.324 169.309 155.442 169.017 155.442Z" fill="#FF725E"/>
<path d="M239.261 25.9692L242.118 31.7561L248.507 32.6842L243.884 37.1888L244.975 43.5495L239.261 40.5459L233.547 43.5495L234.638 37.1888L230.015 32.6842L236.404 31.7561L239.261 25.9692Z" fill="white"/>
<path d="M228.161 25.9697L231.936 33.6155L240.376 34.8422L234.269 40.7937L235.71 49.1972L228.161 45.23L220.611 49.1972L222.053 40.7937L215.945 34.8422L224.386 33.6155L228.161 25.9697Z" fill="white"/>
<path d="M236.628 50.4611L228.161 46.0106L219.693 50.4611L221.31 41.0348L214.46 34.3591L223.927 32.9834L228.161 24.4082L232.395 32.9834L241.862 34.3591L235.011 41.0341L236.628 50.4611ZM217.43 35.3249L222.795 40.5523L221.53 47.9343L228.161 44.4489L234.793 47.9343L233.527 40.553L238.892 35.3249L231.478 34.2479L228.162 27.5322L224.846 34.2479L217.43 35.3249Z" fill="#FF725E"/>
<path d="M312.128 234.544C312.126 233.051 312.059 138.887 311.959 0.534176L312.127 0.702388C261.304 0.707377 204.064 0.713076 143.726 0.71949H143.706L143.892 0.534176C143.879 88.0919 143.867 169.108 143.857 234.544L143.706 234.393C245.913 234.485 310.885 234.543 312.128 234.544C310.886 234.545 245.913 234.604 143.707 234.695H143.556V234.544C143.546 169.107 143.534 88.0912 143.521 0.533464V0.348145H143.706H143.726C204.064 0.354559 261.304 0.360263 312.127 0.365252H312.296V0.533464C312.197 138.887 312.128 233.052 312.128 234.544Z" fill="#E44642"/>
<path d="M229.712 141.306C229.712 141.306 227.213 137.559 232.211 137.351C237.209 137.143 261.781 141.306 270.11 145.469L277.398 150.049L269.485 165.661C269.485 165.661 253.451 165.661 251.369 165.661C249.287 165.661 243.456 162.122 248.87 159.625C248.87 159.625 243.456 155.878 248.453 152.755C248.453 152.755 244.497 149.84 248.661 145.886L229.712 141.306Z" fill="#FFBF9D"/>
<path d="M271.575 147.018L312.939 168.672L328.456 153.83L346.943 170.48C346.943 170.48 328.606 191.993 317.972 193.866C307.338 195.74 266 162.507 266 162.507L271.575 147.018Z" fill="#FFBF9D"/>
<path d="M314.957 80.4605C314.831 80.5389 314.703 80.613 314.572 80.6821C313.976 80.9964 313.33 81.2096 312.672 81.3471C312.369 81.4106 312.025 81.4113 311.735 81.5196C311.54 81.593 311.395 81.7506 311.216 81.8553C310.083 82.5196 308.645 82.5995 307.371 82.7327C305.934 82.8831 304.418 83.1091 303.3 84.0235C302.181 84.938 301.695 86.7755 302.671 87.8404C301.753 87.7834 300.927 88.6087 300.818 89.5218C300.709 90.4348 301.208 91.3472 301.934 91.911C302.661 92.4741 303.583 92.7306 304.497 92.8347C303.42 92.9181 302.647 94.0963 302.779 95.1683C302.911 96.2396 303.757 97.1241 304.743 97.5646C305.729 98.0051 306.84 98.0692 307.919 98.0478C308.999 98.0265 311.025 97.9979 312.096 98.1348C312.096 98.1348 312.065 99.5069 312.09 100.127C312.124 100.969 312.096 100.309 312.096 100.309C312.599 100.699 313.417 100.932 314.503 101.288C316.383 101.903 317.589 102.403 319.278 102.838C320.544 103.165 321.784 103.319 322.462 102.471C324.095 100.431 319.8 97.4677 319.8 97.4677C321.061 96.7927 320.722 92.7114 318.844 92.1661C319.775 91.7121 320.357 91.757 320.904 90.8775C321.451 89.9979 321.64 88.8596 321.234 87.9074C320.827 86.9544 319.761 86.2766 318.744 86.4726C319.974 85.4555 320.459 83.6294 319.896 82.1362C319.557 81.2381 318.854 80.4997 318.003 80.0649C317.574 79.8461 317.114 79.7114 316.637 79.6558C316.467 79.6358 316.265 79.5902 316.095 79.6329C316.011 79.6543 315.942 79.6978 315.873 79.7477C315.559 79.9744 315.29 80.2516 314.957 80.4605Z" fill="#FFBF9D"/>
<path d="M316.96 75.8277C316.871 74.941 316.557 74.0052 315.818 73.507C314.942 72.9161 313.374 72.9866 312.342 73.209C312.278 74.4635 312.319 75.1021 312.255 76.3573C312.242 76.6217 312.337 76.8277 312.214 77.0629C311.89 77.6816 310.528 77.775 309.906 78.0914C308.827 78.6403 308.471 80.1684 309.042 81.2361C309.613 82.3039 310.909 82.8648 312.116 82.7572C313.323 82.6503 314.423 81.9617 315.237 81.0644C316.508 79.6624 317.15 77.7108 316.96 75.8277Z" fill="#FFBF9D"/>
<path d="M319.098 86.4399C319.106 86.5418 315.436 86.9381 310.902 87.3252C306.365 87.7122 302.682 87.9424 302.673 87.8405C302.665 87.7386 306.334 87.3423 310.87 86.9552C315.405 86.5682 319.089 86.3373 319.098 86.4399Z" fill="#FF9A6C"/>
<path d="M319.094 92.1654C319.101 92.2132 318.284 92.3942 316.945 92.5945C315.608 92.7955 313.747 93.0022 311.683 93.107C309.619 93.2096 307.747 93.1904 306.396 93.1248C305.044 93.0592 304.212 92.9609 304.214 92.9131C304.217 92.859 305.053 92.8647 306.401 92.8625C307.75 92.8611 309.611 92.839 311.664 92.7364C313.717 92.6323 315.571 92.4677 316.913 92.3344C318.255 92.2011 319.087 92.1113 319.094 92.1654Z" fill="#FF9A6C"/>
<path d="M319.094 97.7609C319.099 97.8086 318.418 97.9334 317.305 98.0446C316.193 98.1572 314.65 98.242 312.947 98.2677C311.243 98.2926 309.703 98.2755 308.589 98.2591C307.474 98.2406 306.784 98.2156 306.783 98.1629C306.781 98.113 307.47 98.0453 308.585 97.9961C309.7 97.9462 311.241 97.9213 312.94 97.8963C314.639 97.8706 316.175 97.8279 317.287 97.783C318.399 97.7388 319.089 97.7067 319.094 97.7609Z" fill="#FF9A6C"/>
<path d="M316.629 77.6692C316.664 77.6563 316.812 78.2187 316.516 79.0619C316.239 79.8972 315.424 80.9129 314.235 81.5266C313.65 81.8431 313.058 82.0619 312.518 82.2337C311.978 82.3969 311.491 82.5544 311.038 82.5872C310.587 82.6236 310.217 82.4967 310.013 82.352C309.803 82.2066 309.745 82.0712 309.761 82.0598C309.785 82.0142 310.187 82.4596 311.009 82.3263C311.405 82.2679 311.881 82.089 312.408 81.9094C312.932 81.7233 313.501 81.5017 314.057 81.2002C315.185 80.6143 315.948 79.7191 316.271 78.9635C316.608 78.2094 316.564 77.6677 316.629 77.6692Z" fill="#FF9A6C"/>
</svg>
