<svg width="323" height="283" viewBox="0 0 323 283" fill="none" xmlns="http://www.w3.org/2000/svg">
<path d="M280.014 39.21C286.647 32.5769 286.647 21.8225 280.014 15.1894C273.381 8.55624 262.627 8.55624 255.993 15.1894C249.36 21.8225 249.36 32.5769 255.993 39.21C262.627 45.8432 273.381 45.8432 280.014 39.21Z" fill="#F49C9A"/>
<path d="M269.754 34.8006V37.1506H266.768V34.9057C264.65 34.7782 262.597 34.2074 261.326 33.4229L262.935 29.7814C264.333 30.6072 266.195 31.1367 267.826 31.1367C269.245 31.1367 269.754 30.8401 269.754 30.3314C269.754 28.4676 261.559 29.9712 261.559 24.445C261.559 22.0519 263.295 20.0396 266.768 19.5534V17.2456H269.754V19.5105C271.32 19.6587 272.845 20.0621 274.053 20.7399L272.549 24.3607C271.087 23.6192 269.711 23.2589 268.419 23.2589C266.957 23.2589 266.492 23.6831 266.492 24.1916C266.492 25.9694 274.687 24.4882 274.687 29.9506C274.687 32.2368 273.035 34.2283 269.754 34.8006Z" fill="white"/>
<path d="M238.477 60.5623C244.16 60.5623 248.767 55.9556 248.767 50.2729C248.767 44.5902 244.16 39.9834 238.477 39.9834C232.794 39.9834 228.188 44.5902 228.188 50.2729C228.188 55.9556 232.794 60.5623 238.477 60.5623Z" fill="#F49C9A"/>
<path d="M239.536 54.8787V56.3023H237.727V54.9424C236.444 54.8651 235.2 54.5194 234.43 54.0441L235.405 51.8382C236.252 52.3385 237.38 52.6592 238.368 52.6592C239.228 52.6592 239.536 52.4796 239.536 52.1714C239.536 51.0423 234.571 51.9531 234.571 48.6054C234.571 47.1556 235.623 45.9367 237.727 45.6422V44.2441H239.536V45.616C240.484 45.706 241.409 45.9503 242.14 46.3607L241.229 48.5543C240.343 48.1051 239.51 47.8869 238.727 47.8869C237.842 47.8869 237.56 48.1439 237.56 48.452C237.56 49.5289 242.524 48.6316 242.524 51.9407C242.524 53.3254 241.524 54.5318 239.536 54.8787Z" fill="white"/>
<path d="M273.663 58.6803C274.654 54.4089 271.994 50.1432 267.723 49.1526C263.451 48.1621 259.186 50.8217 258.195 55.0931C257.204 59.3645 259.864 63.6302 264.135 64.6207C268.407 65.6113 272.672 62.9517 273.663 58.6803Z" fill="#F49C9A"/>
<path d="M266.753 60.4256V61.5241H265.357V60.4747C264.367 60.415 263.407 60.1482 262.813 59.7816L263.565 58.0794C264.219 58.4654 265.089 58.713 265.852 58.713C266.515 58.713 266.753 58.5743 266.753 58.3365C266.753 57.4654 262.922 58.1681 262.922 55.585C262.922 54.4662 263.734 53.5257 265.357 53.2985V52.2197H266.753V53.2783C267.485 53.3477 268.198 53.5363 268.762 53.853L268.059 55.5456C267.376 55.1991 266.733 55.0305 266.129 55.0305C265.446 55.0305 265.228 55.2287 265.228 55.4665C265.228 56.2975 269.059 55.6051 269.059 58.1583C269.059 59.2271 268.286 60.158 266.753 60.4256Z" fill="white"/>
<path d="M233.975 22.2695H232.814V30.5911H233.975V22.2695Z" fill="#F49C9A"/>
<path d="M237.556 25.8496H229.234V27.0107H237.556V25.8496Z" fill="#F49C9A"/>
<path d="M244.333 0H242.589V12.4992H244.333V0Z" fill="#F49C9A"/>
<path d="M249.711 5.37793H237.211V7.12208H249.711V5.37793Z" fill="#F49C9A"/>
<path d="M283.531 63.9194H282.211V73.3837H283.531V63.9194Z" fill="#F49C9A"/>
<path d="M287.603 67.9912H278.139V69.3118H287.603V67.9912Z" fill="#F49C9A"/>
<path opacity="0.4" d="M137.27 42.172C143.288 36.1545 143.288 26.3983 137.27 20.3808C131.253 14.3633 121.497 14.3633 115.479 20.3808C109.462 26.3983 109.462 36.1545 115.479 42.172C121.497 48.1894 131.253 48.1894 137.27 42.172Z" fill="#E5E5FF"/>
<path opacity="0.4" d="M163.151 234.507C172.729 234.507 180.493 226.743 180.493 217.165C180.493 207.588 172.729 199.823 163.151 199.823C153.573 199.823 145.809 207.588 145.809 217.165C145.809 226.743 153.573 234.507 163.151 234.507Z" fill="#E5E5FF"/>
<path d="M131.036 242.601C130.854 242.601 130.672 242.6 130.49 242.597L130.499 242.097C131.321 242.111 132.157 242.093 132.976 242.045L133.005 242.544C132.354 242.582 131.692 242.601 131.036 242.601ZM127.979 242.462C127.146 242.387 126.307 242.278 125.485 242.14L125.568 241.648C126.377 241.784 127.204 241.89 128.025 241.965L127.979 242.462ZM135.508 242.303L135.442 241.808C136.258 241.698 137.079 241.556 137.883 241.385L137.986 241.874C137.17 242.047 136.337 242.192 135.508 242.303ZM123.023 241.63C122.211 241.429 121.397 241.195 120.605 240.934L120.762 240.459C121.542 240.717 122.343 240.948 123.142 241.145L123.023 241.63ZM140.425 241.258L140.284 240.779C141.073 240.547 141.864 240.283 142.633 239.992L142.809 240.459C142.029 240.754 141.226 241.023 140.425 241.258ZM118.246 240.055C117.475 239.733 116.706 239.378 115.961 238.999L116.187 238.554C116.921 238.927 117.678 239.277 118.438 239.594L118.246 240.055ZM145.124 239.481L144.913 239.028C145.657 238.68 146.398 238.299 147.114 237.895L147.359 238.33C146.632 238.74 145.88 239.127 145.124 239.481ZM113.763 237.773C113.05 237.34 112.343 236.873 111.664 236.385L111.955 235.98C112.624 236.46 113.32 236.92 114.022 237.347L113.763 237.773ZM149.501 237.013L149.223 236.598C149.908 236.14 150.583 235.652 151.23 235.145L151.538 235.538C150.881 236.053 150.196 236.549 149.501 237.013ZM109.676 234.843C109.035 234.307 108.407 233.74 107.809 233.157L108.158 232.799C108.747 233.373 109.365 233.932 109.996 234.461L109.676 234.843ZM153.458 233.915L153.122 233.546C153.729 232.992 154.323 232.408 154.888 231.809L155.252 232.151C154.678 232.759 154.074 233.353 153.458 233.915ZM106.075 231.335C105.522 230.709 104.986 230.054 104.483 229.388L104.881 229.087C105.377 229.742 105.905 230.387 106.449 231.005L106.075 231.335ZM156.908 230.258L156.52 229.943C157.039 229.303 157.539 228.635 158.007 227.96L158.417 228.245C157.943 228.93 157.435 229.607 156.908 230.258ZM103.041 227.328C102.588 226.625 102.157 225.897 101.76 225.165L102.199 224.927C102.59 225.648 103.015 226.365 103.461 227.057L103.041 227.328ZM159.771 226.123L159.34 225.871C159.756 225.16 160.15 224.425 160.511 223.686L160.96 223.905C160.594 224.656 160.193 225.402 159.771 226.123ZM100.646 222.912C100.305 222.15 99.989 221.366 99.7068 220.581L100.177 220.412C100.455 221.185 100.766 221.957 101.102 222.707L100.646 222.912ZM161.978 221.602L161.514 221.418C161.818 220.653 162.096 219.867 162.341 219.08L162.818 219.229C162.569 220.028 162.287 220.826 161.978 221.602ZM98.9465 218.183C98.7248 217.379 98.5309 216.555 98.3711 215.735L98.8614 215.639C99.0191 216.446 99.2099 217.258 99.4283 218.051L98.9465 218.183ZM163.474 216.801L162.987 216.689C163.171 215.888 163.327 215.069 163.45 214.255L163.944 214.33C163.819 215.156 163.661 215.988 163.474 216.801ZM97.9827 213.251C97.8852 212.422 97.8178 211.579 97.7827 210.744L98.2818 210.723C98.3163 211.546 98.3825 212.376 98.4786 213.192L97.9827 213.251ZM164.225 211.831L163.727 211.793C163.788 210.976 163.819 210.143 163.819 209.318H164.319C164.319 210.155 164.287 211.001 164.225 211.831ZM163.817 208.984C163.809 208.16 163.77 207.327 163.701 206.509L164.198 206.467C164.269 207.298 164.309 208.143 164.317 208.979L163.817 208.984ZM98.2696 208.245L97.7703 208.229C97.7972 207.392 97.856 206.548 97.9451 205.72L98.4416 205.774C98.3537 206.589 98.296 207.421 98.2696 208.245ZM163.398 204.051C163.267 203.239 163.103 202.421 162.911 201.622L163.397 201.506C163.592 202.317 163.759 203.146 163.892 203.972L163.398 204.051ZM98.7991 203.322L98.308 203.231C98.46 202.409 98.6452 201.584 98.8586 200.777L99.3416 200.905C99.1314 201.699 98.9489 202.512 98.7991 203.322ZM162.24 199.238C161.987 198.456 161.702 197.673 161.39 196.911L161.852 196.722C162.169 197.495 162.459 198.29 162.715 199.084L162.24 199.238ZM100.066 198.536L99.5945 198.372C99.8695 197.583 100.178 196.794 100.512 196.028L100.97 196.228C100.641 196.982 100.337 197.758 100.066 198.536ZM160.366 194.657C159.999 193.923 159.598 193.193 159.174 192.487L159.603 192.23C160.032 192.947 160.44 193.689 160.813 194.433L160.366 194.657ZM102.047 193.994L101.605 193.76C101.996 193.021 102.421 192.289 102.867 191.583L103.289 191.849C102.85 192.545 102.432 193.266 102.047 193.994ZM157.822 190.412C157.347 189.74 156.84 189.078 156.317 188.445L156.702 188.127C157.233 188.77 157.747 189.442 158.229 190.124L157.822 190.412ZM104.69 189.804L104.289 189.506C104.786 188.836 105.316 188.175 105.863 187.544L106.24 187.871C105.702 188.492 105.18 189.143 104.69 189.804ZM154.668 186.596C154.097 186.003 153.497 185.424 152.884 184.876L153.217 184.504C153.839 185.06 154.449 185.648 155.028 186.25L154.668 186.596ZM107.932 186.06L107.58 185.705C108.172 185.117 108.795 184.543 109.429 184.001L109.754 184.381C109.129 184.915 108.515 185.479 107.932 186.06ZM150.976 183.294C150.324 182.794 149.644 182.311 148.954 181.86L149.228 181.442C149.928 181.9 150.618 182.39 151.28 182.898L150.976 183.294ZM111.696 182.844L111.401 182.44C112.075 181.947 112.776 181.474 113.485 181.033L113.749 181.457C113.05 181.892 112.36 182.358 111.696 182.844ZM146.83 180.583C146.108 180.186 145.363 179.811 144.615 179.47L144.822 179.016C145.581 179.362 146.338 179.742 147.071 180.146L146.83 180.583ZM115.9 180.23L115.669 179.787C116.41 179.401 117.174 179.039 117.94 178.711L118.136 179.17C117.382 179.493 116.63 179.85 115.9 180.23ZM142.321 178.529C141.548 178.245 140.755 177.988 139.964 177.765L140.1 177.284C140.903 177.511 141.708 177.772 142.493 178.06L142.321 178.529ZM120.446 178.282L120.285 177.81C121.075 177.54 121.886 177.298 122.695 177.089L122.82 177.573C122.023 177.778 121.224 178.017 120.446 178.282ZM137.556 177.183C136.753 177.021 135.93 176.887 135.111 176.785L135.173 176.29C136.004 176.393 136.839 176.529 137.655 176.694L137.556 177.183ZM125.24 177.045L125.152 176.553C125.971 176.407 126.809 176.29 127.643 176.206L127.693 176.702C126.873 176.786 126.047 176.901 125.24 177.045ZM132.643 176.573C131.82 176.533 130.985 176.525 130.166 176.546L130.152 176.046C130.985 176.025 131.832 176.034 132.667 176.074L132.643 176.573Z" fill="#F49C9A"/>
<path d="M103.991 45.1418L103.986 44.6423C104.808 44.6349 105.636 44.5785 106.446 44.4744L106.509 44.9698C105.68 45.0765 104.833 45.1344 103.991 45.1418ZM101.469 45.0149C100.634 44.9228 99.7964 44.7789 98.9803 44.5875L99.0942 44.1012C99.8909 44.288 100.709 44.4283 101.524 44.5182L101.469 45.0149ZM108.99 44.4974L108.868 44.0133C109.662 43.8117 110.452 43.5593 111.216 43.2634L111.396 43.7291C110.614 44.0322 109.805 44.2908 108.99 44.4974ZM96.5592 43.8628C95.7718 43.5739 94.9927 43.2336 94.2438 42.851L94.4712 42.406C95.2021 42.7794 95.9624 43.1117 96.7313 43.3936L96.5592 43.8628ZM113.692 42.6761L113.457 42.2355C114.179 41.8503 114.885 41.4165 115.557 40.9464L115.844 41.3558C115.155 41.8373 114.431 42.2815 113.692 42.6761ZM92.0673 41.5682C91.3715 41.0998 90.6966 40.5839 90.0604 40.0346L90.3869 39.6564C91.0079 40.1929 91.6673 40.6966 92.3464 41.154L92.0673 41.5682ZM117.822 39.7871L117.489 39.4148C118.1 38.8685 118.684 38.2795 119.225 37.6639L119.6 37.9938C119.046 38.6242 118.448 39.2276 117.822 39.7871ZM88.2511 38.2727C87.6856 37.6523 87.1519 36.9913 86.6648 36.3083L87.0714 36.0182C87.5471 36.6852 88.0683 37.3304 88.6201 37.9364L88.2511 38.2727ZM121.152 36.0006L120.74 35.7179C121.205 35.0413 121.633 34.3304 122.012 33.6047L122.455 33.8359C122.066 34.5794 121.628 35.3077 121.152 36.0006ZM85.3249 34.1686C84.9226 33.4315 84.5618 32.663 84.2517 31.8841L84.7158 31.6993C85.0183 32.4596 85.3708 33.2099 85.7632 33.9292L85.3249 34.1686ZM123.487 31.5299L123.02 31.3536C123.309 30.5864 123.554 29.7935 123.749 28.9971L124.234 29.1155C124.035 29.9316 123.783 30.7438 123.487 31.5299ZM83.4614 29.4854C83.2476 28.6744 83.081 27.8412 82.9663 27.0089L83.4612 26.9406C83.5731 27.753 83.7358 28.5663 83.9446 29.3579L83.4614 29.4854ZM124.684 26.6307L124.188 26.5714C124.285 25.7607 124.334 24.9325 124.334 24.1101C124.334 23.8625 124.329 23.6116 124.321 23.3646L124.82 23.3466C124.829 23.5998 124.833 23.8565 124.833 24.1101C124.833 24.9523 124.783 25.8003 124.684 26.6307ZM82.7715 24.4921C82.7693 24.365 82.7681 24.2376 82.7681 24.1099C82.7681 23.3958 82.8042 22.6754 82.8758 21.9695L83.3727 22.0199C83.303 22.7092 83.2676 23.4125 83.2676 24.1101C83.2676 24.235 83.2686 24.3592 83.271 24.4831L82.7715 24.4921ZM124.086 20.9103C123.959 20.0997 123.782 19.2896 123.559 18.5022L124.039 18.3659C124.268 19.1728 124.45 20.0028 124.58 20.833L124.086 20.9103ZM83.7677 19.5862L83.2804 19.4765C83.4648 18.6564 83.7012 17.8396 83.9831 17.049L84.4535 17.2166C84.1783 17.9885 83.9475 18.7857 83.7677 19.5862ZM122.744 16.1752C122.428 15.4205 122.062 14.6768 121.656 13.9647L122.09 13.7175C122.506 14.4468 122.881 15.2087 123.205 15.982L122.744 16.1752ZM85.4202 14.9475L84.9734 14.7244C85.348 13.9743 85.773 13.238 86.2362 12.5362L86.6532 12.8114C86.2008 13.4965 85.786 14.2152 85.4202 14.9475ZM120.31 11.8998C119.823 11.2418 119.29 10.6061 118.727 10.01L119.09 9.66694C119.667 10.2774 120.212 10.9283 120.712 11.6023L120.31 11.8998ZM88.1326 10.8388L87.7516 10.5157C88.2942 9.87574 88.8815 9.26172 89.4967 8.69046L89.8366 9.05652C89.2358 9.61419 88.6623 10.2138 88.1326 10.8388ZM116.93 8.32201C116.299 7.79731 115.631 7.30557 114.943 6.86039L115.215 6.44099C115.919 6.89696 116.603 7.40048 117.249 7.93797L116.93 8.32201ZM91.7406 7.4904L91.4469 7.08618C92.1262 6.59244 92.8419 6.13488 93.574 5.72666L93.8174 6.16305C93.1025 6.56167 92.4038 7.00825 91.7406 7.4904ZM112.796 5.64714C112.059 5.28728 111.293 4.96898 110.518 4.70104L110.681 4.22908C111.475 4.50362 112.26 4.82971 113.015 5.19836L112.796 5.64714ZM96.0377 5.09526L95.8489 4.6329C96.6262 4.3152 97.4308 4.04186 98.2404 3.82067L98.3721 4.30241C97.5819 4.51841 96.7964 4.78515 96.0377 5.09526ZM108.143 4.03706C107.343 3.86503 106.523 3.73955 105.706 3.66422L105.752 3.16688C106.589 3.24401 107.429 3.37229 108.248 3.54873L108.143 4.03706ZM100.785 3.79689L100.712 3.30256C101.54 3.18087 102.386 3.10754 103.228 3.08496L103.241 3.58429C102.419 3.60647 101.593 3.678 100.785 3.79689Z" fill="#F49C9A"/>
<path d="M19.928 152.584C15.9341 152.584 12.6848 149.335 12.6848 145.341C12.6848 141.347 15.9341 138.098 19.928 138.098C23.9218 138.098 27.1711 141.347 27.1711 145.341C27.1711 149.335 23.9218 152.584 19.928 152.584ZM19.928 139.097C16.485 139.097 13.6839 141.898 13.6839 145.341C13.6839 148.784 16.485 151.585 19.928 151.585C23.3709 151.585 26.1721 148.784 26.1721 145.341C26.1721 141.898 23.3709 139.097 19.928 139.097Z" fill="#F49C9A"/>
<path d="M262.199 59.5396H54.5964V213.027H262.199V59.5396Z" fill="white"/>
<path d="M262.698 213.527H54.0969V59.04H262.698V213.527ZM55.096 212.528H261.699V60.0391H55.096V212.528Z" fill="#F49C9A"/>
<path d="M85.9661 163.176H68.9822V196.043H85.9661V163.176Z" fill="#F49C9A"/>
<path d="M112.941 146.786H95.9568V196.043H112.941V146.786Z" fill="#F49C9A"/>
<path d="M139.915 112.981H122.931V196.043H139.915V112.981Z" fill="#F49C9A"/>
<path d="M166.889 136.981H149.906V196.043H166.889V136.981Z" fill="#F49C9A"/>
<path d="M193.864 110.933H176.88V196.043H193.864V110.933Z" fill="#F49C9A"/>
<path d="M220.838 115.379H203.854V196.043H220.838V115.379Z" fill="#F49C9A"/>
<path d="M247.813 85.9072H230.829V196.043H247.813V85.9072Z" fill="#F49C9A"/>
<path d="M74.1036 183.001L73.6504 182.111L102.018 167.678L131.272 127.831L158.056 155.866L185.59 128.331L212.293 131.576L239.094 100.805L239.847 101.461L212.699 132.631L185.952 129.382L158.039 157.295L131.373 129.383L102.683 168.461L74.1036 183.001Z" fill="#E44642"/>
<path d="M200.191 78.4878H116.604V79.4868H200.191V78.4878Z" fill="#E44642"/>
<path d="M171.977 89.4775H144.819V90.4766H171.977V89.4775Z" fill="#E44642"/>
<path d="M51.2428 242.376C52.8721 233.788 51.8121 224.649 48.2692 216.738C44.7264 208.827 38.7204 202.19 31.4211 198.117C35.1186 202.807 36.0715 209.242 36.4462 215.348C36.8208 221.453 36.7937 227.756 39.0088 233.403C41.2239 239.051 46.4525 243.938 52.1713 243.231L51.2428 242.376Z" fill="#E44642"/>
<path d="M51.3628 244.541C49.7336 235.953 50.7936 226.813 54.3364 218.903C57.8793 210.992 63.885 204.354 71.1845 200.282C67.487 204.972 66.5341 211.407 66.1595 217.512C65.7848 223.617 65.812 229.921 63.5969 235.568C61.3818 241.215 56.1531 246.103 50.4343 245.395L51.3628 244.541Z" fill="#E44642"/>
<path d="M44.8101 240.456C41.126 234.325 40.1201 226.455 42.1318 219.501C44.1435 212.548 49.1364 206.638 55.4254 203.765C54.1021 212.558 60.6361 221.05 59.4686 229.868C58.7129 235.576 54.4262 240.569 49.1464 241.89L44.8101 240.456Z" fill="#F49C9A"/>
<path d="M47.4913 252.257C47.4755 243.497 50.4895 234.755 55.9465 227.735C61.4035 220.716 69.2731 215.456 78.0226 212.982C73.0547 216.812 70.7083 222.924 69.0567 228.833C67.4051 234.742 66.1489 240.929 62.594 246.005C59.0392 251.082 52.3697 254.787 46.3098 252.902L47.4913 252.257Z" fill="#F49C9A"/>
<path d="M50.2452 252.727C50.2598 243.966 47.4926 235.225 42.4827 228.205C37.4727 221.185 30.2479 215.926 22.2151 213.452C26.776 217.281 28.9301 223.394 30.4465 229.303C31.9629 235.212 33.116 241.399 36.3797 246.475C39.6434 251.552 45.7664 255.256 51.33 253.372L50.2452 252.727Z" fill="#F49C9A"/>
<path d="M64.9424 282.625H33.2971L27.8564 249.674H70.383L64.9424 282.625Z" fill="white"/>
<path d="M65.26 283H32.9791L27.4146 249.299H70.8243L65.26 283ZM33.6149 282.25H64.6244L69.9413 250.049H28.2979L33.6149 282.25Z" fill="#F49C9A"/>
<path d="M106.858 34.1685H10.4326V109.91H106.858V34.1685Z" fill="white"/>
<path d="M107.357 110.409H9.93286V33.6685H107.357V110.409ZM10.9319 109.41H106.358V34.6675H10.9319V109.41Z" fill="#F49C9A"/>
<path d="M45.2798 46.5767H23.532V58.8916H45.2798V46.5767Z" fill="#F49C9A"/>
<path d="M94.0161 47.7637H54.4507V48.2878H94.0161V47.7637Z" fill="#F49C9A"/>
<path d="M94.0161 52.4722H54.4507V52.9963H94.0161V52.4722Z" fill="#F49C9A"/>
<path d="M94.0161 57.1802H54.4507V57.7043H94.0161V57.1802Z" fill="#F49C9A"/>
<path d="M38.2949 83.4609H33.7532V97.531H38.2949V83.4609Z" fill="#F49C9A"/>
<path d="M42.8366 76.6143H38.2949V97.5309H42.8366V76.6143Z" fill="#F49C9A"/>
<path d="M55.2387 74.2471H50.697V97.4429H55.2387V74.2471Z" fill="#F49C9A"/>
<path d="M59.7805 88.8579H55.2388V97.4428H59.7805V88.8579Z" fill="#F49C9A"/>
<path d="M72.1828 81.4492H67.6411V97.5114H72.1828V81.4492Z" fill="#F49C9A"/>
<path d="M76.7246 77.8975H72.1829V97.5115H76.7246V77.8975Z" fill="#F49C9A"/>
<path d="M89.1272 86.207H84.5854V97.4092H89.1272V86.207Z" fill="#F49C9A"/>
<path d="M93.6689 70.6826H89.1272V97.4089H93.6689V70.6826Z" fill="#F49C9A"/>
<path d="M93.669 97.6711H23.7527V69.46H24.2768V97.147H93.669V97.6711Z" fill="#F49C9A"/>
<path d="M293.439 269.1L296.437 282.5L276.081 282.462L284.573 275.132L283.948 268.475L293.439 269.1Z" fill="#1B1B43"/>
<path d="M284.807 274.824L284.325 275.397L287.697 278.231L288.179 277.657L284.807 274.824Z" fill="#EBEBFF"/>
<path d="M253.352 268.888L254.851 282.5H232.997L242.987 275.132V268.389L253.352 268.888Z" fill="#1B1B43"/>
<path d="M243.223 274.824L242.741 275.398L246.113 278.231L246.595 277.658L243.223 274.824Z" fill="#EBEBFF"/>
<path d="M297.061 270.723L293.814 270.768L284.178 270.898L278.828 270.973C273.583 252.845 268.673 235.077 264.657 218.287C263.868 214.996 263.113 211.739 262.404 208.532C259.761 196.638 257.653 185.324 256.31 174.839C256.02 172.586 255.765 170.373 255.55 168.2C255.376 166.466 255.226 164.758 255.101 163.075L279.078 167.071C279.318 169.344 279.573 171.622 279.842 173.914C283.454 204.87 289.623 237.404 297.061 270.723Z" fill="#E44642"/>
<path d="M266.34 166.322L265.581 174.474L262.519 207.283L262.404 208.532L256.599 270.723H238.701C239.056 234.747 240.23 200.549 244.946 175.288C245.29 173.425 245.66 171.617 246.044 169.853L255.55 168.2L266.34 166.322Z" fill="#E44642"/>
<path d="M258.489 185.34L257.998 185.436L264.824 220.567L265.314 220.472L258.489 185.34Z" fill="#1B1B43"/>
<path opacity="0.3" d="M279.842 173.914L265.581 174.474L256.31 174.839L244.945 175.288C245.29 173.425 245.66 171.617 246.044 169.853L255.55 168.2C255.375 166.466 255.226 164.758 255.101 163.075L279.078 167.071C279.318 169.344 279.573 171.621 279.842 173.914Z" fill="#1B1B43"/>
<path d="M253.164 128.86L262.35 127.712L281.526 131.731L281.636 166.301C281.639 167.249 281.25 168.155 280.561 168.806C279.927 169.405 279.089 169.74 278.217 169.743L246.045 169.853L239.844 151.136L245.815 133.453L253.164 128.86Z" fill="#E44642"/>
<path d="M264.622 136.436C262.639 136.436 260.716 135.731 259.218 134.321L259.475 134.049C262.328 136.734 266.812 136.73 270.135 134.04L270.371 134.331C268.638 135.734 266.6 136.436 264.622 136.436Z" fill="#1B1B43"/>
<path d="M285.154 134.353C284.454 131.199 281.866 128.814 278.665 128.375L266.423 126.692L273.833 139.347L276.122 147.266L287.659 145.639L285.154 134.353Z" fill="#E44642"/>
<path d="M290.128 159.178C289.838 163.459 287.25 165.283 283.963 166.032C280.537 166.811 276.356 166.426 273.214 166.436C268.048 166.451 262.883 166.227 257.723 165.947L244.611 166.072L243.112 163.739C244.82 161.326 249.441 158.164 257.513 160.077L278.454 155.332L276.121 147.265L287.66 145.641L290.023 156.296C290.163 157.365 290.193 158.319 290.128 159.178Z" fill="#FFBC96"/>
<path d="M233.871 150.461L242.113 160.827L243.612 161.201L244.847 149.137L236.413 145.157L233.871 150.461Z" fill="#FFBC96"/>
<path d="M261.345 126.609L249.308 128.514C245.976 129.041 243.116 131.173 241.658 134.215L236.413 145.157L244.847 149.137L245.735 140.471L261.345 126.609Z" fill="#E44642"/>
<path opacity="0.2" d="M290.128 159.178C289.838 163.459 287.25 165.283 283.963 166.032C283.309 165.228 282.909 164.199 282.909 163.075C282.909 160.502 284.997 158.414 287.57 158.414C288.514 158.414 289.393 158.699 290.128 159.178Z" fill="#FE5B52"/>
<path d="M245.572 140.443L242.938 163.711L243.311 163.754L245.945 140.486L245.572 140.443Z" fill="#1B1B43"/>
<path d="M274.024 139.298L273.664 139.402L278.285 155.387L278.645 155.283L274.024 139.298Z" fill="#1B1B43"/>
<path d="M269.139 99.2638C269.075 98.4194 269.115 97.5516 269.375 96.7236C269.629 95.9006 270.165 95.1305 270.932 94.6774C271.313 94.4536 271.735 94.3009 272.168 94.2272C272.601 94.1518 273.043 94.1519 273.476 94.2016C274.343 94.3031 275.175 94.6176 275.905 95.0896C276.635 95.5601 277.262 96.2149 277.648 97.0098C278.041 97.799 278.127 98.7453 277.881 99.5895C277.639 100.439 277.131 101.17 276.544 101.788C275.943 102.4 275.26 102.916 274.539 103.359L274.459 103.236C275.143 102.754 275.799 102.227 276.352 101.61C276.905 100.998 277.364 100.289 277.565 99.5042C277.767 98.7247 277.694 97.8837 277.327 97.1658C276.971 96.4425 276.381 95.8457 275.702 95.4003C275.023 94.9531 274.241 94.6506 273.434 94.5505C272.63 94.4456 271.793 94.5597 271.091 94.9509C270.388 95.3439 269.881 96.0321 269.615 96.8049C269.477 97.1908 269.391 97.597 269.339 98.0084C269.29 98.4206 269.282 98.8382 269.286 99.2562L269.139 99.2638Z" fill="#1B1B43"/>
<path d="M273.228 103.462C275.44 103.462 277.233 101.668 277.233 99.4564C277.233 97.2444 275.44 95.4512 273.228 95.4512C271.016 95.4512 269.222 97.2444 269.222 99.4564C269.222 101.668 271.016 103.462 273.228 103.462Z" fill="#1B1B43"/>
<path d="M276.261 121.614L274.113 118.327L274.942 121.963L267.529 123.921L253.602 124.486L254.726 113.431C251.169 111.683 248.647 100.414 262.149 98.5154C264.602 98.1707 267.119 98.3905 269.397 99.3546C276.341 102.292 278.688 110.079 279.328 120.804L276.261 121.614Z" fill="#1B1B43"/>
<path d="M264.687 133.311C261.683 133.311 259.247 130.875 259.247 127.87V116.077H270.128V127.87C270.128 130.875 267.692 133.311 264.687 133.311Z" fill="#FFBC96"/>
<path d="M266.614 121.031C265.449 124.464 262.721 126.071 259.246 126.942V121.822L266.614 121.031Z" fill="#1B1B43"/>
<path d="M269.897 104.63L269.545 119.907C269.545 119.907 263.123 124.581 258.627 123.237C257.119 122.788 256.095 121.074 255.4 118.941C255.071 117.927 254.816 116.813 254.616 115.694C253.912 111.673 253.947 107.567 253.947 107.567L269.897 104.63Z" fill="#FFBC96"/>
<path d="M256.758 114.026C256.758 114.48 256.486 114.848 256.149 114.848C255.813 114.848 255.541 114.48 255.541 114.026C255.541 113.571 255.813 113.203 256.149 113.203C256.486 113.203 256.758 113.571 256.758 114.026Z" fill="#1B1B43"/>
<path d="M260.772 114.616C261.152 114.616 261.459 114.189 261.459 113.663C261.459 113.137 261.152 112.711 260.772 112.711C260.393 112.711 260.085 113.137 260.085 113.663C260.085 114.189 260.393 114.616 260.772 114.616Z" fill="#1B1B43"/>
<path d="M263.012 111.725C262.987 111.958 262.207 112.012 261.341 111.861C260.474 111.709 259.736 111.753 259.875 111.177C259.99 110.705 260.674 110.746 261.541 110.897C262.407 111.049 263.034 111.521 263.012 111.725Z" fill="#1B1B43"/>
<path d="M254.539 112.249C254.569 112.48 255.234 112.469 255.963 112.248C256.693 112.027 257.322 112.01 257.18 111.448C257.065 110.988 256.485 111.084 255.755 111.306C255.026 111.527 254.512 112.048 254.539 112.249Z" fill="#1B1B43"/>
<path opacity="0.2" d="M265.997 115.651C265.997 116.633 265.2 117.43 264.217 117.43C263.234 117.43 262.438 116.633 262.438 115.651C262.438 114.668 263.234 113.871 264.217 113.871C265.2 113.871 265.997 114.668 265.997 115.651Z" fill="#FE5B52"/>
<path opacity="0.2" d="M256.195 117.463C256.195 118.082 255.88 118.622 255.4 118.941C255.071 117.927 254.816 116.813 254.616 115.694C255.505 115.794 256.195 116.548 256.195 117.463Z" fill="#FE5B52"/>
<path d="M258.164 114.752C258.184 114.91 258.146 115.074 258.085 115.217C258.023 115.361 257.941 115.486 257.859 115.6C257.695 115.829 257.535 116.028 257.494 116.207C257.472 116.294 257.479 116.384 257.502 116.476C257.522 116.564 257.572 116.644 257.643 116.722C257.788 116.876 258.016 116.993 258.263 117.083L258.245 117.278C257.951 117.312 257.631 117.257 257.356 117.053C257.219 116.952 257.102 116.802 257.039 116.629C256.986 116.459 256.961 116.267 257.012 116.086C257.115 115.729 257.349 115.514 257.532 115.326C257.724 115.134 257.887 114.971 257.969 114.739L258.164 114.752Z" fill="#1B1B43"/>
<path d="M257.692 118.804C258.348 120.896 261.158 119.834 261.376 117.867L257.692 118.804Z" fill="white"/>
<path d="M253.415 110C258.116 109.991 262.062 109.559 265.778 107.752C266.178 110.819 267.495 112.3 269.275 113.122L273.021 110L271.085 103.693L260.907 103.131L253.04 107.065L253.415 110Z" fill="#1B1B43"/>
<path d="M272.224 115.355C273.236 113.916 273.245 112.178 272.244 111.473C271.242 110.768 269.609 111.364 268.596 112.803C267.584 114.243 267.575 115.981 268.576 116.686C269.578 117.39 271.211 116.795 272.224 115.355Z" fill="#FFBC96"/>
<path d="M269.526 115.116C269.454 114.857 269.432 114.582 269.464 114.304C269.494 114.026 269.588 113.741 269.759 113.496C269.93 113.251 270.175 113.061 270.439 112.95C270.702 112.837 270.981 112.793 271.252 112.81L271.285 113.003C271.052 113.112 270.834 113.214 270.643 113.338C270.452 113.463 270.292 113.609 270.165 113.783C270.038 113.957 269.951 114.164 269.882 114.387C269.814 114.612 269.771 114.854 269.721 115.106L269.526 115.116Z" fill="#1B1B43"/>
<path d="M274.499 103.298C273.98 102.996 273.536 102.646 273.097 102.303L271.83 101.258C271.415 100.913 271.003 100.572 270.575 100.244C270.148 99.9105 269.707 99.6012 269.212 99.2601C269.812 99.1946 270.413 99.3375 270.964 99.5617C271.516 99.7918 272.02 100.115 272.47 100.491C272.92 100.867 273.318 101.295 273.663 101.761C274.002 102.232 274.301 102.731 274.499 103.298Z" fill="#FFA121"/>
<path d="M256.766 165.988H243.528V169.901H256.766V165.988Z" fill="#1B1B43"/>
<path d="M247.774 169.903H217.803L204.648 141.49H234.62L247.774 169.903Z" fill="#EBEBFF"/>
<path d="M236.68 168.632C235.977 168.76 235.558 169.336 235.524 170.021V166.923C235.524 166.299 235.079 165.73 234.459 165.66C233.748 165.579 233.149 166.115 233.116 166.801V165.552C233.116 164.921 232.661 164.345 232.033 164.282C231.31 164.21 230.701 164.775 230.701 165.483V166.801C230.668 166.115 230.068 165.579 229.358 165.66C228.737 165.73 228.292 166.299 228.292 166.923V169.381C228.259 168.754 227.78 167.974 227.127 167.913C225.784 167.788 226.08 170.148 226.08 170.148C226.471 172.534 227.176 172.797 228.607 172.9C230.839 173.059 233.099 173.053 235.386 172.898C236.825 172.8 237.051 172.645 237.679 170.505C237.891 169.585 237.711 168.444 236.68 168.632Z" fill="#FFBC96"/>
<path d="M228.324 167.693C228.424 168.197 228.46 168.703 228.479 169.209C228.487 169.462 228.488 169.716 228.478 169.97C228.469 170.223 228.45 170.477 228.408 170.732L228.261 170.736C228.205 170.484 228.173 170.231 228.149 169.979C228.125 169.726 228.112 169.473 228.106 169.219C228.097 168.713 228.106 168.206 228.178 167.697L228.324 167.693Z" fill="#D28572"/>
<path d="M230.775 166.798C230.875 167.334 230.913 167.871 230.932 168.408C230.941 168.677 230.942 168.946 230.933 169.215C230.924 169.484 230.906 169.754 230.864 170.024L230.717 170.028C230.661 169.761 230.628 169.492 230.604 169.224C230.58 168.956 230.566 168.687 230.56 168.418C230.55 167.881 230.557 167.342 230.628 166.802L230.775 166.798Z" fill="#D28572"/>
<path d="M233.189 166.797C233.297 167.303 233.341 167.812 233.367 168.322C233.379 168.577 233.384 168.832 233.378 169.088C233.373 169.343 233.358 169.599 233.32 169.856L233.173 169.862C233.113 169.61 233.077 169.356 233.049 169.102C233.022 168.847 233.005 168.593 232.995 168.338C232.978 167.828 232.979 167.317 233.043 166.803L233.189 166.797Z" fill="#D28572"/>
<path d="M236.316 168.786C236.204 168.93 236.125 169.105 236.049 169.285C235.975 169.466 235.904 169.652 235.834 169.839C235.764 170.027 235.694 170.215 235.617 170.403C235.54 170.59 235.458 170.778 235.357 170.961L235.216 170.922C235.223 170.711 235.256 170.506 235.303 170.303C235.349 170.101 235.411 169.902 235.486 169.706C235.563 169.512 235.65 169.319 235.766 169.137C235.881 168.958 236.019 168.772 236.233 168.665L236.316 168.786Z" fill="#D28572"/>
<path d="M298.537 104.696V118.414L292.21 122.909H298.537H322.075V104.696H298.537Z" fill="white"/>
<path d="M322.324 123.159H291.427L298.287 118.285V104.446H322.324V123.159ZM292.992 122.659H321.825V104.945H298.787V118.542L292.992 122.659Z" fill="#F49C9A"/>
<path d="M309.985 118.645L306.141 114.944L306.834 114.224L309.734 117.017L314.666 107.976L315.543 108.454L309.985 118.645Z" fill="#F49C9A"/>
<path d="M322.906 282.25H0V283H322.906V282.25Z" fill="#F49C9A"/>
</svg>
