<svg width="45" height="45" viewBox="0 0 45 45" fill="none" xmlns="http://www.w3.org/2000/svg">
<path d="M45 22.5C45 10.0736 34.9264 0 22.5 0C10.0736 0 0 10.0736 0 22.5C0 34.9264 10.0736 45 22.5 45C34.9264 45 45 34.9264 45 22.5Z" fill="url(#paint0_linear_161_29)"/>
<g clip-path="url(#clip0_161_29)">
<path d="M22 7C18.0231 7.00447 14.2104 8.58625 11.3983 11.3983C8.58625 14.2104 7.00447 18.0231 7 22C7.00447 25.9769 8.58625 29.7896 11.3983 32.6017C14.2104 35.4137 18.0231 36.9955 22 37C25.9769 36.9955 29.7896 35.4137 32.6017 32.6017C35.4137 29.7896 36.9955 25.9769 37 22C36.9955 18.0231 35.4137 14.2104 32.6017 11.3983C29.7896 8.58625 25.9769 7.00447 22 7ZM35.125 22C35.1248 25.1555 33.9818 28.2041 31.9075 30.5819L13.4181 12.0925C15.7959 10.0182 18.8445 8.87517 22 8.875C25.4797 8.87897 28.8158 10.2631 31.2764 12.7236C33.7369 15.1842 35.121 18.5203 35.125 22ZM8.875 22C8.87517 18.8445 10.0182 15.7959 12.0925 13.4181L30.5819 31.9075C28.2041 33.9818 25.1555 35.1248 22 35.125C18.5203 35.121 15.1842 33.7369 12.7236 31.2764C10.2631 28.8158 8.87897 25.4797 8.875 22Z" fill="white" stroke="white" stroke-width="4"/>
</g>
<defs>
<linearGradient id="paint0_linear_161_29" x1="22.5" y1="0" x2="22.5" y2="45" gradientUnits="userSpaceOnUse">
<stop stop-color="#E44642"/>
<stop offset="1" stop-color="#7E2725"/>
</linearGradient>
<clipPath id="clip0_161_29">
<rect width="30" height="30" fill="white" transform="translate(7 7)"/>
</clipPath>
</defs>
</svg>
