<svg width="45" height="46" viewBox="0 0 45 46" fill="none" xmlns="http://www.w3.org/2000/svg">
<path d="M45 23.4375C45 11.0111 34.9264 0.9375 22.5 0.9375C10.0736 0.9375 0 11.0111 0 23.4375C0 35.8639 10.0736 45.9375 22.5 45.9375C34.9264 45.9375 45 35.8639 45 23.4375Z" fill="url(#paint0_linear_161_26)"/>
<path fill-rule="evenodd" clip-rule="evenodd" d="M13.5726 14.3005C13.4501 14.3005 13.3502 14.2032 13.3502 14.0809C13.3502 13.9586 13.4501 13.8612 13.5726 13.8612H15.8414C15.9582 13.8612 16.0609 13.9586 16.0609 14.0809C16.0609 14.2032 15.9581 14.3005 15.8414 14.3005H13.5726ZM13.5726 15.2514C13.4501 15.2514 13.3502 15.1512 13.3502 15.0317C13.3502 14.9094 13.4501 14.8121 13.5726 14.8121H17.2482C17.3707 14.8121 17.4706 14.9094 17.4706 15.0317C17.4706 15.1513 17.3707 15.2514 17.2482 15.2514H13.5726ZM13.5726 16.2022C13.4501 16.2022 13.3502 16.1021 13.3502 15.9797C13.3502 15.8602 13.4501 15.7602 13.5726 15.7602H18.4769C18.5966 15.7602 18.694 15.8603 18.694 15.9797C18.694 16.1021 18.5965 16.2022 18.4769 16.2022H13.5726ZM13.5726 17.1503C13.4501 17.1503 13.3502 17.0529 13.3502 16.9307C13.3502 16.8083 13.4501 16.711 13.5726 16.711H15.8414C15.9582 16.711 16.0609 16.8084 16.0609 16.9307C16.0609 17.053 15.9581 17.1503 15.8414 17.1503H13.5726ZM35.3732 11.9289C35.1532 11.7119 34.8561 11.5785 34.5305 11.5785H11.8571C11.5319 11.5785 11.2314 11.7119 11.0148 11.9289C10.7977 12.1457 10.6645 12.4432 10.6645 12.7712V29.0945C10.6645 29.4225 10.7977 29.7229 11.0148 29.9369C11.2314 30.1538 11.5319 30.29 11.8571 30.29H34.5304C34.856 30.29 35.1532 30.1537 35.3703 29.9397C35.587 29.7229 35.7205 29.4226 35.7205 29.0946V12.7712C35.7205 12.4432 35.587 12.1457 35.3732 11.9289ZM34.2694 25.8999V13.0159H12.0602V25.8999H34.2694ZM34.7114 12.7963V26.1196C34.7114 26.2419 34.6139 26.342 34.4919 26.342H11.8402C11.7182 26.342 11.6207 26.2419 11.6207 26.1196V12.7963C11.6207 12.6739 11.7182 12.5766 11.8402 12.5766H34.4919C34.6139 12.5766 34.7114 12.674 34.7114 12.7963ZM23.415 28.8137C23.3565 28.7581 23.2785 28.7248 23.1925 28.7248C23.1062 28.7248 23.0256 28.7581 22.9701 28.8137C22.9142 28.8721 22.8809 28.9499 22.8809 29.0362C22.8809 29.1224 22.9142 29.2002 22.9701 29.2559C23.0256 29.3142 23.1062 29.3476 23.1925 29.3476C23.2785 29.3476 23.3565 29.3142 23.415 29.2559C23.4704 29.2002 23.5037 29.1224 23.5037 29.0362C23.5037 28.9499 23.4704 28.8721 23.415 28.8137ZM23.1925 28.2826C23.3981 28.2826 23.59 28.3688 23.7261 28.5051C23.8598 28.6386 23.9461 28.8276 23.9461 29.0362C23.9461 29.2447 23.8598 29.4309 23.7261 29.5672C23.59 29.7034 23.3981 29.7896 23.1925 29.7896C22.9866 29.7896 22.7975 29.7034 22.6614 29.5672C22.5253 29.4309 22.4419 29.2447 22.4419 29.0362C22.4419 28.8276 22.5253 28.6386 22.6585 28.5051C22.7975 28.3688 22.9842 28.2826 23.1925 28.2826ZM18.349 20.2225H17.1367V22.8471H18.349V20.2225ZM16.9202 19.7804H18.569C18.6882 19.7804 18.7886 19.8806 18.7886 20.0001V23.0668C18.7886 23.1863 18.6883 23.2864 18.569 23.2864H16.9202C16.7977 23.2864 16.6977 23.1863 16.6977 23.0668V20.0001C16.6977 19.8806 16.7976 19.7804 16.9202 19.7804ZM21.0598 17.1559H19.8504V22.8471H21.0598V17.1559ZM19.6279 16.7165H21.2797C21.4018 16.7165 21.4992 16.8139 21.4992 16.9362V23.0668C21.4992 23.1863 21.4018 23.2864 21.2797 23.2864H19.6279C19.5059 23.2864 19.4084 23.1863 19.4084 23.0668V16.9362C19.4084 16.8139 19.5059 16.7165 19.6279 16.7165ZM23.7709 18.749H22.5615V22.8471H23.7709V18.749ZM22.3416 18.3069H23.9934C24.1126 18.3069 24.21 18.4042 24.21 18.5266V23.0669C24.21 23.1864 24.1126 23.2865 23.9934 23.2865H22.3416C22.2195 23.2865 22.1192 23.1864 22.1192 23.0669V18.5266C22.1192 18.4042 22.2195 18.3069 22.3416 18.3069ZM26.4817 19.8694H25.2722V22.8471H26.4817V19.8694ZM25.0499 19.4274H26.7012C26.8237 19.4274 26.9237 19.5275 26.9237 19.647V23.0668C26.9237 23.1863 26.8237 23.2864 26.7012 23.2864H25.0499C24.9302 23.2864 24.8328 23.1863 24.8328 23.0668V19.647C24.8328 19.5274 24.9302 19.4274 25.0499 19.4274ZM29.1924 17.8342H27.983V22.8471H29.1924V17.8342ZM27.7635 17.3949H29.4149C29.5374 17.3949 29.6344 17.4951 29.6344 17.6146V23.0668C29.6344 23.1863 29.5374 23.2864 29.4149 23.2864H27.7635C27.641 23.2864 27.5435 23.1863 27.5435 23.0668V17.6146C27.5435 17.495 27.641 17.3949 27.7635 17.3949ZM16.7643 36.2316H15.2214V35.1139C15.2214 34.9916 15.3184 34.8914 15.4409 34.8914H19.3669L20.462 30.7292H25.9254L27.0209 34.8914H30.944C31.0637 34.8914 31.1635 34.9916 31.1635 35.1139V36.2316H29.6204V35.3336H16.7643V36.2316ZM9.21873 18.5599C9.21873 18.6822 9.11842 18.7796 8.9988 18.7796C8.87667 18.7796 8.7793 18.6822 8.7793 18.5599V11.5646C8.7793 11.0725 8.97948 10.6221 9.30461 10.2968C9.63023 9.97149 10.0804 9.76855 10.57 9.76855H14.59C14.7125 9.76855 14.8125 9.86868 14.8125 9.99099C14.8125 10.1106 14.7125 10.2106 14.59 10.2106H10.57C10.2 10.2106 9.86086 10.3636 9.61623 10.6082C9.37167 10.8529 9.21873 11.1921 9.21873 11.5646V18.5599ZM15.1072 24.2874C14.9875 24.2874 14.8877 24.1901 14.8877 24.0705C14.8877 23.9481 14.9875 23.8481 15.1072 23.8481H31.2219C31.3445 23.8481 31.4444 23.9481 31.4444 24.0705C31.4444 24.1901 31.3445 24.2874 31.2219 24.2874H15.1072Z" fill="white" stroke="white" stroke-width="0.125"/>
<defs>
<linearGradient id="paint0_linear_161_26" x1="22.5" y1="0.9375" x2="22.5" y2="45.9375" gradientUnits="userSpaceOnUse">
<stop stop-color="#E44642"/>
<stop offset="1" stop-color="#7E2725"/>
</linearGradient>
</defs>
</svg>
