<svg width="45" height="45" viewBox="0 0 45 45" fill="none" xmlns="http://www.w3.org/2000/svg">
<path d="M45 22.5C45 10.0736 34.9264 0 22.5 0C10.0736 0 0 10.0736 0 22.5C0 34.9264 10.0736 45 22.5 45C34.9264 45 45 34.9264 45 22.5Z" fill="url(#paint0_linear_161_27)"/>
<path fill-rule="evenodd" clip-rule="evenodd" d="M18.6209 12.9091V13.5668C15.2586 14.9456 12.9096 19.4742 12.9948 23.399L12.9948 25.5789C11.2736 27.7916 11.3748 31.0909 15.669 31.0909H18.6209C18.6209 31.995 18.9732 32.8621 19.6004 33.5015C20.2276 34.1409 21.0782 34.5 21.9652 34.5C22.8522 34.5 23.7028 34.1409 24.3299 33.5015C24.9571 32.8621 25.3094 31.995 25.3094 31.0909H28.2694C32.5554 31.0909 32.6176 27.7848 30.8966 25.572L30.9444 23.402C31.0311 19.4726 28.6774 14.9399 25.3094 13.5631V12.9091C25.3094 12.0049 24.9571 11.1378 24.3299 10.4985C23.7028 9.85918 22.8522 9.5 21.9652 9.5C21.0782 9.5 20.2276 9.85918 19.6004 10.4985C18.9732 11.1378 18.6209 12.0049 18.6209 12.9091ZM23.0799 12.9091C23.0799 12.9091 23.0792 12.9552 23.0778 12.9781C22.7148 12.9325 22.3449 12.9091 21.9697 12.9091C21.5913 12.9091 21.2184 12.9329 20.8526 12.9792C20.8511 12.9559 20.8504 12.9325 20.8504 12.9091C20.8504 12.6077 20.9678 12.3187 21.1769 12.1056C21.3859 11.8924 21.6696 11.7727 21.9652 11.7727C22.2608 11.7727 22.5443 11.8924 22.7534 12.1056C22.9624 12.3187 23.0799 12.6077 23.0799 12.9091ZM20.8504 31.0909C20.8504 31.3923 20.9678 31.6814 21.1769 31.8945C21.3859 32.1075 21.6696 32.2273 21.9652 32.2273C22.2608 32.2273 22.5443 32.1075 22.7534 31.8945C22.9624 31.6814 23.0799 31.3923 23.0799 31.0909H20.8504ZM28.2694 28.8181C29.2218 28.8181 29.7356 27.6794 29.1158 26.9423C28.8146 26.5841 28.6542 26.1285 28.6646 25.6608L28.7154 23.351C28.8006 19.4927 25.7556 15.1818 21.9697 15.1818C18.1846 15.1818 15.14 19.4913 15.2238 23.3486L15.274 25.6611C15.2842 26.1288 15.1237 26.5843 14.8226 26.9423C14.2028 27.6794 14.7166 28.8181 15.669 28.8181H28.2694ZM28.2249 11.0025C28.6182 10.4352 29.3971 10.294 29.9644 10.6873C31.3991 11.6818 33.1196 14.0669 34.0589 16.8908C34.2768 17.5458 33.9224 18.2535 33.2674 18.4714C32.6123 18.6893 31.9047 18.3349 31.6867 17.6799C30.8616 15.1994 29.4027 13.3399 28.5402 12.742C27.9728 12.3487 27.8317 11.5699 28.2249 11.0025ZM13.7879 10.6873C14.3553 10.294 15.1341 10.4352 15.5274 11.0025C15.9207 11.5699 15.7796 12.3487 15.2122 12.742C14.3497 13.3399 12.8908 15.1994 12.0656 17.6799C11.8477 18.3349 11.14 18.6893 10.4849 18.4714C9.82986 18.2535 9.47548 17.5458 9.6934 16.8908C10.6328 14.0669 12.3533 11.6818 13.7879 10.6873Z" fill="white" stroke="white" stroke-width="2.66667"/>
<defs>
<linearGradient id="paint0_linear_161_27" x1="22.5" y1="0" x2="22.5" y2="45" gradientUnits="userSpaceOnUse">
<stop stop-color="#E44642"/>
<stop offset="1" stop-color="#7E2725"/>
</linearGradient>
</defs>
</svg>
