<svg width="45" height="45" viewBox="0 0 45 45" fill="none" xmlns="http://www.w3.org/2000/svg">
<path d="M45 22.5C45 10.0736 34.9264 0 22.5 0C10.0736 0 0 10.0736 0 22.5C0 34.9264 10.0736 45 22.5 45C34.9264 45 45 34.9264 45 22.5Z" fill="url(#paint0_linear_161_30)"/>
<g clip-path="url(#clip0_161_30)">
<path d="M11.974 21.7634C11.992 21.7634 12.0066 21.7488 12.0066 21.7308C12.0066 21.7128 11.992 21.6982 11.974 21.6982C11.956 21.6982 11.9414 21.7128 11.9414 21.7308C11.9414 21.7488 11.956 21.7634 11.974 21.7634Z" fill="white" stroke="white" stroke-width="0.131959"/>
<path d="M12.9345 21.7309C12.9345 21.2013 12.5037 20.7705 11.974 20.7705C11.4444 20.7705 11.0137 21.2013 11.0137 21.7309C11.0137 22.2605 11.4445 22.6913 11.974 22.6913C12.5036 22.6913 12.9345 22.2605 12.9345 21.7309Z" fill="white" stroke="white" stroke-width="0.131959"/>
<path d="M22.7819 12.3452C22.7999 12.3452 22.8145 12.3306 22.8145 12.3126C22.8145 12.2946 22.7999 12.28 22.7819 12.28C22.7639 12.28 22.7493 12.2946 22.7493 12.3126C22.7493 12.3306 22.7639 12.3452 22.7819 12.3452Z" fill="white" stroke="white" stroke-width="0.131959"/>
<path d="M22.7819 13.2731C23.3115 13.2731 23.7423 12.8423 23.7423 12.3127C23.7423 11.7831 23.3115 11.3523 22.7819 11.3523C22.2524 11.3523 21.8215 11.7831 21.8215 12.3127C21.8215 12.8422 22.2524 13.2731 22.7819 13.2731Z" fill="white" stroke="white" stroke-width="0.131959"/>
<path d="M32.026 28.7061C32.044 28.7061 32.0586 28.6915 32.0586 28.6735C32.0586 28.6555 32.044 28.6409 32.026 28.6409C32.008 28.6409 31.9934 28.6555 31.9934 28.6735C31.9934 28.6915 32.008 28.7061 32.026 28.7061Z" fill="white" stroke="white" stroke-width="0.131959"/>
<path d="M32.026 27.7129C31.4965 27.7129 31.0657 28.1437 31.0657 28.6733C31.0657 29.2029 31.4965 29.6337 32.026 29.6337C32.5557 29.6337 32.9865 29.2029 32.9865 28.6733C32.9865 28.1438 32.5556 27.7129 32.026 27.7129Z" fill="white" stroke="white" stroke-width="0.131959"/>
<path d="M34.4108 24.3097C34.4528 23.9046 34.4741 23.4958 34.4741 23.0879C34.4741 20.6985 33.7596 18.3993 32.4079 16.4391C31.2231 14.721 29.6233 13.3637 27.7523 12.4814C27.7542 12.4252 27.7559 12.369 27.7559 12.3127C27.7559 9.57 25.5245 7.33862 22.7818 7.33862C20.0391 7.33862 17.8077 9.56994 17.8077 12.3127C17.8077 12.3591 17.8094 12.4053 17.8107 12.4516C15.7695 13.401 14.0363 14.9259 12.8314 16.8323C12.5527 16.7836 12.2665 16.7568 11.974 16.7568C9.23132 16.7568 7 18.9881 7 21.7308C7 22.8442 7.38047 23.9385 8.07295 24.814L11.9741 29.7187L12.5895 28.9449C14.6661 32.5488 18.5197 34.8126 22.7493 34.8126C25.0222 34.8126 27.1933 34.1737 29.0805 32.9579L32.026 36.6612L35.9287 31.7544C36.6196 30.8808 37.0001 29.7866 37.0001 28.6733C37 26.7943 35.9524 25.1557 34.4108 24.3097ZM22.7818 9.19436C24.5013 9.19436 25.9002 10.5932 25.9002 12.3127C25.9002 13.0202 25.6681 13.6876 25.2306 14.2407L22.7818 17.3195L20.3346 14.2427C19.8955 13.6876 19.6634 13.0201 19.6634 12.3127C19.6634 10.5932 21.0623 9.19436 22.7818 9.19436ZM8.85567 21.7308C8.85567 20.0114 10.2545 18.6124 11.9741 18.6124C13.6936 18.6124 15.0925 20.0113 15.0925 21.7308C15.0925 22.4383 14.8604 23.1056 14.4229 23.6588L11.9741 26.7376L9.52687 23.6608C9.08775 23.1057 8.85567 22.4383 8.85567 21.7308ZM13.8504 27.3597L15.8768 24.812C16.5676 23.9384 16.9481 22.8442 16.9481 21.7308C16.9481 19.9538 16.0108 18.3924 14.6052 17.5125C15.5308 16.1632 16.7788 15.0614 18.2299 14.3124C18.3993 14.6978 18.6172 15.0627 18.8807 15.3958L22.7818 20.3005L26.6845 15.3938C26.9413 15.0691 27.155 14.7138 27.3224 14.3385C30.5696 16.0292 32.6184 19.364 32.6184 23.0878C32.6184 23.303 32.6112 23.5184 32.5973 23.7331C32.4097 23.7115 32.2193 23.6993 32.026 23.6993C29.2833 23.6993 27.0519 25.9306 27.0519 28.6733C27.0519 29.6766 27.3618 30.6638 27.9296 31.49C26.3766 32.4521 24.6033 32.957 22.7493 32.957C18.938 32.957 15.4897 30.7733 13.8504 27.3597ZM34.4747 30.6014L32.0259 33.6802L29.5787 30.6033C29.1397 30.0482 28.9076 29.3808 28.9076 28.6734C28.9076 26.9539 30.3065 25.555 32.026 25.555C33.7455 25.555 35.1443 26.9539 35.1443 28.6734C35.1443 29.3808 34.9122 30.0482 34.4747 30.6014Z" fill="white" stroke="white" stroke-width="0.131959"/>
</g>
<defs>
<linearGradient id="paint0_linear_161_30" x1="22.5" y1="0" x2="22.5" y2="45" gradientUnits="userSpaceOnUse">
<stop stop-color="#E44642"/>
<stop offset="1" stop-color="#7E2725"/>
</linearGradient>
<clipPath id="clip0_161_30">
<rect width="30" height="30" fill="white" transform="translate(7 7)"/>
</clipPath>
</defs>
</svg>
