<svg width="45" height="45" viewBox="0 0 45 45" fill="none" xmlns="http://www.w3.org/2000/svg">
<path d="M45 22.5C45 10.0736 34.9264 0 22.5 0C10.0736 0 0 10.0736 0 22.5C0 34.9264 10.0736 45 22.5 45C34.9264 45 45 34.9264 45 22.5Z" fill="url(#paint0_linear_161_28)"/>
<path fill-rule="evenodd" clip-rule="evenodd" d="M29.2812 22.875H15.7188C15.183 22.875 14.75 23.351 14.75 23.9375C14.75 24.5251 15.183 25 15.7188 25H29.2812C29.817 25 30.25 24.5251 30.25 23.9375C30.25 23.351 29.817 22.875 29.2812 22.875ZM34.125 37.75C34.125 38.923 33.257 39.875 32.1875 39.875H12.8125C11.743 39.875 10.875 38.923 10.875 37.75V16.5C10.875 15.327 11.743 14.375 12.8125 14.375H15.7188V18.625H29.2812V14.375H32.1875C33.257 14.375 34.125 15.327 34.125 16.5V37.75ZM17.6562 12.25H19.8098C19.8098 11.077 21.0139 10.125 22.5 10.125C23.9861 10.125 25.1902 11.077 25.1902 12.25H27.3438V16.5H17.6562V12.25ZM32.1875 12.25H29.2812V10.125H26.6724C25.8325 8.86062 24.2883 8 22.5 8C20.7117 8 19.1675 8.86062 18.3276 10.125H15.7188V12.25H12.8125C10.6725 12.25 8.9375 14.1529 8.9375 16.5V37.75C8.9375 40.0971 10.6725 42 12.8125 42H32.1875C34.3275 42 36.0625 40.0971 36.0625 37.75V16.5C36.0625 14.1529 34.3275 12.25 32.1875 12.25ZM29.2812 33.5H15.7188C15.183 33.5 14.75 33.976 14.75 34.5625C14.75 35.1501 15.183 35.625 15.7188 35.625H29.2812C29.817 35.625 30.25 35.1501 30.25 34.5625C30.25 33.976 29.817 33.5 29.2812 33.5ZM29.2812 28.1875H15.7188C15.183 28.1875 14.75 28.6635 14.75 29.25C14.75 29.8376 15.183 30.3125 15.7188 30.3125H29.2812C29.817 30.3125 30.25 29.8376 30.25 29.25C30.25 28.6635 29.817 28.1875 29.2812 28.1875Z" fill="white"/>
<defs>
<linearGradient id="paint0_linear_161_28" x1="22.5" y1="0" x2="22.5" y2="45" gradientUnits="userSpaceOnUse">
<stop stop-color="#E44642"/>
<stop offset="1" stop-color="#7E2725"/>
</linearGradient>
</defs>
</svg>
